<svg width="140" height="60" viewBox="0 0 140 60" fill="none" xmlns="http://www.w3.org/2000/svg">
<mask id="path-1-inside-1_276_93" fill="white">
<path fill-rule="evenodd" clip-rule="evenodd" d="M139 0C139.552 0 140 0.447714 140 0.999999V34.2857L136.575 37.7143V48L140 51.4286V59C140 59.5523 139.552 60 139 60H122.875V31.7143H128.725C129.277 31.7143 129.725 31.2666 129.725 30.7143V29.2857C129.725 28.7334 129.277 28.2857 128.725 28.2857H122.875V0H139ZM120.306 0H61.6515V10.2857H59.939V0H1C0.447723 0 0 0.447715 0 1V47.2388L12.7482 60H120.306V0ZM56.3361 10.0031H55.6321C55.2428 10.0031 54.9388 9.89373 54.7201 9.67506C54.4961 9.45639 54.3841 9.15239 54.3841 8.76306V7.16306C54.3841 6.76839 54.4961 6.46439 54.7201 6.25106C54.9388 6.03239 55.2428 5.92306 55.6321 5.92306H56.3361C56.7308 5.92306 57.0375 6.03239 57.2561 6.25106C57.4695 6.46439 57.5761 6.76839 57.5761 7.16306V8.76306C57.5761 9.15239 57.4695 9.45639 57.2561 9.67506C57.0375 9.89373 56.7308 10.0031 56.3361 10.0031ZM55.7361 9.32306H56.2241C56.4268 9.32306 56.5735 9.27773 56.6641 9.18706C56.7548 9.09106 56.8001 8.94173 56.8001 8.73906V7.18706C56.8001 6.98439 56.7548 6.83773 56.6641 6.74706C56.5735 6.65106 56.4268 6.60306 56.2241 6.60306H55.7361C55.3521 6.60306 55.1601 6.79773 55.1601 7.18706V8.73906C55.1601 9.12839 55.3521 9.32306 55.7361 9.32306ZM50.9849 9.87506V9.45906C50.9849 9.36839 51.0329 9.32306 51.1289 9.32306H52.1929C52.5769 9.32306 52.7689 9.12573 52.7689 8.73106V7.19506C52.7689 6.80039 52.5769 6.60306 52.1929 6.60306H51.1289C51.0329 6.60306 50.9849 6.56039 50.9849 6.47506V6.05906C50.9849 5.96839 51.0329 5.92306 51.1289 5.92306H52.3049C52.6996 5.92306 53.0062 6.03239 53.2249 6.25106C53.4382 6.46439 53.5449 6.76839 53.5449 7.16306V8.76306C53.5449 9.15239 53.4382 9.45639 53.2249 9.67506C53.0062 9.89373 52.6996 10.0031 52.3049 10.0031H51.1289C51.0329 10.0031 50.9849 9.96039 50.9849 9.87506Z"/>
</mask>
<path fill-rule="evenodd" clip-rule="evenodd" d="M139 0C139.552 0 140 0.447714 140 0.999999V34.2857L136.575 37.7143V48L140 51.4286V59C140 59.5523 139.552 60 139 60H122.875V31.7143H128.725C129.277 31.7143 129.725 31.2666 129.725 30.7143V29.2857C129.725 28.7334 129.277 28.2857 128.725 28.2857H122.875V0H139ZM120.306 0H61.6515V10.2857H59.939V0H1C0.447723 0 0 0.447715 0 1V47.2388L12.7482 60H120.306V0ZM56.3361 10.0031H55.6321C55.2428 10.0031 54.9388 9.89373 54.7201 9.67506C54.4961 9.45639 54.3841 9.15239 54.3841 8.76306V7.16306C54.3841 6.76839 54.4961 6.46439 54.7201 6.25106C54.9388 6.03239 55.2428 5.92306 55.6321 5.92306H56.3361C56.7308 5.92306 57.0375 6.03239 57.2561 6.25106C57.4695 6.46439 57.5761 6.76839 57.5761 7.16306V8.76306C57.5761 9.15239 57.4695 9.45639 57.2561 9.67506C57.0375 9.89373 56.7308 10.0031 56.3361 10.0031ZM55.7361 9.32306H56.2241C56.4268 9.32306 56.5735 9.27773 56.6641 9.18706C56.7548 9.09106 56.8001 8.94173 56.8001 8.73906V7.18706C56.8001 6.98439 56.7548 6.83773 56.6641 6.74706C56.5735 6.65106 56.4268 6.60306 56.2241 6.60306H55.7361C55.3521 6.60306 55.1601 6.79773 55.1601 7.18706V8.73906C55.1601 9.12839 55.3521 9.32306 55.7361 9.32306ZM50.9849 9.87506V9.45906C50.9849 9.36839 51.0329 9.32306 51.1289 9.32306H52.1929C52.5769 9.32306 52.7689 9.12573 52.7689 8.73106V7.19506C52.7689 6.80039 52.5769 6.60306 52.1929 6.60306H51.1289C51.0329 6.60306 50.9849 6.56039 50.9849 6.47506V6.05906C50.9849 5.96839 51.0329 5.92306 51.1289 5.92306H52.3049C52.6996 5.92306 53.0062 6.03239 53.2249 6.25106C53.4382 6.46439 53.5449 6.76839 53.5449 7.16306V8.76306C53.5449 9.15239 53.4382 9.45639 53.2249 9.67506C53.0062 9.89373 52.6996 10.0031 52.3049 10.0031H51.1289C51.0329 10.0031 50.9849 9.96039 50.9849 9.87506Z" fill="#D84048"/>
<path d="M140 34.2857H141V34.6996L140.707 34.9925L140 34.2857ZM136.575 37.7143H135.575V37.3004L135.867 37.0075L136.575 37.7143ZM136.575 48L135.867 48.7067L135.575 48.4139V48H136.575ZM140 51.4286L140.707 50.7218L141 51.0147V51.4286H140ZM122.875 60V61H121.875V60H122.875ZM122.875 31.7143H121.875V30.7143H122.875V31.7143ZM122.875 28.2857V29.2857H121.875V28.2857H122.875ZM122.875 0H121.875V-1H122.875V0ZM61.6515 0H60.6515V-1H61.6515V0ZM120.306 0V-1H121.306V0H120.306ZM61.6515 10.2857H62.6515V11.2857H61.6515V10.2857ZM59.939 10.2857V11.2857H58.939V10.2857H59.939ZM59.939 0V-1H60.939V0H59.939ZM0 47.2388L-0.707467 47.9455L-1 47.6527V47.2388H0ZM12.7482 60V61H12.3337L12.0408 60.7067L12.7482 60ZM120.306 60H121.306V61H120.306V60ZM54.7201 9.67506L55.4187 8.95944L55.4273 8.96795L54.7201 9.67506ZM54.7201 6.25106L55.4273 6.95817L55.4186 6.96679L55.4098 6.9752L54.7201 6.25106ZM57.2561 6.25106L56.549 6.95817L56.549 6.95817L57.2561 6.25106ZM57.2561 9.67506L57.972 10.3734L57.9633 10.3822L57.2561 9.67506ZM56.6641 9.18706L57.3912 9.87369L57.3814 9.88407L57.3712 9.89417L56.6641 9.18706ZM56.6641 6.74706L55.957 7.45417L55.9469 7.44407L55.9371 7.43369L56.6641 6.74706ZM53.2249 6.25106L52.5178 6.95817L52.5178 6.95817L53.2249 6.25106ZM53.2249 9.67506L53.9407 10.3734L53.932 10.3822L53.2249 9.67506ZM139 0.999999V1V-1C140.105 -1 141 -0.104572 141 0.999999H139ZM139 34.2857V0.999999H141V34.2857H139ZM135.867 37.0075L139.293 33.579L140.707 34.9925L137.282 38.421L135.867 37.0075ZM135.575 48V37.7143H137.575V48H135.575ZM139.293 52.1353L135.867 48.7067L137.282 47.2933L140.707 50.7218L139.293 52.1353ZM139 59V51.4286H141V59H139ZM139 59H139H141C141 60.1046 140.105 61 139 61V59ZM122.875 59H139V61H122.875V59ZM123.875 31.7143V60H121.875V31.7143H123.875ZM128.725 32.7143H122.875V30.7143H128.725V32.7143ZM130.725 30.7143C130.725 31.8189 129.829 32.7143 128.725 32.7143V30.7143H128.725H130.725ZM130.725 29.2857V30.7143H128.725V29.2857H130.725ZM128.725 27.2857C129.829 27.2857 130.725 28.1811 130.725 29.2857H128.725V27.2857ZM122.875 27.2857H128.725V29.2857H122.875V27.2857ZM123.875 0V28.2857H121.875V0H123.875ZM139 1H122.875V-1H139V1ZM61.6515 -1H120.306V1H61.6515V-1ZM60.6515 10.2857V0H62.6515V10.2857H60.6515ZM59.939 9.28571H61.6515V11.2857H59.939V9.28571ZM60.939 0V10.2857H58.939V0H60.939ZM1 -1H59.939V1H1V-1ZM-1 1C-1 -0.104575 -0.104556 -1 1 -1V1V1H-1ZM-1 47.2388V1H1V47.2388H-1ZM12.0408 60.7067L-0.707467 47.9455L0.707467 46.532L13.4557 59.2933L12.0408 60.7067ZM120.306 61H12.7482V59H120.306V61ZM121.306 0V60H119.306V0H121.306ZM55.6321 9.00306H56.3361V11.0031H55.6321V9.00306ZM55.4273 8.96795C55.4277 8.96845 55.4308 8.97297 55.4506 8.98007C55.4743 8.98861 55.5299 9.00306 55.6321 9.00306V11.0031C55.05 11.0031 54.4649 10.834 54.013 10.3822L55.4273 8.96795ZM55.3841 8.76306C55.3841 8.8629 55.3986 8.91587 55.4065 8.93736C55.4129 8.95479 55.4169 8.95775 55.4187 8.95949L54.0216 10.3906C53.5601 9.94009 53.3841 9.35205 53.3841 8.76306H55.3841ZM55.3841 7.16306V8.76306H53.3841V7.16306H55.3841ZM55.4098 6.9752C55.4097 6.97525 55.4101 6.9749 55.4107 6.97421C55.4113 6.97352 55.4116 6.97297 55.4118 6.97274C55.4123 6.97194 55.4101 6.97509 55.4065 6.98476C55.3991 7.00487 55.3841 7.05877 55.3841 7.16306H53.3841C53.3841 6.57453 53.5571 5.97776 54.0305 5.52692L55.4098 6.9752ZM55.6321 6.92306C55.5299 6.92306 55.4743 6.93751 55.4506 6.94605C55.4308 6.95315 55.4277 6.95767 55.4273 6.95817L54.013 5.54396C54.4649 5.09212 55.05 4.92306 55.6321 4.92306V6.92306ZM56.3361 6.92306H55.6321V4.92306H56.3361V6.92306ZM56.549 6.95817C56.5481 6.9572 56.5475 6.95669 56.546 6.9558C56.5445 6.95481 56.5387 6.95139 56.5263 6.94699C56.5009 6.93793 56.4426 6.92306 56.3361 6.92306V4.92306C56.9192 4.92306 57.5089 5.08962 57.9633 5.54396L56.549 6.95817ZM56.5761 7.16306C56.5761 7.054 56.5612 6.99488 56.5525 6.97015C56.5454 6.94983 56.5426 6.9517 56.549 6.95817L57.9633 5.54395C58.4167 5.99741 58.5761 6.58818 58.5761 7.16306H56.5761ZM56.5761 8.76306V7.16306H58.5761V8.76306H56.5761ZM56.5404 8.97674C56.5414 8.97566 56.5421 8.97478 56.5433 8.97291C56.5445 8.97088 56.5481 8.96467 56.5525 8.95197C56.5617 8.92592 56.5761 8.86775 56.5761 8.76306H58.5761C58.5761 9.33847 58.4138 9.92045 57.9719 10.3734L56.5404 8.97674ZM56.3361 9.00306C56.4426 9.00306 56.5009 8.98819 56.5263 8.97913C56.5387 8.97473 56.5445 8.97131 56.546 8.97032C56.5475 8.96943 56.5481 8.96892 56.549 8.96795L57.9633 10.3822C57.5089 10.8365 56.9192 11.0031 56.3361 11.0031V9.00306ZM56.2241 10.3231H55.7361V8.32306H56.2241V10.3231ZM57.3712 9.89417C57.009 10.2564 56.5431 10.3231 56.2241 10.3231V8.32306C56.2554 8.32306 56.2381 8.31904 56.1908 8.33366C56.1392 8.34961 56.0474 8.38963 55.957 8.47995L57.3712 9.89417ZM57.8001 8.73906C57.8001 9.0645 57.7308 9.51404 57.3912 9.87369L55.9371 8.50044C55.8586 8.58363 55.8234 8.66596 55.8093 8.71258C55.7963 8.75534 55.8001 8.76965 55.8001 8.73906H57.8001ZM57.8001 7.18706V8.73906H55.8001V7.18706H57.8001ZM57.3712 6.03995C57.7335 6.40221 57.8001 6.86812 57.8001 7.18706H55.8001C55.8001 7.15581 55.7961 7.17306 55.8107 7.22037C55.8267 7.27197 55.8667 7.36385 55.957 7.45417L57.3712 6.03995ZM56.2241 5.60306C56.5566 5.60306 57.0308 5.67888 57.3912 6.06043L55.9371 7.43369C56.0242 7.52591 56.1168 7.57038 56.1751 7.58946C56.228 7.60677 56.251 7.60306 56.2241 7.60306V5.60306ZM55.7361 5.60306H56.2241V7.60306H55.7361V5.60306ZM54.1601 7.18706C54.1601 6.8417 54.2455 6.39832 54.5922 6.04685C54.9413 5.69284 55.3865 5.60306 55.7361 5.60306V7.60306C55.7018 7.60306 55.859 7.61062 56.0161 7.45127C56.1708 7.29447 56.1601 7.14309 56.1601 7.18706H54.1601ZM54.1601 8.73906V7.18706H56.1601V8.73906H54.1601ZM55.7361 10.3231C55.3865 10.3231 54.9413 10.2333 54.5922 9.87927C54.2455 9.5278 54.1601 9.08442 54.1601 8.73906H56.1601C56.1601 8.78303 56.1708 8.63165 56.0161 8.47485C55.859 8.31551 55.7018 8.32306 55.7361 8.32306V10.3231ZM51.9849 9.45906V9.87506H49.9849V9.45906H51.9849ZM51.1289 10.3231C51.2212 10.3231 51.4764 10.3023 51.7075 10.0841C51.9493 9.85572 51.9849 9.58297 51.9849 9.45906H49.9849C49.9849 9.24449 50.0445 8.90373 50.3343 8.63003C50.6134 8.36647 50.9405 8.32306 51.1289 8.32306V10.3231ZM52.1929 10.3231H51.1289V8.32306H52.1929V10.3231ZM53.7689 8.73106C53.7689 9.07577 53.6852 9.51925 53.3416 9.87242C52.993 10.2307 52.5461 10.3231 52.1929 10.3231V8.32306C52.2237 8.32306 52.0647 8.31678 51.9082 8.4777C51.7565 8.63354 51.7689 8.78102 51.7689 8.73106H53.7689ZM53.7689 7.19506V8.73106H51.7689V7.19506H53.7689ZM52.1929 5.60306C52.5461 5.60306 52.993 5.69545 53.3416 6.0537C53.6852 6.40687 53.7689 6.85035 53.7689 7.19506H51.7689C51.7689 7.14511 51.7565 7.29258 51.9082 7.44842C52.0647 7.60934 52.2237 7.60306 52.1929 7.60306V5.60306ZM51.1289 5.60306H52.1929V7.60306H51.1289V5.60306ZM51.9849 6.47506C51.9849 6.33105 51.939 6.04916 51.6852 5.82364C51.454 5.61807 51.2079 5.60306 51.1289 5.60306V7.60306C50.9539 7.60306 50.6358 7.56672 50.3566 7.31849C50.0548 7.05029 49.9849 6.7044 49.9849 6.47506H51.9849ZM51.9849 6.05906V6.47506H49.9849V6.05906H51.9849ZM51.1289 6.92306C51.2212 6.92306 51.4764 6.90232 51.7075 6.68409C51.9493 6.45572 51.9849 6.18296 51.9849 6.05906H49.9849C49.9849 5.84449 50.0445 5.50373 50.3343 5.23003C50.6134 4.96647 50.9405 4.92306 51.1289 4.92306V6.92306ZM52.3049 6.92306H51.1289V4.92306H52.3049V6.92306ZM52.5178 6.95817C52.5168 6.95719 52.5162 6.95669 52.5148 6.9558C52.5132 6.95481 52.5074 6.95139 52.4951 6.94699C52.4697 6.93793 52.4113 6.92306 52.3049 6.92306V4.92306C52.8879 4.92306 53.4777 5.08963 53.932 5.54396L52.5178 6.95817ZM52.5449 7.16306C52.5449 7.054 52.53 6.99488 52.5213 6.97015C52.5142 6.94983 52.5113 6.9517 52.5178 6.95817L53.932 5.54395C54.3855 5.99741 54.5449 6.58818 54.5449 7.16306H52.5449ZM52.5449 8.76306V7.16306H54.5449V8.76306H52.5449ZM52.5091 8.97674C52.5102 8.97566 52.5109 8.97478 52.512 8.97291C52.5133 8.97088 52.5168 8.96467 52.5213 8.95197C52.5304 8.92592 52.5449 8.86775 52.5449 8.76306H54.5449C54.5449 9.33847 54.3826 9.92045 53.9407 10.3734L52.5091 8.97674ZM52.3049 9.00306C52.4113 9.00306 52.4697 8.9882 52.4951 8.97913C52.5074 8.97473 52.5132 8.97131 52.5148 8.97032C52.5162 8.96943 52.5168 8.96893 52.5178 8.96795L53.932 10.3822C53.4777 10.8365 52.8879 11.0031 52.3049 11.0031V9.00306ZM51.1289 9.00306H52.3049V11.0031H51.1289V9.00306ZM51.9849 9.87506C51.9849 9.73105 51.939 9.44916 51.6852 9.22364C51.454 9.01807 51.2079 9.00306 51.1289 9.00306V11.0031C50.9539 11.0031 50.6358 10.9667 50.3565 10.7185C50.0548 10.4503 49.9849 10.1044 49.9849 9.87506H51.9849Z" fill="#D84048" mask="url(#path-1-inside-1_276_93)"/>
<path d="M34.1005 37.0204H32.5705C32.3185 37.0204 32.1925 36.8944 32.1925 36.6424V25.8244C32.1925 25.5724 32.3185 25.4464 32.5705 25.4464H36.8545C37.7905 25.4464 38.5225 25.7044 39.0505 26.2204C39.5785 26.7364 39.8425 27.4624 39.8425 28.3984V29.8024C39.8425 31.1584 39.3085 32.0584 38.2405 32.5024V32.5744L40.1665 36.5884C40.2745 36.8764 40.1725 37.0204 39.8605 37.0204H38.4025C38.1865 37.0204 38.0305 36.9964 37.9345 36.9484C37.8385 36.9004 37.7605 36.7984 37.7005 36.6424L35.9005 32.7544H34.6945C34.5505 32.7544 34.4785 32.8204 34.4785 32.9524V36.6424C34.4785 36.8944 34.3525 37.0204 34.1005 37.0204ZM34.6765 30.9184H36.4405C36.8245 30.9184 37.1065 30.8404 37.2865 30.6844C37.4665 30.5164 37.5565 30.2524 37.5565 29.8924V28.4884C37.5565 28.1164 37.4665 27.8464 37.2865 27.6784C37.1065 27.5104 36.8245 27.4264 36.4405 27.4264H34.6765C34.5445 27.4264 34.4785 27.4924 34.4785 27.6244V30.7204C34.4785 30.8524 34.5445 30.9184 34.6765 30.9184ZM45.1862 35.0404H46.4642C46.8482 35.0404 47.1182 34.9624 47.2742 34.8064C47.4422 34.6384 47.5262 34.3624 47.5262 33.9784V28.4884C47.5262 28.1044 47.4422 27.8344 47.2742 27.6784C47.1182 27.5104 46.8482 27.4264 46.4642 27.4264H45.1862C44.8022 27.4264 44.5322 27.5104 44.3762 27.6784C44.2202 27.8344 44.1422 28.1044 44.1422 28.4884V33.9784C44.1422 34.3624 44.2202 34.6384 44.3762 34.8064C44.5322 34.9624 44.8022 35.0404 45.1862 35.0404ZM46.8422 37.0204H44.8262C43.8782 37.0204 43.1462 36.7684 42.6302 36.2644C42.1142 35.7604 41.8562 35.0344 41.8562 34.0864V28.3804C41.8562 27.4324 42.1142 26.7064 42.6302 26.2024C43.1462 25.6984 43.8782 25.4464 44.8262 25.4464H46.8422C47.7902 25.4464 48.5222 25.6984 49.0382 26.2024C49.5542 26.7064 49.8122 27.4324 49.8122 28.3804V34.0864C49.8122 35.0344 49.5542 35.7604 49.0382 36.2644C48.5222 36.7684 47.7902 37.0204 46.8422 37.0204ZM56.7199 37.0204H54.7579C53.8099 37.0204 53.0779 36.7684 52.5619 36.2644C52.0459 35.7604 51.7879 35.0344 51.7879 34.0864V28.3804C51.7879 27.4324 52.0459 26.7064 52.5619 26.2024C53.0779 25.6984 53.8099 25.4464 54.7579 25.4464H56.7199C57.6559 25.4464 58.3819 25.7044 58.8979 26.2204C59.4259 26.7244 59.6899 27.4444 59.6899 28.3804V29.2264C59.6899 29.4904 59.5579 29.6224 59.2939 29.6224H57.7819C57.5299 29.6224 57.4039 29.4904 57.4039 29.2264V28.4884C57.4039 28.1044 57.3199 27.8344 57.1519 27.6784C56.9959 27.5104 56.7259 27.4264 56.3419 27.4264H55.1179C54.7459 27.4264 54.4759 27.5104 54.3079 27.6784C54.1519 27.8344 54.0739 28.1044 54.0739 28.4884V33.9784C54.0739 34.3624 54.1519 34.6384 54.3079 34.8064C54.4759 34.9624 54.7459 35.0404 55.1179 35.0404H56.3419C56.7259 35.0404 56.9959 34.9624 57.1519 34.8064C57.3199 34.6384 57.4039 34.3624 57.4039 33.9784V33.2404C57.4039 32.9764 57.5299 32.8444 57.7819 32.8444H59.2939C59.5579 32.8444 59.6899 32.9764 59.6899 33.2404V34.0864C59.6899 35.0224 59.4259 35.7484 58.8979 36.2644C58.3819 36.7684 57.6559 37.0204 56.7199 37.0204ZM63.5614 37.0204H62.0314C61.7794 37.0204 61.6534 36.8944 61.6534 36.6424V25.8244C61.6534 25.5724 61.7794 25.4464 62.0314 25.4464H63.5614C63.8134 25.4464 63.9394 25.5724 63.9394 25.8244V30.9544H63.9754C64.0714 30.6664 64.2574 30.2944 64.5334 29.8384L67.2694 25.8244C67.4254 25.5724 67.6594 25.4464 67.9714 25.4464H69.7354C69.8674 25.4464 69.9454 25.4884 69.9694 25.5724C70.0054 25.6444 69.9754 25.7404 69.8794 25.8604L66.4594 30.5944L70.2754 36.5704C70.3594 36.7144 70.3714 36.8284 70.3114 36.9124C70.2634 36.9844 70.1554 37.0204 69.9874 37.0204H68.6734C68.2534 37.0204 67.9714 36.8944 67.8274 36.6424L65.0734 32.2324L63.9394 33.5644V36.6424C63.9394 36.8944 63.8134 37.0204 63.5614 37.0204ZM77.9545 37.0204H72.0685C71.8165 37.0204 71.6905 36.8944 71.6905 36.6424V25.8244C71.6905 25.5724 71.8165 25.4464 72.0685 25.4464H77.9545C78.1945 25.4464 78.3145 25.5724 78.3145 25.8244V27.0484C78.3145 27.3004 78.1945 27.4264 77.9545 27.4264H74.1925C74.0485 27.4264 73.9765 27.4924 73.9765 27.6244V29.9644C73.9765 30.0964 74.0485 30.1624 74.1925 30.1624H77.2705C77.5225 30.1624 77.6485 30.2884 77.6485 30.5404V31.7644C77.6485 32.0164 77.5225 32.1424 77.2705 32.1424H74.1925C74.0485 32.1424 73.9765 32.2084 73.9765 32.3404V34.8424C73.9765 34.9744 74.0485 35.0404 74.1925 35.0404H77.9545C78.1945 35.0404 78.3145 35.1664 78.3145 35.4184V36.6424C78.3145 36.8944 78.1945 37.0204 77.9545 37.0204ZM82.2118 37.0204H80.6818C80.4298 37.0204 80.3038 36.8944 80.3038 36.6424V25.8244C80.3038 25.5724 80.4298 25.4464 80.6818 25.4464H84.9658C85.9018 25.4464 86.6338 25.7044 87.1618 26.2204C87.6898 26.7364 87.9538 27.4624 87.9538 28.3984V29.8024C87.9538 31.1584 87.4198 32.0584 86.3518 32.5024V32.5744L88.2778 36.5884C88.3858 36.8764 88.2838 37.0204 87.9718 37.0204H86.5138C86.2978 37.0204 86.1418 36.9964 86.0458 36.9484C85.9498 36.9004 85.8718 36.7984 85.8118 36.6424L84.0118 32.7544H82.8058C82.6618 32.7544 82.5898 32.8204 82.5898 32.9524V36.6424C82.5898 36.8944 82.4638 37.0204 82.2118 37.0204ZM82.7878 30.9184H84.5518C84.9358 30.9184 85.2178 30.8404 85.3978 30.6844C85.5778 30.5164 85.6678 30.2524 85.6678 29.8924V28.4884C85.6678 28.1164 85.5778 27.8464 85.3978 27.6784C85.2178 27.5104 84.9358 27.4264 84.5518 27.4264H82.7878C82.6558 27.4264 82.5898 27.4924 82.5898 27.6244V30.7204C82.5898 30.8524 82.6558 30.9184 82.7878 30.9184Z" fill="black"/>
</svg>
