<svg width="140" height="60" viewBox="0 0 140 60" fill="none" xmlns="http://www.w3.org/2000/svg">
<mask id="path-1-inside-1_150_799" fill="white">
<path fill-rule="evenodd" clip-rule="evenodd" d="M1 0C0.447715 0 0 0.447717 0 1V34.2508L3.42508 37.6758V47.9511L0 51.3761V58.9388C0 59.4911 0.447716 59.9388 1 59.9388H17.1254V31.682H11.2752C10.7229 31.682 10.2752 31.2342 10.2752 30.682V29.2569C10.2752 28.7046 10.7229 28.2569 11.2752 28.2569H17.1254V0H1ZM19.6942 0H78.3485V10.2752H80.061V0H139C139.552 0 140 0.447715 140 1V47.1908L127.252 59.9388H19.6942V0ZM83.6639 10H84.3679C84.7572 10 85.0612 9.89067 85.2799 9.672C85.5039 9.45333 85.6159 9.14933 85.6159 8.76V7.16C85.6159 6.76533 85.5039 6.46133 85.2799 6.248C85.0612 6.02933 84.7572 5.92 84.3679 5.92H83.6639C83.2692 5.92 82.9625 6.02933 82.7439 6.248C82.5305 6.46133 82.4239 6.76533 82.4239 7.16V8.76C82.4239 9.14933 82.5305 9.45333 82.7439 9.672C82.9625 9.89067 83.2692 10 83.6639 10ZM84.2639 9.32H83.7759C83.5732 9.32 83.4265 9.27467 83.3359 9.184C83.2452 9.088 83.1999 8.93867 83.1999 8.736V7.184C83.1999 6.98133 83.2452 6.83467 83.3359 6.744C83.4265 6.648 83.5732 6.6 83.7759 6.6H84.2639C84.6479 6.6 84.8399 6.79467 84.8399 7.184V8.736C84.8399 9.12533 84.6479 9.32 84.2639 9.32ZM89.0151 9.872V9.456C89.0151 9.36533 88.9671 9.32 88.8711 9.32H87.8071C87.4231 9.32 87.2311 9.12267 87.2311 8.728V7.192C87.2311 6.79733 87.4231 6.6 87.8071 6.6H88.8711C88.9671 6.6 89.0151 6.55733 89.0151 6.472V6.056C89.0151 5.96533 88.9671 5.92 88.8711 5.92H87.6951C87.3004 5.92 86.9938 6.02933 86.7751 6.248C86.5618 6.46133 86.4551 6.76533 86.4551 7.16V8.76C86.4551 9.14933 86.5618 9.45333 86.7751 9.672C86.9938 9.89067 87.3004 10 87.6951 10H88.8711C88.9671 10 89.0151 9.95733 89.0151 9.872Z"/>
</mask>
<path fill-rule="evenodd" clip-rule="evenodd" d="M1 0C0.447715 0 0 0.447717 0 1V34.2508L3.42508 37.6758V47.9511L0 51.3761V58.9388C0 59.4911 0.447716 59.9388 1 59.9388H17.1254V31.682H11.2752C10.7229 31.682 10.2752 31.2342 10.2752 30.682V29.2569C10.2752 28.7046 10.7229 28.2569 11.2752 28.2569H17.1254V0H1ZM19.6942 0H78.3485V10.2752H80.061V0H139C139.552 0 140 0.447715 140 1V47.1908L127.252 59.9388H19.6942V0ZM83.6639 10H84.3679C84.7572 10 85.0612 9.89067 85.2799 9.672C85.5039 9.45333 85.6159 9.14933 85.6159 8.76V7.16C85.6159 6.76533 85.5039 6.46133 85.2799 6.248C85.0612 6.02933 84.7572 5.92 84.3679 5.92H83.6639C83.2692 5.92 82.9625 6.02933 82.7439 6.248C82.5305 6.46133 82.4239 6.76533 82.4239 7.16V8.76C82.4239 9.14933 82.5305 9.45333 82.7439 9.672C82.9625 9.89067 83.2692 10 83.6639 10ZM84.2639 9.32H83.7759C83.5732 9.32 83.4265 9.27467 83.3359 9.184C83.2452 9.088 83.1999 8.93867 83.1999 8.736V7.184C83.1999 6.98133 83.2452 6.83467 83.3359 6.744C83.4265 6.648 83.5732 6.6 83.7759 6.6H84.2639C84.6479 6.6 84.8399 6.79467 84.8399 7.184V8.736C84.8399 9.12533 84.6479 9.32 84.2639 9.32ZM89.0151 9.872V9.456C89.0151 9.36533 88.9671 9.32 88.8711 9.32H87.8071C87.4231 9.32 87.2311 9.12267 87.2311 8.728V7.192C87.2311 6.79733 87.4231 6.6 87.8071 6.6H88.8711C88.9671 6.6 89.0151 6.55733 89.0151 6.472V6.056C89.0151 5.96533 88.9671 5.92 88.8711 5.92H87.6951C87.3004 5.92 86.9938 6.02933 86.7751 6.248C86.5618 6.46133 86.4551 6.76533 86.4551 7.16V8.76C86.4551 9.14933 86.5618 9.45333 86.7751 9.672C86.9938 9.89067 87.3004 10 87.6951 10H88.8711C88.9671 10 89.0151 9.95733 89.0151 9.872Z" fill="#D84048" fill-opacity="0.3"/>
<path d="M0 34.2508H-1V34.665L-0.707107 34.9579L0 34.2508ZM3.42508 37.6758H4.42508V37.2616L4.13218 36.9687L3.42508 37.6758ZM3.42508 47.9511L4.13218 48.6582L4.42508 48.3653V47.9511H3.42508ZM0 51.3761L-0.707107 50.669L-1 50.9619V51.3761H0ZM17.1254 59.9388V60.9388H18.1254V59.9388H17.1254ZM17.1254 31.682H18.1254V30.682H17.1254V31.682ZM17.1254 28.2569V29.2569H18.1254V28.2569H17.1254ZM17.1254 0H18.1254V-1H17.1254V0ZM78.3485 0H79.3485V-1H78.3485V0ZM19.6942 0V-1H18.6942V0H19.6942ZM78.3485 10.2752H77.3485V11.2752H78.3485V10.2752ZM80.061 10.2752V11.2752H81.061V10.2752H80.061ZM80.061 0V-1H79.061V0H80.061ZM140 47.1908L140.707 47.8979L141 47.605V47.1908H140ZM127.252 59.9388V60.9388H127.666L127.959 60.6459L127.252 59.9388ZM19.6942 59.9388H18.6942V60.9388H19.6942V59.9388ZM85.2799 9.672L84.5813 8.95638L84.5727 8.96489L85.2799 9.672ZM85.2799 6.248L84.5727 6.95511L84.5814 6.96373L84.5902 6.97214L85.2799 6.248ZM82.7439 6.248L83.451 6.95511V6.95511L82.7439 6.248ZM82.7439 9.672L82.028 10.3704L82.0367 10.3791L82.7439 9.672ZM83.3359 9.184L82.6088 9.87063L82.6187 9.88101L82.6288 9.89111L83.3359 9.184ZM83.3359 6.744L84.043 7.45111L84.0531 7.44101L84.0629 7.43063L83.3359 6.744ZM86.7751 6.248L87.4822 6.95511V6.95511L86.7751 6.248ZM86.7751 9.672L86.0593 10.3704L86.068 10.3791L86.7751 9.672ZM1 1V1V-1C-0.104571 -1 -1 -0.104566 -1 1H1ZM1 34.2508V1H-1V34.2508H1ZM4.13218 36.9687L0.707107 33.5437L-0.707107 34.9579L2.71797 38.3829L4.13218 36.9687ZM4.42508 47.9511V37.6758H2.42508V47.9511H4.42508ZM0.707107 52.0833L4.13218 48.6582L2.71797 47.244L-0.707107 50.669L0.707107 52.0833ZM1 58.9388V51.3761H-1V58.9388H1ZM1 58.9388H1H-1C-1 60.0434 -0.104569 60.9388 1 60.9388V58.9388ZM17.1254 58.9388H1V60.9388H17.1254V58.9388ZM16.1254 31.682V59.9388H18.1254V31.682H16.1254ZM11.2752 32.682H17.1254V30.682H11.2752V32.682ZM9.27523 30.682C9.27523 31.7865 10.1707 32.682 11.2752 32.682V30.682L11.2752 30.682H9.27523ZM9.27523 29.2569V30.682H11.2752V29.2569H9.27523ZM11.2752 27.2569C10.1707 27.2569 9.27523 28.1523 9.27523 29.2569H11.2752V27.2569ZM17.1254 27.2569H11.2752V29.2569H17.1254V27.2569ZM16.1254 0V28.2569H18.1254V0H16.1254ZM1 1H17.1254V-1H1V1ZM78.3485 -1H19.6942V1H78.3485V-1ZM79.3485 10.2752V0H77.3485V10.2752H79.3485ZM80.061 9.27523H78.3485V11.2752H80.061V9.27523ZM79.061 0V10.2752H81.061V0H79.061ZM139 -1H80.061V1H139V-1ZM141 1C141 -0.104575 140.105 -1 139 -1V1H141ZM141 47.1908V1H139V47.1908H141ZM127.959 60.6459L140.707 47.8979L139.293 46.4837L126.545 59.2317L127.959 60.6459ZM19.6942 60.9388H127.252V58.9388H19.6942V60.9388ZM18.6942 0V59.9388H20.6942V0H18.6942ZM84.3679 9H83.6639V11H84.3679V9ZM84.5727 8.96489C84.5723 8.96539 84.5692 8.96991 84.5494 8.97701C84.5257 8.98555 84.4701 9 84.3679 9V11C84.95 11 85.5351 10.8309 85.987 10.3791L84.5727 8.96489ZM84.6159 8.76C84.6159 8.85984 84.6014 8.91281 84.5935 8.9343C84.5871 8.95172 84.5831 8.95469 84.5813 8.95643L85.9784 10.3876C86.4399 9.93703 86.6159 9.34899 86.6159 8.76H84.6159ZM84.6159 7.16V8.76H86.6159V7.16H84.6159ZM84.5902 6.97214C84.5902 6.97219 84.5899 6.97184 84.5893 6.97115C84.5887 6.97046 84.5884 6.9699 84.5882 6.96968C84.5877 6.96888 84.5899 6.97203 84.5935 6.9817C84.6009 7.00181 84.6159 7.05571 84.6159 7.16H86.6159C86.6159 6.57147 86.4429 5.9747 85.9695 5.52386L84.5902 6.97214ZM84.3679 6.92C84.4701 6.92 84.5257 6.93445 84.5494 6.94299C84.5692 6.95009 84.5723 6.95461 84.5727 6.95511L85.987 5.54089C85.5351 5.08905 84.95 4.92 84.3679 4.92V6.92ZM83.6639 6.92H84.3679V4.92H83.6639V6.92ZM83.451 6.95511C83.4519 6.95414 83.4525 6.95363 83.454 6.95274C83.4555 6.95175 83.4613 6.94833 83.4737 6.94393C83.4991 6.93487 83.5574 6.92 83.6639 6.92V4.92C83.0808 4.92 82.4911 5.08656 82.0367 5.54089L83.451 6.95511ZM83.4239 7.16C83.4239 7.05094 83.4388 6.99182 83.4474 6.96709C83.4546 6.94677 83.4574 6.94864 83.451 6.95511L82.0367 5.54089C81.5833 5.99435 81.4239 6.58512 81.4239 7.16H83.4239ZM83.4239 8.76V7.16H81.4239V8.76H83.4239ZM83.4596 8.97368C83.4586 8.9726 83.4578 8.97172 83.4567 8.96985C83.4555 8.96782 83.4519 8.96161 83.4474 8.94891C83.4383 8.92286 83.4239 8.86469 83.4239 8.76H81.4239C81.4239 9.33541 81.5862 9.91739 82.0281 10.3703L83.4596 8.97368ZM83.6639 9C83.5574 9 83.4991 8.98513 83.4737 8.97607C83.4613 8.97167 83.4555 8.96825 83.454 8.96726C83.4525 8.96637 83.4519 8.96586 83.451 8.96489L82.0367 10.3791C82.4911 10.8334 83.0808 11 83.6639 11V9ZM83.7759 10.32H84.2639V8.32H83.7759V10.32ZM82.6288 9.89111C82.991 10.2534 83.4569 10.32 83.7759 10.32V8.32C83.7446 8.32 83.7619 8.31598 83.8092 8.3306C83.8608 8.34655 83.9526 8.38657 84.043 8.47689L82.6288 9.89111ZM82.1999 8.736C82.1999 9.06143 82.2692 9.51098 82.6088 9.87063L84.0629 8.49737C84.1414 8.58057 84.1766 8.6629 84.1907 8.70952C84.2037 8.75228 84.1999 8.76659 84.1999 8.736H82.1999ZM82.1999 7.184V8.736H84.1999V7.184H82.1999ZM82.6288 6.03689C82.2665 6.39915 82.1999 6.86506 82.1999 7.184H84.1999C84.1999 7.15274 84.2039 7.17 84.1893 7.21731C84.1733 7.26891 84.1333 7.36079 84.043 7.45111L82.6288 6.03689ZM83.7759 5.6C83.4434 5.6 82.9692 5.67582 82.6088 6.05737L84.0629 7.43063C83.9758 7.52285 83.8832 7.56732 83.8249 7.5864C83.772 7.60371 83.749 7.6 83.7759 7.6V5.6ZM84.2639 5.6H83.7759V7.6H84.2639V5.6ZM85.8399 7.184C85.8399 6.83864 85.7545 6.39526 85.4078 6.04379C85.0587 5.68978 84.6135 5.6 84.2639 5.6V7.6C84.2982 7.6 84.141 7.60755 83.9839 7.44821C83.8292 7.29141 83.8399 7.14003 83.8399 7.184H85.8399ZM85.8399 8.736V7.184H83.8399V8.736H85.8399ZM84.2639 10.32C84.6135 10.32 85.0587 10.2302 85.4078 9.87621C85.7545 9.52474 85.8399 9.08136 85.8399 8.736H83.8399C83.8399 8.77997 83.8292 8.62859 83.9839 8.47179C84.141 8.31244 84.2982 8.32 84.2639 8.32V10.32ZM88.0151 9.456V9.872H90.0151V9.456H88.0151ZM88.8711 10.32C88.7787 10.32 88.5236 10.2993 88.2925 10.081C88.0507 9.85266 88.0151 9.5799 88.0151 9.456H90.0151C90.0151 9.24143 89.9555 8.90067 89.6657 8.62697C89.3866 8.36341 89.0595 8.32 88.8711 8.32V10.32ZM87.8071 10.32H88.8711V8.32H87.8071V10.32ZM86.2311 8.728C86.2311 9.07271 86.3148 9.51619 86.6584 9.86936C87.007 10.2276 87.4539 10.32 87.8071 10.32V8.32C87.7763 8.32 87.9353 8.31372 88.0918 8.47464C88.2435 8.63048 88.2311 8.77795 88.2311 8.728H86.2311ZM86.2311 7.192V8.728H88.2311V7.192H86.2311ZM87.8071 5.6C87.4539 5.6 87.007 5.69239 86.6584 6.05064C86.3148 6.40381 86.2311 6.84729 86.2311 7.192H88.2311C88.2311 7.14205 88.2435 7.28952 88.0918 7.44536C87.9353 7.60628 87.7763 7.6 87.8071 7.6V5.6ZM88.8711 5.6H87.8071V7.6H88.8711V5.6ZM88.0151 6.472C88.0151 6.32799 88.061 6.0461 88.3148 5.82058C88.546 5.61501 88.7921 5.6 88.8711 5.6V7.6C89.0461 7.6 89.3642 7.56366 89.6434 7.31542C89.9452 7.04723 90.0151 6.70134 90.0151 6.472H88.0151ZM88.0151 6.056V6.472H90.0151V6.056H88.0151ZM88.8711 6.92C88.7788 6.92 88.5236 6.89926 88.2925 6.68103C88.0507 6.45266 88.0151 6.1799 88.0151 6.056H90.0151C90.0151 5.84143 89.9555 5.50067 89.6657 5.22697C89.3866 4.96341 89.0594 4.92 88.8711 4.92V6.92ZM87.6951 6.92H88.8711V4.92H87.6951V6.92ZM87.4822 6.95511C87.4832 6.95413 87.4838 6.95363 87.4852 6.95274C87.4868 6.95175 87.4926 6.94833 87.5049 6.94393C87.5303 6.93487 87.5887 6.92 87.6951 6.92V4.92C87.1121 4.92 86.5223 5.08656 86.068 5.54089L87.4822 6.95511ZM87.4551 7.16C87.4551 7.05094 87.47 6.99182 87.4787 6.96709C87.4858 6.94677 87.4887 6.94864 87.4822 6.95511L86.068 5.54089C85.6145 5.99435 85.4551 6.58512 85.4551 7.16H87.4551ZM87.4551 8.76V7.16H85.4551V8.76H87.4551ZM87.4909 8.97368C87.4898 8.9726 87.4891 8.97172 87.488 8.96985C87.4867 8.96782 87.4832 8.96161 87.4787 8.94891C87.4696 8.92286 87.4551 8.86469 87.4551 8.76H85.4551C85.4551 9.33541 85.6174 9.91739 86.0593 10.3703L87.4909 8.97368ZM87.6951 9C87.5887 9 87.5303 8.98513 87.5049 8.97607C87.4926 8.97167 87.4868 8.96825 87.4852 8.96726C87.4838 8.96637 87.4832 8.96587 87.4822 8.96489L86.068 10.3791C86.5223 10.8334 87.1121 11 87.6951 11V9ZM88.8711 9H87.6951V11H88.8711V9ZM88.0151 9.872C88.0151 9.72799 88.061 9.4461 88.3148 9.22058C88.546 9.01501 88.7921 9 88.8711 9V11C89.0461 11 89.3642 10.9637 89.6434 10.7154C89.9452 10.4472 90.0151 10.1013 90.0151 9.872H88.0151Z" fill="#B3333A" fill-opacity="0.8" mask="url(#path-1-inside-1_150_799)"/>
<path d="M54.1005 37H52.5705C52.3185 37 52.1925 36.874 52.1925 36.622V25.804C52.1925 25.552 52.3185 25.426 52.5705 25.426H56.8545C57.7905 25.426 58.5225 25.684 59.0505 26.2C59.5785 26.716 59.8425 27.442 59.8425 28.378V29.782C59.8425 31.138 59.3085 32.038 58.2405 32.482V32.554L60.1665 36.568C60.2745 36.856 60.1725 37 59.8605 37H58.4025C58.1865 37 58.0305 36.976 57.9345 36.928C57.8385 36.88 57.7605 36.778 57.7005 36.622L55.9005 32.734H54.6945C54.5505 32.734 54.4785 32.8 54.4785 32.932V36.622C54.4785 36.874 54.3525 37 54.1005 37ZM54.6765 30.898H56.4405C56.8245 30.898 57.1065 30.82 57.2865 30.664C57.4665 30.496 57.5565 30.232 57.5565 29.872V28.468C57.5565 28.096 57.4665 27.826 57.2865 27.658C57.1065 27.49 56.8245 27.406 56.4405 27.406H54.6765C54.5445 27.406 54.4785 27.472 54.4785 27.604V30.7C54.4785 30.832 54.5445 30.898 54.6765 30.898ZM65.1862 35.02H66.4642C66.8482 35.02 67.1182 34.942 67.2742 34.786C67.4422 34.618 67.5262 34.342 67.5262 33.958V28.468C67.5262 28.084 67.4422 27.814 67.2742 27.658C67.1182 27.49 66.8482 27.406 66.4642 27.406H65.1862C64.8022 27.406 64.5322 27.49 64.3762 27.658C64.2202 27.814 64.1422 28.084 64.1422 28.468V33.958C64.1422 34.342 64.2202 34.618 64.3762 34.786C64.5322 34.942 64.8022 35.02 65.1862 35.02ZM66.8422 37H64.8262C63.8782 37 63.1462 36.748 62.6302 36.244C62.1142 35.74 61.8562 35.014 61.8562 34.066V28.36C61.8562 27.412 62.1142 26.686 62.6302 26.182C63.1462 25.678 63.8782 25.426 64.8262 25.426H66.8422C67.7902 25.426 68.5222 25.678 69.0382 26.182C69.5542 26.686 69.8122 27.412 69.8122 28.36V34.066C69.8122 35.014 69.5542 35.74 69.0382 36.244C68.5222 36.748 67.7902 37 66.8422 37ZM76.7199 37H74.7579C73.8099 37 73.0779 36.748 72.5619 36.244C72.0459 35.74 71.7879 35.014 71.7879 34.066V28.36C71.7879 27.412 72.0459 26.686 72.5619 26.182C73.0779 25.678 73.8099 25.426 74.7579 25.426H76.7199C77.6559 25.426 78.3819 25.684 78.8979 26.2C79.4259 26.704 79.6899 27.424 79.6899 28.36V29.206C79.6899 29.47 79.5579 29.602 79.2939 29.602H77.7819C77.5299 29.602 77.4039 29.47 77.4039 29.206V28.468C77.4039 28.084 77.3199 27.814 77.1519 27.658C76.9959 27.49 76.7259 27.406 76.3419 27.406H75.1179C74.7459 27.406 74.4759 27.49 74.3079 27.658C74.1519 27.814 74.0739 28.084 74.0739 28.468V33.958C74.0739 34.342 74.1519 34.618 74.3079 34.786C74.4759 34.942 74.7459 35.02 75.1179 35.02H76.3419C76.7259 35.02 76.9959 34.942 77.1519 34.786C77.3199 34.618 77.4039 34.342 77.4039 33.958V33.22C77.4039 32.956 77.5299 32.824 77.7819 32.824H79.2939C79.5579 32.824 79.6899 32.956 79.6899 33.22V34.066C79.6899 35.002 79.4259 35.728 78.8979 36.244C78.3819 36.748 77.6559 37 76.7199 37ZM83.5614 37H82.0314C81.7794 37 81.6534 36.874 81.6534 36.622V25.804C81.6534 25.552 81.7794 25.426 82.0314 25.426H83.5614C83.8134 25.426 83.9394 25.552 83.9394 25.804V30.934H83.9754C84.0714 30.646 84.2574 30.274 84.5334 29.818L87.2694 25.804C87.4254 25.552 87.6594 25.426 87.9714 25.426H89.7354C89.8674 25.426 89.9454 25.468 89.9694 25.552C90.0054 25.624 89.9754 25.72 89.8794 25.84L86.4594 30.574L90.2754 36.55C90.3594 36.694 90.3714 36.808 90.3114 36.892C90.2634 36.964 90.1554 37 89.9874 37H88.6734C88.2534 37 87.9714 36.874 87.8274 36.622L85.0734 32.212L83.9394 33.544V36.622C83.9394 36.874 83.8134 37 83.5614 37ZM97.9545 37H92.0685C91.8165 37 91.6905 36.874 91.6905 36.622V25.804C91.6905 25.552 91.8165 25.426 92.0685 25.426H97.9545C98.1945 25.426 98.3145 25.552 98.3145 25.804V27.028C98.3145 27.28 98.1945 27.406 97.9545 27.406H94.1925C94.0485 27.406 93.9765 27.472 93.9765 27.604V29.944C93.9765 30.076 94.0485 30.142 94.1925 30.142H97.2705C97.5225 30.142 97.6485 30.268 97.6485 30.52V31.744C97.6485 31.996 97.5225 32.122 97.2705 32.122H94.1925C94.0485 32.122 93.9765 32.188 93.9765 32.32V34.822C93.9765 34.954 94.0485 35.02 94.1925 35.02H97.9545C98.1945 35.02 98.3145 35.146 98.3145 35.398V36.622C98.3145 36.874 98.1945 37 97.9545 37ZM102.212 37H100.682C100.43 37 100.304 36.874 100.304 36.622V25.804C100.304 25.552 100.43 25.426 100.682 25.426H104.966C105.902 25.426 106.634 25.684 107.162 26.2C107.69 26.716 107.954 27.442 107.954 28.378V29.782C107.954 31.138 107.42 32.038 106.352 32.482V32.554L108.278 36.568C108.386 36.856 108.284 37 107.972 37H106.514C106.298 37 106.142 36.976 106.046 36.928C105.95 36.88 105.872 36.778 105.812 36.622L104.012 32.734H102.806C102.662 32.734 102.59 32.8 102.59 32.932V36.622C102.59 36.874 102.464 37 102.212 37ZM102.788 30.898H104.552C104.936 30.898 105.218 30.82 105.398 30.664C105.578 30.496 105.668 30.232 105.668 29.872V28.468C105.668 28.096 105.578 27.826 105.398 27.658C105.218 27.49 104.936 27.406 104.552 27.406H102.788C102.656 27.406 102.59 27.472 102.59 27.604V30.7C102.59 30.832 102.656 30.898 102.788 30.898Z" fill="#B3333A" fill-opacity="0.8"/>
</svg>
