<svg width="auto" height="auto" viewBox="0 0 48 42" fill="none" xmlns="http://www.w3.org/2000/svg">
<path d="M8.65625 38.8889V0H48.0005V30.3333L37.771 38.8889H8.65625Z" fill="#10181D" fill-opacity="0.5"/>
<path d="M37.5895 38.3889H9.15625V0.5H47.5005V30.0997L37.5895 38.3889Z" stroke="#B3333A" stroke-opacity="0.8"/>
<rect x="41.7051" width="6.29508" height="2.33333" fill="#D84048"/>
<rect width="6.29508" height="2.33333" transform="matrix(1 0 0 -1 41.7051 42)" fill="#D84048"/>
<rect x="6.2959" y="42" width="6.29508" height="2.33333" transform="rotate(-180 6.2959 42)" fill="#D84048"/>
<rect width="6.29508" height="2.33333" transform="matrix(-1 0 0 1 6.2959 0)" fill="#D84048"/>
<rect x="48" width="6.22222" height="2.36066" transform="rotate(90 48 0)" fill="#D84048"/>
<rect width="6.22222" height="2.36066" transform="matrix(-4.42232e-08 -1 -1 4.32054e-08 48 42)" fill="#D84048"/>
<rect y="42" width="6.22222" height="2.36066" transform="rotate(-90 0 42)" fill="#D84048"/>
<rect width="6.22222" height="2.36066" transform="matrix(4.37114e-08 1 1 -4.37114e-08 0 0)" fill="#D84048"/>
<rect x="0.5" y="9.05554" width="6.08197" height="6" stroke="#B3333A" stroke-opacity="0.8"/>
<rect x="1.17697" y="13.6111" width="0.795993" height="0.777777" fill="#D9D9D9" stroke="#D84048" stroke-width="0.777777"/>
<rect x="5.89865" y="8.94431" width="0.795993" height="0.777777" fill="#D9D9D9" stroke="#D84048" stroke-width="0.777777"/>
<rect x="0.98253" y="8.74986" width="5.90619" height="0.388889" fill="#D9D9D9" stroke="#D84048" stroke-width="0.388889"/>
<rect x="6.88726" y="8.75214" width="5.82878" height="0.393443" transform="rotate(90 6.88726 8.75214)" fill="#D9D9D9" stroke="#D84048" stroke-width="0.393443"/>
<path d="M1.57422 14L6.29553 9.33337" stroke="#D84048"/>
<path d="M3.00029 30.6843V30.8741C3.00029 30.9077 2.98329 30.9245 2.94929 30.9245H2.28629L1.12529 31.479C1.10929 31.4869 1.09629 31.4869 1.08629 31.479C1.07629 31.4711 1.07129 31.4602 1.07129 31.4464L1.07129 31.2092C1.07129 31.1835 1.08829 31.1637 1.12229 31.1499L1.94729 30.7852V30.7674L1.12229 30.4086C1.08829 30.3967 1.07129 30.3769 1.07129 30.3493L1.07129 30.112C1.07129 30.0962 1.07629 30.0853 1.08629 30.0794C1.09629 30.0715 1.10929 30.0715 1.12529 30.0794L2.28629 30.6339H2.94929C2.98329 30.6339 3.00029 30.6507 3.00029 30.6843Z" fill="#D84048"/>
<path d="M2.74529 29.3387V29.0807C2.74529 28.9364 2.67129 28.8642 2.52329 28.8642H1.54829C1.40029 28.8642 1.32629 28.9364 1.32629 29.0807V29.3387C1.32629 29.481 1.40029 29.5522 1.54829 29.5522H2.52329C2.67129 29.5522 2.74529 29.481 2.74529 29.3387ZM3.00029 29.0362V29.3802C3.00029 29.5265 2.95929 29.6401 2.87729 29.7212C2.79529 29.8002 2.68129 29.8398 2.53529 29.8398H1.53629C1.38829 29.8398 1.27429 29.8002 1.19429 29.7212C1.11229 29.6401 1.07129 29.5265 1.07129 29.3802L1.07129 29.0362C1.07129 28.8899 1.11229 28.7762 1.19429 28.6952C1.27429 28.6141 1.38829 28.5736 1.53629 28.5736H2.53529C2.68129 28.5736 2.79529 28.6141 2.87729 28.6952C2.95929 28.7762 3.00029 28.8899 3.00029 29.0362Z" fill="#D84048"/>
<path d="M1.07129 27.1777L1.07129 26.9909C1.07129 26.9553 1.08729 26.9375 1.11929 26.9375H2.53529C2.68129 26.9375 2.79529 26.979 2.87729 27.062C2.95929 27.1431 3.00029 27.2558 3.00029 27.4001V27.7292C3.00029 27.8735 2.95929 27.9862 2.87729 28.0673C2.79529 28.1483 2.68129 28.1888 2.53529 28.1888L1.12229 28.1888C1.08829 28.1888 1.07129 28.172 1.07129 28.1384L1.07129 27.9516C1.07129 27.918 1.08829 27.9012 1.12229 27.9012H2.52329C2.67129 27.9012 2.74529 27.83 2.74529 27.6877V27.4446C2.74529 27.3002 2.67129 27.2281 2.52329 27.2281H1.12229C1.08829 27.2281 1.07129 27.2113 1.07129 27.1777Z" fill="#D84048"/>
<path d="M3.00029 26.2862V26.473C3.00029 26.5066 2.98329 26.5234 2.94929 26.5234H1.12229C1.08829 26.5234 1.07129 26.5066 1.07129 26.473L1.07129 25.7791C1.07129 25.6348 1.11329 25.5221 1.19729 25.4411C1.27929 25.3581 1.39329 25.3166 1.53929 25.3166H1.79129C2.02129 25.3166 2.16629 25.4105 2.22629 25.5983H2.23829L2.94029 25.2691C2.98029 25.2474 3.00029 25.2602 3.00029 25.3077V25.4915C3.00029 25.539 2.98329 25.5696 2.94929 25.5834L2.25929 25.9007V26.2002C2.25929 26.2239 2.26929 26.2358 2.28929 26.2358H2.94929C2.98329 26.2358 3.00029 26.2526 3.00029 26.2862ZM2.01929 26.2032V25.8266C2.01929 25.6803 1.94629 25.6072 1.80029 25.6072H1.54829C1.40029 25.6072 1.32629 25.6803 1.32629 25.8266L1.32629 26.2032C1.32629 26.2249 1.33629 26.2358 1.35629 26.2358H1.98929C2.00929 26.2358 2.01929 26.2249 2.01929 26.2032Z" fill="#D84048"/>
<path d="M5.12229 31.0135H6.94929C6.98329 31.0135 7.00029 31.0303 7.00029 31.0639V31.2507C7.00029 31.2843 6.98329 31.3011 6.94929 31.3011H5.12229C5.08829 31.3011 5.07129 31.2843 5.07129 31.2507L5.07129 31.0639C5.07129 31.0303 5.08829 31.0135 5.12229 31.0135Z" fill="#D84048"/>
<path d="M5.07129 29.2612V28.9291C5.07129 28.8955 5.08829 28.8787 5.12229 28.8787H6.94929C6.98329 28.8787 7.00029 28.8955 7.00029 28.9291V29.1129C7.00029 29.1466 6.98329 29.1634 6.94929 29.1634H5.43429V29.1752L6.53229 29.5607C6.56429 29.5726 6.58029 29.5943 6.58029 29.6259V29.8157C6.58029 29.8454 6.56429 29.8661 6.53229 29.878L5.43129 30.2724V30.2842H6.94929C6.96929 30.2842 6.98329 30.2882 6.99129 30.2961C6.99729 30.302 7.00029 30.3149 7.00029 30.3346V30.5155C7.00029 30.5491 6.98329 30.5659 6.94929 30.5659H5.12229C5.08829 30.5659 5.07129 30.5491 5.07129 30.5155V30.1834C5.07129 30.1617 5.08229 30.1458 5.10429 30.136L6.26229 29.7297V29.7149L5.10429 29.3057C5.08229 29.3017 5.07129 29.2869 5.07129 29.2612Z" fill="#D84048"/>
<path d="M7.00029 28.209V28.3958C7.00029 28.4294 6.98329 28.4462 6.94929 28.4462H5.12229C5.08829 28.4462 5.07129 28.4294 5.07129 28.3958V27.6901C5.07129 27.5458 5.11229 27.4331 5.19429 27.352C5.27429 27.271 5.38829 27.2305 5.53629 27.2305H5.84829C5.99429 27.2305 6.10829 27.271 6.19029 27.352C6.27229 27.4331 6.31329 27.5458 6.31329 27.6901V28.123C6.31329 28.1467 6.32329 28.1586 6.34329 28.1586H6.94929C6.98329 28.1586 7.00029 28.1754 7.00029 28.209ZM6.05529 28.126V27.7316C6.05529 27.5912 5.98129 27.5211 5.83329 27.5211H5.54829C5.40029 27.5211 5.32629 27.5912 5.32629 27.7316V28.126C5.32629 28.1477 5.33629 28.1586 5.35629 28.1586H6.02529C6.04529 28.1586 6.05529 28.1477 6.05529 28.126Z" fill="#D84048"/>
<path d="M7.00029 25.8684V26.8292C7.00029 26.8628 6.98329 26.8796 6.94929 26.8796H5.12229C5.08829 26.8796 5.07129 26.8628 5.07129 26.8292V26.6424C5.07129 26.6088 5.08829 26.592 5.12229 26.592H6.70929C6.72929 26.592 6.73929 26.5801 6.73929 26.5564V25.8684C6.73929 25.8348 6.75729 25.818 6.79329 25.818H6.94929C6.98329 25.818 7.00029 25.8348 7.00029 25.8684Z" fill="#D84048"/>
<path d="M7.00029 25.4409V25.6544C7.00029 25.682 6.98329 25.6919 6.94929 25.684L5.12229 25.1681C5.08829 25.1582 5.07129 25.1345 5.07129 25.0969V24.8004C5.07129 24.7608 5.08829 24.7371 5.12229 24.7292L6.94929 24.2132C6.98329 24.2053 7.00029 24.2162 7.00029 24.2459V24.4564C7.00029 24.4742 6.99729 24.487 6.99129 24.4949C6.98329 24.5009 6.96929 24.5058 6.94929 24.5098L6.55929 24.6224V25.2748L6.94929 25.3875C6.98329 25.3954 7.00029 25.4132 7.00029 25.4409ZM5.35929 24.9546L6.31929 25.2155V24.6788L5.35929 24.9427V24.9546Z" fill="#D84048"/>
<path d="M7.00029 23.6859V23.8697C7.00029 23.9033 6.98329 23.9201 6.94929 23.9201L5.12229 23.9201C5.08829 23.9201 5.07129 23.9033 5.07129 23.8697V23.7037C5.07129 23.672 5.08229 23.6503 5.10429 23.6384L6.40929 22.9208V22.909L5.12229 22.909C5.08829 22.909 5.07129 22.8922 5.07129 22.8586V22.6747C5.07129 22.6411 5.08829 22.6243 5.12229 22.6243H6.94929C6.98329 22.6243 7.00029 22.6411 7.00029 22.6747V22.8348C7.00029 22.8665 6.98429 22.8922 6.95229 22.9119L5.66229 23.6236V23.6355H6.94929C6.98329 23.6355 7.00029 23.6523 7.00029 23.6859Z" fill="#D84048"/>
<path d="M7.00029 21.6695V21.8563C7.00029 21.8918 6.98329 21.9096 6.94929 21.9096L5.35629 21.9096C5.33629 21.9096 5.32629 21.9195 5.32629 21.9393V22.3129C5.32629 22.3485 5.30929 22.3663 5.27529 22.3663H5.12229C5.08829 22.3663 5.07129 22.3485 5.07129 22.3129V21.2128C5.07129 21.1772 5.08829 21.1594 5.12229 21.1594L5.27529 21.1594C5.30929 21.1594 5.32629 21.1772 5.32629 21.2128V21.5864C5.32629 21.6082 5.33629 21.619 5.35629 21.619L6.94929 21.619C6.98329 21.619 7.00029 21.6358 7.00029 21.6695Z" fill="#D84048"/>
</svg>
