<svg width="105" height="107" viewBox="0 0 105 107" fill="none" xmlns="http://www.w3.org/2000/svg">
<path d="M77.9763 97.5H8.5V0.5H104.5V73.2795L77.9763 97.5Z" stroke="#B3333A" stroke-opacity="0.8"/>
<rect x="100" width="5" height="2" fill="#D84048"/>
<rect width="5" height="2" transform="matrix(1 0 0 -1 100 107)" fill="#D84048"/>
<rect x="5" y="107" width="5" height="2" transform="rotate(-180 5 107)" fill="#D84048"/>
<rect width="5" height="2" transform="matrix(-1 0 0 1 5 0)" fill="#D84048"/>
<rect x="105" width="5" height="2" transform="rotate(90 105 0)" fill="#D84048"/>
<rect width="5" height="2" transform="matrix(-4.37114e-08 -1 -1 4.37114e-08 105 107)" fill="#D84048"/>
<rect y="107" width="5" height="2" transform="rotate(-90 0 107)" fill="#D84048"/>
<rect width="5" height="2" transform="matrix(4.37114e-08 1 1 -4.37114e-08 0 0)" fill="#D84048"/>
<rect x="0.5" y="7.19116" width="4.4746" height="4.4746" stroke="#B3333A" stroke-opacity="0.8"/>
<rect x="0.912543" y="10.645" width="0.608289" height="0.608289" fill="#D9D9D9" stroke="#D84048" stroke-width="0.608289"/>
<rect x="4.56293" y="6.99531" width="0.608289" height="0.608289" fill="#D9D9D9" stroke="#D84048" stroke-width="0.608289"/>
<rect x="0.760471" y="6.84323" width="4.56217" height="0.304144" fill="#D9D9D9" stroke="#D84048" stroke-width="0.304144"/>
<rect x="5.32254" y="6.84323" width="4.56217" height="0.304144" transform="rotate(90 5.32254 6.84323)" fill="#D9D9D9" stroke="#D84048" stroke-width="0.304144"/>
<path d="M1.2168 10.9493L4.86653 7.29956" stroke="#D84048"/>
<path d="M1.99987 24.428V24.556C1.99987 24.5787 1.98853 24.59 1.96587 24.59H1.52387L0.749867 24.964C0.739201 24.9693 0.730534 24.9693 0.723867 24.964C0.717201 24.9587 0.713867 24.9513 0.713867 24.942L0.713867 24.782C0.713867 24.7647 0.725201 24.7513 0.747867 24.742L1.29787 24.496V24.484L0.747867 24.242C0.725201 24.234 0.713867 24.2207 0.713867 24.202L0.713867 24.042C0.713867 24.0313 0.717201 24.024 0.723867 24.02C0.730534 24.0147 0.739201 24.0147 0.749867 24.02L1.52387 24.394H1.96587C1.98853 24.394 1.99987 24.4053 1.99987 24.428Z" fill="#D84048"/>
<path d="M1.82987 23.5204L1.82987 23.3464C1.82987 23.2491 1.78053 23.2004 1.68187 23.2004L1.03187 23.2004C0.933201 23.2004 0.883867 23.2491 0.883867 23.3464V23.5204C0.883867 23.6164 0.933201 23.6644 1.03187 23.6644H1.68187C1.78053 23.6644 1.82987 23.6164 1.82987 23.5204ZM1.99987 23.3164V23.5484C1.99987 23.6471 1.97253 23.7237 1.91787 23.7784C1.8632 23.8317 1.7872 23.8584 1.68987 23.8584H1.02387C0.925201 23.8584 0.849201 23.8317 0.795867 23.7784C0.741201 23.7237 0.713867 23.6471 0.713867 23.5484L0.713867 23.3164C0.713867 23.2177 0.741201 23.1411 0.795867 23.0864C0.849201 23.0317 0.925201 23.0044 1.02387 23.0044H1.68987C1.7872 23.0044 1.8632 23.0317 1.91787 23.0864C1.97253 23.1411 1.99987 23.2177 1.99987 23.3164Z" fill="#D84048"/>
<path d="M0.713867 22.0629L0.713867 21.9369C0.713867 21.9129 0.724534 21.9009 0.745867 21.9009H1.68987C1.7872 21.9009 1.8632 21.9289 1.91787 21.9849C1.97253 22.0395 1.99987 22.1155 1.99987 22.2129V22.4349C1.99987 22.5322 1.97253 22.6082 1.91787 22.6629C1.8632 22.7175 1.7872 22.7449 1.68987 22.7449H0.747867C0.725201 22.7449 0.713867 22.7335 0.713867 22.7109L0.713867 22.5849C0.713867 22.5622 0.725201 22.5509 0.747867 22.5509H1.68187C1.78053 22.5509 1.82987 22.5029 1.82987 22.4069V22.2429C1.82987 22.1455 1.78053 22.0969 1.68187 22.0969L0.747867 22.0969C0.725201 22.0969 0.713867 22.0855 0.713867 22.0629Z" fill="#D84048"/>
<path d="M1.99987 21.4616V21.5876C1.99987 21.6103 1.98853 21.6216 1.96587 21.6216L0.747867 21.6216C0.725201 21.6216 0.713867 21.6103 0.713867 21.5876L0.713867 21.1196C0.713867 21.0223 0.741867 20.9463 0.797867 20.8916C0.852534 20.8356 0.928534 20.8076 1.02587 20.8076H1.19387C1.3472 20.8076 1.44387 20.8709 1.48387 20.9976H1.49187L1.95987 20.7756C1.98653 20.7609 1.99987 20.7696 1.99987 20.8016V20.9256C1.99987 20.9576 1.98853 20.9783 1.96587 20.9876L1.50587 21.2016V21.4036C1.50587 21.4196 1.51253 21.4276 1.52587 21.4276H1.96587C1.98853 21.4276 1.99987 21.4389 1.99987 21.4616ZM1.34587 21.4056V21.1516C1.34587 21.0529 1.2972 21.0036 1.19987 21.0036H1.03187C0.9332 21.0036 0.883867 21.0529 0.883867 21.1516L0.883867 21.4056C0.883867 21.4203 0.890534 21.4276 0.903867 21.4276H1.32587C1.3392 21.4276 1.34587 21.4203 1.34587 21.4056Z" fill="#D84048"/>
<path d="M4.99987 24.784V24.928C4.99987 24.9467 4.98853 24.9533 4.96587 24.948L3.74787 24.6C3.7252 24.5933 3.71387 24.5773 3.71387 24.552V24.352C3.71387 24.3253 3.7252 24.3093 3.74787 24.304L4.96587 23.956C4.98853 23.9507 4.99987 23.958 4.99987 23.978V24.12C4.99987 24.132 4.99787 24.1407 4.99387 24.146C4.98853 24.15 4.9792 24.1533 4.96587 24.156L4.70587 24.232V24.672L4.96587 24.748C4.98853 24.7533 4.99987 24.7653 4.99987 24.784ZM3.90587 24.456L4.54587 24.632L4.54587 24.27L3.90587 24.448V24.456Z" fill="#D84048"/>
<path d="M4.99987 23.5983V23.7243C4.99987 23.747 4.98853 23.7583 4.96587 23.7583H3.74787C3.7252 23.7583 3.71387 23.747 3.71387 23.7243V23.2563C3.71387 23.159 3.74187 23.083 3.79787 23.0283C3.85253 22.9723 3.92853 22.9443 4.02587 22.9443H4.19387C4.3472 22.9443 4.44387 23.0076 4.48387 23.1343H4.49187L4.95987 22.9123C4.98653 22.8976 4.99987 22.9063 4.99987 22.9383V23.0623C4.99987 23.0943 4.98853 23.115 4.96587 23.1243L4.50587 23.3383V23.5403C4.50587 23.5563 4.51253 23.5643 4.52587 23.5643H4.96587C4.98853 23.5643 4.99987 23.5756 4.99987 23.5983ZM4.34587 23.5423V23.2883C4.34587 23.1896 4.2972 23.1403 4.19987 23.1403H4.03187C3.9332 23.1403 3.88387 23.1896 3.88387 23.2883V23.5423C3.88387 23.557 3.89053 23.5643 3.90387 23.5643H4.32587C4.3392 23.5643 4.34587 23.557 4.34587 23.5423Z" fill="#D84048"/>
<path d="M3.71387 21.7943V21.5703C3.71387 21.5477 3.7252 21.5363 3.74787 21.5363H4.96587C4.98853 21.5363 4.99987 21.5477 4.99987 21.5703V21.6943C4.99987 21.717 4.98853 21.7283 4.96587 21.7283L3.95587 21.7283V21.7363L4.68787 21.9963C4.7092 22.0043 4.71987 22.019 4.71987 22.0403V22.1683C4.71987 22.1883 4.7092 22.2023 4.68787 22.2103L3.95387 22.4763V22.4843H4.96587C4.9792 22.4843 4.98853 22.487 4.99387 22.4923C4.99787 22.4963 4.99987 22.505 4.99987 22.5183V22.6403C4.99987 22.663 4.98853 22.6743 4.96587 22.6743H3.74787C3.7252 22.6743 3.71387 22.663 3.71387 22.6403V22.4163C3.71387 22.4017 3.7212 22.391 3.73587 22.3843L4.50787 22.1103V22.1003L3.73587 21.8243C3.7212 21.8217 3.71387 21.8117 3.71387 21.7943Z" fill="#D84048"/>
<path d="M4.82987 20.9266V20.7526C4.82987 20.6553 4.78053 20.6066 4.68187 20.6066H4.03187C3.9332 20.6066 3.88387 20.6553 3.88387 20.7526V20.9266C3.88387 21.0226 3.9332 21.0706 4.03187 21.0706H4.68187C4.78053 21.0706 4.82987 21.0226 4.82987 20.9266ZM4.99987 20.7226V20.9546C4.99987 21.0533 4.97253 21.13 4.91787 21.1846C4.8632 21.238 4.7872 21.2646 4.68987 21.2646H4.02387C3.9252 21.2646 3.8492 21.238 3.79587 21.1846C3.7412 21.13 3.71387 21.0533 3.71387 20.9546V20.7226C3.71387 20.624 3.7412 20.5473 3.79587 20.4926C3.8492 20.438 3.9252 20.4106 4.02387 20.4106H4.68987C4.7872 20.4106 4.8632 20.438 4.91787 20.4926C4.97253 20.5473 4.99987 20.624 4.99987 20.7226Z" fill="#D84048"/>
<path d="M4.99987 19.9811V20.1071C4.99987 20.1298 4.98853 20.1411 4.96587 20.1411L3.74787 20.1411C3.7252 20.1411 3.71387 20.1298 3.71387 20.1071V19.6391C3.71387 19.5418 3.74187 19.4658 3.79787 19.4111C3.85253 19.3551 3.92853 19.3271 4.02587 19.3271L4.19387 19.3271C4.3472 19.3271 4.44387 19.3905 4.48387 19.5171H4.49187L4.95987 19.2951C4.98653 19.2805 4.99987 19.2891 4.99987 19.3211V19.4451C4.99987 19.4771 4.98853 19.4978 4.96587 19.5071L4.50587 19.7211L4.50587 19.9231C4.50587 19.9391 4.51253 19.9471 4.52587 19.9471H4.96587C4.98853 19.9471 4.99987 19.9585 4.99987 19.9811ZM4.34587 19.9251V19.6711C4.34587 19.5725 4.2972 19.5231 4.19987 19.5231L4.03187 19.5231C3.9332 19.5231 3.88387 19.5725 3.88387 19.6711V19.9251C3.88387 19.9398 3.89053 19.9471 3.90387 19.9471H4.32587C4.3392 19.9471 4.34587 19.9398 4.34587 19.9251Z" fill="#D84048"/>
</svg>
