<svg width="262" height="24" viewBox="0 0 262 24" fill="none" xmlns="http://www.w3.org/2000/svg">
<path d="M74.651 0.579H74.903C74.939 0.579 74.957 0.595 74.957 0.627V0.783C74.957 0.817 74.939 0.834 74.903 0.834H74.651C74.631 0.834 74.621 0.844 74.621 0.864V2.058C74.621 2.092 74.603 2.109 74.567 2.109H74.378C74.344 2.109 74.327 2.092 74.327 2.058V0.864C74.327 0.844 74.316 0.834 74.294 0.834H74.135C74.101 0.834 74.084 0.817 74.084 0.783V0.627C74.084 0.609 74.087 0.597 74.093 0.591C74.101 0.583 74.115 0.579 74.135 0.579H74.294C74.316 0.579 74.327 0.569 74.327 0.549V0.462C74.327 0.314 74.365 0.2 74.441 0.12C74.517 0.04 74.628 0 74.774 0H74.906C74.94 0 74.957 0.016 74.957 0.0479999V0.204C74.957 0.238 74.94 0.255 74.906 0.255H74.816C74.744 0.255 74.693 0.273 74.663 0.309C74.635 0.343 74.621 0.399 74.621 0.477V0.549C74.621 0.569 74.631 0.579 74.651 0.579Z" fill="#B3333A" fill-opacity="0.8"/>
<path fill-rule="evenodd" clip-rule="evenodd" d="M75.7639 2.109H75.6109C75.4669 2.109 75.3559 2.069 75.2779 1.989C75.2019 1.907 75.1639 1.792 75.1639 1.644V1.044C75.1639 0.894 75.2019 0.779 75.2779 0.699C75.3559 0.619 75.4669 0.579 75.6109 0.579H75.7639C75.9179 0.579 76.0179 0.632 76.0639 0.738H76.0759V0.0509999C76.0759 0.017 76.0929 0 76.1269 0H76.3189C76.3529 0 76.3699 0.017 76.3699 0.0509999V2.058C76.3699 2.092 76.3529 2.109 76.3189 2.109H76.1269C76.0929 2.109 76.0759 2.092 76.0759 2.058V1.95H76.0639C76.0179 2.056 75.9179 2.109 75.7639 2.109ZM76.0759 1.599V1.089C76.0759 0.919 75.9939 0.834 75.8299 0.834H75.6709C75.5269 0.834 75.4549 0.908 75.4549 1.056V1.632C75.4549 1.78 75.5269 1.854 75.6709 1.854H75.8299C75.9939 1.854 76.0759 1.769 76.0759 1.599Z" fill="#B3333A" fill-opacity="0.8"/>
<path d="M77.2926 2.109H76.7406C76.7066 2.109 76.6896 2.092 76.6896 2.058V1.911C76.6896 1.879 76.7066 1.863 76.7406 1.863H77.2446C77.3746 1.863 77.4396 1.818 77.4396 1.728V1.692C77.4396 1.612 77.3926 1.551 77.2986 1.509L76.9716 1.353C76.8696 1.305 76.7956 1.252 76.7496 1.194C76.7036 1.136 76.6806 1.06 76.6806 0.966C76.6806 0.708 76.8236 0.579 77.1096 0.579H77.6076C77.6396 0.579 77.6556 0.596 77.6556 0.63V0.777C77.6556 0.811 77.6396 0.828 77.6076 0.828H77.1696C77.1096 0.828 77.0636 0.839 77.0316 0.861C76.9996 0.881 76.9836 0.908 76.9836 0.942V0.975C76.9836 1.039 77.0346 1.095 77.1366 1.143L77.4666 1.311C77.5706 1.357 77.6416 1.412 77.6796 1.476C77.7196 1.538 77.7396 1.619 77.7396 1.719C77.7396 1.979 77.5906 2.109 77.2926 2.109Z" fill="#B3333A" fill-opacity="0.8"/>
<path d="M78.5963 2.109H78.0443C78.0103 2.109 77.9933 2.092 77.9933 2.058V1.911C77.9933 1.879 78.0103 1.863 78.0443 1.863H78.5483C78.6783 1.863 78.7433 1.818 78.7433 1.728V1.692C78.7433 1.612 78.6963 1.551 78.6023 1.509L78.2753 1.353C78.1733 1.305 78.0993 1.252 78.0533 1.194C78.0073 1.136 77.9843 1.06 77.9843 0.966C77.9843 0.708 78.1273 0.579 78.4133 0.579H78.9113C78.9433 0.579 78.9593 0.596 78.9593 0.63V0.777C78.9593 0.811 78.9433 0.828 78.9113 0.828H78.4733C78.4133 0.828 78.3673 0.839 78.3353 0.861C78.3033 0.881 78.2873 0.908 78.2873 0.942V0.975C78.2873 1.039 78.3383 1.095 78.4403 1.143L78.7703 1.311C78.8743 1.357 78.9453 1.412 78.9833 1.476C79.0233 1.538 79.0433 1.619 79.0433 1.719C79.0433 1.979 78.8943 2.109 78.5963 2.109Z" fill="#B3333A" fill-opacity="0.8"/>
<path d="M79.816 0.579H80.068C80.104 0.579 80.122 0.595 80.122 0.627V0.783C80.122 0.817 80.104 0.834 80.068 0.834H79.816C79.796 0.834 79.786 0.844 79.786 0.864V2.058C79.786 2.092 79.768 2.109 79.732 2.109H79.543C79.509 2.109 79.492 2.092 79.492 2.058V0.864C79.492 0.844 79.481 0.834 79.459 0.834H79.3C79.266 0.834 79.249 0.817 79.249 0.783V0.627C79.249 0.609 79.252 0.597 79.258 0.591C79.266 0.583 79.28 0.579 79.3 0.579H79.459C79.481 0.579 79.492 0.569 79.492 0.549V0.462C79.492 0.314 79.53 0.2 79.606 0.12C79.682 0.04 79.793 0 79.939 0H80.071C80.105 0 80.122 0.016 80.122 0.0479999V0.204C80.122 0.238 80.105 0.255 80.071 0.255H79.981C79.909 0.255 79.858 0.273 79.828 0.309C79.8 0.343 79.786 0.399 79.786 0.477V0.549C79.786 0.569 79.796 0.579 79.816 0.579Z" fill="#B3333A" fill-opacity="0.8"/>
<path d="M80.8209 0.579H81.0729C81.1089 0.579 81.1269 0.595 81.1269 0.627V0.783C81.1269 0.817 81.1089 0.834 81.0729 0.834H80.8209C80.8009 0.834 80.7909 0.844 80.7909 0.864V2.058C80.7909 2.092 80.7729 2.109 80.7369 2.109H80.5479C80.5139 2.109 80.4969 2.092 80.4969 2.058V0.864C80.4969 0.844 80.4859 0.834 80.4639 0.834H80.3049C80.2709 0.834 80.2539 0.817 80.2539 0.783V0.627C80.2539 0.609 80.2569 0.597 80.2629 0.591C80.2709 0.583 80.2849 0.579 80.3049 0.579H80.4639C80.4859 0.579 80.4969 0.569 80.4969 0.549V0.462C80.4969 0.314 80.5349 0.2 80.6109 0.12C80.6869 0.04 80.7979 0 80.9439 0H81.0759C81.1099 0 81.1269 0.016 81.1269 0.0479999V0.204C81.1269 0.238 81.1099 0.255 81.0759 0.255H80.9859C80.9139 0.255 80.8629 0.273 80.8329 0.309C80.8049 0.343 80.7909 0.399 80.7909 0.477V0.549C80.7909 0.569 80.8009 0.579 80.8209 0.579Z" fill="#B3333A" fill-opacity="0.8"/>
<path fill-rule="evenodd" clip-rule="evenodd" d="M81.9338 2.109H81.7808C81.6368 2.109 81.5258 2.069 81.4478 1.989C81.3718 1.907 81.3338 1.792 81.3338 1.644V1.044C81.3338 0.894 81.3718 0.779 81.4478 0.699C81.5258 0.619 81.6368 0.579 81.7808 0.579H81.9338C82.0878 0.579 82.1878 0.632 82.2338 0.738H82.2458V0.0509999C82.2458 0.017 82.2628 0 82.2968 0H82.4888C82.5228 0 82.5398 0.017 82.5398 0.0509999V2.058C82.5398 2.092 82.5228 2.109 82.4888 2.109H82.2968C82.2628 2.109 82.2458 2.092 82.2458 2.058V1.95H82.2338C82.1878 2.056 82.0878 2.109 81.9338 2.109ZM82.2458 1.599V1.089C82.2458 0.919 82.1638 0.834 81.9998 0.834H81.8408C81.6968 0.834 81.6248 0.908 81.6248 1.056V1.632C81.6248 1.78 81.6968 1.854 81.8408 1.854H81.9998C82.1638 1.854 82.2458 1.769 82.2458 1.599Z" fill="#B3333A" fill-opacity="0.8"/>
<path d="M83.4625 2.109H82.9105C82.8765 2.109 82.8595 2.092 82.8595 2.058V1.911C82.8595 1.879 82.8765 1.863 82.9105 1.863H83.4145C83.5445 1.863 83.6095 1.818 83.6095 1.728V1.692C83.6095 1.612 83.5625 1.551 83.4685 1.509L83.1415 1.353C83.0395 1.305 82.9655 1.252 82.9195 1.194C82.8735 1.136 82.8505 1.06 82.8505 0.966C82.8505 0.708 82.9935 0.579 83.2795 0.579H83.7775C83.8095 0.579 83.8255 0.596 83.8255 0.63V0.777C83.8255 0.811 83.8095 0.828 83.7775 0.828H83.3395C83.2795 0.828 83.2335 0.839 83.2015 0.861C83.1695 0.881 83.1535 0.908 83.1535 0.942V0.975C83.1535 1.039 83.2045 1.095 83.3065 1.143L83.6365 1.311C83.7405 1.357 83.8115 1.412 83.8495 1.476C83.8895 1.538 83.9095 1.619 83.9095 1.719C83.9095 1.979 83.7605 2.109 83.4625 2.109Z" fill="#B3333A" fill-opacity="0.8"/>
<path fill-rule="evenodd" clip-rule="evenodd" d="M84.7783 2.034H84.6432C84.4993 2.034 84.3883 1.994 84.3102 1.914C84.2343 1.832 84.1963 1.717 84.1963 1.569V1.044C84.1963 0.896 84.2373 0.782 84.3193 0.702C84.4013 0.62 84.5153 0.579 84.6612 0.579H85.3333C85.3692 0.579 85.3873 0.596 85.3873 0.63V2.115C85.3873 2.261 85.3453 2.374 85.2613 2.454C85.1793 2.536 85.0652 2.577 84.9193 2.577H84.3552C84.3213 2.577 84.3043 2.561 84.3043 2.529V2.373C84.3043 2.339 84.3213 2.322 84.3552 2.322H84.8743C85.0202 2.322 85.0932 2.248 85.0932 2.1V1.872H85.0813C85.0312 1.98 84.9303 2.034 84.7783 2.034ZM85.0932 1.524V0.864C85.0932 0.844 85.0823 0.834 85.0602 0.834H84.7032C84.5612 0.834 84.4902 0.908 84.4902 1.056V1.554C84.4902 1.702 84.5612 1.776 84.7032 1.776H84.8473C85.0113 1.776 85.0932 1.692 85.0932 1.524Z" fill="#B3333A" fill-opacity="0.8"/>
<path d="M167.568 0.251H167.19C167.118 0.251 167.082 0.285 167.082 0.353V3.155C167.082 3.451 166.938 3.599 166.65 3.599H166.224C165.936 3.599 165.792 3.451 165.792 3.155V2.639C165.792 2.571 165.758 2.537 165.69 2.537H165.312C165.24 2.537 165.204 2.571 165.204 2.639V3.179C165.204 3.471 165.286 3.699 165.45 3.863C165.614 4.027 165.844 4.109 166.14 4.109H166.74C167.032 4.109 167.26 4.027 167.424 3.863C167.588 3.699 167.67 3.471 167.67 3.179V0.347C167.67 0.283 167.636 0.251 167.568 0.251Z" fill="#B3333A" fill-opacity="0.8"/>
<path d="M168.388 3.455V4.007C168.388 4.075 168.424 4.109 168.496 4.109H170.602C170.674 4.109 170.71 4.075 170.71 4.007V3.689C170.71 3.621 170.674 3.587 170.602 3.587H169.042V3.395C169.042 3.291 169.088 3.201 169.18 3.125L170.332 2.183C170.576 1.983 170.698 1.727 170.698 1.415V1.169C170.698 0.877 170.616 0.651 170.452 0.491C170.288 0.331 170.06 0.251 169.768 0.251H169.3C169.004 0.251 168.774 0.331 168.61 0.491C168.446 0.651 168.364 0.877 168.364 1.169V1.403C168.364 1.475 168.398 1.511 168.466 1.511H168.85C168.918 1.511 168.952 1.475 168.952 1.403V1.181C168.952 1.029 168.986 0.919 169.054 0.851C169.122 0.783 169.232 0.749 169.384 0.749H169.678C169.978 0.749 170.128 0.893 170.128 1.181V1.379C170.128 1.579 170.032 1.755 169.84 1.907L168.706 2.831C168.494 2.999 168.388 3.207 168.388 3.455Z" fill="#B3333A" fill-opacity="0.8"/>
<path fill-rule="evenodd" clip-rule="evenodd" d="M172.284 4.109H172.884C173.176 4.109 173.404 4.027 173.568 3.863C173.732 3.699 173.814 3.471 173.814 3.179V1.181C173.814 0.885 173.732 0.657 173.568 0.497C173.404 0.333 173.176 0.251 172.884 0.251H172.284C171.988 0.251 171.758 0.333 171.594 0.497C171.43 0.657 171.348 0.885 171.348 1.181V3.179C171.348 3.471 171.43 3.699 171.594 3.863C171.758 4.027 171.988 4.109 172.284 4.109ZM172.8 3.599H172.374C172.086 3.599 171.942 3.451 171.942 3.155V1.205C171.942 0.909 172.086 0.761 172.374 0.761H172.8C173.088 0.761 173.232 0.909 173.232 1.205V3.155C173.232 3.451 173.088 3.599 172.8 3.599Z" fill="#B3333A" fill-opacity="0.8"/>
<path fill-rule="evenodd" clip-rule="evenodd" d="M176.258 4.109H176.612C176.676 4.109 176.708 4.075 176.708 4.007V3.377H177.146C177.214 3.377 177.248 3.339 177.248 3.263V2.963C177.248 2.895 177.214 2.861 177.146 2.861H176.708V0.425C176.708 0.309 176.65 0.251 176.534 0.251H176.006C175.95 0.251 175.908 0.261 175.88 0.281C175.852 0.301 175.822 0.341 175.79 0.401L174.452 2.783C174.416 2.851 174.398 2.929 174.398 3.017V3.203C174.398 3.319 174.456 3.377 174.572 3.377H176.156V4.007C176.156 4.075 176.19 4.109 176.258 4.109ZM176.156 0.737V2.861H174.974L176.156 0.737Z" fill="#B3333A" fill-opacity="0.8"/>
<path fill-rule="evenodd" clip-rule="evenodd" d="M179.457 4.109H179.811C179.875 4.109 179.907 4.075 179.907 4.007V3.377H180.345C180.413 3.377 180.447 3.339 180.447 3.263V2.963C180.447 2.895 180.413 2.861 180.345 2.861H179.907V0.425C179.907 0.309 179.849 0.251 179.733 0.251H179.205C179.149 0.251 179.107 0.261 179.079 0.281C179.051 0.301 179.021 0.341 178.989 0.401L177.651 2.783C177.615 2.851 177.597 2.929 177.597 3.017V3.203C177.597 3.319 177.655 3.377 177.771 3.377H179.355V4.007C179.355 4.075 179.389 4.109 179.457 4.109ZM179.355 0.737V2.861H178.173L179.355 0.737Z" fill="#B3333A" fill-opacity="0.8"/>
<path fill-rule="evenodd" clip-rule="evenodd" d="M182.656 4.109H183.01C183.074 4.109 183.106 4.075 183.106 4.007V3.377H183.544C183.612 3.377 183.646 3.339 183.646 3.263V2.963C183.646 2.895 183.612 2.861 183.544 2.861H183.106V0.425C183.106 0.309 183.048 0.251 182.932 0.251H182.404C182.348 0.251 182.306 0.261 182.278 0.281C182.25 0.301 182.22 0.341 182.188 0.401L180.85 2.783C180.814 2.851 180.796 2.929 180.796 3.017V3.203C180.796 3.319 180.854 3.377 180.97 3.377H182.554V4.007C182.554 4.075 182.588 4.109 182.656 4.109ZM182.554 0.737V2.861H181.372L182.554 0.737Z" fill="#B3333A" fill-opacity="0.8"/>
<path fill-rule="evenodd" clip-rule="evenodd" d="M186.481 4.109H187.081C187.373 4.109 187.601 4.027 187.765 3.863C187.929 3.699 188.011 3.471 188.011 3.179V1.181C188.011 0.885 187.929 0.657 187.765 0.497C187.601 0.333 187.373 0.251 187.081 0.251H186.481C186.185 0.251 185.955 0.333 185.791 0.497C185.627 0.657 185.545 0.885 185.545 1.181V3.179C185.545 3.471 185.627 3.699 185.791 3.863C185.955 4.027 186.185 4.109 186.481 4.109ZM186.997 3.599H186.571C186.283 3.599 186.139 3.451 186.139 3.155V1.205C186.139 0.909 186.283 0.761 186.571 0.761H186.997C187.285 0.761 187.429 0.909 187.429 1.205V3.155C187.429 3.451 187.285 3.599 186.997 3.599Z" fill="#B3333A" fill-opacity="0.8"/>
<path d="M189.899 4.751H191.927C191.995 4.751 192.029 4.715 192.029 4.643V4.517C192.029 4.449 191.995 4.415 191.927 4.415H189.899C189.831 4.415 189.797 4.449 189.797 4.517V4.643C189.797 4.715 189.831 4.751 189.899 4.751Z" fill="#B3333A" fill-opacity="0.8"/>
<path fill-rule="evenodd" clip-rule="evenodd" d="M195.547 4.109H195.901C195.965 4.109 195.997 4.075 195.997 4.007V3.377H196.435C196.503 3.377 196.537 3.339 196.537 3.263V2.963C196.537 2.895 196.503 2.861 196.435 2.861H195.997V0.425C195.997 0.309 195.939 0.251 195.823 0.251H195.295C195.239 0.251 195.197 0.261 195.169 0.281C195.141 0.301 195.111 0.341 195.079 0.401L193.741 2.783C193.705 2.851 193.687 2.929 193.687 3.017V3.203C193.687 3.319 193.745 3.377 193.861 3.377H195.445V4.007C195.445 4.075 195.479 4.109 195.547 4.109ZM195.445 0.737V2.861H194.263L195.445 0.737Z" fill="#B3333A" fill-opacity="0.8"/>
<path fill-rule="evenodd" clip-rule="evenodd" d="M203.035 4.109H203.389C203.453 4.109 203.485 4.075 203.485 4.007V3.377H203.923C203.991 3.377 204.025 3.339 204.025 3.263V2.963C204.025 2.895 203.991 2.861 203.923 2.861H203.485V0.425C203.485 0.309 203.427 0.251 203.311 0.251H202.783C202.727 0.251 202.685 0.261 202.657 0.281C202.629 0.301 202.599 0.341 202.567 0.401L201.229 2.783C201.193 2.851 201.175 2.929 201.175 3.017V3.203C201.175 3.319 201.233 3.377 201.349 3.377H202.933V4.007C202.933 4.075 202.967 4.109 203.035 4.109ZM202.933 0.737V2.861H201.751L202.933 0.737Z" fill="#B3333A" fill-opacity="0.8"/>
<path d="M45 1.109V2.109H43V4.109H42V1.109H45Z" fill="#B3333A" fill-opacity="0.8"/>
<path d="M12 9.109H14V13.109H12V9.109Z" fill="#B3333A" fill-opacity="0.8"/>
<path d="M20 12.109H16V14.109H20V12.109Z" fill="#B3333A" fill-opacity="0.8"/>
<path d="M32 13.109H30V9.109H32V13.109Z" fill="#B3333A" fill-opacity="0.8"/>
<path d="M24 14.109H28V13.109H24V14.109Z" fill="#B3333A" fill-opacity="0.8"/>
<path fill-rule="evenodd" clip-rule="evenodd" d="M7.5 4.109H35V7.609H37.5V15.109H35V18.109H7.5V4.109ZM8.5 17.109H34V14.109H36.5V8.609H34V5.109H8.5V17.109Z" fill="#B3333A" fill-opacity="0.8"/>
<path d="M48 4.109H52V8.109H48V4.109Z" fill="#B3333A" fill-opacity="0.8"/>
<path d="M48 14.109H44V18.109H48V14.109Z" fill="#B3333A" fill-opacity="0.8"/>
<path d="M58 1.109H61V4.109H60V2.109H58V1.109Z" fill="#B3333A" fill-opacity="0.8"/>
<path d="M58 21.109V20.109H60V18.109H61V21.109H58Z" fill="#B3333A" fill-opacity="0.8"/>
<path d="M45 20.109V21.109H42V18.109H43V20.109H45Z" fill="#B3333A" fill-opacity="0.8"/>
<path d="M0 4.109H5V5.109H0V4.109Z" fill="#B3333A" fill-opacity="0.8"/>
<path d="M4 8.109H1V7.109H4V8.109Z" fill="#B3333A" fill-opacity="0.8"/>
<path d="M4 10.109V9.109H1V10.109H0V11.109H5V10.109H4Z" fill="#B3333A" fill-opacity="0.8"/>
<path d="M3 14.109H1V13.109H3V14.109Z" fill="#B3333A" fill-opacity="0.8"/>
<path d="M1 17.109H3V16.109H1V17.109Z" fill="#B3333A" fill-opacity="0.8"/>
<path d="M3 20.109H1V18.109H3V20.109Z" fill="#B3333A" fill-opacity="0.8"/>
<path fill-rule="evenodd" clip-rule="evenodd" d="M74.624 12.109H75.272C75.308 12.109 75.326 12.093 75.326 12.061V11.911C75.326 11.875 75.308 11.857 75.272 11.857H74.666C74.52 11.857 74.447 11.784 74.447 11.638V11.509C74.447 11.489 74.458 11.479 74.48 11.479H75.284C75.32 11.479 75.338 11.461 75.338 11.425V11.044C75.338 10.896 75.297 10.782 75.215 10.702C75.133 10.62 75.018 10.579 74.87 10.579H74.624C74.476 10.579 74.361 10.62 74.279 10.702C74.199 10.782 74.159 10.896 74.159 11.044V11.644C74.159 11.79 74.199 11.904 74.279 11.986C74.361 12.068 74.476 12.109 74.624 12.109ZM75.017 11.275H74.48C74.46 11.275 74.45 11.265 74.45 11.245V11.053C74.45 10.977 74.467 10.922 74.501 10.888C74.535 10.852 74.59 10.834 74.666 10.834H74.831C74.907 10.834 74.962 10.852 74.996 10.888C75.03 10.922 75.047 10.977 75.047 11.053V11.245C75.047 11.265 75.037 11.275 75.017 11.275Z" fill="#B3333A" fill-opacity="0.8"/>
<path d="M76.3825 10.579H76.1305C76.1105 10.579 76.1005 10.569 76.1005 10.549V10.477C76.1005 10.399 76.1145 10.343 76.1425 10.309C76.1725 10.273 76.2235 10.255 76.2955 10.255H76.3855C76.4195 10.255 76.4365 10.238 76.4365 10.204V10.048C76.4365 10.016 76.4195 10 76.3855 10H76.2535C76.1075 10 75.9965 10.04 75.9205 10.12C75.8445 10.2 75.8065 10.314 75.8065 10.462V10.549C75.8065 10.569 75.7955 10.579 75.7735 10.579H75.6145C75.5945 10.579 75.5805 10.583 75.5725 10.591C75.5665 10.597 75.5635 10.609 75.5635 10.627V10.783C75.5635 10.817 75.5805 10.834 75.6145 10.834H75.7735C75.7955 10.834 75.8065 10.844 75.8065 10.864V12.058C75.8065 12.092 75.8235 12.109 75.8575 12.109H76.0465C76.0825 12.109 76.1005 12.092 76.1005 12.058V10.864C76.1005 10.844 76.1105 10.834 76.1305 10.834H76.3825C76.4185 10.834 76.4365 10.817 76.4365 10.783V10.627C76.4365 10.595 76.4185 10.579 76.3825 10.579Z" fill="#B3333A" fill-opacity="0.8"/>
<path fill-rule="evenodd" clip-rule="evenodd" d="M77.1084 12.109H77.7564C77.7924 12.109 77.8104 12.093 77.8104 12.061V11.911C77.8104 11.875 77.7924 11.857 77.7564 11.857H77.1504C77.0044 11.857 76.9314 11.784 76.9314 11.638V11.509C76.9314 11.489 76.9424 11.479 76.9644 11.479H77.7684C77.8044 11.479 77.8224 11.461 77.8224 11.425V11.044C77.8224 10.896 77.7814 10.782 77.6994 10.702C77.6174 10.62 77.5024 10.579 77.3544 10.579H77.1084C76.9604 10.579 76.8454 10.62 76.7634 10.702C76.6834 10.782 76.6434 10.896 76.6434 11.044V11.644C76.6434 11.79 76.6834 11.904 76.7634 11.986C76.8454 12.068 76.9604 12.109 77.1084 12.109ZM77.5014 11.275H76.9644C76.9444 11.275 76.9344 11.265 76.9344 11.245V11.053C76.9344 10.977 76.9514 10.922 76.9854 10.888C77.0194 10.852 77.0744 10.834 77.1504 10.834H77.3154C77.3914 10.834 77.4464 10.852 77.4804 10.888C77.5144 10.922 77.5314 10.977 77.5314 11.053V11.245C77.5314 11.265 77.5214 11.275 77.5014 11.275Z" fill="#B3333A" fill-opacity="0.8"/>
<path d="M78.2039 12.109H78.3929C78.4269 12.109 78.4439 12.092 78.4439 12.058V11.089C78.4439 10.919 78.5259 10.834 78.6899 10.834H78.8309C78.9769 10.834 79.0499 10.908 79.0499 11.056V12.058C79.0499 12.092 79.0669 12.109 79.1009 12.109H79.2899C79.3259 12.109 79.3439 12.092 79.3439 12.058V11.044C79.3439 10.894 79.3049 10.779 79.2269 10.699C79.1489 10.619 79.0369 10.579 78.8909 10.579H78.7589C78.6049 10.579 78.5039 10.632 78.4559 10.738H78.4439V10.051C78.4439 10.017 78.4269 10 78.3929 10H78.2039C78.1699 10 78.1529 10.017 78.1529 10.051V12.058C78.1529 12.092 78.1699 12.109 78.2039 12.109Z" fill="#B3333A" fill-opacity="0.8"/>
<path d="M79.6037 10.834H79.7477C79.7677 10.834 79.7777 10.844 79.7777 10.864V11.65C79.7777 11.796 79.8197 11.909 79.9037 11.989C79.9877 12.069 80.1037 12.109 80.2517 12.109H80.4137C80.4497 12.109 80.4677 12.093 80.4677 12.061V11.905C80.4677 11.871 80.4497 11.854 80.4137 11.854H80.2967C80.1467 11.854 80.0717 11.781 80.0717 11.635V10.864C80.0717 10.844 80.0827 10.834 80.1047 10.834H80.3837C80.4197 10.834 80.4377 10.818 80.4377 10.786V10.63C80.4377 10.596 80.4197 10.579 80.3837 10.579H80.1047C80.0827 10.579 80.0717 10.569 80.0717 10.549V10.279C80.0717 10.245 80.0547 10.228 80.0207 10.228H79.8317C79.7957 10.228 79.7777 10.245 79.7777 10.279V10.549C79.7777 10.569 79.7677 10.579 79.7477 10.579H79.6037C79.5697 10.579 79.5527 10.596 79.5527 10.63V10.786C79.5527 10.804 79.5557 10.817 79.5617 10.825C79.5697 10.831 79.5837 10.834 79.6037 10.834Z" fill="#B3333A" fill-opacity="0.8"/>
<path d="M81.1864 12.109H81.3214C81.4754 12.109 81.5764 12.056 81.6244 11.95H81.6364V12.058C81.6364 12.092 81.6534 12.109 81.6874 12.109H81.8764C81.9124 12.109 81.9304 12.092 81.9304 12.058V10.63C81.9304 10.596 81.9124 10.579 81.8764 10.579H81.6874C81.6534 10.579 81.6364 10.596 81.6364 10.63V11.599C81.6364 11.769 81.5544 11.854 81.3904 11.854H81.2464C81.1024 11.854 81.0304 11.78 81.0304 11.632V10.63C81.0304 10.596 81.0134 10.579 80.9794 10.579H80.7904C80.7564 10.579 80.7394 10.596 80.7394 10.63V11.644C80.7394 11.792 80.7774 11.907 80.8534 11.989C80.9314 12.069 81.0424 12.109 81.1864 12.109Z" fill="#B3333A" fill-opacity="0.8"/>
<path d="M82.7362 12.109H82.8712C83.0252 12.109 83.1262 12.056 83.1742 11.95H83.1862V12.058C83.1862 12.092 83.2032 12.109 83.2372 12.109H83.4262C83.4622 12.109 83.4802 12.092 83.4802 12.058V10.63C83.4802 10.596 83.4622 10.579 83.4262 10.579H83.2372C83.2032 10.579 83.1862 10.596 83.1862 10.63V11.599C83.1862 11.769 83.1042 11.854 82.9402 11.854H82.7962C82.6522 11.854 82.5802 11.78 82.5802 11.632V10.63C82.5802 10.596 82.5632 10.579 82.5292 10.579H82.3402C82.3062 10.579 82.2892 10.596 82.2892 10.63V11.644C82.2892 11.792 82.3272 11.907 82.4032 11.989C82.4812 12.069 82.5922 12.109 82.7362 12.109Z" fill="#B3333A" fill-opacity="0.8"/>
<path d="M72.34 4.134V3.679C72.34 3.62567 72.3667 3.599 72.42 3.599H72.745C72.7983 3.599 72.825 3.62567 72.825 3.679V4.134C72.825 4.19067 72.7983 4.219 72.745 4.219H72.42C72.3667 4.219 72.34 4.19067 72.34 4.134Z" fill="#B3333A" fill-opacity="0.8"/>
<path d="M72.045 7.889H71.78C71.7233 7.889 71.695 7.86067 71.695 7.804V7.549C71.695 7.49233 71.7233 7.464 71.78 7.464H71.91C72.0667 7.464 72.1767 7.43067 72.24 7.364C72.3067 7.29733 72.34 7.18567 72.34 7.029V4.644C72.34 4.58733 72.3683 4.559 72.425 4.559H72.74C72.7967 4.559 72.825 4.58733 72.825 4.644V7.114C72.825 7.35733 72.755 7.54733 72.615 7.684C72.4783 7.82067 72.2883 7.889 72.045 7.889Z" fill="#B3333A" fill-opacity="0.8"/>
<path d="M74.932 4.559H75.292C75.322 4.559 75.342 4.569 75.352 4.589C75.3653 4.60567 75.362 4.629 75.342 4.659L74.637 5.779V5.799L75.397 7.009C75.4137 7.03567 75.4153 7.059 75.402 7.079C75.392 7.099 75.3687 7.109 75.332 7.109H75.007C74.9303 7.109 74.8737 7.08067 74.837 7.024L74.132 5.869C74.1087 5.82567 74.1087 5.78067 74.132 5.734L74.787 4.639C74.817 4.58567 74.8653 4.559 74.932 4.559Z" fill="#B3333A" fill-opacity="0.8"/>
<path d="M73.882 7.109H73.567C73.5103 7.109 73.482 7.08067 73.482 7.024V3.679C73.482 3.62233 73.5103 3.594 73.567 3.594H73.882C73.9387 3.594 73.967 3.62233 73.967 3.679V7.024C73.967 7.08067 73.9387 7.109 73.882 7.109Z" fill="#B3333A" fill-opacity="0.8"/>
<path d="M76.7073 7.109H76.4823C76.2423 7.109 76.0573 7.04233 75.9273 6.909C75.8006 6.77233 75.7373 6.58067 75.7373 6.334V4.644C75.7373 4.58733 75.7656 4.559 75.8223 4.559H76.1373C76.1939 4.559 76.2223 4.58733 76.2223 4.644V6.314C76.2223 6.56067 76.3423 6.684 76.5823 6.684H76.8223C77.0956 6.684 77.2323 6.54233 77.2323 6.259V4.644C77.2323 4.58733 77.2606 4.559 77.3173 4.559H77.6323C77.6923 4.559 77.7223 4.58733 77.7223 4.644V7.024C77.7223 7.08067 77.6923 7.109 77.6323 7.109H77.3173C77.2606 7.109 77.2323 7.08067 77.2323 7.024V6.844H77.2123C77.1323 7.02067 76.9639 7.109 76.7073 7.109Z" fill="#B3333A" fill-opacity="0.8"/>
<path d="M78.4203 4.984H78.1803C78.1469 4.984 78.1236 4.979 78.1103 4.969C78.1003 4.95567 78.0953 4.934 78.0953 4.904V4.644C78.0953 4.58733 78.1236 4.559 78.1803 4.559H78.4203C78.4536 4.559 78.4703 4.54233 78.4703 4.509V4.059C78.4703 4.00233 78.5003 3.974 78.5603 3.974H78.8753C78.9319 3.974 78.9603 4.00233 78.9603 4.059V4.509C78.9603 4.54233 78.9786 4.559 79.0153 4.559H79.4803C79.5403 4.559 79.5703 4.58733 79.5703 4.644V4.904C79.5703 4.95733 79.5403 4.984 79.4803 4.984H79.0153C78.9786 4.984 78.9603 5.00067 78.9603 5.034V6.319C78.9603 6.56233 79.0853 6.684 79.3353 6.684H79.5303C79.5903 6.684 79.6203 6.71233 79.6203 6.769V7.029C79.6203 7.08233 79.5903 7.109 79.5303 7.109H79.2603C79.0136 7.109 78.8203 7.04233 78.6803 6.909C78.5403 6.77567 78.4703 6.58733 78.4703 6.344V5.034C78.4703 5.00067 78.4536 4.984 78.4203 4.984Z" fill="#B3333A" fill-opacity="0.8"/>
<path d="M81.0432 7.109H80.8182C80.5782 7.109 80.3932 7.04233 80.2632 6.909C80.1365 6.77233 80.0732 6.58067 80.0732 6.334V4.644C80.0732 4.58733 80.1015 4.559 80.1582 4.559H80.4732C80.5299 4.559 80.5582 4.58733 80.5582 4.644V6.314C80.5582 6.56067 80.6782 6.684 80.9182 6.684H81.1582C81.4315 6.684 81.5682 6.54233 81.5682 6.259V4.644C81.5682 4.58733 81.5965 4.559 81.6532 4.559H81.9682C82.0282 4.559 82.0582 4.58733 82.0582 4.644V7.024C82.0582 7.08067 82.0282 7.109 81.9682 7.109H81.6532C81.5965 7.109 81.5682 7.08067 81.5682 7.024V6.844H81.5482C81.4682 7.02067 81.2999 7.109 81.0432 7.109Z" fill="#B3333A" fill-opacity="0.8"/>
<path d="M84.2312 6.769V7.029C84.2312 7.08233 84.2012 7.109 84.1412 7.109H83.4062C83.1595 7.109 82.9679 7.04067 82.8312 6.904C82.6979 6.76733 82.6312 6.57733 82.6312 6.334V5.334C82.6312 5.08733 82.6979 4.89733 82.8312 4.764C82.9679 4.62733 83.1595 4.559 83.4062 4.559H84.1412C84.2012 4.559 84.2312 4.58733 84.2312 4.644V4.904C84.2312 4.95733 84.2012 4.984 84.1412 4.984H83.4762C83.2362 4.984 83.1162 5.10733 83.1162 5.354V6.314C83.1162 6.56067 83.2362 6.684 83.4762 6.684H84.1412C84.2012 6.684 84.2312 6.71233 84.2312 6.769Z" fill="#B3333A" fill-opacity="0.8"/>
<path d="M85.6176 7.109H84.6976C84.6409 7.109 84.6126 7.08067 84.6126 7.024V6.779C84.6126 6.72567 84.6409 6.699 84.6976 6.699H85.5376C85.7542 6.699 85.8626 6.624 85.8626 6.474V6.414C85.8626 6.28067 85.7842 6.179 85.6276 6.109L85.0826 5.849C84.9126 5.769 84.7892 5.68067 84.7126 5.584C84.6359 5.48733 84.5976 5.36067 84.5976 5.204C84.5976 4.774 84.8359 4.559 85.3126 4.559H86.1426C86.1959 4.559 86.2226 4.58733 86.2226 4.644V4.889C86.2226 4.94567 86.1959 4.974 86.1426 4.974H85.4126C85.3126 4.974 85.2359 4.99233 85.1826 5.029C85.1292 5.06233 85.1026 5.10733 85.1026 5.164V5.219C85.1026 5.32567 85.1876 5.419 85.3576 5.499L85.9076 5.779C86.0809 5.85567 86.1992 5.94733 86.2626 6.054C86.3292 6.15733 86.3626 6.29233 86.3626 6.459C86.3626 6.89233 86.1142 7.109 85.6176 7.109Z" fill="#B3333A" fill-opacity="0.8"/>
<path d="M87.7904 7.109H86.8704C86.8138 7.109 86.7854 7.08067 86.7854 7.024V6.779C86.7854 6.72567 86.8138 6.699 86.8704 6.699H87.7104C87.9271 6.699 88.0354 6.624 88.0354 6.474V6.414C88.0354 6.28067 87.9571 6.179 87.8004 6.109L87.2554 5.849C87.0854 5.769 86.9621 5.68067 86.8854 5.584C86.8088 5.48733 86.7704 5.36067 86.7704 5.204C86.7704 4.774 87.0088 4.559 87.4854 4.559H88.3154C88.3688 4.559 88.3954 4.58733 88.3954 4.644V4.889C88.3954 4.94567 88.3688 4.974 88.3154 4.974H87.5854C87.4854 4.974 87.4088 4.99233 87.3554 5.029C87.3021 5.06233 87.2754 5.10733 87.2754 5.164V5.219C87.2754 5.32567 87.3604 5.419 87.5304 5.499L88.0804 5.779C88.2538 5.85567 88.3721 5.94733 88.4354 6.054C88.5021 6.15733 88.5354 6.29233 88.5354 6.459C88.5354 6.89233 88.2871 7.109 87.7904 7.109Z" fill="#B3333A" fill-opacity="0.8"/>
<path d="M89.8233 4.559H90.2433C90.3033 4.559 90.3333 4.58567 90.3333 4.639V4.899C90.3333 4.95567 90.3033 4.984 90.2433 4.984H89.8233C89.7899 4.984 89.7733 5.00067 89.7733 5.034V7.024C89.7733 7.08067 89.7433 7.109 89.6833 7.109H89.3683C89.3116 7.109 89.2833 7.08067 89.2833 7.024V5.034C89.2833 5.00067 89.2649 4.984 89.2283 4.984H88.9633C88.9066 4.984 88.8783 4.95567 88.8783 4.899V4.639C88.8783 4.609 88.8833 4.589 88.8933 4.579C88.9066 4.56567 88.9299 4.559 88.9633 4.559H89.2283C89.2649 4.559 89.2833 4.54233 89.2833 4.509V4.364C89.2833 4.11733 89.3466 3.92733 89.4733 3.794C89.5999 3.66067 89.785 3.594 90.0283 3.594H90.2483C90.3049 3.594 90.3333 3.62067 90.3333 3.674V3.934C90.3333 3.99067 90.3049 4.019 90.2483 4.019H90.0983C89.9783 4.019 89.8933 4.049 89.8433 4.109C89.7966 4.16567 89.7733 4.259 89.7733 4.389V4.509C89.7733 4.54233 89.7899 4.559 89.8233 4.559Z" fill="#B3333A" fill-opacity="0.8"/>
<path d="M90.5681 4.559H90.9031C90.9564 4.559 90.9881 4.58733 90.9981 4.644L91.5181 6.654H91.5531L92.0631 4.644C92.0764 4.58733 92.1114 4.559 92.1681 4.559H92.4981C92.5581 4.559 92.5781 4.58733 92.5581 4.644L91.8831 7.019C91.8698 7.079 91.8331 7.109 91.7731 7.109H91.2931C91.2331 7.109 91.1964 7.079 91.1831 7.019L90.5081 4.644C90.4948 4.58733 90.5148 4.559 90.5681 4.559Z" fill="#B3333A" fill-opacity="0.8"/>
<path fill-rule="evenodd" clip-rule="evenodd" d="M95.0907 6.984H94.8657C94.6257 6.984 94.4407 6.91733 94.3107 6.784C94.184 6.64733 94.1207 6.45567 94.1207 6.209V5.334C94.1207 5.08733 94.189 4.89733 94.3257 4.764C94.4624 4.62733 94.6524 4.559 94.8957 4.559H96.0157C96.0757 4.559 96.1057 4.58733 96.1057 4.644V7.119C96.1057 7.36233 96.0357 7.55067 95.8957 7.684C95.759 7.82067 95.569 7.889 95.3257 7.889H94.3857C94.329 7.889 94.3007 7.86233 94.3007 7.809V7.549C94.3007 7.49233 94.329 7.464 94.3857 7.464H95.2507C95.494 7.464 95.6157 7.34067 95.6157 7.094V6.714H95.5957C95.5124 6.894 95.344 6.984 95.0907 6.984ZM95.6157 6.134V5.034C95.6157 5.00067 95.5974 4.984 95.5607 4.984H94.9657C94.729 4.984 94.6107 5.10733 94.6107 5.354V6.184C94.6107 6.43067 94.729 6.554 94.9657 6.554H95.2057C95.479 6.554 95.6157 6.414 95.6157 6.134Z" fill="#B3333A" fill-opacity="0.8"/>
<path d="M97.6391 7.109H96.7191C96.6624 7.109 96.6341 7.08067 96.6341 7.024V6.779C96.6341 6.72567 96.6624 6.699 96.7191 6.699H97.5591C97.7757 6.699 97.8841 6.624 97.8841 6.474V6.414C97.8841 6.28067 97.8057 6.179 97.6491 6.109L97.1041 5.849C96.9341 5.769 96.8107 5.68067 96.7341 5.584C96.6574 5.48733 96.6191 5.36067 96.6191 5.204C96.6191 4.774 96.8574 4.559 97.3341 4.559H98.1641C98.2174 4.559 98.2441 4.58733 98.2441 4.644V4.889C98.2441 4.94567 98.2174 4.974 98.1641 4.974H97.4341C97.3341 4.974 97.2574 4.99233 97.2041 5.029C97.1507 5.06233 97.1241 5.10733 97.1241 5.164V5.219C97.1241 5.32567 97.2091 5.419 97.3791 5.499L97.9291 5.779C98.1024 5.85567 98.2207 5.94733 98.2841 6.054C98.3507 6.15733 98.3841 6.29233 98.3841 6.459C98.3841 6.89233 98.1357 7.109 97.6391 7.109Z" fill="#B3333A" fill-opacity="0.8"/>
<path fill-rule="evenodd" clip-rule="evenodd" d="M101.023 6.984H100.798C100.558 6.984 100.373 6.91733 100.243 6.784C100.117 6.64733 100.053 6.45567 100.053 6.209V5.334C100.053 5.08733 100.122 4.89733 100.258 4.764C100.395 4.62733 100.585 4.559 100.828 4.559H101.948C102.008 4.559 102.038 4.58733 102.038 4.644V7.119C102.038 7.36233 101.968 7.55067 101.828 7.684C101.692 7.82067 101.502 7.889 101.258 7.889H100.318C100.262 7.889 100.233 7.86233 100.233 7.809V7.549C100.233 7.49233 100.262 7.464 100.318 7.464H101.183C101.427 7.464 101.548 7.34067 101.548 7.094V6.714H101.528C101.445 6.894 101.277 6.984 101.023 6.984ZM101.548 6.134V5.034C101.548 5.00067 101.53 4.984 101.493 4.984H100.898C100.662 4.984 100.543 5.10733 100.543 5.354V6.184C100.543 6.43067 100.662 6.554 100.898 6.554H101.138C101.412 6.554 101.548 6.414 101.548 6.134Z" fill="#B3333A" fill-opacity="0.8"/>
<path d="M103.572 7.109H102.652C102.595 7.109 102.567 7.08067 102.567 7.024V6.779C102.567 6.72567 102.595 6.699 102.652 6.699H103.492C103.708 6.699 103.817 6.624 103.817 6.474V6.414C103.817 6.28067 103.738 6.179 103.582 6.109L103.037 5.849C102.867 5.769 102.743 5.68067 102.667 5.584C102.59 5.48733 102.552 5.36067 102.552 5.204C102.552 4.774 102.79 4.559 103.267 4.559H104.097C104.15 4.559 104.177 4.58733 104.177 4.644V4.889C104.177 4.94567 104.15 4.974 104.097 4.974H103.367C103.267 4.974 103.19 4.99233 103.137 5.029C103.083 5.06233 103.057 5.10733 103.057 5.164V5.219C103.057 5.32567 103.142 5.419 103.312 5.499L103.862 5.779C104.035 5.85567 104.153 5.94733 104.217 6.054C104.283 6.15733 104.317 6.29233 104.317 6.459C104.317 6.89233 104.068 7.109 103.572 7.109Z" fill="#B3333A" fill-opacity="0.8"/>
<path fill-rule="evenodd" clip-rule="evenodd" d="M105.765 6.984H105.54C105.3 6.984 105.115 6.91733 104.985 6.784C104.858 6.64733 104.795 6.45567 104.795 6.209V5.334C104.795 5.08733 104.863 4.89733 105 4.764C105.136 4.62733 105.326 4.559 105.57 4.559H106.69C106.75 4.559 106.78 4.58733 106.78 4.644V7.119C106.78 7.36233 106.71 7.55067 106.57 7.684C106.433 7.82067 106.243 7.889 106 7.889H105.06C105.003 7.889 104.975 7.86233 104.975 7.809V7.549C104.975 7.49233 105.003 7.464 105.06 7.464H105.925C106.168 7.464 106.29 7.34067 106.29 7.094V6.714H106.27C106.186 6.894 106.018 6.984 105.765 6.984ZM106.29 6.134V5.034C106.29 5.00067 106.271 4.984 106.235 4.984H105.64C105.403 4.984 105.285 5.10733 105.285 5.354V6.184C105.285 6.43067 105.403 6.554 105.64 6.554H105.88C106.153 6.554 106.29 6.414 106.29 6.134Z" fill="#B3333A" fill-opacity="0.8"/>
<path fill-rule="evenodd" clip-rule="evenodd" d="M109.524 6.984H109.299C109.059 6.984 108.874 6.91733 108.744 6.784C108.618 6.64733 108.554 6.45567 108.554 6.209V5.334C108.554 5.08733 108.623 4.89733 108.759 4.764C108.896 4.62733 109.086 4.559 109.329 4.559H110.449C110.509 4.559 110.539 4.58733 110.539 4.644V7.119C110.539 7.36233 110.469 7.55067 110.329 7.684C110.193 7.82067 110.003 7.889 109.759 7.889H108.819C108.763 7.889 108.734 7.86233 108.734 7.809V7.549C108.734 7.49233 108.763 7.464 108.819 7.464H109.684C109.928 7.464 110.049 7.34067 110.049 7.094V6.714H110.029C109.946 6.894 109.778 6.984 109.524 6.984ZM110.049 6.134V5.034C110.049 5.00067 110.031 4.984 109.994 4.984H109.399C109.163 4.984 109.044 5.10733 109.044 5.354V6.184C109.044 6.43067 109.163 6.554 109.399 6.554H109.639C109.913 6.554 110.049 6.414 110.049 6.134Z" fill="#B3333A" fill-opacity="0.8"/>
<path d="M112.073 7.109H111.153C111.096 7.109 111.068 7.08067 111.068 7.024V6.779C111.068 6.72567 111.096 6.699 111.153 6.699H111.993C112.209 6.699 112.318 6.624 112.318 6.474V6.414C112.318 6.28067 112.239 6.179 112.083 6.109L111.538 5.849C111.368 5.769 111.244 5.68067 111.168 5.584C111.091 5.48733 111.053 5.36067 111.053 5.204C111.053 4.774 111.291 4.559 111.768 4.559H112.598C112.651 4.559 112.678 4.58733 112.678 4.644V4.889C112.678 4.94567 112.651 4.974 112.598 4.974H111.868C111.768 4.974 111.691 4.99233 111.638 5.029C111.584 5.06233 111.558 5.10733 111.558 5.164V5.219C111.558 5.32567 111.643 5.419 111.813 5.499L112.363 5.779C112.536 5.85567 112.654 5.94733 112.718 6.054C112.784 6.15733 112.818 6.29233 112.818 6.459C112.818 6.89233 112.569 7.109 112.073 7.109Z" fill="#B3333A" fill-opacity="0.8"/>
<path d="M113.736 7.109H113.421C113.364 7.109 113.336 7.08067 113.336 7.024V3.679C113.336 3.62233 113.364 3.594 113.421 3.594H113.736C113.792 3.594 113.821 3.62233 113.821 3.679V4.824H113.841C113.921 4.64733 114.089 4.559 114.346 4.559H114.566C114.809 4.559 114.996 4.62567 115.126 4.759C115.256 4.89233 115.321 5.084 115.321 5.334V7.024C115.321 7.08067 115.291 7.109 115.231 7.109H114.916C114.859 7.109 114.831 7.08067 114.831 7.024V5.354C114.831 5.10733 114.709 4.984 114.466 4.984H114.231C113.957 4.984 113.821 5.12567 113.821 5.409V7.024C113.821 7.08067 113.792 7.109 113.736 7.109Z" fill="#B3333A" fill-opacity="0.8"/>
<path d="M116.319 7.109H116.004C115.947 7.109 115.919 7.08067 115.919 7.024V3.679C115.919 3.62233 115.947 3.594 116.004 3.594H116.319C116.375 3.594 116.404 3.62233 116.404 3.679V4.824H116.424C116.504 4.64733 116.672 4.559 116.929 4.559H117.149C117.392 4.559 117.579 4.62567 117.709 4.759C117.839 4.89233 117.904 5.084 117.904 5.334V7.024C117.904 7.08067 117.874 7.109 117.814 7.109H117.499C117.442 7.109 117.414 7.08067 117.414 7.024V5.354C117.414 5.10733 117.292 4.984 117.049 4.984H116.814C116.54 4.984 116.404 5.12567 116.404 5.409V7.024C116.404 7.08067 116.375 7.109 116.319 7.109Z" fill="#B3333A" fill-opacity="0.8"/>
<path d="M118.902 7.109H118.587C118.53 7.109 118.502 7.08067 118.502 7.024V3.679C118.502 3.62233 118.53 3.594 118.587 3.594H118.902C118.958 3.594 118.987 3.62233 118.987 3.679V4.824H119.007C119.087 4.64733 119.255 4.559 119.512 4.559H119.732C119.975 4.559 120.162 4.62567 120.292 4.759C120.422 4.89233 120.487 5.084 120.487 5.334V7.024C120.487 7.08067 120.457 7.109 120.397 7.109H120.082C120.025 7.109 119.997 7.08067 119.997 7.024V5.354C119.997 5.10733 119.875 4.984 119.632 4.984H119.397C119.123 4.984 118.987 5.12567 118.987 5.409V7.024C118.987 7.08067 118.958 7.109 118.902 7.109Z" fill="#B3333A" fill-opacity="0.8"/>
<path fill-rule="evenodd" clip-rule="evenodd" d="M122.035 7.109H121.78C121.54 7.109 121.355 7.04233 121.225 6.909C121.098 6.77233 121.035 6.58067 121.035 6.334V5.334C121.035 5.084 121.098 4.89233 121.225 4.759C121.355 4.62567 121.54 4.559 121.78 4.559H122.035C122.291 4.559 122.458 4.64733 122.535 4.824H122.555V3.679C122.555 3.62233 122.583 3.594 122.64 3.594H122.96C123.016 3.594 123.045 3.62233 123.045 3.679V7.024C123.045 7.08067 123.016 7.109 122.96 7.109H122.64C122.583 7.109 122.555 7.08067 122.555 7.024V6.844H122.535C122.458 7.02067 122.291 7.109 122.035 7.109ZM122.555 6.259V5.409C122.555 5.12567 122.418 4.984 122.145 4.984H121.88C121.64 4.984 121.52 5.10733 121.52 5.354V6.314C121.52 6.56067 121.64 6.684 121.88 6.684H122.145C122.418 6.684 122.555 6.54233 122.555 6.259Z" fill="#B3333A" fill-opacity="0.8"/>
<path fill-rule="evenodd" clip-rule="evenodd" d="M73.01 17.109H73.265C73.5217 17.109 73.6883 17.0207 73.765 16.844H73.785V17.024C73.785 17.0807 73.8133 17.109 73.87 17.109H74.19C74.2467 17.109 74.275 17.0807 74.275 17.024V13.679C74.275 13.6223 74.2467 13.594 74.19 13.594H73.87C73.8133 13.594 73.785 13.6223 73.785 13.679V14.824H73.765C73.6883 14.6473 73.5217 14.559 73.265 14.559H73.01C72.77 14.559 72.585 14.6257 72.455 14.759C72.3283 14.8923 72.265 15.084 72.265 15.334V16.334C72.265 16.5807 72.3283 16.7723 72.455 16.909C72.585 17.0423 72.77 17.109 73.01 17.109ZM73.785 15.409V16.259C73.785 16.5423 73.6483 16.684 73.375 16.684H73.11C72.87 16.684 72.75 16.5607 72.75 16.314V15.354C72.75 15.1073 72.87 14.984 73.11 14.984H73.375C73.6483 14.984 73.785 15.1257 73.785 15.409Z" fill="#B3333A" fill-opacity="0.8"/>
<path d="M74.8929 17.109H75.8129C76.3096 17.109 76.5579 16.8923 76.5579 16.459C76.5579 16.2923 76.5246 16.1573 76.4579 16.054C76.3946 15.9473 76.2762 15.8557 76.1029 15.779L75.5529 15.499C75.3829 15.419 75.2979 15.3257 75.2979 15.219V15.164C75.2979 15.1073 75.3246 15.0623 75.3779 15.029C75.4312 14.9923 75.5079 14.974 75.6079 14.974H76.3379C76.3912 14.974 76.4179 14.9457 76.4179 14.889V14.644C76.4179 14.5873 76.3912 14.559 76.3379 14.559H75.5079C75.0312 14.559 74.7929 14.774 74.7929 15.204C74.7929 15.3607 74.8312 15.4873 74.9079 15.584C74.9846 15.6807 75.1079 15.769 75.2779 15.849L75.8229 16.109C75.9796 16.179 76.0579 16.2807 76.0579 16.414V16.474C76.0579 16.624 75.9496 16.699 75.7329 16.699H74.8929C74.8362 16.699 74.8079 16.7257 74.8079 16.779V17.024C74.8079 17.0807 74.8362 17.109 74.8929 17.109Z" fill="#B3333A" fill-opacity="0.8"/>
<path d="M78.2657 14.559H77.8457C77.8124 14.559 77.7957 14.5423 77.7957 14.509V14.389C77.7957 14.259 77.8191 14.1657 77.8657 14.109C77.9157 14.049 78.0007 14.019 78.1207 14.019H78.2707C78.3274 14.019 78.3557 13.9907 78.3557 13.934V13.674C78.3557 13.6207 78.3274 13.594 78.2707 13.594H78.0507C77.8074 13.594 77.6224 13.6607 77.4957 13.794C77.3691 13.9273 77.3057 14.1173 77.3057 14.364V14.509C77.3057 14.5423 77.2874 14.559 77.2507 14.559H76.9857C76.9524 14.559 76.9291 14.5657 76.9157 14.579C76.9057 14.589 76.9007 14.609 76.9007 14.639V14.899C76.9007 14.9557 76.9291 14.984 76.9857 14.984H77.2507C77.2874 14.984 77.3057 15.0007 77.3057 15.034V17.024C77.3057 17.0807 77.3341 17.109 77.3907 17.109H77.7057C77.7657 17.109 77.7957 17.0807 77.7957 17.024V15.034C77.7957 15.0007 77.8124 14.984 77.8457 14.984H78.2657C78.3257 14.984 78.3557 14.9557 78.3557 14.899V14.639C78.3557 14.5857 78.3257 14.559 78.2657 14.559Z" fill="#B3333A" fill-opacity="0.8"/>
<path d="M78.7755 13.679V14.134C78.7755 14.1907 78.8022 14.219 78.8555 14.219H79.1805C79.2339 14.219 79.2605 14.1907 79.2605 14.134V13.679C79.2605 13.6257 79.2339 13.599 79.1805 13.599H78.8555C78.8022 13.599 78.7755 13.6257 78.7755 13.679Z" fill="#B3333A" fill-opacity="0.8"/>
<path d="M78.2155 17.889H78.4805C78.7239 17.889 78.9139 17.8207 79.0505 17.684C79.1905 17.5473 79.2605 17.3573 79.2605 17.114V14.644C79.2605 14.5873 79.2322 14.559 79.1755 14.559H78.8605C78.8039 14.559 78.7755 14.5873 78.7755 14.644V17.029C78.7755 17.1857 78.7422 17.2973 78.6755 17.364C78.6122 17.4307 78.5022 17.464 78.3456 17.464H78.2155C78.1589 17.464 78.1305 17.4923 78.1305 17.549V17.804C78.1305 17.8607 78.1589 17.889 78.2155 17.889Z" fill="#B3333A" fill-opacity="0.8"/>
<path d="M79.9425 13.679V14.134C79.9425 14.1907 79.9692 14.219 80.0225 14.219H80.3475C80.4009 14.219 80.4275 14.1907 80.4275 14.134V13.679C80.4275 13.6257 80.4009 13.599 80.3475 13.599H80.0225C79.9692 13.599 79.9425 13.6257 79.9425 13.679Z" fill="#B3333A" fill-opacity="0.8"/>
<path d="M79.3825 17.889H79.6475C79.8909 17.889 80.0809 17.8207 80.2175 17.684C80.3575 17.5473 80.4275 17.3573 80.4275 17.114V14.644C80.4275 14.5873 80.3992 14.559 80.3425 14.559H80.0275C79.9709 14.559 79.9425 14.5873 79.9425 14.644V17.029C79.9425 17.1857 79.9092 17.2973 79.8425 17.364C79.7792 17.4307 79.6692 17.464 79.5125 17.464H79.3825C79.3259 17.464 79.2975 17.4923 79.2975 17.549V17.804C79.2975 17.8607 79.3259 17.889 79.3825 17.889Z" fill="#B3333A" fill-opacity="0.8"/>
<path d="M82.3009 13.679V14.134C82.3009 14.1907 82.3276 14.219 82.3809 14.219H82.7059C82.7593 14.219 82.7859 14.1907 82.7859 14.134V13.679C82.7859 13.6257 82.7593 13.599 82.7059 13.599H82.3809C82.3276 13.599 82.3009 13.6257 82.3009 13.679Z" fill="#B3333A" fill-opacity="0.8"/>
<path d="M81.7409 17.889H82.0059C82.2493 17.889 82.4393 17.8207 82.5759 17.684C82.7159 17.5473 82.7859 17.3573 82.7859 17.114V14.644C82.7859 14.5873 82.7576 14.559 82.7009 14.559H82.3859C82.3293 14.559 82.3009 14.5873 82.3009 14.644V17.029C82.3009 17.1857 82.2676 17.2973 82.2009 17.364C82.1376 17.4307 82.0276 17.464 81.8709 17.464H81.7409C81.6843 17.464 81.6559 17.4923 81.6559 17.549V17.804C81.6559 17.8607 81.6843 17.889 81.7409 17.889Z" fill="#B3333A" fill-opacity="0.8"/>
<path d="M83.4679 13.679V14.134C83.4679 14.1907 83.4946 14.219 83.5479 14.219H83.8729C83.9263 14.219 83.9529 14.1907 83.9529 14.134V13.679C83.9529 13.6257 83.9263 13.599 83.8729 13.599H83.5479C83.4946 13.599 83.4679 13.6257 83.4679 13.679Z" fill="#B3333A" fill-opacity="0.8"/>
<path d="M82.9079 17.889H83.1729C83.4163 17.889 83.6063 17.8207 83.7429 17.684C83.8829 17.5473 83.9529 17.3573 83.9529 17.114V14.644C83.9529 14.5873 83.9246 14.559 83.8679 14.559H83.5529C83.4963 14.559 83.4679 14.5873 83.4679 14.644V17.029C83.4679 17.1857 83.4346 17.2973 83.3679 17.364C83.3046 17.4307 83.1946 17.464 83.0379 17.464H82.9079C82.8513 17.464 82.8229 17.4923 82.8229 17.549V17.804C82.8229 17.8607 82.8513 17.889 82.9079 17.889Z" fill="#B3333A" fill-opacity="0.8"/>
<path d="M86.4199 14.559H86.0599C85.9933 14.559 85.9449 14.5857 85.9149 14.639L85.2599 15.734C85.2366 15.7807 85.2366 15.8257 85.2599 15.869L85.9649 17.024C86.0016 17.0807 86.0583 17.109 86.1349 17.109H86.4599C86.4966 17.109 86.5199 17.099 86.5299 17.079C86.5433 17.059 86.5416 17.0357 86.5249 17.009L85.7649 15.799V15.779L86.4699 14.659C86.4899 14.629 86.4933 14.6057 86.4799 14.589C86.4699 14.569 86.4499 14.559 86.4199 14.559Z" fill="#B3333A" fill-opacity="0.8"/>
<path d="M84.6949 17.109H85.0099C85.0666 17.109 85.0949 17.0807 85.0949 17.024V13.679C85.0949 13.6223 85.0666 13.594 85.0099 13.594H84.6949C84.6383 13.594 84.6099 13.6223 84.6099 13.679V17.024C84.6099 17.0807 84.6383 17.109 84.6949 17.109Z" fill="#B3333A" fill-opacity="0.8"/>
<path d="M86.9152 13.679V14.134C86.9152 14.1907 86.9419 14.219 86.9952 14.219H87.3202C87.3735 14.219 87.4002 14.1907 87.4002 14.134V13.679C87.4002 13.6257 87.3735 13.599 87.3202 13.599H86.9952C86.9419 13.599 86.9152 13.6257 86.9152 13.679Z" fill="#B3333A" fill-opacity="0.8"/>
<path d="M86.3552 17.889H86.6202C86.8635 17.889 87.0535 17.8207 87.1902 17.684C87.3302 17.5473 87.4002 17.3573 87.4002 17.114V14.644C87.4002 14.5873 87.3719 14.559 87.3152 14.559H87.0002C86.9435 14.559 86.9152 14.5873 86.9152 14.644V17.029C86.9152 17.1857 86.8819 17.2973 86.8152 17.364C86.7519 17.4307 86.6419 17.464 86.4852 17.464H86.3552C86.2985 17.464 86.2702 17.4923 86.2702 17.549V17.804C86.2702 17.8607 86.2985 17.889 86.3552 17.889Z" fill="#B3333A" fill-opacity="0.8"/>
<path fill-rule="evenodd" clip-rule="evenodd" d="M88.7822 17.109H88.9772C89.2339 17.109 89.4022 17.0207 89.4822 16.844H89.5022V17.024C89.5022 17.0807 89.5305 17.109 89.5872 17.109H89.9022C89.9622 17.109 89.9922 17.0807 89.9922 17.024V14.644C89.9922 14.5873 89.9622 14.559 89.9022 14.559H88.7822C88.5355 14.559 88.3439 14.6273 88.2072 14.764C88.0739 14.8973 88.0072 15.0873 88.0072 15.334V16.334C88.0072 16.5773 88.0739 16.7673 88.2072 16.904C88.3439 17.0407 88.5355 17.109 88.7822 17.109ZM89.5022 15.034V16.259C89.5022 16.5423 89.3655 16.684 89.0922 16.684H88.8522C88.6122 16.684 88.4922 16.5607 88.4922 16.314V15.354C88.4922 15.1073 88.6122 14.984 88.8522 14.984H89.4472C89.4839 14.984 89.5022 15.0007 89.5022 15.034Z" fill="#B3333A" fill-opacity="0.8"/>
<path fill-rule="evenodd" clip-rule="evenodd" d="M92.5322 17.109H92.7272C92.9839 17.109 93.1522 17.0207 93.2322 16.844H93.2522V17.024C93.2522 17.0807 93.2805 17.109 93.3372 17.109H93.6522C93.7122 17.109 93.7422 17.0807 93.7422 17.024V14.644C93.7422 14.5873 93.7122 14.559 93.6522 14.559H92.5322C92.2855 14.559 92.0939 14.6273 91.9572 14.764C91.8239 14.8973 91.7572 15.0873 91.7572 15.334V16.334C91.7572 16.5773 91.8239 16.7673 91.9572 16.904C92.0939 17.0407 92.2855 17.109 92.5322 17.109ZM93.2522 15.034V16.259C93.2522 16.5423 93.1155 16.684 92.8422 16.684H92.6022C92.3622 16.684 92.2422 16.5607 92.2422 16.314V15.354C92.2422 15.1073 92.3622 14.984 92.6022 14.984H93.1972C93.2339 14.984 93.2522 15.0007 93.2522 15.034Z" fill="#B3333A" fill-opacity="0.8"/>
<path d="M96.1758 14.559H95.8158C95.7491 14.559 95.7008 14.5857 95.6708 14.639L95.0158 15.734C94.9924 15.7807 94.9924 15.8257 95.0158 15.869L95.7208 17.024C95.7574 17.0807 95.8141 17.109 95.8908 17.109H96.2158C96.2524 17.109 96.2758 17.099 96.2858 17.079C96.2991 17.059 96.2974 17.0357 96.2808 17.009L95.5208 15.799V15.779L96.2258 14.659C96.2458 14.629 96.2491 14.6057 96.2358 14.589C96.2258 14.569 96.2058 14.559 96.1758 14.559Z" fill="#B3333A" fill-opacity="0.8"/>
<path d="M94.4508 17.109H94.7658C94.8224 17.109 94.8508 17.0807 94.8508 17.024V13.679C94.8508 13.6223 94.8224 13.594 94.7658 13.594H94.4508C94.3941 13.594 94.3658 13.6223 94.3658 13.679V17.024C94.3658 17.0807 94.3941 17.109 94.4508 17.109Z" fill="#B3333A" fill-opacity="0.8"/>
<path d="M97.0811 16.804V16.414C97.0811 16.3607 97.0544 16.334 97.0011 16.334H96.6611C96.6044 16.334 96.5761 16.3607 96.5761 16.414V17.554C96.5761 17.6073 96.5994 17.634 96.6461 17.634C96.6827 17.634 96.7077 17.619 96.7211 17.589L96.9861 17.104C97.0494 16.984 97.0811 16.884 97.0811 16.804Z" fill="#B3333A" fill-opacity="0.8"/>
<path d="M97.0811 15.249V14.639C97.0811 14.5857 97.0544 14.559 97.0011 14.559H96.6611C96.6044 14.559 96.5761 14.5873 96.5761 14.644V15.239C96.5761 15.3023 96.6044 15.334 96.6611 15.334H97.0011C97.0544 15.334 97.0811 15.3057 97.0811 15.249Z" fill="#B3333A" fill-opacity="0.8"/>
<path d="M99.1921 17.029V16.769C99.1921 16.7123 99.1621 16.684 99.1021 16.684H98.4371C98.1972 16.684 98.0771 16.5607 98.0771 16.314V15.354C98.0771 15.1073 98.1972 14.984 98.4371 14.984H99.1021C99.1621 14.984 99.1921 14.9573 99.1921 14.904V14.644C99.1921 14.5873 99.1621 14.559 99.1021 14.559H98.3671C98.1205 14.559 97.9288 14.6273 97.7921 14.764C97.6588 14.8973 97.5921 15.0873 97.5921 15.334V16.334C97.5921 16.5773 97.6588 16.7673 97.7921 16.904C97.9288 17.0407 98.1205 17.109 98.3671 17.109H99.1021C99.1621 17.109 99.1921 17.0823 99.1921 17.029Z" fill="#B3333A" fill-opacity="0.8"/>
<path d="M100.104 16.804V16.414C100.104 16.3607 100.077 16.334 100.024 16.334H99.6835C99.6268 16.334 99.5985 16.3607 99.5985 16.414V17.554C99.5985 17.6073 99.6218 17.634 99.6685 17.634C99.7052 17.634 99.7302 17.619 99.7435 17.589L100.009 17.104C100.072 16.984 100.104 16.884 100.104 16.804Z" fill="#B3333A" fill-opacity="0.8"/>
<path d="M100.104 15.249V14.639C100.104 14.5857 100.077 14.559 100.024 14.559H99.6835C99.6268 14.559 99.5985 14.5873 99.5985 14.644V15.239C99.5985 15.3023 99.6268 15.334 99.6835 15.334H100.024C100.077 15.334 100.104 15.3057 100.104 15.249Z" fill="#B3333A" fill-opacity="0.8"/>
<path d="M100.655 17.109H101.575C102.071 17.109 102.32 16.8923 102.32 16.459C102.32 16.2923 102.286 16.1573 102.22 16.054C102.156 15.9473 102.038 15.8557 101.865 15.779L101.315 15.499C101.145 15.419 101.06 15.3257 101.06 15.219V15.164C101.06 15.1073 101.086 15.0623 101.14 15.029C101.193 14.9923 101.27 14.974 101.37 14.974H102.1C102.153 14.974 102.18 14.9457 102.18 14.889V14.644C102.18 14.5873 102.153 14.559 102.1 14.559H101.27C100.793 14.559 100.555 14.774 100.555 15.204C100.555 15.3607 100.593 15.4873 100.67 15.584C100.746 15.6807 100.87 15.769 101.04 15.849L101.585 16.109C101.741 16.179 101.82 16.2807 101.82 16.414V16.474C101.82 16.624 101.711 16.699 101.495 16.699H100.655C100.598 16.699 100.57 16.7257 100.57 16.779V17.024C100.57 17.0807 100.598 17.109 100.655 17.109Z" fill="#B3333A" fill-opacity="0.8"/>
<path d="M104.027 14.559H103.607C103.574 14.559 103.557 14.5423 103.557 14.509V14.389C103.557 14.259 103.581 14.1657 103.627 14.109C103.677 14.049 103.762 14.019 103.882 14.019H104.032C104.089 14.019 104.117 13.9907 104.117 13.934V13.674C104.117 13.6207 104.089 13.594 104.032 13.594H103.812C103.569 13.594 103.384 13.6607 103.257 13.794C103.131 13.9273 103.067 14.1173 103.067 14.364V14.509C103.067 14.5423 103.049 14.559 103.012 14.559H102.747C102.714 14.559 102.691 14.5657 102.677 14.579C102.667 14.589 102.662 14.609 102.662 14.639V14.899C102.662 14.9557 102.691 14.984 102.747 14.984H103.012C103.049 14.984 103.067 15.0007 103.067 15.034V17.024C103.067 17.0807 103.096 17.109 103.152 17.109H103.467C103.527 17.109 103.557 17.0807 103.557 17.024V15.034C103.557 15.0007 103.574 14.984 103.607 14.984H104.027C104.087 14.984 104.117 14.9557 104.117 14.899V14.639C104.117 14.5857 104.087 14.559 104.027 14.559Z" fill="#B3333A" fill-opacity="0.8"/>
<path d="M106.322 14.559H105.962C105.896 14.559 105.847 14.5857 105.817 14.639L105.162 15.734C105.139 15.7807 105.139 15.8257 105.162 15.869L105.867 17.024C105.904 17.0807 105.961 17.109 106.037 17.109H106.362C106.399 17.109 106.422 17.099 106.432 17.079C106.446 17.059 106.444 17.0357 106.427 17.009L105.667 15.799V15.779L106.372 14.659C106.392 14.629 106.396 14.6057 106.382 14.589C106.372 14.569 106.352 14.559 106.322 14.559Z" fill="#B3333A" fill-opacity="0.8"/>
<path d="M104.597 17.109H104.912C104.969 17.109 104.997 17.0807 104.997 17.024V13.679C104.997 13.6223 104.969 13.594 104.912 13.594H104.597C104.541 13.594 104.512 13.6223 104.512 13.679V17.024C104.512 17.0807 104.541 17.109 104.597 17.109Z" fill="#B3333A" fill-opacity="0.8"/>
<path d="M108.009 13.679V14.134C108.009 14.1907 108.036 14.219 108.089 14.219H108.414C108.467 14.219 108.494 14.1907 108.494 14.134V13.679C108.494 13.6257 108.467 13.599 108.414 13.599H108.089C108.036 13.599 108.009 13.6257 108.009 13.679Z" fill="#B3333A" fill-opacity="0.8"/>
<path d="M107.449 17.889H107.714C107.957 17.889 108.147 17.8207 108.284 17.684C108.424 17.5473 108.494 17.3573 108.494 17.114V14.644C108.494 14.5873 108.466 14.559 108.409 14.559H108.094C108.037 14.559 108.009 14.5873 108.009 14.644V17.029C108.009 17.1857 107.976 17.2973 107.909 17.364C107.846 17.4307 107.736 17.464 107.579 17.464H107.449C107.392 17.464 107.364 17.4923 107.364 17.549V17.804C107.364 17.8607 107.392 17.889 107.449 17.889Z" fill="#B3333A" fill-opacity="0.8"/>
<path d="M110.961 14.559H110.601C110.534 14.559 110.486 14.5857 110.456 14.639L109.801 15.734C109.778 15.7807 109.778 15.8257 109.801 15.869L110.506 17.024C110.543 17.0807 110.599 17.109 110.676 17.109H111.001C111.038 17.109 111.061 17.099 111.071 17.079C111.084 17.059 111.083 17.0357 111.066 17.009L110.306 15.799V15.779L111.011 14.659C111.031 14.629 111.034 14.6057 111.021 14.589C111.011 14.569 110.991 14.559 110.961 14.559Z" fill="#B3333A" fill-opacity="0.8"/>
<path d="M109.236 17.109H109.551C109.608 17.109 109.636 17.0807 109.636 17.024V13.679C109.636 13.6223 109.608 13.594 109.551 13.594H109.236C109.179 13.594 109.151 13.6223 109.151 13.679V17.024C109.151 17.0807 109.179 17.109 109.236 17.109Z" fill="#B3333A" fill-opacity="0.8"/>
<path d="M111.456 13.679V14.134C111.456 14.1907 111.483 14.219 111.536 14.219H111.861C111.915 14.219 111.941 14.1907 111.941 14.134V13.679C111.941 13.6257 111.915 13.599 111.861 13.599H111.536C111.483 13.599 111.456 13.6257 111.456 13.679Z" fill="#B3333A" fill-opacity="0.8"/>
<path d="M110.896 17.889H111.161C111.405 17.889 111.595 17.8207 111.731 17.684C111.871 17.5473 111.941 17.3573 111.941 17.114V14.644C111.941 14.5873 111.913 14.559 111.856 14.559H111.541C111.485 14.559 111.456 14.5873 111.456 14.644V17.029C111.456 17.1857 111.423 17.2973 111.356 17.364C111.293 17.4307 111.183 17.464 111.026 17.464H110.896C110.84 17.464 110.811 17.4923 110.811 17.549V17.804C110.811 17.8607 110.84 17.889 110.896 17.889Z" fill="#B3333A" fill-opacity="0.8"/>
<path d="M112.623 13.679V14.134C112.623 14.1907 112.65 14.219 112.703 14.219H113.028C113.082 14.219 113.108 14.1907 113.108 14.134V13.679C113.108 13.6257 113.082 13.599 113.028 13.599H112.703C112.65 13.599 112.623 13.6257 112.623 13.679Z" fill="#B3333A" fill-opacity="0.8"/>
<path d="M112.063 17.889H112.328C112.572 17.889 112.762 17.8207 112.898 17.684C113.038 17.5473 113.108 17.3573 113.108 17.114V14.644C113.108 14.5873 113.08 14.559 113.023 14.559H112.708C112.652 14.559 112.623 14.5873 112.623 14.644V17.029C112.623 17.1857 112.59 17.2973 112.523 17.364C112.46 17.4307 112.35 17.464 112.193 17.464H112.063C112.007 17.464 111.978 17.4923 111.978 17.549V17.804C111.978 17.8607 112.007 17.889 112.063 17.889Z" fill="#B3333A" fill-opacity="0.8"/>
<path d="M113.79 13.679V14.134C113.79 14.1907 113.817 14.219 113.87 14.219H114.195C114.249 14.219 114.275 14.1907 114.275 14.134V13.679C114.275 13.6257 114.249 13.599 114.195 13.599H113.87C113.817 13.599 113.79 13.6257 113.79 13.679Z" fill="#B3333A" fill-opacity="0.8"/>
<path d="M113.23 17.889H113.495C113.739 17.889 113.929 17.8207 114.065 17.684C114.205 17.5473 114.275 17.3573 114.275 17.114V14.644C114.275 14.5873 114.247 14.559 114.19 14.559H113.875C113.819 14.559 113.79 14.5873 113.79 14.644V17.029C113.79 17.1857 113.757 17.2973 113.69 17.364C113.627 17.4307 113.517 17.464 113.36 17.464H113.23C113.174 17.464 113.145 17.4923 113.145 17.549V17.804C113.145 17.8607 113.174 17.889 113.23 17.889Z" fill="#B3333A" fill-opacity="0.8"/>
<path d="M116.742 14.559H116.382C116.316 14.559 116.267 14.5857 116.237 14.639L115.582 15.734C115.559 15.7807 115.559 15.8257 115.582 15.869L116.287 17.024C116.324 17.0807 116.381 17.109 116.457 17.109H116.782C116.819 17.109 116.842 17.099 116.852 17.079C116.866 17.059 116.864 17.0357 116.847 17.009L116.087 15.799V15.779L116.792 14.659C116.812 14.629 116.816 14.6057 116.802 14.589C116.792 14.569 116.772 14.559 116.742 14.559Z" fill="#B3333A" fill-opacity="0.8"/>
<path d="M115.017 17.109H115.332C115.389 17.109 115.417 17.0807 115.417 17.024V13.679C115.417 13.6223 115.389 13.594 115.332 13.594H115.017C114.961 13.594 114.932 13.6223 114.932 13.679V17.024C114.932 17.0807 114.961 17.109 115.017 17.109Z" fill="#B3333A" fill-opacity="0.8"/>
<path d="M118.429 13.679V14.134C118.429 14.1907 118.456 14.219 118.509 14.219H118.834C118.887 14.219 118.914 14.1907 118.914 14.134V13.679C118.914 13.6257 118.887 13.599 118.834 13.599H118.509C118.456 13.599 118.429 13.6257 118.429 13.679Z" fill="#B3333A" fill-opacity="0.8"/>
<path d="M117.869 17.889H118.134C118.377 17.889 118.567 17.8207 118.704 17.684C118.844 17.5473 118.914 17.3573 118.914 17.114V14.644C118.914 14.5873 118.886 14.559 118.829 14.559H118.514C118.457 14.559 118.429 14.5873 118.429 14.644V17.029C118.429 17.1857 118.396 17.2973 118.329 17.364C118.266 17.4307 118.156 17.464 117.999 17.464H117.869C117.812 17.464 117.784 17.4923 117.784 17.549V17.804C117.784 17.8607 117.812 17.889 117.869 17.889Z" fill="#B3333A" fill-opacity="0.8"/>
<path d="M121.381 14.559H121.021C120.954 14.559 120.906 14.5857 120.876 14.639L120.221 15.734C120.198 15.7807 120.198 15.8257 120.221 15.869L120.926 17.024C120.963 17.0807 121.019 17.109 121.096 17.109H121.421C121.458 17.109 121.481 17.099 121.491 17.079C121.504 17.059 121.503 17.0357 121.486 17.009L120.726 15.799V15.779L121.431 14.659C121.451 14.629 121.454 14.6057 121.441 14.589C121.431 14.569 121.411 14.559 121.381 14.559Z" fill="#B3333A" fill-opacity="0.8"/>
<path d="M119.656 17.109H119.971C120.028 17.109 120.056 17.0807 120.056 17.024V13.679C120.056 13.6223 120.028 13.594 119.971 13.594H119.656C119.599 13.594 119.571 13.6223 119.571 13.679V17.024C119.571 17.0807 119.599 17.109 119.656 17.109Z" fill="#B3333A" fill-opacity="0.8"/>
<path d="M124.853 14.559H124.493C124.426 14.559 124.378 14.5857 124.348 14.639L123.693 15.734C123.669 15.7807 123.669 15.8257 123.693 15.869L124.398 17.024C124.434 17.0807 124.491 17.109 124.568 17.109H124.893C124.929 17.109 124.953 17.099 124.963 17.079C124.976 17.059 124.974 17.0357 124.958 17.009L124.198 15.799V15.779L124.903 14.659C124.923 14.629 124.926 14.6057 124.913 14.589C124.903 14.569 124.883 14.559 124.853 14.559Z" fill="#B3333A" fill-opacity="0.8"/>
<path d="M123.128 17.109H123.443C123.499 17.109 123.528 17.0807 123.528 17.024V13.679C123.528 13.6223 123.499 13.594 123.443 13.594H123.128C123.071 13.594 123.043 13.6223 123.043 13.679V17.024C123.043 17.0807 123.071 17.109 123.128 17.109Z" fill="#B3333A" fill-opacity="0.8"/>
<path d="M125.348 13.679V14.134C125.348 14.1907 125.374 14.219 125.428 14.219H125.753C125.806 14.219 125.833 14.1907 125.833 14.134V13.679C125.833 13.6257 125.806 13.599 125.753 13.599H125.428C125.374 13.599 125.348 13.6257 125.348 13.679Z" fill="#B3333A" fill-opacity="0.8"/>
<path d="M124.788 17.889H125.053C125.296 17.889 125.486 17.8207 125.623 17.684C125.763 17.5473 125.833 17.3573 125.833 17.114V14.644C125.833 14.5873 125.804 14.559 125.748 14.559H125.433C125.376 14.559 125.348 14.5873 125.348 14.644V17.029C125.348 17.1857 125.314 17.2973 125.248 17.364C125.184 17.4307 125.074 17.464 124.918 17.464H124.788C124.731 17.464 124.703 17.4923 124.703 17.549V17.804C124.703 17.8607 124.731 17.889 124.788 17.889Z" fill="#B3333A" fill-opacity="0.8"/>
<path d="M128.3 14.559H127.94C127.873 14.559 127.825 14.5857 127.795 14.639L127.14 15.734C127.116 15.7807 127.116 15.8257 127.14 15.869L127.845 17.024C127.881 17.0807 127.938 17.109 128.015 17.109H128.34C128.376 17.109 128.4 17.099 128.41 17.079C128.423 17.059 128.421 17.0357 128.405 17.009L127.645 15.799V15.779L128.35 14.659C128.37 14.629 128.373 14.6057 128.36 14.589C128.35 14.569 128.33 14.559 128.3 14.559Z" fill="#B3333A" fill-opacity="0.8"/>
<path d="M126.575 17.109H126.89C126.946 17.109 126.975 17.0807 126.975 17.024V13.679C126.975 13.6223 126.946 13.594 126.89 13.594H126.575C126.518 13.594 126.49 13.6223 126.49 13.679V17.024C126.49 17.0807 126.518 17.109 126.575 17.109Z" fill="#B3333A" fill-opacity="0.8"/>
<path d="M128.795 13.679V14.134C128.795 14.1907 128.822 14.219 128.875 14.219H129.2C129.253 14.219 129.28 14.1907 129.28 14.134V13.679C129.28 13.6257 129.253 13.599 129.2 13.599H128.875C128.822 13.599 128.795 13.6257 128.795 13.679Z" fill="#B3333A" fill-opacity="0.8"/>
<path d="M128.235 17.889H128.5C128.743 17.889 128.933 17.8207 129.07 17.684C129.21 17.5473 129.28 17.3573 129.28 17.114V14.644C129.28 14.5873 129.252 14.559 129.195 14.559H128.88C128.823 14.559 128.795 14.5873 128.795 14.644V17.029C128.795 17.1857 128.762 17.2973 128.695 17.364C128.632 17.4307 128.522 17.464 128.365 17.464H128.235C128.178 17.464 128.15 17.4923 128.15 17.549V17.804C128.15 17.8607 128.178 17.889 128.235 17.889Z" fill="#B3333A" fill-opacity="0.8"/>
<path d="M129.962 13.679V14.134C129.962 14.1907 129.989 14.219 130.042 14.219H130.367C130.42 14.219 130.447 14.1907 130.447 14.134V13.679C130.447 13.6257 130.42 13.599 130.367 13.599H130.042C129.989 13.599 129.962 13.6257 129.962 13.679Z" fill="#B3333A" fill-opacity="0.8"/>
<path d="M129.402 17.889H129.667C129.91 17.889 130.1 17.8207 130.237 17.684C130.377 17.5473 130.447 17.3573 130.447 17.114V14.644C130.447 14.5873 130.419 14.559 130.362 14.559H130.047C129.99 14.559 129.962 14.5873 129.962 14.644V17.029C129.962 17.1857 129.929 17.2973 129.862 17.364C129.799 17.4307 129.689 17.464 129.532 17.464H129.402C129.345 17.464 129.317 17.4923 129.317 17.549V17.804C129.317 17.8607 129.345 17.889 129.402 17.889Z" fill="#B3333A" fill-opacity="0.8"/>
<path fill-rule="evenodd" clip-rule="evenodd" d="M72.715 23.814H72.4C72.3433 23.814 72.315 23.7857 72.315 23.729V20.644C72.315 20.5873 72.3433 20.559 72.4 20.559H72.715C72.7717 20.559 72.8 20.5873 72.8 20.644V20.824H72.82C72.9 20.6473 73.0683 20.559 73.325 20.559H73.58C73.82 20.559 74.0033 20.6257 74.13 20.759C74.26 20.8923 74.325 21.084 74.325 21.334V22.334C74.325 22.5807 74.26 22.7723 74.13 22.909C74.0033 23.0423 73.82 23.109 73.58 23.109H73.325C73.0683 23.109 72.9 23.0207 72.82 22.844H72.8V23.729C72.8 23.7857 72.7717 23.814 72.715 23.814ZM73.21 22.684H73.475C73.715 22.684 73.835 22.5607 73.835 22.314V21.354C73.835 21.1073 73.715 20.984 73.475 20.984H73.21C72.9367 20.984 72.8 21.1257 72.8 21.409V22.259C72.8 22.5423 72.9367 22.684 73.21 22.684Z" fill="#B3333A" fill-opacity="0.8"/>
<path fill-rule="evenodd" clip-rule="evenodd" d="M75.8129 23.109H75.6279C75.3812 23.109 75.1896 23.0407 75.0529 22.904C74.9196 22.7673 74.8529 22.5773 74.8529 22.334V21.334C74.8529 21.0873 74.9196 20.8973 75.0529 20.764C75.1896 20.6273 75.3812 20.559 75.6279 20.559H76.7479C76.8079 20.559 76.8379 20.5873 76.8379 20.644V23.729C76.8379 23.7857 76.8079 23.814 76.7479 23.814H76.4329C76.3762 23.814 76.3479 23.7857 76.3479 23.729V22.834H76.3279C76.2379 23.0173 76.0662 23.109 75.8129 23.109ZM76.3479 22.249V21.034C76.3479 21.0007 76.3296 20.984 76.2929 20.984H75.6979C75.4579 20.984 75.3379 21.1073 75.3379 21.354V22.314C75.3379 22.5607 75.4579 22.684 75.6979 22.684H75.9279C76.2079 22.684 76.3479 22.539 76.3479 22.249Z" fill="#B3333A" fill-opacity="0.8"/>
<path d="M77.4465 23.519V23.349C77.4465 23.2923 77.4748 23.264 77.5315 23.264H77.8565C77.8932 23.264 77.9115 23.2473 77.9115 23.214V20.289C77.9115 20.2523 77.8932 20.234 77.8565 20.234H77.5315C77.4748 20.234 77.4465 20.2057 77.4465 20.149V19.979C77.4465 19.9223 77.4748 19.894 77.5315 19.894H78.2315C78.2848 19.894 78.3115 19.9223 78.3115 19.979V23.514C78.3115 23.574 78.2848 23.604 78.2315 23.604H77.5315C77.4748 23.604 77.4465 23.5757 77.4465 23.519Z" fill="#B3333A" fill-opacity="0.8"/>
<path d="M79.8295 23.604H79.1295C79.0761 23.604 79.0495 23.574 79.0495 23.514V19.979C79.0495 19.9223 79.0761 19.894 79.1295 19.894H79.8295C79.8861 19.894 79.9145 19.9223 79.9145 19.979V20.149C79.9145 20.2057 79.8861 20.234 79.8295 20.234H79.5045C79.4678 20.234 79.4495 20.2523 79.4495 20.289V23.214C79.4495 23.2473 79.4678 23.264 79.5045 23.264H79.8295C79.8861 23.264 79.9145 23.2923 79.9145 23.349V23.519C79.9145 23.5757 79.8861 23.604 79.8295 23.604Z" fill="#B3333A" fill-opacity="0.8"/>
<path fill-rule="evenodd" clip-rule="evenodd" d="M80.9474 23.814H80.6324C80.5758 23.814 80.5474 23.7857 80.5474 23.729V20.644C80.5474 20.5873 80.5758 20.559 80.6324 20.559H80.9474C81.0041 20.559 81.0324 20.5873 81.0324 20.644V20.824H81.0524C81.1324 20.6473 81.3008 20.559 81.5574 20.559H81.8124C82.0524 20.559 82.2358 20.6257 82.3624 20.759C82.4924 20.8923 82.5574 21.084 82.5574 21.334V22.334C82.5574 22.5807 82.4924 22.7723 82.3624 22.909C82.2358 23.0423 82.0524 23.109 81.8124 23.109H81.5574C81.3008 23.109 81.1324 23.0207 81.0524 22.844H81.0324V23.729C81.0324 23.7857 81.0041 23.814 80.9474 23.814ZM81.4424 22.684H81.7074C81.9474 22.684 82.0674 22.5607 82.0674 22.314V21.354C82.0674 21.1073 81.9474 20.984 81.7074 20.984H81.4424C81.1691 20.984 81.0324 21.1257 81.0324 21.409V22.259C81.0324 22.5423 81.1691 22.684 81.4424 22.684Z" fill="#B3333A" fill-opacity="0.8"/>
<path d="M83.5703 22.414V22.804C83.5703 22.884 83.5386 22.984 83.4753 23.104L83.2103 23.589C83.197 23.619 83.172 23.634 83.1353 23.634C83.0886 23.634 83.0653 23.6073 83.0653 23.554V22.414C83.0653 22.3607 83.0936 22.334 83.1503 22.334H83.4903C83.5436 22.334 83.5703 22.3607 83.5703 22.414Z" fill="#B3333A" fill-opacity="0.8"/>
<path d="M84.3714 23.109H83.9914C83.9181 23.109 83.8997 23.0807 83.9364 23.024L84.6014 21.809L83.9514 20.644C83.9147 20.5873 83.9297 20.559 83.9964 20.559H84.3814C84.4447 20.559 84.4881 20.5873 84.5114 20.644L84.9164 21.504H84.9364L85.3164 20.644C85.3397 20.5873 85.3814 20.559 85.4414 20.559H85.8214C85.8914 20.559 85.9081 20.5873 85.8714 20.644L85.2414 21.804L85.9214 23.024C85.9547 23.0807 85.9397 23.109 85.8764 23.109H85.4814C85.4247 23.109 85.3847 23.0807 85.3614 23.024L84.9364 22.139H84.9164L84.4964 23.024C84.4731 23.0807 84.4314 23.109 84.3714 23.109Z" fill="#B3333A" fill-opacity="0.8"/>
<path fill-rule="evenodd" clip-rule="evenodd" d="M87.2782 22.984H87.0532C86.8132 22.984 86.6282 22.9173 86.4982 22.784C86.3715 22.6473 86.3082 22.4557 86.3082 22.209V21.334C86.3082 21.0873 86.3765 20.8973 86.5132 20.764C86.6499 20.6273 86.8399 20.559 87.0832 20.559H88.2032C88.2632 20.559 88.2932 20.5873 88.2932 20.644V23.119C88.2932 23.3623 88.2232 23.5507 88.0832 23.684C87.9465 23.8207 87.7565 23.889 87.5132 23.889H86.5732C86.5165 23.889 86.4882 23.8623 86.4882 23.809V23.549C86.4882 23.4923 86.5165 23.464 86.5732 23.464H87.4382C87.6815 23.464 87.8032 23.3407 87.8032 23.094V22.714H87.7832C87.6999 22.894 87.5315 22.984 87.2782 22.984ZM87.8032 22.134V21.034C87.8032 21.0007 87.7849 20.984 87.7482 20.984H87.1532C86.9165 20.984 86.7982 21.1073 86.7982 21.354V22.184C86.7982 22.4307 86.9165 22.554 87.1532 22.554H87.3932C87.6665 22.554 87.8032 22.414 87.8032 22.134Z" fill="#B3333A" fill-opacity="0.8"/>
<path d="M91.558 20.559H91.918C91.948 20.559 91.968 20.569 91.978 20.589C91.9913 20.6057 91.988 20.629 91.968 20.659L91.263 21.779V21.799L92.023 23.009C92.0396 23.0357 92.0413 23.059 92.028 23.079C92.018 23.099 91.9946 23.109 91.958 23.109H91.633C91.5563 23.109 91.4996 23.0807 91.463 23.024L90.758 21.869C90.7346 21.8257 90.7346 21.7807 90.758 21.734L91.413 20.639C91.443 20.5857 91.4913 20.559 91.558 20.559Z" fill="#B3333A" fill-opacity="0.8"/>
<path d="M90.508 23.109H90.193C90.1363 23.109 90.108 23.0807 90.108 23.024V19.679C90.108 19.6223 90.1363 19.594 90.193 19.594H90.508C90.5646 19.594 90.593 19.6223 90.593 19.679V23.024C90.593 23.0807 90.5646 23.109 90.508 23.109Z" fill="#B3333A" fill-opacity="0.8"/>
<path fill-rule="evenodd" clip-rule="evenodd" d="M93.3182 22.984H93.0932C92.8532 22.984 92.6682 22.9173 92.5382 22.784C92.4116 22.6473 92.3482 22.4557 92.3482 22.209V21.334C92.3482 21.0873 92.4166 20.8973 92.5532 20.764C92.6899 20.6273 92.8799 20.559 93.1232 20.559H94.2432C94.3032 20.559 94.3332 20.5873 94.3332 20.644V23.119C94.3332 23.3623 94.2632 23.5507 94.1232 23.684C93.9866 23.8207 93.7966 23.889 93.5532 23.889H92.6132C92.5566 23.889 92.5282 23.8623 92.5282 23.809V23.549C92.5282 23.4923 92.5566 23.464 92.6132 23.464H93.4782C93.7216 23.464 93.8432 23.3407 93.8432 23.094V22.714H93.8232C93.7399 22.894 93.5716 22.984 93.3182 22.984ZM93.8432 22.134V21.034C93.8432 21.0007 93.8249 20.984 93.7882 20.984H93.1932C92.9566 20.984 92.8382 21.1073 92.8382 21.354V22.184C92.8382 22.4307 92.9566 22.554 93.1932 22.554H93.4332C93.7066 22.554 93.8432 22.414 93.8432 22.134Z" fill="#B3333A" fill-opacity="0.8"/>
<path d="M95.8666 23.109H94.9466C94.8899 23.109 94.8616 23.0807 94.8616 23.024V22.779C94.8616 22.7257 94.8899 22.699 94.9466 22.699H95.7866C96.0033 22.699 96.1116 22.624 96.1116 22.474V22.414C96.1116 22.2807 96.0333 22.179 95.8766 22.109L95.3316 21.849C95.1616 21.769 95.0383 21.6807 94.9616 21.584C94.8849 21.4873 94.8466 21.3607 94.8466 21.204C94.8466 20.774 95.0849 20.559 95.5616 20.559H96.3916C96.4449 20.559 96.4716 20.5873 96.4716 20.644V20.889C96.4716 20.9457 96.4449 20.974 96.3916 20.974H95.6616C95.5616 20.974 95.4849 20.9923 95.4316 21.029C95.3783 21.0623 95.3516 21.1073 95.3516 21.164V21.219C95.3516 21.3257 95.4366 21.419 95.6066 21.499L96.1566 21.779C96.3299 21.8557 96.4483 21.9473 96.5116 22.054C96.5783 22.1573 96.6116 22.2923 96.6116 22.459C96.6116 22.8923 96.3633 23.109 95.8666 23.109Z" fill="#B3333A" fill-opacity="0.8"/>
<path d="M98.5795 20.559H98.9395C98.9695 20.559 98.9895 20.569 98.9995 20.589C99.0128 20.6057 99.0095 20.629 98.9895 20.659L98.2845 21.779V21.799L99.0445 23.009C99.0611 23.0357 99.0628 23.059 99.0495 23.079C99.0395 23.099 99.0161 23.109 98.9795 23.109H98.6544C98.5778 23.109 98.5211 23.0807 98.4845 23.024L97.7794 21.869C97.7561 21.8257 97.7561 21.7807 97.7794 21.734L98.4345 20.639C98.4645 20.5857 98.5128 20.559 98.5795 20.559Z" fill="#B3333A" fill-opacity="0.8"/>
<path d="M97.5294 23.109H97.2145C97.1578 23.109 97.1295 23.0807 97.1295 23.024V19.679C97.1295 19.6223 97.1578 19.594 97.2145 19.594H97.5294C97.5861 19.594 97.6145 19.6223 97.6145 19.679V23.024C97.6145 23.0807 97.5861 23.109 97.5294 23.109Z" fill="#B3333A" fill-opacity="0.8"/>
<path fill-rule="evenodd" clip-rule="evenodd" d="M100.34 22.984H100.115C99.8747 22.984 99.6897 22.9173 99.5597 22.784C99.4331 22.6473 99.3697 22.4557 99.3697 22.209V21.334C99.3697 21.0873 99.4381 20.8973 99.5747 20.764C99.7114 20.6273 99.9014 20.559 100.145 20.559H101.265C101.325 20.559 101.355 20.5873 101.355 20.644V23.119C101.355 23.3623 101.285 23.5507 101.145 23.684C101.008 23.8207 100.818 23.889 100.575 23.889H99.6347C99.5781 23.889 99.5497 23.8623 99.5497 23.809V23.549C99.5497 23.4923 99.5781 23.464 99.6347 23.464H100.5C100.743 23.464 100.865 23.3407 100.865 23.094V22.714H100.845C100.761 22.894 100.593 22.984 100.34 22.984ZM100.865 22.134V21.034C100.865 21.0007 100.846 20.984 100.81 20.984H100.215C99.9781 20.984 99.8597 21.1073 99.8597 21.354V22.184C99.8597 22.4307 99.9781 22.554 100.215 22.554H100.455C100.728 22.554 100.865 22.414 100.865 22.134Z" fill="#B3333A" fill-opacity="0.8"/>
<path d="M102.378 23.109H102.063C102.006 23.109 101.978 23.0807 101.978 23.024V20.644C101.978 20.5873 102.006 20.559 102.063 20.559H102.378C102.435 20.559 102.463 20.5873 102.463 20.644V20.824H102.483C102.563 20.6473 102.731 20.559 102.988 20.559H103.208C103.451 20.559 103.638 20.6257 103.768 20.759C103.898 20.8923 103.963 21.084 103.963 21.334V23.024C103.963 23.0807 103.933 23.109 103.873 23.109H103.558C103.501 23.109 103.473 23.0807 103.473 23.024V21.354C103.473 21.1073 103.351 20.984 103.108 20.984H102.873C102.6 20.984 102.463 21.1257 102.463 21.409V23.024C102.463 23.0807 102.435 23.109 102.378 23.109Z" fill="#B3333A" fill-opacity="0.8"/>
<path d="M106.011 20.559H106.371C106.401 20.559 106.421 20.569 106.431 20.589C106.444 20.6057 106.441 20.629 106.421 20.659L105.716 21.779V21.799L106.476 23.009C106.493 23.0357 106.494 23.059 106.481 23.079C106.471 23.099 106.448 23.109 106.411 23.109H106.086C106.009 23.109 105.953 23.0807 105.916 23.024L105.211 21.869C105.188 21.8257 105.188 21.7807 105.211 21.734L105.866 20.639C105.896 20.5857 105.944 20.559 106.011 20.559Z" fill="#B3333A" fill-opacity="0.8"/>
<path d="M104.961 23.109H104.646C104.589 23.109 104.561 23.0807 104.561 23.024V19.679C104.561 19.6223 104.589 19.594 104.646 19.594H104.961C105.018 19.594 105.046 19.6223 105.046 19.679V23.024C105.046 23.0807 105.018 23.109 104.961 23.109Z" fill="#B3333A" fill-opacity="0.8"/>
<path d="M108.458 23.109H108.143C108.086 23.109 108.058 23.0807 108.058 23.024V19.679C108.058 19.6223 108.086 19.594 108.143 19.594H108.458C108.514 19.594 108.543 19.6223 108.543 19.679V23.024C108.543 23.0807 108.514 23.109 108.458 23.109Z" fill="#B3333A" fill-opacity="0.8"/>
<path d="M110.11 23.109H109.19C109.133 23.109 109.105 23.0807 109.105 23.024V22.779C109.105 22.7257 109.133 22.699 109.19 22.699H110.03C110.246 22.699 110.355 22.624 110.355 22.474V22.414C110.355 22.2807 110.276 22.179 110.12 22.109L109.575 21.849C109.405 21.769 109.281 21.6807 109.205 21.584C109.128 21.4873 109.09 21.3607 109.09 21.204C109.09 20.774 109.328 20.559 109.805 20.559H110.635C110.688 20.559 110.715 20.5873 110.715 20.644V20.889C110.715 20.9457 110.688 20.974 110.635 20.974H109.905C109.805 20.974 109.728 20.9923 109.675 21.029C109.621 21.0623 109.595 21.1073 109.595 21.164V21.219C109.595 21.3257 109.68 21.419 109.85 21.499L110.4 21.779C110.573 21.8557 110.691 21.9473 110.755 22.054C110.821 22.1573 110.855 22.2923 110.855 22.459C110.855 22.8923 110.606 23.109 110.11 23.109Z" fill="#B3333A" fill-opacity="0.8"/>
<path d="M111.773 23.109H111.458C111.401 23.109 111.373 23.0807 111.373 23.024V20.644C111.373 20.5873 111.401 20.559 111.458 20.559H111.773C111.829 20.559 111.858 20.5873 111.858 20.644V20.834H111.878C111.911 20.7507 111.974 20.684 112.068 20.634C112.164 20.584 112.271 20.559 112.388 20.559H112.573C112.629 20.559 112.658 20.5873 112.658 20.644V20.904C112.658 20.9673 112.629 20.994 112.573 20.984H112.273C111.996 20.984 111.858 21.1357 111.858 21.439V23.024C111.858 23.0807 111.829 23.109 111.773 23.109Z" fill="#B3333A" fill-opacity="0.8"/>
<path d="M113.472 23.109H113.157C113.101 23.109 113.072 23.0807 113.072 23.024V19.679C113.072 19.6223 113.101 19.594 113.157 19.594H113.472C113.529 19.594 113.557 19.6223 113.557 19.679V23.024C113.557 23.0807 113.529 23.109 113.472 23.109Z" fill="#B3333A" fill-opacity="0.8"/>
<path d="M115.664 20.559H116.024C116.054 20.559 116.074 20.569 116.084 20.589C116.098 20.6057 116.094 20.629 116.074 20.659L115.369 21.779V21.799L116.129 23.009C116.146 23.0357 116.148 23.059 116.134 23.079C116.124 23.099 116.101 23.109 116.064 23.109H115.739C115.663 23.109 115.606 23.0807 115.569 23.024L114.864 21.869C114.841 21.8257 114.841 21.7807 114.864 21.734L115.519 20.639C115.549 20.5857 115.598 20.559 115.664 20.559Z" fill="#B3333A" fill-opacity="0.8"/>
<path d="M114.614 23.109H114.299C114.243 23.109 114.214 23.0807 114.214 23.024V19.679C114.214 19.6223 114.243 19.594 114.299 19.594H114.614C114.671 19.594 114.699 19.6223 114.699 19.679V23.024C114.699 23.0807 114.671 23.109 114.614 23.109Z" fill="#B3333A" fill-opacity="0.8"/>
<path d="M116.92 23.109H116.605C116.548 23.109 116.52 23.0807 116.52 23.024V19.679C116.52 19.6223 116.548 19.594 116.605 19.594H116.92C116.976 19.594 117.005 19.6223 117.005 19.679V23.024C117.005 23.0807 116.976 23.109 116.92 23.109Z" fill="#B3333A" fill-opacity="0.8"/>
<path fill-rule="evenodd" clip-rule="evenodd" d="M118.592 22.984H118.367C118.127 22.984 117.942 22.9173 117.812 22.784C117.685 22.6473 117.622 22.4557 117.622 22.209V21.334C117.622 21.0873 117.69 20.8973 117.827 20.764C117.963 20.6273 118.153 20.559 118.397 20.559H119.517C119.577 20.559 119.607 20.5873 119.607 20.644V23.119C119.607 23.3623 119.537 23.5507 119.397 23.684C119.26 23.8207 119.07 23.889 118.827 23.889H117.887C117.83 23.889 117.802 23.8623 117.802 23.809V23.549C117.802 23.4923 117.83 23.464 117.887 23.464H118.752C118.995 23.464 119.117 23.3407 119.117 23.094V22.714H119.097C119.013 22.894 118.845 22.984 118.592 22.984ZM119.117 22.134V21.034C119.117 21.0007 119.098 20.984 119.062 20.984H118.467C118.23 20.984 118.112 21.1073 118.112 21.354V22.184C118.112 22.4307 118.23 22.554 118.467 22.554H118.707C118.98 22.554 119.117 22.414 119.117 22.134Z" fill="#B3333A" fill-opacity="0.8"/>
<path d="M121.68 20.559H122.04C122.07 20.559 122.09 20.569 122.1 20.589C122.113 20.6057 122.11 20.629 122.09 20.659L121.385 21.779V21.799L122.145 23.009C122.162 23.0357 122.163 23.059 122.15 23.079C122.14 23.099 122.117 23.109 122.08 23.109H121.755C121.678 23.109 121.622 23.0807 121.585 23.024L120.88 21.869C120.857 21.8257 120.857 21.7807 120.88 21.734L121.535 20.639C121.565 20.5857 121.613 20.559 121.68 20.559Z" fill="#B3333A" fill-opacity="0.8"/>
<path d="M120.63 23.109H120.315C120.258 23.109 120.23 23.0807 120.23 23.024V19.679C120.23 19.6223 120.258 19.594 120.315 19.594H120.63C120.687 19.594 120.715 19.6223 120.715 19.679V23.024C120.715 23.0807 120.687 23.109 120.63 23.109Z" fill="#B3333A" fill-opacity="0.8"/>
<path d="M122.935 23.109H122.62C122.564 23.109 122.535 23.0807 122.535 23.024V19.679C122.535 19.6223 122.564 19.594 122.62 19.594H122.935C122.992 19.594 123.02 19.6223 123.02 19.679V23.024C123.02 23.0807 122.992 23.109 122.935 23.109Z" fill="#B3333A" fill-opacity="0.8"/>
<path d="M259.284 2.069H259.656C259.824 2.069 259.942 2.107 260.01 2.183C260.082 2.259 260.118 2.387 260.118 2.567V3.173C260.118 3.465 259.97 3.611 259.674 3.611H259.332C259.044 3.611 258.9 3.465 258.9 3.173V3.023C258.9 2.951 258.866 2.915 258.798 2.915H258.42C258.352 2.915 258.318 2.951 258.318 3.023V3.179C258.318 3.471 258.398 3.699 258.558 3.863C258.722 4.027 258.952 4.109 259.248 4.109H259.758C260.05 4.109 260.278 4.027 260.442 3.863C260.606 3.699 260.688 3.471 260.688 3.179V2.483C260.688 2.191 260.612 1.971 260.46 1.823C260.308 1.671 260.088 1.595 259.8 1.595H259.446C259.178 1.595 259.01 1.693 258.942 1.889V0.797H260.49C260.562 0.797 260.598 0.763 260.598 0.695V0.353C260.598 0.285 260.562 0.251 260.49 0.251H258.456C258.388 0.251 258.354 0.285 258.354 0.353V2.237C258.354 2.305 258.388 2.339 258.456 2.339H258.834C258.898 2.339 258.952 2.293 258.996 2.201C259.012 2.169 259.044 2.139 259.092 2.111C259.144 2.083 259.208 2.069 259.284 2.069Z" fill="#B3333A" fill-opacity="0.8"/>
<path fill-rule="evenodd" clip-rule="evenodd" d="M159.004 12.109H158.308C158.012 12.109 157.782 12.027 157.618 11.863C157.458 11.699 157.378 11.471 157.378 11.179V9.181C157.378 8.885 157.458 8.657 157.618 8.497C157.782 8.333 158.012 8.251 158.308 8.251H159.004C159.3 8.251 159.53 8.333 159.694 8.497C159.858 8.657 159.94 8.885 159.94 9.181V11.179C159.94 11.471 159.858 11.699 159.694 11.863C159.53 12.027 159.3 12.109 159.004 12.109ZM158.392 11.599H158.914C159.206 11.599 159.352 11.451 159.352 11.155V9.205C159.352 8.909 159.206 8.761 158.914 8.761H158.392C158.104 8.761 157.96 8.909 157.96 9.205V11.155C157.96 11.451 158.104 11.599 158.392 11.599Z" fill="#B3333A" fill-opacity="0.8"/>
<path fill-rule="evenodd" clip-rule="evenodd" d="M164.182 12.109H163.828C163.76 12.109 163.726 12.075 163.726 12.007V11.377H162.142C162.026 11.377 161.968 11.319 161.968 11.203V11.017C161.968 10.929 161.986 10.851 162.022 10.783L163.36 8.401C163.392 8.341 163.422 8.301 163.45 8.281C163.478 8.261 163.52 8.251 163.576 8.251H164.104C164.22 8.251 164.278 8.309 164.278 8.425V10.861H164.716C164.784 10.861 164.818 10.895 164.818 10.963V11.263C164.818 11.339 164.784 11.377 164.716 11.377H164.278V12.007C164.278 12.075 164.246 12.109 164.182 12.109ZM163.726 10.861V8.737L162.544 10.861H163.726Z" fill="#B3333A" fill-opacity="0.8"/>
<path fill-rule="evenodd" clip-rule="evenodd" d="M167.381 12.109H167.027C166.959 12.109 166.925 12.075 166.925 12.007V11.377H165.341C165.225 11.377 165.167 11.319 165.167 11.203V11.017C165.167 10.929 165.185 10.851 165.221 10.783L166.559 8.401C166.591 8.341 166.621 8.301 166.649 8.281C166.677 8.261 166.719 8.251 166.775 8.251H167.303C167.419 8.251 167.477 8.309 167.477 8.425V10.861H167.915C167.983 10.861 168.017 10.895 168.017 10.963V11.263C168.017 11.339 167.983 11.377 167.915 11.377H167.477V12.007C167.477 12.075 167.445 12.109 167.381 12.109ZM166.925 10.861V8.737L165.743 10.861H166.925Z" fill="#B3333A" fill-opacity="0.8"/>
<path d="M168.307 9.193V8.839C168.307 8.775 168.335 8.727 168.391 8.695L169.015 8.317C169.091 8.273 169.155 8.251 169.207 8.251H169.567C169.635 8.251 169.669 8.285 169.669 8.353V12.007C169.669 12.075 169.637 12.109 169.573 12.109H169.183C169.115 12.109 169.081 12.075 169.081 12.007V8.875L168.427 9.253C168.347 9.289 168.307 9.269 168.307 9.193Z" fill="#B3333A" fill-opacity="0.8"/>
<path d="M170.27 9.193V8.839C170.27 8.775 170.298 8.727 170.354 8.695L170.978 8.317C171.054 8.273 171.118 8.251 171.17 8.251H171.53C171.598 8.251 171.632 8.285 171.632 8.353V12.007C171.632 12.075 171.6 12.109 171.536 12.109H171.146C171.078 12.109 171.044 12.075 171.044 12.007V8.875L170.39 9.253C170.31 9.289 170.27 9.269 170.27 9.193Z" fill="#B3333A" fill-opacity="0.8"/>
<path fill-rule="evenodd" clip-rule="evenodd" d="M174.506 12.109H174.152C174.084 12.109 174.05 12.075 174.05 12.007V11.377H172.466C172.35 11.377 172.292 11.319 172.292 11.203V11.017C172.292 10.929 172.31 10.851 172.346 10.783L173.684 8.401C173.716 8.341 173.746 8.301 173.774 8.281C173.802 8.261 173.844 8.251 173.9 8.251H174.428C174.544 8.251 174.602 8.309 174.602 8.425V10.861H175.04C175.108 10.861 175.142 10.895 175.142 10.963V11.263C175.142 11.339 175.108 11.377 175.04 11.377H174.602V12.007C174.602 12.075 174.57 12.109 174.506 12.109ZM174.05 10.861V8.737L172.868 10.861H174.05Z" fill="#B3333A" fill-opacity="0.8"/>
<path fill-rule="evenodd" clip-rule="evenodd" d="M180.007 12.109H179.407C179.111 12.109 178.881 12.027 178.717 11.863C178.553 11.699 178.471 11.471 178.471 11.179V9.181C178.471 8.885 178.553 8.657 178.717 8.497C178.881 8.333 179.111 8.251 179.407 8.251H180.007C180.299 8.251 180.527 8.333 180.691 8.497C180.855 8.657 180.937 8.885 180.937 9.181V11.179C180.937 11.471 180.855 11.699 180.691 11.863C180.527 12.027 180.299 12.109 180.007 12.109ZM179.497 11.599H179.923C180.211 11.599 180.355 11.451 180.355 11.155V9.205C180.355 8.909 180.211 8.761 179.923 8.761H179.497C179.209 8.761 179.065 8.909 179.065 9.205V11.155C179.065 11.451 179.209 11.599 179.497 11.599Z" fill="#B3333A" fill-opacity="0.8"/>
<path d="M184.853 12.751H182.825C182.757 12.751 182.723 12.715 182.723 12.643V12.517C182.723 12.449 182.757 12.415 182.825 12.415H184.853C184.921 12.415 184.955 12.449 184.955 12.517V12.643C184.955 12.715 184.921 12.751 184.853 12.751Z" fill="#B3333A" fill-opacity="0.8"/>
<path d="M186.553 9.193V8.839C186.553 8.775 186.581 8.727 186.637 8.695L187.261 8.317C187.337 8.273 187.401 8.251 187.453 8.251H187.813C187.881 8.251 187.915 8.285 187.915 8.353V12.007C187.915 12.075 187.883 12.109 187.819 12.109H187.429C187.361 12.109 187.327 12.075 187.327 12.007V8.875L186.673 9.253C186.593 9.289 186.553 9.269 186.553 9.193Z" fill="#B3333A" fill-opacity="0.8"/>
<path fill-rule="evenodd" clip-rule="evenodd" d="M193.649 12.109H193.295C193.227 12.109 193.193 12.075 193.193 12.007V11.377H191.609C191.493 11.377 191.435 11.319 191.435 11.203V11.017C191.435 10.929 191.453 10.851 191.489 10.783L192.827 8.401C192.859 8.341 192.889 8.301 192.917 8.281C192.945 8.261 192.987 8.251 193.043 8.251H193.571C193.687 8.251 193.745 8.309 193.745 8.425V10.861H194.183C194.251 10.861 194.285 10.895 194.285 10.963V11.263C194.285 11.339 194.251 11.377 194.183 11.377H193.745V12.007C193.745 12.075 193.713 12.109 193.649 12.109ZM193.193 10.861V8.737L192.011 10.861H193.193Z" fill="#B3333A" fill-opacity="0.8"/>
<path d="M198.922 10.069H198.55C198.474 10.069 198.41 10.083 198.358 10.111C198.31 10.139 198.278 10.169 198.262 10.201C198.218 10.293 198.164 10.339 198.1 10.339H197.722C197.654 10.339 197.62 10.305 197.62 10.237V8.353C197.62 8.285 197.654 8.251 197.722 8.251H199.756C199.828 8.251 199.864 8.285 199.864 8.353V8.695C199.864 8.763 199.828 8.797 199.756 8.797H198.208V9.889C198.276 9.693 198.444 9.595 198.712 9.595H199.066C199.354 9.595 199.574 9.671 199.726 9.823C199.878 9.971 199.954 10.191 199.954 10.483V11.179C199.954 11.471 199.872 11.699 199.708 11.863C199.544 12.027 199.316 12.109 199.024 12.109H198.514C198.218 12.109 197.988 12.027 197.824 11.863C197.664 11.699 197.584 11.471 197.584 11.179V11.023C197.584 10.951 197.618 10.915 197.686 10.915H198.064C198.132 10.915 198.166 10.951 198.166 11.023V11.173C198.166 11.465 198.31 11.611 198.598 11.611H198.94C199.236 11.611 199.384 11.465 199.384 11.173V10.567C199.384 10.387 199.348 10.259 199.276 10.183C199.208 10.107 199.09 10.069 198.922 10.069Z" fill="#B3333A" fill-opacity="0.8"/>
<path fill-rule="evenodd" clip-rule="evenodd" d="M204.991 12.109H204.391C204.095 12.109 203.865 12.027 203.701 11.863C203.537 11.699 203.455 11.471 203.455 11.179V9.181C203.455 8.885 203.537 8.657 203.701 8.497C203.865 8.333 204.095 8.251 204.391 8.251H204.991C205.283 8.251 205.511 8.333 205.675 8.497C205.839 8.657 205.921 8.885 205.921 9.181V11.179C205.921 11.471 205.839 11.699 205.675 11.863C205.511 12.027 205.283 12.109 204.991 12.109ZM204.481 11.599H204.907C205.195 11.599 205.339 11.451 205.339 11.155V9.205C205.339 8.909 205.195 8.761 204.907 8.761H204.481C204.193 8.761 204.049 8.909 204.049 9.205V11.155C204.049 11.451 204.193 11.599 204.481 11.599Z" fill="#B3333A" fill-opacity="0.8"/>
<path d="M258.312 11.455V12.007C258.312 12.075 258.348 12.109 258.42 12.109H260.526C260.598 12.109 260.634 12.075 260.634 12.007V11.689C260.634 11.621 260.598 11.587 260.526 11.587H258.966V11.395C258.966 11.291 259.012 11.201 259.104 11.125L260.256 10.183C260.5 9.983 260.622 9.727 260.622 9.415V9.169C260.622 8.877 260.54 8.651 260.376 8.491C260.212 8.331 259.984 8.251 259.692 8.251H259.224C258.928 8.251 258.698 8.331 258.534 8.491C258.37 8.651 258.288 8.877 258.288 9.169V9.403C258.288 9.475 258.322 9.511 258.39 9.511H258.774C258.842 9.511 258.876 9.475 258.876 9.403V9.181C258.876 9.029 258.91 8.919 258.978 8.851C259.046 8.783 259.156 8.749 259.308 8.749H259.602C259.902 8.749 260.052 8.893 260.052 9.181V9.379C260.052 9.579 259.956 9.755 259.764 9.907L258.63 10.831C258.418 10.999 258.312 11.207 258.312 11.455Z" fill="#B3333A" fill-opacity="0.8"/>
<path d="M167.19 16.251H167.568C167.636 16.251 167.67 16.283 167.67 16.347V19.179C167.67 19.471 167.588 19.699 167.424 19.863C167.26 20.027 167.032 20.109 166.74 20.109H166.14C165.844 20.109 165.614 20.027 165.45 19.863C165.286 19.699 165.204 19.471 165.204 19.179V18.639C165.204 18.571 165.24 18.537 165.312 18.537H165.69C165.758 18.537 165.792 18.571 165.792 18.639V19.155C165.792 19.451 165.936 19.599 166.224 19.599H166.65C166.938 19.599 167.082 19.451 167.082 19.155V16.353C167.082 16.285 167.118 16.251 167.19 16.251Z" fill="#B3333A" fill-opacity="0.8"/>
<path d="M169.818 20.007V19.455C169.818 19.207 169.924 18.999 170.136 18.831L171.27 17.907C171.462 17.755 171.558 17.579 171.558 17.379V17.181C171.558 16.893 171.408 16.749 171.108 16.749H170.814C170.662 16.749 170.552 16.783 170.484 16.851C170.416 16.919 170.382 17.029 170.382 17.181V17.403C170.382 17.475 170.348 17.511 170.28 17.511H169.896C169.828 17.511 169.794 17.475 169.794 17.403V17.169C169.794 16.877 169.876 16.651 170.04 16.491C170.204 16.331 170.434 16.251 170.73 16.251H171.198C171.49 16.251 171.718 16.331 171.882 16.491C172.046 16.651 172.128 16.877 172.128 17.169V17.415C172.128 17.727 172.006 17.983 171.762 18.183L170.61 19.125C170.518 19.201 170.472 19.291 170.472 19.395V19.587H172.032C172.104 19.587 172.14 19.621 172.14 19.689V20.007C172.14 20.075 172.104 20.109 172.032 20.109H169.926C169.854 20.109 169.818 20.075 169.818 20.007Z" fill="#B3333A" fill-opacity="0.8"/>
<path fill-rule="evenodd" clip-rule="evenodd" d="M174.872 20.109H174.518C174.45 20.109 174.416 20.075 174.416 20.007V19.377H172.832C172.716 19.377 172.658 19.319 172.658 19.203V19.017C172.658 18.929 172.676 18.851 172.712 18.783L174.05 16.401C174.082 16.341 174.112 16.301 174.14 16.281C174.168 16.261 174.21 16.251 174.266 16.251H174.794C174.91 16.251 174.968 16.309 174.968 16.425V18.861H175.406C175.474 18.861 175.508 18.895 175.508 18.963V19.263C175.508 19.339 175.474 19.377 175.406 19.377H174.968V20.007C174.968 20.075 174.936 20.109 174.872 20.109ZM174.416 18.861V16.737L173.234 18.861H174.416Z" fill="#B3333A" fill-opacity="0.8"/>
<path d="M175.941 20.007V19.455C175.941 19.207 176.047 18.999 176.259 18.831L177.393 17.907C177.585 17.755 177.681 17.579 177.681 17.379V17.181C177.681 16.893 177.531 16.749 177.231 16.749H176.937C176.785 16.749 176.675 16.783 176.607 16.851C176.539 16.919 176.505 17.029 176.505 17.181V17.403C176.505 17.475 176.471 17.511 176.403 17.511H176.019C175.951 17.511 175.917 17.475 175.917 17.403V17.169C175.917 16.877 175.999 16.651 176.163 16.491C176.327 16.331 176.557 16.251 176.853 16.251H177.321C177.613 16.251 177.841 16.331 178.005 16.491C178.169 16.651 178.251 16.877 178.251 17.169V17.415C178.251 17.727 178.129 17.983 177.885 18.183L176.733 19.125C176.641 19.201 176.595 19.291 176.595 19.395V19.587H178.155C178.227 19.587 178.263 19.621 178.263 19.689V20.007C178.263 20.075 178.227 20.109 178.155 20.109H176.049C175.977 20.109 175.941 20.075 175.941 20.007Z" fill="#B3333A" fill-opacity="0.8"/>
<path fill-rule="evenodd" clip-rule="evenodd" d="M180.995 20.109H180.641C180.573 20.109 180.539 20.075 180.539 20.007V19.377H178.955C178.839 19.377 178.781 19.319 178.781 19.203V19.017C178.781 18.929 178.799 18.851 178.835 18.783L180.173 16.401C180.205 16.341 180.235 16.301 180.263 16.281C180.291 16.261 180.333 16.251 180.389 16.251H180.917C181.033 16.251 181.091 16.309 181.091 16.425V18.861H181.529C181.597 18.861 181.631 18.895 181.631 18.963V19.263C181.631 19.339 181.597 19.377 181.529 19.377H181.091V20.007C181.091 20.075 181.059 20.109 180.995 20.109ZM180.539 18.861V16.737L179.357 18.861H180.539Z" fill="#B3333A" fill-opacity="0.8"/>
<path fill-rule="evenodd" clip-rule="evenodd" d="M183.636 20.109H183.036C182.74 20.109 182.51 20.027 182.346 19.863C182.182 19.699 182.1 19.471 182.1 19.179V17.181C182.1 16.885 182.182 16.657 182.346 16.497C182.51 16.333 182.74 16.251 183.036 16.251H183.636C183.928 16.251 184.156 16.333 184.32 16.497C184.484 16.657 184.566 16.885 184.566 17.181V19.179C184.566 19.471 184.484 19.699 184.32 19.863C184.156 20.027 183.928 20.109 183.636 20.109ZM183.126 19.599H183.552C183.84 19.599 183.984 19.451 183.984 19.155V17.205C183.984 16.909 183.84 16.761 183.552 16.761H183.126C182.838 16.761 182.694 16.909 182.694 17.205V19.155C182.694 19.451 182.838 19.599 183.126 19.599Z" fill="#B3333A" fill-opacity="0.8"/>
<path fill-rule="evenodd" clip-rule="evenodd" d="M187.364 20.109H187.01C186.942 20.109 186.908 20.075 186.908 20.007V19.377H185.324C185.208 19.377 185.15 19.319 185.15 19.203V19.017C185.15 18.929 185.168 18.851 185.204 18.783L186.542 16.401C186.574 16.341 186.604 16.301 186.632 16.281C186.66 16.261 186.702 16.251 186.758 16.251H187.286C187.402 16.251 187.46 16.309 187.46 16.425V18.861H187.898C187.966 18.861 188 18.895 188 18.963V19.263C188 19.339 187.966 19.377 187.898 19.377H187.46V20.007C187.46 20.075 187.428 20.109 187.364 20.109ZM186.908 18.861V16.737L185.726 18.861H186.908Z" fill="#B3333A" fill-opacity="0.8"/>
<path fill-rule="evenodd" clip-rule="evenodd" d="M192.864 20.109H192.264C191.968 20.109 191.738 20.027 191.574 19.863C191.41 19.699 191.328 19.471 191.328 19.179V17.181C191.328 16.885 191.41 16.657 191.574 16.497C191.738 16.333 191.968 16.251 192.264 16.251H192.864C193.156 16.251 193.384 16.333 193.548 16.497C193.712 16.657 193.794 16.885 193.794 17.181V19.179C193.794 19.471 193.712 19.699 193.548 19.863C193.384 20.027 193.156 20.109 192.864 20.109ZM192.354 19.599H192.78C193.068 19.599 193.212 19.451 193.212 19.155V17.205C193.212 16.909 193.068 16.761 192.78 16.761H192.354C192.066 16.761 191.922 16.909 191.922 17.205V19.155C191.922 19.451 192.066 19.599 192.354 19.599Z" fill="#B3333A" fill-opacity="0.8"/>
<path d="M197.71 20.751H195.682C195.614 20.751 195.58 20.715 195.58 20.643V20.517C195.58 20.449 195.614 20.415 195.682 20.415H197.71C197.778 20.415 197.812 20.449 197.812 20.517V20.643C197.812 20.715 197.778 20.751 197.71 20.751Z" fill="#B3333A" fill-opacity="0.8"/>
<path fill-rule="evenodd" clip-rule="evenodd" d="M201.684 20.109H201.33C201.262 20.109 201.228 20.075 201.228 20.007V19.377H199.644C199.528 19.377 199.47 19.319 199.47 19.203V19.017C199.47 18.929 199.488 18.851 199.524 18.783L200.862 16.401C200.894 16.341 200.924 16.301 200.952 16.281C200.98 16.261 201.022 16.251 201.078 16.251H201.606C201.722 16.251 201.78 16.309 201.78 16.425V18.861H202.218C202.286 18.861 202.32 18.895 202.32 18.963V19.263C202.32 19.339 202.286 19.377 202.218 19.377H201.78V20.007C201.78 20.075 201.748 20.109 201.684 20.109ZM201.228 18.861V16.737L200.046 18.861H201.228Z" fill="#B3333A" fill-opacity="0.8"/>
<path fill-rule="evenodd" clip-rule="evenodd" d="M207.743 20.109H207.389C207.321 20.109 207.287 20.075 207.287 20.007V19.377H205.703C205.587 19.377 205.529 19.319 205.529 19.203V19.017C205.529 18.929 205.547 18.851 205.583 18.783L206.921 16.401C206.953 16.341 206.983 16.301 207.011 16.281C207.039 16.261 207.081 16.251 207.137 16.251H207.665C207.781 16.251 207.839 16.309 207.839 16.425V18.861H208.277C208.345 18.861 208.379 18.895 208.379 18.963V19.263C208.379 19.339 208.345 19.377 208.277 19.377H207.839V20.007C207.839 20.075 207.807 20.109 207.743 20.109ZM207.287 18.861V16.737L206.105 18.861H207.287Z" fill="#B3333A" fill-opacity="0.8"/>
<path fill-rule="evenodd" clip-rule="evenodd" d="M260.088 20.109H260.442C260.506 20.109 260.538 20.075 260.538 20.007V19.377H260.976C261.044 19.377 261.078 19.339 261.078 19.263V18.963C261.078 18.895 261.044 18.861 260.976 18.861H260.538V16.425C260.538 16.309 260.48 16.251 260.364 16.251H259.836C259.78 16.251 259.738 16.261 259.71 16.281C259.682 16.301 259.652 16.341 259.62 16.401L258.282 18.783C258.246 18.851 258.228 18.929 258.228 19.017V19.203C258.228 19.319 258.286 19.377 258.402 19.377H259.986V20.007C259.986 20.075 260.02 20.109 260.088 20.109ZM259.986 16.737V18.861H258.804L259.986 16.737Z" fill="#B3333A" fill-opacity="0.8"/>
</svg>
