<svg width="33" height="14" viewBox="0 0 33 14" fill="none" xmlns="http://www.w3.org/2000/svg">
<path d="M0 0.953751V3.24773H0.767442L0.767442 1.71846L2.30233 1.71846V0.953751L0 0.953751Z" fill="#B3333A" fill-opacity="0.8"/>
<path d="M8.4417 7.45345C8.4417 8.50929 7.58271 9.36522 6.5231 9.36522C5.46348 9.36522 4.60449 8.50929 4.60449 7.45345C4.60449 6.39761 5.46348 5.54169 6.5231 5.54169C7.58271 5.54169 8.4417 6.39761 8.4417 7.45345Z" fill="#B3333A" fill-opacity="0.8"/>
<path d="M13.0459 0.953613L10.7436 0.953749V1.71845H12.2785V3.24773H13.0459V0.953613Z" fill="#B3333A" fill-opacity="0.8"/>
<path d="M2.30233 13.9535L2.30233 13.1888H0.767442L0.767442 11.6594H0V13.9535H2.30233Z" fill="#B3333A" fill-opacity="0.8"/>
<path d="M10.7436 13.9535L13.0459 13.9535L13.0459 11.6594H12.2785L12.2785 13.1888L10.7436 13.1888V13.9535Z" fill="#B3333A" fill-opacity="0.8"/>
<path d="M19.9541 0.953613L22.2564 0.953749V1.71845L20.7215 1.71845V3.24773H19.9541V0.953613Z" fill="#B3333A" fill-opacity="0.8"/>
<path d="M33 0.953613L30.6977 0.953749V1.71845H32.2326V3.24773H33V0.953613Z" fill="#B3333A" fill-opacity="0.8"/>
<path d="M22.2564 13.9535V13.1888H20.7215L20.7215 11.6594H19.9541V13.9535H22.2564Z" fill="#B3333A" fill-opacity="0.8"/>
<path d="M30.6977 13.9535L33 13.9535V11.6594H32.2326V13.1888L30.6977 13.1888V13.9535Z" fill="#B3333A" fill-opacity="0.8"/>
</svg>
