<svg width="40" height="49" viewBox="0 0 40 49" fill="none" xmlns="http://www.w3.org/2000/svg">
<path fill-rule="evenodd" clip-rule="evenodd" d="M0 1C0 0.447716 0.447723 0 1 0H39C39.5523 0 40 0.447716 40 1V39C40 39.5523 39.5523 40 39 40H10.4142C10.149 40 9.89465 39.8946 9.70709 39.7071L0.292908 30.2929C0.105347 30.1054 0 29.851 0 29.5858V1ZM2 29.1716V9H4V4H9V2H31V4H36V9H38V31H36V36H31V38H10.8284L2 29.1716Z" fill="#FFD43F"/>
<path fill-rule="evenodd" clip-rule="evenodd" d="M32.2971 42.5652C32.7035 42.5652 33.0329 42.8767 33.0329 43.2609C33.0329 43.6451 32.7035 43.9565 32.2971 43.9565C31.8907 43.9565 31.5612 43.6451 31.5612 43.2609C31.5612 42.8767 31.8907 42.5652 32.2971 42.5652ZM32.2971 42.913C32.5003 42.913 32.665 43.0688 32.665 43.2609C32.665 43.453 32.5003 43.6087 32.2971 43.6087C32.0939 43.6087 31.9291 43.453 31.9291 43.2609C31.9291 43.0688 32.0939 42.913 32.2971 42.913Z" fill="#FFD43F"/>
<path d="M33.0329 46.7391C33.0329 46.3549 32.7035 46.0435 32.2971 46.0435C31.8907 46.0435 31.5612 46.3549 31.5612 46.7391C31.5612 47.1233 31.8907 47.4348 32.2971 47.4348C32.7035 47.4348 33.0329 47.1233 33.0329 46.7391Z" fill="#FFD43F"/>
<path d="M33.0329 45C33.0329 44.6158 32.7035 44.3044 32.2971 44.3044C31.8907 44.3044 31.5612 44.6158 31.5612 45C31.5612 45.3842 31.8907 45.6956 32.2971 45.6956C32.7035 45.6956 33.0329 45.3842 33.0329 45Z" fill="#FFD43F"/>
<path d="M34.8726 46.7391C34.8726 46.3549 34.5431 46.0435 34.1367 46.0435C33.7303 46.0435 33.4008 46.3549 33.4008 46.7391C33.4008 47.1233 33.7303 47.4348 34.1367 47.4348C34.5431 47.4348 34.8726 47.1233 34.8726 46.7391Z" fill="#FFD43F"/>
<path d="M36.3443 46.7391C36.3443 46.547 36.1796 46.3913 35.9764 46.3913C35.7732 46.3913 35.6085 46.547 35.6085 46.7391C35.6085 46.9312 35.7732 47.087 35.9764 47.087C36.1796 47.087 36.3443 46.9312 36.3443 46.7391Z" fill="#FFD43F"/>
<path d="M36.3443 45C36.3443 44.8079 36.1796 44.6522 35.9764 44.6522C35.7732 44.6522 35.6085 44.8079 35.6085 45C35.6085 45.1921 35.7732 45.3478 35.9764 45.3478C36.1796 45.3478 36.3443 45.1921 36.3443 45Z" fill="#FFD43F"/>
<path fill-rule="evenodd" clip-rule="evenodd" d="M34.1367 42.5652C34.5431 42.5652 34.8726 42.8767 34.8726 43.2609C34.8726 43.6451 34.5431 43.9565 34.1367 43.9565C33.7303 43.9565 33.4008 43.6451 33.4008 43.2609C33.4008 42.8767 33.7303 42.5652 34.1367 42.5652ZM34.1367 42.913C34.3399 42.913 34.5046 43.0688 34.5046 43.2609C34.5046 43.453 34.3399 43.6087 34.1367 43.6087C33.9335 43.6087 33.7688 43.453 33.7688 43.2609C33.7688 43.0688 33.9335 42.913 34.1367 42.913Z" fill="#FFD43F"/>
<path fill-rule="evenodd" clip-rule="evenodd" d="M34.1367 44.3044C34.5431 44.3044 34.8726 44.6158 34.8726 45C34.8726 45.3842 34.5431 45.6956 34.1367 45.6956C33.7303 45.6956 33.4008 45.3842 33.4008 45C33.4008 44.6158 33.7303 44.3044 34.1367 44.3044ZM34.1367 44.6522C34.3399 44.6522 34.5046 44.8079 34.5046 45C34.5046 45.1921 34.3399 45.3478 34.1367 45.3478C33.9335 45.3478 33.7688 45.1921 33.7688 45C33.7688 44.8079 33.9335 44.6522 34.1367 44.6522Z" fill="#FFD43F"/>
<path d="M36.3443 43.2609C36.3443 43.0688 36.1796 42.913 35.9764 42.913C35.7732 42.913 35.6085 43.0688 35.6085 43.2609C35.6085 43.453 35.7732 43.6087 35.9764 43.6087C36.1796 43.6087 36.3443 43.453 36.3443 43.2609Z" fill="#FFD43F"/>
<path fill-rule="evenodd" clip-rule="evenodd" d="M29.5376 45C29.5376 47.2091 31.4319 49 33.7688 49C36.1056 49 38 47.2091 38 45C38 42.7909 36.1056 41 33.7688 41C31.4319 41 29.5376 42.7909 29.5376 45ZM33.7688 48.6522C31.6352 48.6522 29.9055 47.017 29.9055 45C29.9055 42.983 31.6352 41.3478 33.7688 41.3478C35.9024 41.3478 37.6321 42.983 37.6321 45C37.6321 47.017 35.9024 48.6522 33.7688 48.6522Z" fill="#FFD43F"/>
<path fill-rule="evenodd" clip-rule="evenodd" d="M24.5705 43.8892V43.6805C24.5705 43.5859 24.5418 43.5114 24.4844 43.4572C24.427 43.4015 24.3468 43.3737 24.2438 43.3737H23.4778C23.3762 43.3737 23.2967 43.4015 23.2393 43.4572C23.1805 43.5114 23.151 43.5859 23.151 43.6805V43.8892C23.151 43.9838 23.1805 44.0589 23.2393 44.1146C23.2967 44.1688 23.3762 44.196 23.4778 44.196H24.2438C24.3468 44.196 24.427 44.1688 24.4844 44.1146C24.5418 44.0589 24.5705 43.9838 24.5705 43.8892ZM24.4292 43.6993V43.8704C24.4292 43.9859 24.3652 44.0436 24.2372 44.0436H23.4844C23.3564 44.0436 23.2923 43.9859 23.2923 43.8704V43.6993C23.2923 43.5824 23.3564 43.524 23.4844 43.524H24.2372C24.3652 43.524 24.4292 43.5824 24.4292 43.6993Z" fill="#FFD43F"/>
<path d="M20.7919 43.8469H20.8802C20.9066 43.8469 20.9125 43.8344 20.8978 43.8093L20.7477 43.561H21.9641C21.9754 43.561 21.9836 43.558 21.9887 43.5521C21.9929 43.5473 21.995 43.5405 21.995 43.5318V43.4379C21.995 43.4184 21.9847 43.4086 21.9641 43.4086H20.6064C20.5858 43.4086 20.5755 43.4184 20.5755 43.4379V43.5255C20.5755 43.5311 20.5766 43.5373 20.5787 43.5443C20.5819 43.5546 20.5875 43.5664 20.5954 43.5798L20.7433 43.8219C20.7536 43.8385 20.7698 43.8469 20.7919 43.8469Z" fill="#FFD43F"/>
<path d="M18.2163 44.0527H18.3047C18.3311 44.0527 18.337 44.0402 18.3223 44.0152L18.1722 43.7668H19.3886C19.4032 43.7668 19.4126 43.7619 19.4168 43.7521C19.4186 43.7481 19.4195 43.7433 19.4195 43.7376V43.6437C19.4195 43.6242 19.4092 43.6145 19.3886 43.6145H18.0309C18.0103 43.6145 18 43.6242 18 43.6437V43.7313C18 43.7453 18.0066 43.7633 18.0199 43.7856L18.1678 44.0277C18.1781 44.0444 18.1943 44.0527 18.2163 44.0527Z" fill="#FFD43F"/>
<path fill-rule="evenodd" clip-rule="evenodd" d="M19.4195 44.5589V44.7676C19.4195 44.8622 19.3908 44.9373 19.3334 44.993C19.276 45.0472 19.1958 45.0744 19.0927 45.0744H18.3267C18.2252 45.0744 18.1457 45.0472 18.0883 44.993C18.0294 44.9373 18 44.8622 18 44.7676V44.5589C18 44.4643 18.0294 44.3898 18.0883 44.3356C18.1457 44.2799 18.2252 44.2521 18.3267 44.2521H19.0927C19.1958 44.2521 19.276 44.2799 19.3334 44.3356C19.3908 44.3898 19.4195 44.4643 19.4195 44.5589ZM19.2782 44.7488V44.5777C19.2782 44.4608 19.2142 44.4024 19.0861 44.4024H18.3333C18.2053 44.4024 18.1413 44.4608 18.1413 44.5777V44.7488C18.1413 44.8643 18.2053 44.922 18.3333 44.922H19.0861C19.2142 44.922 19.2782 44.8643 19.2782 44.7488Z" fill="#FFD43F"/>
<path d="M18.2163 45.8095H18.3047C18.318 45.8095 18.3261 45.8064 18.329 45.8C18.3318 45.7938 18.3296 45.7844 18.3223 45.772L18.1722 45.5236H19.3886C19.3961 45.5236 19.4022 45.5223 19.4069 45.5198C19.4153 45.5153 19.4195 45.5068 19.4195 45.4944V45.4005C19.4195 45.381 19.4092 45.3713 19.3886 45.3713H18.0309C18.0103 45.3713 18 45.381 18 45.4005V45.4881L18.0002 45.4924L18.0009 45.4972C18.0017 45.5022 18.0033 45.5076 18.0055 45.5134L18.0066 45.5164L18.01 45.5241C18.0128 45.5299 18.016 45.536 18.0199 45.5424L18.1678 45.7845C18.1737 45.7941 18.1816 45.801 18.1915 45.8051C18.1987 45.808 18.207 45.8095 18.2163 45.8095Z" fill="#FFD43F"/>
<path d="M18.2163 46.4821H18.3047C18.3149 46.4821 18.3221 46.4802 18.3262 46.4765L18.3277 46.4747L18.3294 46.4715C18.3306 46.4681 18.3304 46.4639 18.3289 46.4589C18.3277 46.4547 18.3255 46.4499 18.3223 46.4445L18.1722 46.1962H19.3886C19.4092 46.1962 19.4195 46.1864 19.4195 46.1669V46.073C19.4195 46.0536 19.4092 46.0438 19.3886 46.0438H18.0309C18.0103 46.0438 18 46.0536 18 46.073V46.1607C18 46.1746 18.0066 46.1927 18.0199 46.215L18.1678 46.457C18.1725 46.4646 18.1784 46.4705 18.1855 46.4747C18.1941 46.4796 18.2043 46.4821 18.2163 46.4821Z" fill="#FFD43F"/>
<path fill-rule="evenodd" clip-rule="evenodd" d="M21.995 46.1098V46.3185C21.995 46.4131 21.9663 46.4883 21.9089 46.5439C21.8515 46.5982 21.7713 46.6253 21.6683 46.6253H20.9023C20.8007 46.6253 20.7212 46.5982 20.6638 46.5439C20.6049 46.4883 20.5755 46.4131 20.5755 46.3185V46.1098C20.5755 46.0152 20.6049 45.9408 20.6638 45.8865C20.7212 45.8309 20.8007 45.8031 20.9023 45.8031H21.6683C21.7713 45.8031 21.8515 45.8309 21.9089 45.8865C21.9663 45.9408 21.995 46.0152 21.995 46.1098ZM21.8537 46.2997V46.1286C21.8537 46.0117 21.7897 45.9533 21.6617 45.9533H20.9089C20.7808 45.9533 20.7168 46.0117 20.7168 46.1286V46.2997C20.7168 46.4152 20.7808 46.473 20.9089 46.473H21.6617C21.7897 46.473 21.8537 46.4152 21.8537 46.2997Z" fill="#FFD43F"/>
<path d="M20.7919 45.6037H20.8802C20.8976 45.6037 20.9062 45.5982 20.9057 45.5873C20.9055 45.5817 20.9028 45.5746 20.8978 45.5661L20.7477 45.3178H21.9641C21.9847 45.3178 21.995 45.308 21.995 45.2886V45.1946C21.995 45.1752 21.9847 45.1654 21.9641 45.1654H20.6064C20.5858 45.1654 20.5755 45.1752 20.5755 45.1946V45.2823C20.5755 45.2883 20.5768 45.2951 20.5792 45.3026C20.5825 45.3126 20.5879 45.3239 20.5954 45.3365L20.7433 45.5786C20.7536 45.5953 20.7698 45.6037 20.7919 45.6037Z" fill="#FFD43F"/>
<path fill-rule="evenodd" clip-rule="evenodd" d="M21.995 44.353V44.5617C21.995 44.6563 21.9663 44.7315 21.9089 44.7871C21.8515 44.8414 21.7713 44.8685 21.6683 44.8685H20.9023C20.8007 44.8685 20.7212 44.8414 20.6638 44.7871C20.6049 44.7315 20.5755 44.6563 20.5755 44.5617V44.353C20.5755 44.2584 20.6049 44.184 20.6638 44.1297C20.7212 44.0741 20.8007 44.0463 20.9023 44.0463H21.6683C21.7713 44.0463 21.8515 44.0741 21.9089 44.1297C21.9663 44.184 21.995 44.2584 21.995 44.353ZM21.8537 44.543V44.3718C21.8537 44.255 21.7897 44.1965 21.6617 44.1965H20.9089C20.7808 44.1965 20.7168 44.255 20.7168 44.3718V44.543C20.7168 44.6584 20.7808 44.7162 20.9089 44.7162H21.6617C21.7897 44.7162 21.8537 44.6584 21.8537 44.543Z" fill="#FFD43F"/>
<path d="M23.4557 46.6879H23.3674C23.3453 46.6879 23.3291 46.6796 23.3188 46.6629L23.1709 46.4208C23.1577 46.3985 23.151 46.3804 23.151 46.3665V46.2789C23.151 46.2732 23.1519 46.2684 23.1536 46.2644C23.1579 46.2546 23.1673 46.2497 23.1819 46.2497H24.5396C24.5438 46.2497 24.5475 46.2501 24.5508 46.2509C24.5536 46.2515 24.556 46.2524 24.5582 46.2536C24.5615 46.2554 24.5641 46.2578 24.566 46.2609C24.569 46.2655 24.5705 46.2715 24.5705 46.2789V46.3728C24.5705 46.3923 24.5602 46.402 24.5396 46.402H23.3232L23.4733 46.6504C23.4881 46.6754 23.4822 46.6879 23.4557 46.6879Z" fill="#FFD43F"/>
<path fill-rule="evenodd" clip-rule="evenodd" d="M24.5705 45.646V45.4373C24.5705 45.3427 24.5418 45.2682 24.4844 45.214C24.427 45.1583 24.3468 45.1305 24.2438 45.1305H23.4778C23.3762 45.1305 23.2967 45.1583 23.2393 45.214C23.1805 45.2682 23.151 45.3427 23.151 45.4373V45.646C23.151 45.7406 23.1805 45.8157 23.2393 45.8714C23.2967 45.9256 23.3762 45.9528 23.4778 45.9528H24.2438C24.3468 45.9528 24.427 45.9256 24.4844 45.8714C24.5418 45.8157 24.5705 45.7406 24.5705 45.646ZM24.4292 45.4561V45.6272C24.4292 45.7427 24.3652 45.8004 24.2372 45.8004H23.4844C23.3564 45.8004 23.2923 45.7427 23.2923 45.6272V45.4561C23.2923 45.3392 23.3564 45.2808 23.4844 45.2808H24.2372C24.3652 45.2808 24.4292 45.3392 24.4292 45.4561Z" fill="#FFD43F"/>
<path d="M23.4557 44.9311H23.3674C23.3453 44.9311 23.3291 44.9228 23.3188 44.9061L23.1709 44.664C23.1577 44.6417 23.151 44.6237 23.151 44.6097V44.5221C23.151 44.5026 23.1613 44.4929 23.1819 44.4929H24.5396C24.5437 44.4929 24.5473 44.4933 24.5506 44.494C24.5551 44.4951 24.5589 44.4969 24.5619 44.4994C24.5677 44.5042 24.5705 44.5118 24.5705 44.5221V44.616C24.5705 44.6355 24.5602 44.6452 24.5396 44.6452H23.3232L23.4733 44.8936C23.4881 44.9186 23.4822 44.9311 23.4557 44.9311Z" fill="#FFD43F"/>
<path d="M26.0312 46.4821H25.9429C25.9208 46.4821 25.9046 46.4737 25.8943 46.457L25.7464 46.215C25.7332 46.1927 25.7266 46.1746 25.7266 46.1607V46.073C25.7266 46.0536 25.7368 46.0438 25.7574 46.0438H27.1151C27.1357 46.0438 27.146 46.0536 27.146 46.073V46.1669C27.146 46.1864 27.1357 46.1962 27.1151 46.1962H25.8987L26.0489 46.4445C26.0636 46.4696 26.0577 46.4821 26.0312 46.4821Z" fill="#FFD43F"/>
<path d="M25.9429 45.8095H26.0312C26.0577 45.8095 26.0636 45.797 26.0489 45.772L25.8987 45.5236H27.1151C27.1357 45.5236 27.146 45.5139 27.146 45.4944V45.4005C27.146 45.381 27.1357 45.3713 27.1151 45.3713H25.7574C25.7368 45.3713 25.7266 45.381 25.7266 45.4005V45.4881C25.7266 45.502 25.7332 45.5201 25.7464 45.5424L25.8943 45.7845C25.9046 45.8012 25.9208 45.8095 25.9429 45.8095Z" fill="#FFD43F"/>
<path d="M26.0312 45.137H25.9429C25.9208 45.137 25.9046 45.1286 25.8943 45.1119L25.7464 44.8698C25.7332 44.8476 25.7266 44.8295 25.7266 44.8156V44.7279C25.7266 44.7085 25.7368 44.6987 25.7574 44.6987H27.1151C27.1248 44.6987 27.1322 44.7009 27.1373 44.7052C27.1431 44.71 27.146 44.7176 27.146 44.7279V44.8218C27.146 44.8339 27.1421 44.8423 27.1342 44.8468C27.1314 44.8484 27.1282 44.8496 27.1245 44.8503L27.1231 44.8505C27.1206 44.8509 27.118 44.8511 27.1151 44.8511H25.8987L26.0489 45.0994C26.0636 45.1245 26.0577 45.137 26.0312 45.137Z" fill="#FFD43F"/>
<path fill-rule="evenodd" clip-rule="evenodd" d="M27.146 44.095V43.8863C27.146 43.7917 27.1173 43.7173 27.0599 43.663C27.0025 43.6074 26.9223 43.5795 26.8193 43.5795H26.0533C25.9517 43.5795 25.8723 43.6074 25.8148 43.663C25.756 43.7173 25.7266 43.7917 25.7266 43.8863V44.095C25.7266 44.1896 25.756 44.2648 25.8148 44.3204C25.8723 44.3747 25.9517 44.4018 26.0533 44.4018H26.8193C26.9223 44.4018 27.0025 44.3747 27.0599 44.3204C27.1173 44.2648 27.146 44.1896 27.146 44.095ZM27.0047 43.9051V44.0762C27.0047 44.1917 26.9407 44.2495 26.8127 44.2495H26.0599C25.9319 44.2495 25.8678 44.1917 25.8678 44.0762V43.9051C25.8678 43.7882 25.9319 43.7298 26.0599 43.7298H26.8127C26.9407 43.7298 27.0047 43.7882 27.0047 43.9051Z" fill="#FFD43F"/>
</svg>
