<svg width="auto" height="auto" viewBox="0 0 340 12" fill="none" xmlns="http://www.w3.org/2000/svg">
<path d="M340 0H0V1H340V0Z" fill="#B3333A" fill-opacity="0.8"/>
<path d="M8.4597 4.142H8.96194C9.01982 4.142 9.04875 4.17 9.04875 4.226V7.916C9.04875 7.972 9.01982 8 8.96194 8H8.68912C8.63125 8 8.60231 7.972 8.60231 7.916V4.73H8.57751L7.61641 7.082C7.59161 7.134 7.55441 7.16 7.5048 7.16H7.20717C7.15343 7.16 7.1183 7.134 7.10176 7.082L6.12207 4.724H6.09726V7.916C6.09726 7.972 6.07039 8 6.01666 8H5.74383C5.68596 8 5.65702 7.972 5.65702 7.916V4.226C5.65702 4.17 5.68596 4.142 5.74383 4.142H6.24608C6.28328 4.142 6.30808 4.158 6.32049 4.19L7.33739 6.674H7.36839L8.38529 4.19C8.39356 4.158 8.41836 4.142 8.4597 4.142Z" fill="#B3333A" fill-opacity="0.8"/>
<path fill-rule="evenodd" clip-rule="evenodd" d="M11.6225 8H10.8846C10.5994 8 10.3741 7.922 10.2088 7.766C10.0475 7.61 9.96693 7.392 9.96693 7.112V5.03C9.96693 4.75 10.0475 4.532 10.2088 4.376C10.3741 4.22 10.5994 4.142 10.8846 4.142H11.6225C11.9077 4.142 12.1309 4.222 12.2922 4.382C12.4575 4.538 12.5402 4.754 12.5402 5.03V7.112C12.5402 7.388 12.4575 7.606 12.2922 7.766C12.1309 7.922 11.9077 8 11.6225 8ZM10.9342 7.616H11.5667C11.9139 7.616 12.0875 7.442 12.0875 7.094V5.048C12.0875 4.7 11.9139 4.526 11.5667 4.526H10.9342C10.5911 4.526 10.4196 4.7 10.4196 5.048V7.094C10.4196 7.442 10.5911 7.616 10.9342 7.616Z" fill="#B3333A" fill-opacity="0.8"/>
<path fill-rule="evenodd" clip-rule="evenodd" d="M13.4562 7.916V4.226C13.4562 4.17 13.4852 4.142 13.543 4.142H15.0684C15.3536 4.142 15.5768 4.222 15.738 4.382C15.9034 4.538 15.9861 4.754 15.9861 5.03V7.112C15.9861 7.388 15.9034 7.606 15.738 7.766C15.5768 7.922 15.3536 8 15.0684 8H13.543C13.4852 8 13.4562 7.972 13.4562 7.916ZM13.9709 7.616H15.0126C15.3598 7.616 15.5334 7.442 15.5334 7.094V5.048C15.5334 4.7 15.3598 4.526 15.0126 4.526H13.9709C13.9295 4.526 13.9089 4.544 13.9089 4.58V7.562C13.9089 7.598 13.9295 7.616 13.9709 7.616Z" fill="#B3333A" fill-opacity="0.8"/>
<path d="M18.9355 8H16.9885C16.9306 8 16.9017 7.972 16.9017 7.916V4.226C16.9017 4.17 16.9306 4.142 16.9885 4.142H18.9355C18.9934 4.142 19.0223 4.17 19.0223 4.226V4.442C19.0223 4.498 18.9934 4.526 18.9355 4.526H17.4163C17.375 4.526 17.3543 4.544 17.3543 4.58V5.792C17.3543 5.828 17.375 5.846 17.4163 5.846H18.7433C18.8011 5.846 18.8301 5.874 18.8301 5.93V6.146C18.8301 6.202 18.8011 6.23 18.7433 6.23H17.4163C17.375 6.23 17.3543 6.248 17.3543 6.284V7.562C17.3543 7.598 17.375 7.616 17.4163 7.616H18.9355C18.9934 7.616 19.0223 7.644 19.0223 7.7V7.916C19.0223 7.972 18.9934 8 18.9355 8Z" fill="#B3333A" fill-opacity="0.8"/>
<path d="M21.9581 8H19.9677C19.9098 8 19.8809 7.972 19.8809 7.916V4.226C19.8809 4.17 19.9098 4.142 19.9677 4.142H20.2467C20.3046 4.142 20.3335 4.17 20.3335 4.226V7.55C20.3335 7.586 20.3542 7.604 20.3955 7.604H21.9581C22.016 7.604 22.0449 7.634 22.0449 7.694V7.916C22.0449 7.972 22.016 8 21.9581 8Z" fill="#B3333A" fill-opacity="0.8"/>
<path d="M26.33 8H24.3396C24.2817 8 24.2528 7.972 24.2528 7.916V4.226C24.2528 4.17 24.2817 4.142 24.3396 4.142H24.6186C24.6765 4.142 24.7054 4.17 24.7054 4.226V7.55C24.7054 7.586 24.7261 7.604 24.7674 7.604H26.33C26.3879 7.604 26.4168 7.634 26.4168 7.694V7.916C26.4168 7.972 26.3879 8 26.33 8Z" fill="#B3333A" fill-opacity="0.8"/>
<path d="M27.534 4.226V7.916C27.534 7.972 27.505 8 27.4472 8H27.1681C27.1103 8 27.0813 7.972 27.0813 7.916V4.226C27.0813 4.17 27.1103 4.142 27.1681 4.142H27.4472C27.505 4.142 27.534 4.17 27.534 4.226Z" fill="#B3333A" fill-opacity="0.8"/>
<path d="M28.9056 8H28.6328C28.5749 8 28.546 7.972 28.546 7.916V4.226C28.546 4.17 28.5749 4.142 28.6328 4.142H28.887C28.9366 4.142 28.9697 4.158 28.9862 4.19L30.6976 7.1H30.7224V4.226C30.7224 4.17 30.7513 4.142 30.8092 4.142H31.082C31.1399 4.142 31.1688 4.17 31.1688 4.226V7.916C31.1688 7.972 31.1399 8 31.082 8H30.8526C30.8071 8 30.7637 7.974 30.7224 7.922L29.0172 5.042H28.9924V7.916C28.9924 7.972 28.9635 8 28.9056 8Z" fill="#B3333A" fill-opacity="0.8"/>
<path d="M34.1827 8H32.2357C32.1778 8 32.1489 7.972 32.1489 7.916V4.226C32.1489 4.17 32.1778 4.142 32.2357 4.142H34.1827C34.2405 4.142 34.2695 4.17 34.2695 4.226V4.442C34.2695 4.498 34.2405 4.526 34.1827 4.526H32.6635C32.6222 4.526 32.6015 4.544 32.6015 4.58V5.792C32.6015 5.828 32.6222 5.846 32.6635 5.846H33.9905C34.0483 5.846 34.0773 5.874 34.0773 5.93V6.146C34.0773 6.202 34.0483 6.23 33.9905 6.23H32.6635C32.6222 6.23 32.6015 6.248 32.6015 6.284V7.562C32.6015 7.598 32.6222 7.616 32.6635 7.616H34.1827C34.2405 7.616 34.2695 7.644 34.2695 7.7V7.916C34.2695 7.972 34.2405 8 34.1827 8Z" fill="#B3333A" fill-opacity="0.8"/>
<path d="M50.8088 5.475V5.275C50.8088 5.225 50.8295 5.18833 50.8708 5.165L51.4702 4.83C51.5253 4.8 51.5701 4.785 51.6046 4.785H51.8216C51.8698 4.785 51.8939 4.80833 51.8939 4.855V7.93C51.8939 7.97667 51.8698 8 51.8216 8H51.5891C51.5408 8 51.5167 7.97667 51.5167 7.93V5.175L50.9018 5.515C50.8398 5.54833 50.8088 5.535 50.8088 5.475Z" fill="#B3333A" fill-opacity="0.8"/>
<path d="M53.0062 7.325V7.93C53.0062 7.97667 52.9838 8 52.9391 8H52.6755C52.6308 8 52.6084 7.97667 52.6084 7.93V7.325C52.6084 7.28167 52.6308 7.26 52.6755 7.26H52.9391C52.9838 7.26 53.0062 7.28167 53.0062 7.325Z" fill="#B3333A" fill-opacity="0.8"/>
<path d="M53.6022 7.93V7.48C53.6022 7.25667 53.6987 7.07333 53.8916 6.93L54.8888 6.17C55.0611 6.04333 55.1472 5.88667 55.1472 5.7V5.52C55.1472 5.23667 54.9991 5.095 54.7028 5.095H54.3876C54.0982 5.095 53.9536 5.23667 53.9536 5.52V5.725C53.9536 5.775 53.9294 5.8 53.8812 5.8H53.6487C53.6039 5.8 53.5815 5.775 53.5815 5.725V5.515C53.5815 5.285 53.6487 5.10667 53.783 4.98C53.9174 4.85 54.1034 4.785 54.3411 4.785H54.7545C54.9922 4.785 55.1782 4.85 55.3125 4.98C55.4469 5.10667 55.514 5.285 55.514 5.515V5.72C55.514 5.98 55.4073 6.19167 55.1937 6.355L54.1809 7.13C54.0672 7.21667 54.0104 7.32167 54.0104 7.445V7.675H55.452C55.5003 7.675 55.5244 7.69833 55.5244 7.745V7.93C55.5244 7.97667 55.5003 8 55.452 8H53.6745C53.6263 8 53.6022 7.97667 53.6022 7.93Z" fill="#B3333A" fill-opacity="0.8"/>
<path fill-rule="evenodd" clip-rule="evenodd" d="M57.4022 8H56.8855C56.6513 8 56.4653 7.935 56.3275 7.805C56.1931 7.675 56.126 7.49333 56.126 7.26V5.525C56.126 5.295 56.1931 5.115 56.3275 4.985C56.4653 4.85167 56.6513 4.785 56.8855 4.785H57.4022C57.6365 4.785 57.8208 4.85167 57.9551 4.985C58.0929 5.115 58.1618 5.295 58.1618 5.525V7.26C58.1618 7.49333 58.0929 7.675 57.9551 7.805C57.8208 7.935 57.6365 8 57.4022 8ZM56.932 7.68H57.3557C57.6451 7.68 57.7898 7.535 57.7898 7.245V5.54C57.7898 5.25 57.6451 5.105 57.3557 5.105H56.932C56.6461 5.105 56.5032 5.25 56.5032 5.54V7.245C56.5032 7.535 56.6461 7.68 56.932 7.68Z" fill="#B3333A" fill-opacity="0.8"/>
<path fill-rule="evenodd" clip-rule="evenodd" d="M60.0868 8H59.57C59.3358 8 59.1498 7.935 59.012 7.805C58.8776 7.675 58.8105 7.49333 58.8105 7.26V5.525C58.8105 5.295 58.8776 5.115 59.012 4.985C59.1498 4.85167 59.3358 4.785 59.57 4.785H60.0868C60.321 4.785 60.5053 4.85167 60.6396 4.985C60.7774 5.115 60.8463 5.295 60.8463 5.525V7.26C60.8463 7.49333 60.7774 7.675 60.6396 7.805C60.5053 7.935 60.321 8 60.0868 8ZM59.6165 7.68H60.0403C60.3296 7.68 60.4743 7.535 60.4743 7.245V5.54C60.4743 5.25 60.3296 5.105 60.0403 5.105H59.6165C59.3306 5.105 59.1877 5.25 59.1877 5.54V7.245C59.1877 7.535 59.3306 7.68 59.6165 7.68Z" fill="#B3333A" fill-opacity="0.8"/>
<path d="M61.34 5.475V5.275C61.34 5.225 61.3606 5.18833 61.402 5.165L62.0014 4.83C62.0565 4.8 62.1013 4.785 62.1357 4.785H62.3527C62.4009 4.785 62.4251 4.80833 62.4251 4.855V7.93C62.4251 7.97667 62.4009 8 62.3527 8H62.1202C62.072 8 62.0479 7.97667 62.0479 7.93V5.175L61.433 5.515C61.371 5.54833 61.34 5.535 61.34 5.475Z" fill="#B3333A" fill-opacity="0.8"/>
<path fill-rule="evenodd" clip-rule="evenodd" d="M63.2842 8H63.0258C62.981 8 62.9655 7.97667 62.9793 7.93L63.9456 4.855C63.9594 4.80833 63.9921 4.785 64.0438 4.785H64.4158C64.4675 4.785 64.5002 4.80833 64.514 4.855L65.4802 7.93C65.494 7.97667 65.4785 8 65.4337 8H65.1702C65.1323 8 65.1082 7.97667 65.0979 7.93L64.855 7.2H63.6045L63.3617 7.93C63.3479 7.97667 63.3221 8 63.2842 8ZM64.2194 5.16L63.6872 6.89H64.7723L64.2401 5.16H64.2194Z" fill="#B3333A" fill-opacity="0.8"/>
<path d="M138.531 6.451V4.2985C138.531 4.26583 138.515 4.2495 138.481 4.2495H138.318C138.284 4.2495 138.267 4.26583 138.267 4.2985V6.451C138.267 6.48367 138.284 6.5 138.318 6.5H138.481C138.515 6.5 138.531 6.48367 138.531 6.451Z" fill="#B3333A" fill-opacity="0.8"/>
<path d="M141.05 4.2495H140.757C140.732 4.2495 140.718 4.25883 140.713 4.2775L140.12 5.7265H140.102L139.509 4.2775C139.502 4.25883 139.487 4.2495 139.465 4.2495H139.172C139.139 4.2495 139.122 4.26583 139.122 4.2985V6.451C139.122 6.48367 139.139 6.5 139.172 6.5H139.332C139.363 6.5 139.379 6.48367 139.379 6.451V4.589H139.393L139.964 5.9645C139.974 5.99483 139.995 6.01 140.026 6.01H140.2C140.229 6.01 140.25 5.99483 140.265 5.9645L140.825 4.5925H140.84V6.451C140.84 6.48367 140.857 6.5 140.89 6.5H141.05C141.083 6.5 141.1 6.48367 141.1 6.451V4.2985C141.1 4.26583 141.083 4.2495 141.05 4.2495Z" fill="#B3333A" fill-opacity="0.8"/>
<path fill-rule="evenodd" clip-rule="evenodd" d="M141.52 6.5H141.701C141.727 6.5 141.746 6.48367 141.755 6.451L141.925 5.94H142.801L142.971 6.451C142.978 6.48367 142.995 6.5 143.021 6.5H143.206C143.237 6.5 143.248 6.48367 143.238 6.451L142.562 4.2985C142.552 4.26583 142.529 4.2495 142.493 4.2495H142.233C142.196 4.2495 142.174 4.26583 142.164 4.2985L141.488 6.451C141.478 6.48367 141.489 6.5 141.52 6.5ZM141.983 5.723L142.356 4.512H142.37L142.743 5.723H141.983Z" fill="#B3333A" fill-opacity="0.8"/>
<path d="M144.124 6.5H144.515C144.682 6.5 144.812 6.4545 144.906 6.3635C145 6.2725 145.047 6.14533 145.047 5.982V5.394C145.047 5.345 145.023 5.3205 144.975 5.3205H144.392C144.358 5.3205 144.342 5.33683 144.342 5.3695V5.499C144.342 5.52933 144.358 5.5445 144.392 5.5445H144.75C144.772 5.5445 144.783 5.55617 144.783 5.5795V5.9715C144.783 6.1745 144.683 6.276 144.483 6.276H144.153C143.953 6.276 143.853 6.1745 143.853 5.9715V4.778C143.853 4.575 143.953 4.4735 144.153 4.4735H144.483C144.683 4.4735 144.783 4.575 144.783 4.778V4.911C144.783 4.946 144.8 4.9635 144.833 4.9635H144.996C145.03 4.9635 145.047 4.946 145.047 4.911V4.7675C145.047 4.6065 145 4.4805 144.906 4.3895C144.812 4.29617 144.682 4.2495 144.515 4.2495H144.124C143.958 4.2495 143.827 4.295 143.73 4.386C143.636 4.477 143.589 4.60417 143.589 4.7675V5.982C143.589 6.14533 143.636 6.2725 143.73 6.3635C143.827 6.4545 143.958 6.5 144.124 6.5Z" fill="#B3333A" fill-opacity="0.8"/>
<path d="M145.633 6.5H146.769C146.802 6.5 146.819 6.48367 146.819 6.451V6.325C146.819 6.29233 146.802 6.276 146.769 6.276H145.882C145.858 6.276 145.846 6.2655 145.846 6.2445V5.499C145.846 5.478 145.858 5.4675 145.882 5.4675H146.656C146.69 5.4675 146.707 5.45117 146.707 5.4185V5.2925C146.707 5.25983 146.69 5.2435 146.656 5.2435H145.882C145.858 5.2435 145.846 5.233 145.846 5.212V4.505C145.846 4.484 145.858 4.4735 145.882 4.4735H146.769C146.802 4.4735 146.819 4.45717 146.819 4.4245V4.2985C146.819 4.26583 146.802 4.2495 146.769 4.2495H145.633C145.599 4.2495 145.582 4.26583 145.582 4.2985V6.451C145.582 6.48367 145.599 6.5 145.633 6.5Z" fill="#B3333A" fill-opacity="0.8"/>
<path d="M148.289 6.5H148.448C148.482 6.5 148.499 6.48367 148.499 6.451V4.7745H148.513L149.508 6.4545C149.532 6.48483 149.557 6.5 149.584 6.5H149.718C149.752 6.5 149.768 6.48367 149.768 6.451V4.2985C149.768 4.26583 149.752 4.2495 149.718 4.2495H149.559C149.525 4.2495 149.508 4.26583 149.508 4.2985V5.975H149.494L148.495 4.2775C148.486 4.25883 148.466 4.2495 148.437 4.2495H148.289C148.255 4.2495 148.238 4.26583 148.238 4.2985V6.451C148.238 6.48367 148.255 6.5 148.289 6.5Z" fill="#B3333A" fill-opacity="0.8"/>
<path fill-rule="evenodd" clip-rule="evenodd" d="M150.188 6.5H150.369C150.396 6.5 150.414 6.48367 150.423 6.451L150.593 5.94H151.469L151.639 6.451C151.646 6.48367 151.663 6.5 151.689 6.5H151.874C151.905 6.5 151.916 6.48367 151.906 6.451L151.23 4.2985C151.22 4.26583 151.197 4.2495 151.161 4.2495H150.901C150.865 4.2495 150.842 4.26583 150.832 4.2985L150.156 6.451C150.146 6.48367 150.157 6.5 150.188 6.5ZM150.651 5.723L151.024 4.512H151.038L151.411 5.723H150.651Z" fill="#B3333A" fill-opacity="0.8"/>
<path d="M154.221 4.2495H153.928C153.904 4.2495 153.89 4.25883 153.885 4.2775L153.292 5.7265H153.274L152.681 4.2775C152.673 4.25883 152.659 4.2495 152.637 4.2495H152.344C152.31 4.2495 152.293 4.26583 152.293 4.2985V6.451C152.293 6.48367 152.31 6.5 152.344 6.5H152.503C152.535 6.5 152.55 6.48367 152.55 6.451V4.589H152.565L153.136 5.9645C153.146 5.99483 153.166 6.01 153.198 6.01H153.371C153.4 6.01 153.422 5.99483 153.436 5.9645L153.997 4.5925H154.012V6.451C154.012 6.48367 154.028 6.5 154.062 6.5H154.221C154.255 6.5 154.272 6.48367 154.272 6.451V4.2985C154.272 4.26583 154.255 4.2495 154.221 4.2495Z" fill="#B3333A" fill-opacity="0.8"/>
<path d="M154.894 6.5H156.03C156.064 6.5 156.081 6.48367 156.081 6.451V6.325C156.081 6.29233 156.064 6.276 156.03 6.276H155.144C155.12 6.276 155.108 6.2655 155.108 6.2445V5.499C155.108 5.478 155.12 5.4675 155.144 5.4675H155.918C155.952 5.4675 155.969 5.45117 155.969 5.4185V5.2925C155.969 5.25983 155.952 5.2435 155.918 5.2435H155.144C155.12 5.2435 155.108 5.233 155.108 5.212V4.505C155.108 4.484 155.12 4.4735 155.144 4.4735H156.03C156.064 4.4735 156.081 4.45717 156.081 4.4245V4.2985C156.081 4.26583 156.064 4.2495 156.03 4.2495H154.894C154.861 4.2495 154.844 4.26583 154.844 4.2985V6.451C154.844 6.48367 154.861 6.5 154.894 6.5Z" fill="#B3333A" fill-opacity="0.8"/>
<path d="M138.531 9.7985V11.951C138.531 11.9837 138.515 12 138.481 12H138.318C138.284 12 138.267 11.9837 138.267 11.951V9.7985C138.267 9.76583 138.284 9.7495 138.318 9.7495H138.481C138.515 9.7495 138.531 9.76583 138.531 9.7985Z" fill="#B3333A" fill-opacity="0.8"/>
<path d="M140.757 9.7495H141.05C141.083 9.7495 141.1 9.76583 141.1 9.7985V11.951C141.1 11.9837 141.083 12 141.05 12H140.89C140.857 12 140.84 11.9837 140.84 11.951V10.0925H140.825L140.265 11.4645C140.25 11.4948 140.229 11.51 140.2 11.51H140.026C139.995 11.51 139.974 11.4948 139.964 11.4645L139.393 10.089H139.379V11.951C139.379 11.9837 139.363 12 139.332 12H139.172C139.139 12 139.122 11.9837 139.122 11.951V9.7985C139.122 9.76583 139.139 9.7495 139.172 9.7495H139.465C139.487 9.7495 139.502 9.75883 139.509 9.7775L140.102 11.2265H140.12L140.713 9.7775C140.718 9.75883 140.732 9.7495 140.757 9.7495Z" fill="#B3333A" fill-opacity="0.8"/>
<path fill-rule="evenodd" clip-rule="evenodd" d="M141.701 12H141.52C141.489 12 141.478 11.9837 141.488 11.951L142.164 9.7985C142.174 9.76583 142.196 9.7495 142.233 9.7495H142.493C142.529 9.7495 142.552 9.76583 142.562 9.7985L143.238 11.951C143.248 11.9837 143.237 12 143.206 12H143.021C142.995 12 142.978 11.9837 142.971 11.951L142.801 11.44H141.925L141.755 11.951C141.746 11.9837 141.727 12 141.701 12ZM142.356 10.012L141.983 11.223H142.743L142.37 10.012H142.356Z" fill="#B3333A" fill-opacity="0.8"/>
<path d="M144.515 12H144.124C143.958 12 143.827 11.9545 143.73 11.8635C143.636 11.7725 143.589 11.6453 143.589 11.482V10.2675C143.589 10.1042 143.636 9.977 143.73 9.886C143.827 9.795 143.958 9.7495 144.124 9.7495H144.515C144.682 9.7495 144.812 9.79617 144.906 9.8895C145 9.9805 145.047 10.1065 145.047 10.2675V10.411C145.047 10.446 145.03 10.4635 144.996 10.4635H144.833C144.8 10.4635 144.783 10.446 144.783 10.411V10.278C144.783 10.075 144.683 9.9735 144.483 9.9735H144.153C143.953 9.9735 143.853 10.075 143.853 10.278V11.4715C143.853 11.6745 143.953 11.776 144.153 11.776H144.483C144.683 11.776 144.783 11.6745 144.783 11.4715V11.0795C144.783 11.0562 144.772 11.0445 144.75 11.0445H144.392C144.358 11.0445 144.342 11.0293 144.342 10.999V10.8695C144.342 10.8368 144.358 10.8205 144.392 10.8205H144.975C145.023 10.8205 145.047 10.845 145.047 10.894V11.482C145.047 11.6453 145 11.7725 144.906 11.8635C144.812 11.9545 144.682 12 144.515 12Z" fill="#B3333A" fill-opacity="0.8"/>
<path d="M146.769 12H145.633C145.599 12 145.582 11.9837 145.582 11.951V9.7985C145.582 9.76583 145.599 9.7495 145.633 9.7495H146.769C146.802 9.7495 146.819 9.76583 146.819 9.7985V9.9245C146.819 9.95717 146.802 9.9735 146.769 9.9735H145.882C145.858 9.9735 145.846 9.984 145.846 10.005V10.712C145.846 10.733 145.858 10.7435 145.882 10.7435H146.656C146.69 10.7435 146.707 10.7598 146.707 10.7925V10.9185C146.707 10.9512 146.69 10.9675 146.656 10.9675H145.882C145.858 10.9675 145.846 10.978 145.846 10.999V11.7445C145.846 11.7655 145.858 11.776 145.882 11.776H146.769C146.802 11.776 146.819 11.7923 146.819 11.825V11.951C146.819 11.9837 146.802 12 146.769 12Z" fill="#B3333A" fill-opacity="0.8"/>
<path d="M148.806 12H148.644C148.61 12 148.593 11.9837 148.593 11.951V10.005C148.593 9.984 148.581 9.9735 148.557 9.9735H148.065C148.029 9.9735 148.011 9.95717 148.011 9.9245V9.7985C148.011 9.76583 148.029 9.7495 148.065 9.7495H149.385C149.421 9.7495 149.439 9.76583 149.439 9.7985V9.9245C149.439 9.95717 149.421 9.9735 149.385 9.9735H148.893C148.869 9.9735 148.857 9.984 148.857 10.005V11.951C148.857 11.9837 148.84 12 148.806 12Z" fill="#B3333A" fill-opacity="0.8"/>
<path d="M150.48 12H150.317C150.284 12 150.267 11.9837 150.267 11.951V11.1565L149.58 9.802C149.572 9.78567 149.572 9.77283 149.58 9.7635C149.587 9.75417 149.598 9.7495 149.612 9.7495H149.815C149.841 9.7495 149.862 9.76583 149.876 9.7985L150.393 10.859H150.411L150.925 9.7985C150.935 9.76583 150.954 9.7495 150.983 9.7495H151.189C151.23 9.7495 151.241 9.767 151.222 9.802L150.531 11.1565V11.951C150.531 11.9837 150.514 12 150.48 12Z" fill="#B3333A" fill-opacity="0.8"/>
<path fill-rule="evenodd" clip-rule="evenodd" d="M151.804 12H151.641C151.607 12 151.591 11.9837 151.591 11.951V9.7985C151.591 9.76583 151.607 9.7495 151.641 9.7495H152.488C152.654 9.7495 152.784 9.79617 152.878 9.8895C152.972 9.9805 153.019 10.1065 153.019 10.2675V10.656C153.019 10.8193 152.972 10.9465 152.878 11.0375C152.784 11.1285 152.654 11.174 152.488 11.174H151.891C151.867 11.174 151.855 11.1845 151.855 11.2055V11.951C151.855 11.9837 151.838 12 151.804 12ZM151.891 10.9465H152.451C152.654 10.9465 152.755 10.8462 152.755 10.6455V10.278C152.755 10.075 152.654 9.9735 152.451 9.9735H151.891C151.867 9.9735 151.855 9.984 151.855 10.005V10.915C151.855 10.936 151.867 10.9465 151.891 10.9465Z" fill="#B3333A" fill-opacity="0.8"/>
<path d="M154.681 12H153.545C153.511 12 153.494 11.9837 153.494 11.951V9.7985C153.494 9.76583 153.511 9.7495 153.545 9.7495H154.681C154.715 9.7495 154.731 9.76583 154.731 9.7985V9.9245C154.731 9.95717 154.715 9.9735 154.681 9.9735H153.795C153.771 9.9735 153.758 9.984 153.758 10.005V10.712C153.758 10.733 153.771 10.7435 153.795 10.7435H154.569C154.602 10.7435 154.619 10.7598 154.619 10.7925V10.9185C154.619 10.9512 154.602 10.9675 154.569 10.9675H153.795C153.771 10.9675 153.758 10.978 153.758 10.999V11.7445C153.758 11.7655 153.771 11.776 153.795 11.776H154.681C154.715 11.776 154.731 11.7923 154.731 11.825V11.951C154.731 11.9837 154.715 12 154.681 12Z" fill="#B3333A" fill-opacity="0.8"/>
<path d="M257.051 4.942H257.062C257.096 4.942 257.113 4.92683 257.113 4.8965V4.788C257.113 4.76233 257.097 4.7495 257.066 4.7495H257.051C256.875 4.7495 256.737 4.80083 256.635 4.9035C256.534 5.00617 256.483 5.15667 256.483 5.355V6.7515C256.483 6.94983 256.534 7.10033 256.635 7.203C256.737 7.30567 256.875 7.357 257.051 7.357H257.062C257.096 7.357 257.113 7.34417 257.113 7.3185V7.21C257.113 7.17967 257.096 7.1645 257.062 7.1645H257.055C256.942 7.1645 256.855 7.13067 256.795 7.063C256.734 6.99533 256.704 6.8985 256.704 6.7725V5.334C256.704 5.208 256.734 5.11117 256.795 5.0435C256.855 4.97583 256.94 4.942 257.051 4.942Z" fill="#B3333A" fill-opacity="0.8"/>
<path d="M258.126 7H258.56C258.726 7 258.856 6.9545 258.95 6.8635C259.047 6.7725 259.095 6.64533 259.095 6.482V6.3105C259.095 6.27783 259.078 6.2615 259.044 6.2615H258.882C258.848 6.2615 258.831 6.27783 258.831 6.3105V6.4715C258.831 6.6745 258.73 6.776 258.527 6.776H258.155C257.955 6.776 257.854 6.6745 257.854 6.4715V5.278C257.854 5.075 257.955 4.9735 258.155 4.9735H258.527C258.73 4.9735 258.831 5.075 258.831 5.278V5.439C258.831 5.47167 258.848 5.488 258.882 5.488H259.044C259.078 5.488 259.095 5.47167 259.095 5.439V5.2675C259.095 5.10417 259.047 4.977 258.95 4.886C258.856 4.795 258.726 4.7495 258.56 4.7495H258.126C257.959 4.7495 257.828 4.795 257.732 4.886C257.637 4.977 257.59 5.10417 257.59 5.2675V6.482C257.59 6.64533 257.637 6.7725 257.732 6.8635C257.828 6.9545 257.959 7 258.126 7Z" fill="#B3333A" fill-opacity="0.8"/>
<path d="M260.083 7H260.517C260.683 7 260.813 6.9545 260.907 6.8635C261.004 6.7725 261.052 6.64533 261.052 6.482V6.3105C261.052 6.27783 261.035 6.2615 261.001 6.2615H260.839C260.805 6.2615 260.788 6.27783 260.788 6.3105V6.4715C260.788 6.6745 260.687 6.776 260.484 6.776H260.112C259.911 6.776 259.811 6.6745 259.811 6.4715V5.278C259.811 5.075 259.911 4.9735 260.112 4.9735H260.484C260.687 4.9735 260.788 5.075 260.788 5.278V5.439C260.788 5.47167 260.805 5.488 260.839 5.488H261.001C261.035 5.488 261.052 5.47167 261.052 5.439V5.2675C261.052 5.10417 261.004 4.977 260.907 4.886C260.813 4.795 260.683 4.7495 260.517 4.7495H260.083C259.916 4.7495 259.785 4.795 259.688 4.886C259.594 4.977 259.547 5.10417 259.547 5.2675V6.482C259.547 6.64533 259.594 6.7725 259.688 6.8635C259.785 6.9545 259.916 7 260.083 7Z" fill="#B3333A" fill-opacity="0.8"/>
<path d="M261.403 7H261.591C261.622 7 261.646 6.98483 261.663 6.9545L262.177 6.0165H262.191L262.709 6.9545C262.721 6.98483 262.744 7 262.777 7H262.969C262.986 7 262.997 6.99533 263.002 6.986C263.009 6.97433 263.008 6.9615 262.998 6.9475L262.369 5.8205L262.973 4.802C262.98 4.788 262.98 4.77633 262.973 4.767C262.968 4.75533 262.957 4.7495 262.94 4.7495H262.752C262.718 4.7495 262.692 4.76583 262.672 4.7985L262.195 5.6595H262.181L261.696 4.7985C261.681 4.76583 261.655 4.7495 261.616 4.7495H261.435C261.419 4.7495 261.407 4.75533 261.399 4.767C261.392 4.77633 261.393 4.788 261.403 4.802L262.003 5.824L261.37 6.9475C261.363 6.9615 261.362 6.97433 261.367 6.986C261.374 6.99533 261.386 7 261.403 7Z" fill="#B3333A" fill-opacity="0.8"/>
<path d="M263.373 6.37V6.482C263.373 6.643 263.421 6.77017 263.518 6.8635C263.614 6.9545 263.744 7 263.908 7H264.324C264.488 7 264.618 6.9545 264.715 6.8635C264.811 6.77017 264.86 6.643 264.86 6.482V6.3245C264.86 6.2195 264.837 6.13083 264.791 6.0585C264.747 5.98383 264.69 5.929 264.617 5.894C264.545 5.85667 264.464 5.82633 264.375 5.803C264.288 5.77733 264.201 5.7575 264.114 5.7435C264.028 5.72717 263.948 5.70967 263.876 5.691C263.714 5.64667 263.633 5.565 263.633 5.446V5.306C263.633 5.08433 263.741 4.9735 263.955 4.9735H264.263C264.477 4.9735 264.585 5.07967 264.585 5.292V5.355C264.585 5.39 264.6 5.4075 264.632 5.4075H264.798C264.829 5.4075 264.845 5.39 264.845 5.355V5.2675C264.845 5.1065 264.797 4.9805 264.7 4.8895C264.604 4.79617 264.474 4.7495 264.31 4.7495H263.908C263.742 4.7495 263.611 4.79617 263.514 4.8895C263.42 4.9805 263.373 5.1065 263.373 5.2675V5.439C263.373 5.579 263.415 5.68983 263.5 5.7715C263.584 5.85083 263.686 5.9045 263.807 5.9325C263.928 5.9605 264.048 5.985 264.169 6.006C264.456 6.05733 264.599 6.167 264.599 6.335V6.454C264.599 6.66867 264.492 6.776 264.277 6.776H263.959C263.744 6.776 263.637 6.671 263.637 6.461V6.37C263.637 6.33733 263.62 6.321 263.586 6.321H263.424C263.39 6.321 263.373 6.33733 263.373 6.37Z" fill="#B3333A" fill-opacity="0.8"/>
<path d="M266.822 7H267.256C267.423 7 267.553 6.9545 267.647 6.8635C267.743 6.7725 267.792 6.64533 267.792 6.482V6.3105C267.792 6.27783 267.775 6.2615 267.741 6.2615H267.578C267.544 6.2615 267.527 6.27783 267.527 6.3105V6.4715C267.527 6.6745 267.426 6.776 267.224 6.776H266.851C266.651 6.776 266.551 6.6745 266.551 6.4715V5.278C266.551 5.075 266.651 4.9735 266.851 4.9735H267.224C267.426 4.9735 267.527 5.075 267.527 5.278V5.439C267.527 5.47167 267.544 5.488 267.578 5.488H267.741C267.775 5.488 267.792 5.47167 267.792 5.439V5.2675C267.792 5.10417 267.743 4.977 267.647 4.886C267.553 4.795 267.423 4.7495 267.256 4.7495H266.822C266.656 4.7495 266.524 4.795 266.428 4.886C266.334 4.977 266.287 5.10417 266.287 5.2675V6.482C266.287 6.64533 266.334 6.7725 266.428 6.8635C266.524 6.9545 266.656 7 266.822 7Z" fill="#B3333A" fill-opacity="0.8"/>
<path fill-rule="evenodd" clip-rule="evenodd" d="M268.779 7H269.209C269.376 7 269.506 6.9545 269.6 6.8635C269.697 6.77017 269.745 6.643 269.745 6.482V5.2675C269.745 5.1065 269.697 4.9805 269.6 4.8895C269.506 4.79617 269.376 4.7495 269.209 4.7495H268.779C268.613 4.7495 268.481 4.795 268.385 4.886C268.291 4.977 268.244 5.10417 268.244 5.2675V6.482C268.244 6.64533 268.291 6.7725 268.385 6.8635C268.481 6.9545 268.613 7 268.779 7ZM269.177 6.776H268.808C268.608 6.776 268.508 6.6745 268.508 6.4715V5.278C268.508 5.075 268.608 4.9735 268.808 4.9735H269.177C269.379 4.9735 269.481 5.075 269.481 5.278V6.4715C269.481 6.6745 269.379 6.776 269.177 6.776Z" fill="#B3333A" fill-opacity="0.8"/>
<path d="M272.207 4.7495H271.914C271.89 4.7495 271.875 4.75883 271.871 4.7775L271.277 6.2265H271.259L270.666 4.7775C270.659 4.75883 270.644 4.7495 270.623 4.7495H270.33C270.296 4.7495 270.279 4.76583 270.279 4.7985V6.951C270.279 6.98367 270.296 7 270.33 7H270.489C270.52 7 270.536 6.98367 270.536 6.951V5.089H270.55L271.122 6.4645C271.132 6.49483 271.152 6.51 271.183 6.51H271.357C271.386 6.51 271.408 6.49483 271.422 6.4645L271.983 5.0925H271.997V6.951C271.997 6.98367 272.014 7 272.048 7H272.207C272.241 7 272.258 6.98367 272.258 6.951V4.7985C272.258 4.76583 272.241 4.7495 272.207 4.7495Z" fill="#B3333A" fill-opacity="0.8"/>
<path fill-rule="evenodd" clip-rule="evenodd" d="M272.88 7H273.043C273.077 7 273.093 6.98367 273.093 6.951V6.2055C273.093 6.1845 273.105 6.174 273.13 6.174H273.726C273.893 6.174 274.023 6.1285 274.117 6.0375C274.211 5.9465 274.258 5.81933 274.258 5.656V5.2675C274.258 5.1065 274.211 4.9805 274.117 4.8895C274.023 4.79617 273.893 4.7495 273.726 4.7495H272.88C272.846 4.7495 272.829 4.76583 272.829 4.7985V6.951C272.829 6.98367 272.846 7 272.88 7ZM273.69 5.9465H273.13C273.105 5.9465 273.093 5.936 273.093 5.915V5.005C273.093 4.984 273.105 4.9735 273.13 4.9735H273.69C273.893 4.9735 273.994 5.075 273.994 5.278V5.6455C273.994 5.84617 273.893 5.9465 273.69 5.9465Z" fill="#B3333A" fill-opacity="0.8"/>
<path fill-rule="evenodd" clip-rule="evenodd" d="M274.784 7H274.947C274.98 7 274.997 6.98367 274.997 6.951V6.1355C274.997 6.1145 275.009 6.104 275.033 6.104H275.511L275.916 6.951C275.935 6.98367 275.965 7 276.007 7H276.169C276.215 7 276.227 6.98133 276.205 6.944L275.786 6.0935V6.0795C275.902 6.0515 275.992 5.9955 276.057 5.9115C276.122 5.82517 276.155 5.71667 276.155 5.586V5.2675C276.155 5.1065 276.107 4.9805 276.01 4.8895C275.914 4.79617 275.782 4.7495 275.616 4.7495H274.784C274.75 4.7495 274.733 4.76583 274.733 4.7985V6.951C274.733 6.98367 274.75 7 274.784 7ZM275.58 5.8905H275.033C275.009 5.8905 274.997 5.88 274.997 5.859V5.005C274.997 4.984 275.009 4.9735 275.033 4.9735H275.58C275.787 4.9735 275.891 5.075 275.891 5.278V5.5895C275.891 5.79017 275.787 5.8905 275.58 5.8905Z" fill="#B3333A" fill-opacity="0.8"/>
<path d="M276.727 7H277.862C277.896 7 277.913 6.98367 277.913 6.951V6.825C277.913 6.79233 277.896 6.776 277.862 6.776H276.976C276.952 6.776 276.94 6.7655 276.94 6.7445V5.999C276.94 5.978 276.952 5.9675 276.976 5.9675H277.75C277.784 5.9675 277.801 5.95117 277.801 5.9185V5.7925C277.801 5.75983 277.784 5.7435 277.75 5.7435H276.976C276.952 5.7435 276.94 5.733 276.94 5.712V5.005C276.94 4.984 276.952 4.9735 276.976 4.9735H277.862C277.896 4.9735 277.913 4.95717 277.913 4.9245V4.7985C277.913 4.76583 277.896 4.7495 277.862 4.7495H276.727C276.693 4.7495 276.676 4.76583 276.676 4.7985V6.951C276.676 6.98367 276.693 7 276.727 7Z" fill="#B3333A" fill-opacity="0.8"/>
<path d="M278.389 6.37V6.482C278.389 6.643 278.437 6.77017 278.533 6.8635C278.63 6.9545 278.76 7 278.924 7H279.34C279.504 7 279.634 6.9545 279.73 6.8635C279.827 6.77017 279.875 6.643 279.875 6.482V6.3245C279.875 6.2195 279.852 6.13083 279.806 6.0585C279.763 5.98383 279.705 5.929 279.633 5.894C279.56 5.85667 279.48 5.82633 279.39 5.803C279.304 5.77733 279.217 5.7575 279.13 5.7435C279.043 5.72717 278.964 5.70967 278.891 5.691C278.73 5.64667 278.649 5.565 278.649 5.446V5.306C278.649 5.08433 278.756 4.9735 278.971 4.9735H279.278C279.493 4.9735 279.6 5.07967 279.6 5.292V5.355C279.6 5.39 279.616 5.4075 279.647 5.4075H279.814C279.845 5.4075 279.861 5.39 279.861 5.355V5.2675C279.861 5.1065 279.812 4.9805 279.716 4.8895C279.62 4.79617 279.489 4.7495 279.325 4.7495H278.924C278.758 4.7495 278.626 4.79617 278.53 4.8895C278.436 4.9805 278.389 5.1065 278.389 5.2675V5.439C278.389 5.579 278.431 5.68983 278.515 5.7715C278.6 5.85083 278.702 5.9045 278.823 5.9325C278.943 5.9605 279.064 5.985 279.184 6.006C279.471 6.05733 279.615 6.167 279.615 6.335V6.454C279.615 6.66867 279.507 6.776 279.293 6.776H278.975C278.76 6.776 278.653 6.671 278.653 6.461V6.37C278.653 6.33733 278.636 6.321 278.602 6.321H278.439C278.405 6.321 278.389 6.33733 278.389 6.37Z" fill="#B3333A" fill-opacity="0.8"/>
<path d="M280.395 6.37V6.482C280.395 6.643 280.443 6.77017 280.54 6.8635C280.636 6.9545 280.766 7 280.93 7H281.346C281.51 7 281.64 6.9545 281.737 6.8635C281.833 6.77017 281.881 6.643 281.881 6.482V6.3245C281.881 6.2195 281.859 6.13083 281.813 6.0585C281.769 5.98383 281.711 5.929 281.639 5.894C281.567 5.85667 281.486 5.82633 281.397 5.803C281.31 5.77733 281.223 5.7575 281.136 5.7435C281.05 5.72717 280.97 5.70967 280.898 5.691C280.736 5.64667 280.655 5.565 280.655 5.446V5.306C280.655 5.08433 280.763 4.9735 280.977 4.9735H281.285C281.499 4.9735 281.607 5.07967 281.607 5.292V5.355C281.607 5.39 281.622 5.4075 281.654 5.4075H281.82C281.851 5.4075 281.867 5.39 281.867 5.355V5.2675C281.867 5.1065 281.819 4.9805 281.722 4.8895C281.626 4.79617 281.496 4.7495 281.332 4.7495H280.93C280.764 4.7495 280.632 4.79617 280.536 4.8895C280.442 4.9805 280.395 5.1065 280.395 5.2675V5.439C280.395 5.579 280.437 5.68983 280.521 5.7715C280.606 5.85083 280.708 5.9045 280.829 5.9325C280.949 5.9605 281.07 5.985 281.191 6.006C281.478 6.05733 281.621 6.167 281.621 6.335V6.454C281.621 6.66867 281.514 6.776 281.299 6.776H280.981C280.766 6.776 280.659 6.671 280.659 6.461V6.37C280.659 6.33733 280.642 6.321 280.608 6.321H280.446C280.412 6.321 280.395 6.33733 280.395 6.37Z" fill="#B3333A" fill-opacity="0.8"/>
<path d="M282.477 7H283.613C283.647 7 283.664 6.98367 283.664 6.951V6.825C283.664 6.79233 283.647 6.776 283.613 6.776H282.727C282.703 6.776 282.691 6.7655 282.691 6.7445V5.999C282.691 5.978 282.703 5.9675 282.727 5.9675H283.501C283.535 5.9675 283.551 5.95117 283.551 5.9185V5.7925C283.551 5.75983 283.535 5.7435 283.501 5.7435H282.727C282.703 5.7435 282.691 5.733 282.691 5.712V5.005C282.691 4.984 282.703 4.9735 282.727 4.9735H283.613C283.647 4.9735 283.664 4.95717 283.664 4.9245V4.7985C283.664 4.76583 283.647 4.7495 283.613 4.7495H282.477C282.443 4.7495 282.427 4.76583 282.427 4.7985V6.951C282.427 6.98367 282.443 7 282.477 7Z" fill="#B3333A" fill-opacity="0.8"/>
<path fill-rule="evenodd" clip-rule="evenodd" d="M284.164 4.7985V6.951C284.164 6.98367 284.181 7 284.215 7H285.105C285.271 7 285.401 6.9545 285.495 6.8635C285.592 6.77017 285.64 6.643 285.64 6.482V5.2675C285.64 5.1065 285.592 4.9805 285.495 4.8895C285.401 4.79617 285.271 4.7495 285.105 4.7495H284.215C284.181 4.7495 284.164 4.76583 284.164 4.7985ZM285.072 6.776H284.465C284.44 6.776 284.428 6.7655 284.428 6.7445V5.005C284.428 4.984 284.44 4.9735 284.465 4.9735H285.072C285.275 4.9735 285.376 5.075 285.376 5.278V6.4715C285.376 6.6745 285.275 6.776 285.072 6.776Z" fill="#B3333A" fill-opacity="0.8"/>
<path d="M286.08 7.21V7.3185C286.08 7.34417 286.096 7.357 286.127 7.357H286.138C286.314 7.357 286.453 7.30567 286.554 7.203C286.658 7.10033 286.71 6.94983 286.71 6.7515V5.355C286.71 5.15667 286.658 5.00617 286.554 4.9035C286.453 4.80083 286.314 4.7495 286.138 4.7495H286.127C286.096 4.7495 286.08 4.76233 286.08 4.788V4.8965C286.08 4.92683 286.096 4.942 286.127 4.942H286.138C286.247 4.942 286.331 4.97583 286.391 5.0435C286.454 5.11117 286.485 5.208 286.485 5.334V6.7725C286.485 6.8985 286.454 6.99533 286.391 7.063C286.331 7.13067 286.247 7.1645 286.138 7.1645H286.127C286.096 7.1645 286.08 7.17967 286.08 7.21Z" fill="#B3333A" fill-opacity="0.8"/>
<path d="M257.789 12H256.628C256.594 12 256.578 11.9837 256.578 11.951V9.7985C256.578 9.76583 256.594 9.7495 256.628 9.7495H256.791C256.825 9.7495 256.842 9.76583 256.842 9.7985V11.7375C256.842 11.7585 256.854 11.769 256.878 11.769H257.789C257.823 11.769 257.84 11.7865 257.84 11.8215V11.951C257.84 11.9837 257.823 12 257.789 12Z" fill="#B3333A" fill-opacity="0.8"/>
<path fill-rule="evenodd" clip-rule="evenodd" d="M259.139 12H258.709C258.542 12 258.411 11.9545 258.314 11.8635C258.22 11.7725 258.173 11.6453 258.173 11.482V10.2675C258.173 10.1042 258.22 9.977 258.314 9.886C258.411 9.795 258.542 9.7495 258.709 9.7495H259.139C259.305 9.7495 259.436 9.79617 259.53 9.8895C259.626 9.9805 259.674 10.1065 259.674 10.2675V11.482C259.674 11.643 259.626 11.7702 259.53 11.8635C259.436 11.9545 259.305 12 259.139 12ZM258.738 11.776H259.106C259.309 11.776 259.41 11.6745 259.41 11.4715V10.278C259.41 10.075 259.309 9.9735 259.106 9.9735H258.738C258.537 9.9735 258.437 10.075 258.437 10.278V11.4715C258.437 11.6745 258.537 11.776 258.738 11.776Z" fill="#B3333A" fill-opacity="0.8"/>
<path fill-rule="evenodd" clip-rule="evenodd" d="M260.238 12H260.057C260.025 12 260.015 11.9837 260.024 11.951L260.701 9.7985C260.71 9.76583 260.733 9.7495 260.769 9.7495H261.03C261.066 9.7495 261.089 9.76583 261.098 9.7985L261.775 11.951C261.784 11.9837 261.774 12 261.742 12H261.558C261.531 12 261.514 11.9837 261.507 11.951L261.337 11.44H260.462L260.292 11.951C260.282 11.9837 260.264 12 260.238 12ZM260.892 10.012L260.52 11.223H261.279L260.907 10.012H260.892Z" fill="#B3333A" fill-opacity="0.8"/>
<path fill-rule="evenodd" clip-rule="evenodd" d="M262.162 11.951V9.7985C262.162 9.76583 262.179 9.7495 262.213 9.7495H263.102C263.269 9.7495 263.399 9.79617 263.493 9.8895C263.59 9.9805 263.638 10.1065 263.638 10.2675V11.482C263.638 11.643 263.59 11.7702 263.493 11.8635C263.399 11.9545 263.269 12 263.102 12H262.213C262.179 12 262.162 11.9837 262.162 11.951ZM262.462 11.776H263.07C263.272 11.776 263.374 11.6745 263.374 11.4715V10.278C263.374 10.075 263.272 9.9735 263.07 9.9735H262.462C262.438 9.9735 262.426 9.984 262.426 10.005V11.7445C262.426 11.7655 262.438 11.776 262.462 11.776Z" fill="#B3333A" fill-opacity="0.8"/>
<path fill-rule="evenodd" clip-rule="evenodd" d="M265.119 12H264.938C264.907 12 264.896 11.9837 264.906 11.951L265.582 9.7985C265.592 9.76583 265.615 9.7495 265.651 9.7495H265.911C265.947 9.7495 265.97 9.76583 265.98 9.7985L266.656 11.951C266.666 11.9837 266.655 12 266.624 12H266.439C266.413 12 266.396 11.9837 266.389 11.951L266.219 11.44H265.343L265.173 11.951C265.164 11.9837 265.146 12 265.119 12ZM265.774 10.012L265.401 11.223H266.161L265.788 10.012H265.774Z" fill="#B3333A" fill-opacity="0.8"/>
<path fill-rule="evenodd" clip-rule="evenodd" d="M267.044 11.951V9.7985C267.044 9.76583 267.06 9.7495 267.094 9.7495H267.984C268.15 9.7495 268.281 9.79617 268.375 9.8895C268.471 9.9805 268.519 10.1065 268.519 10.2675V11.482C268.519 11.643 268.471 11.7702 268.375 11.8635C268.281 11.9545 268.15 12 267.984 12H267.094C267.06 12 267.044 11.9837 267.044 11.951ZM267.344 11.776H267.951C268.154 11.776 268.255 11.6745 268.255 11.4715V10.278C268.255 10.075 268.154 9.9735 267.951 9.9735H267.344C267.32 9.9735 267.308 9.984 267.308 10.005V11.7445C267.308 11.7655 267.32 11.776 267.344 11.776Z" fill="#B3333A" fill-opacity="0.8"/>
<path fill-rule="evenodd" clip-rule="evenodd" d="M269.053 11.951V9.7985C269.053 9.76583 269.07 9.7495 269.104 9.7495H269.994C270.16 9.7495 270.29 9.79617 270.385 9.8895C270.481 9.9805 270.529 10.1065 270.529 10.2675V11.482C270.529 11.643 270.481 11.7702 270.385 11.8635C270.29 11.9545 270.16 12 269.994 12H269.104C269.07 12 269.053 11.9837 269.053 11.951ZM269.354 11.776H269.961C270.164 11.776 270.265 11.6745 270.265 11.4715V10.278C270.265 10.075 270.164 9.9735 269.961 9.9735H269.354C269.33 9.9735 269.317 9.984 269.317 10.005V11.7445C269.317 11.7655 269.33 11.776 269.354 11.776Z" fill="#B3333A" fill-opacity="0.8"/>
<path fill-rule="evenodd" clip-rule="evenodd" d="M271.277 12H271.114C271.08 12 271.063 11.9837 271.063 11.951V9.7985C271.063 9.76583 271.08 9.7495 271.114 9.7495H271.946C272.112 9.7495 272.244 9.79617 272.34 9.8895C272.437 9.9805 272.485 10.1065 272.485 10.2675V10.586C272.485 10.7167 272.452 10.8252 272.387 10.9115C272.322 10.9955 272.232 11.0515 272.116 11.0795V11.0935L272.535 11.944C272.557 11.9813 272.545 12 272.499 12H272.336C272.295 12 272.265 11.9837 272.246 11.951L271.841 11.104H271.363C271.339 11.104 271.327 11.1145 271.327 11.1355V11.951C271.327 11.9837 271.31 12 271.277 12ZM271.363 10.8905H271.91C272.117 10.8905 272.221 10.7902 272.221 10.5895V10.278C272.221 10.075 272.117 9.9735 271.91 9.9735H271.363C271.339 9.9735 271.327 9.984 271.327 10.005V10.859C271.327 10.88 271.339 10.8905 271.363 10.8905Z" fill="#B3333A" fill-opacity="0.8"/>
<path d="M274.192 12H273.057C273.023 12 273.006 11.9837 273.006 11.951V9.7985C273.006 9.76583 273.023 9.7495 273.057 9.7495H274.192C274.226 9.7495 274.243 9.76583 274.243 9.7985V9.9245C274.243 9.95717 274.226 9.9735 274.192 9.9735H273.306C273.282 9.9735 273.27 9.984 273.27 10.005V10.712C273.27 10.733 273.282 10.7435 273.306 10.7435H274.08C274.114 10.7435 274.131 10.7598 274.131 10.7925V10.9185C274.131 10.9512 274.114 10.9675 274.08 10.9675H273.306C273.282 10.9675 273.27 10.978 273.27 10.999V11.7445C273.27 11.7655 273.282 11.776 273.306 11.776H274.192C274.226 11.776 274.243 11.7923 274.243 11.825V11.951C274.243 11.9837 274.226 12 274.192 12Z" fill="#B3333A" fill-opacity="0.8"/>
<path d="M274.719 11.482V11.37C274.719 11.3373 274.735 11.321 274.769 11.321H274.932C274.966 11.321 274.983 11.3373 274.983 11.37V11.461C274.983 11.671 275.09 11.776 275.305 11.776H275.623C275.837 11.776 275.945 11.6687 275.945 11.454V11.335C275.945 11.167 275.801 11.0573 275.514 11.006C275.394 10.985 275.273 10.9605 275.153 10.9325C275.032 10.9045 274.93 10.8508 274.845 10.7715C274.761 10.6898 274.719 10.579 274.719 10.439V10.2675C274.719 10.1065 274.766 9.9805 274.86 9.8895C274.956 9.79617 275.087 9.7495 275.254 9.7495H275.655C275.819 9.7495 275.95 9.79617 276.046 9.8895C276.142 9.9805 276.191 10.1065 276.191 10.2675V10.355C276.191 10.39 276.175 10.4075 276.144 10.4075H275.977C275.946 10.4075 275.93 10.39 275.93 10.355V10.292C275.93 10.0797 275.823 9.9735 275.608 9.9735H275.301C275.086 9.9735 274.979 10.0843 274.979 10.306V10.446C274.979 10.565 275.06 10.6467 275.221 10.691C275.294 10.7097 275.373 10.7272 275.46 10.7435C275.547 10.7575 275.634 10.7773 275.72 10.803C275.81 10.8263 275.89 10.8567 275.963 10.894C276.035 10.929 276.093 10.9838 276.136 11.0585C276.182 11.1308 276.205 11.2195 276.205 11.3245V11.482C276.205 11.643 276.157 11.7702 276.06 11.8635C275.964 11.9545 275.834 12 275.67 12H275.254C275.09 12 274.96 11.9545 274.863 11.8635C274.767 11.7702 274.719 11.643 274.719 11.482Z" fill="#B3333A" fill-opacity="0.8"/>
<path d="M276.725 11.482V11.37C276.725 11.3373 276.742 11.321 276.776 11.321H276.938C276.972 11.321 276.989 11.3373 276.989 11.37V11.461C276.989 11.671 277.096 11.776 277.311 11.776H277.629C277.844 11.776 277.951 11.6687 277.951 11.454V11.335C277.951 11.167 277.808 11.0573 277.521 11.006C277.4 10.985 277.279 10.9605 277.159 10.9325C277.038 10.9045 276.936 10.8508 276.851 10.7715C276.767 10.6898 276.725 10.579 276.725 10.439V10.2675C276.725 10.1065 276.772 9.9805 276.866 9.8895C276.962 9.79617 277.094 9.7495 277.26 9.7495H277.662C277.826 9.7495 277.956 9.79617 278.052 9.8895C278.149 9.9805 278.197 10.1065 278.197 10.2675V10.355C278.197 10.39 278.181 10.4075 278.15 10.4075H277.984C277.952 10.4075 277.937 10.39 277.937 10.355V10.292C277.937 10.0797 277.829 9.9735 277.615 9.9735H277.307C277.093 9.9735 276.985 10.0843 276.985 10.306V10.446C276.985 10.565 277.066 10.6467 277.228 10.691C277.3 10.7097 277.38 10.7272 277.466 10.7435C277.553 10.7575 277.64 10.7773 277.727 10.803C277.816 10.8263 277.897 10.8567 277.969 10.894C278.041 10.929 278.099 10.9838 278.143 11.0585C278.189 11.1308 278.211 11.2195 278.211 11.3245V11.482C278.211 11.643 278.163 11.7702 278.067 11.8635C277.97 11.9545 277.84 12 277.676 12H277.26C277.096 12 276.966 11.9545 276.87 11.8635C276.773 11.7702 276.725 11.643 276.725 11.482Z" fill="#B3333A" fill-opacity="0.8"/>
<path d="M278.963 10.2605V10.684C278.963 10.7167 278.947 10.733 278.916 10.733H278.731C278.7 10.733 278.684 10.7155 278.684 10.6805V10.264C278.684 10.2313 278.7 10.215 278.731 10.215H278.916C278.947 10.215 278.963 10.2302 278.963 10.2605Z" fill="#B3333A" fill-opacity="0.8"/>
<path d="M278.963 11.5275V11.951C278.963 11.9837 278.947 12 278.916 12H278.731C278.7 12 278.684 11.9825 278.684 11.9475V11.5275C278.684 11.4972 278.7 11.482 278.731 11.482H278.916C278.947 11.482 278.963 11.4972 278.963 11.5275Z" fill="#B3333A" fill-opacity="0.8"/>
<path d="M281.311 12H280.877C280.711 12 280.579 11.9545 280.483 11.8635C280.389 11.7725 280.342 11.6453 280.342 11.482V10.2675C280.342 10.1042 280.389 9.977 280.483 9.886C280.579 9.795 280.711 9.7495 280.877 9.7495H281.311C281.477 9.7495 281.608 9.795 281.702 9.886C281.798 9.977 281.846 10.1042 281.846 10.2675V10.439C281.846 10.4717 281.829 10.488 281.796 10.488H281.633C281.599 10.488 281.582 10.4717 281.582 10.439V10.278C281.582 10.075 281.481 9.9735 281.278 9.9735H280.906C280.706 9.9735 280.606 10.075 280.606 10.278V11.4715C280.606 11.6745 280.706 11.776 280.906 11.776H281.278C281.481 11.776 281.582 11.6745 281.582 11.4715V11.3105C281.582 11.2778 281.599 11.2615 281.633 11.2615H281.796C281.829 11.2615 281.846 11.2778 281.846 11.3105V11.482C281.846 11.6453 281.798 11.7725 281.702 11.8635C281.608 11.9545 281.477 12 281.311 12Z" fill="#B3333A" fill-opacity="0.8"/>
<path fill-rule="evenodd" clip-rule="evenodd" d="M283.17 12H282.809C282.645 12 282.514 11.9545 282.418 11.8635C282.324 11.7725 282.277 11.6453 282.277 11.482V10.2675C282.277 10.1065 282.324 9.9805 282.418 9.8895C282.514 9.79617 282.645 9.7495 282.809 9.7495H283.17C283.334 9.7495 283.463 9.79617 283.557 9.8895C283.654 9.9805 283.702 10.1065 283.702 10.2675V11.482C283.702 11.6453 283.654 11.7725 283.557 11.8635C283.463 11.9545 283.334 12 283.17 12ZM282.841 11.776H283.138C283.34 11.776 283.441 11.6745 283.441 11.4715V10.278C283.441 10.075 283.34 9.9735 283.138 9.9735H282.841C282.641 9.9735 282.541 10.075 282.541 10.278V11.4715C282.541 11.6745 282.641 11.776 282.841 11.776Z" fill="#B3333A" fill-opacity="0.8"/>
<path fill-rule="evenodd" clip-rule="evenodd" d="M285.049 12H284.688C284.524 12 284.393 11.9545 284.297 11.8635C284.203 11.7725 284.156 11.6453 284.156 11.482V10.2675C284.156 10.1065 284.203 9.9805 284.297 9.8895C284.393 9.79617 284.524 9.7495 284.688 9.7495H285.049C285.213 9.7495 285.342 9.79617 285.436 9.8895C285.533 9.9805 285.581 10.1065 285.581 10.2675V11.482C285.581 11.6453 285.533 11.7725 285.436 11.8635C285.342 11.9545 285.213 12 285.049 12ZM284.72 11.776H285.017C285.219 11.776 285.321 11.6745 285.321 11.4715V10.278C285.321 10.075 285.219 9.9735 285.017 9.9735H284.72C284.52 9.9735 284.42 10.075 284.42 10.278V11.4715C284.42 11.6745 284.52 11.776 284.72 11.776Z" fill="#B3333A" fill-opacity="0.8"/>
<path fill-rule="evenodd" clip-rule="evenodd" d="M286.929 12H286.567C286.403 12 286.273 11.9545 286.176 11.8635C286.082 11.7725 286.035 11.6453 286.035 11.482V10.2675C286.035 10.1065 286.082 9.9805 286.176 9.8895C286.273 9.79617 286.403 9.7495 286.567 9.7495H286.929C287.092 9.7495 287.221 9.79617 287.316 9.8895C287.412 9.9805 287.46 10.1065 287.46 10.2675V11.482C287.46 11.6453 287.412 11.7725 287.316 11.8635C287.221 11.9545 287.092 12 286.929 12ZM286.599 11.776H286.896C287.099 11.776 287.2 11.6745 287.2 11.4715V10.278C287.2 10.075 287.099 9.9735 286.896 9.9735H286.599C286.399 9.9735 286.299 10.075 286.299 10.278V11.4715C286.299 11.6745 286.399 11.776 286.599 11.776Z" fill="#B3333A" fill-opacity="0.8"/>
<path d="M287.806 10.2325V10.0925C287.806 10.0575 287.82 10.0318 287.849 10.0155L288.269 9.781C288.307 9.76 288.339 9.7495 288.363 9.7495H288.515C288.548 9.7495 288.565 9.76583 288.565 9.7985V11.951C288.565 11.9837 288.548 12 288.515 12H288.352C288.318 12 288.301 11.9837 288.301 11.951V10.0225L287.871 10.2605C287.827 10.2838 287.806 10.2745 287.806 10.2325Z" fill="#B3333A" fill-opacity="0.8"/>
<path d="M288.971 10.2325V10.0925C288.971 10.0575 288.986 10.0318 289.015 10.0155L289.434 9.781C289.473 9.76 289.504 9.7495 289.528 9.7495H289.68C289.714 9.7495 289.731 9.76583 289.731 9.7985V11.951C289.731 11.9837 289.714 12 289.68 12H289.518C289.484 12 289.467 11.9837 289.467 11.951V10.0225L289.036 10.2605C288.993 10.2838 288.971 10.2745 288.971 10.2325Z" fill="#B3333A" fill-opacity="0.8"/>
<path d="M290.224 11.951V11.636C290.224 11.4797 290.291 11.3513 290.426 11.251L291.125 10.719C291.245 10.6303 291.305 10.5207 291.305 10.39V10.264C291.305 10.0657 291.202 9.9665 290.994 9.9665H290.774C290.571 9.9665 290.47 10.0657 290.47 10.264V10.4075C290.47 10.4425 290.453 10.46 290.419 10.46H290.256C290.225 10.46 290.209 10.4425 290.209 10.4075V10.2605C290.209 10.0995 290.256 9.97467 290.35 9.886C290.444 9.795 290.575 9.7495 290.741 9.7495H291.03C291.197 9.7495 291.327 9.795 291.421 9.886C291.515 9.97467 291.562 10.0995 291.562 10.2605V10.404C291.562 10.586 291.487 10.7342 291.338 10.8485L290.629 11.391C290.549 11.4517 290.51 11.5252 290.51 11.6115V11.7725H291.519C291.553 11.7725 291.569 11.7888 291.569 11.8215V11.951C291.569 11.9837 291.553 12 291.519 12H290.275C290.241 12 290.224 11.9837 290.224 11.951Z" fill="#B3333A" fill-opacity="0.8"/>
<path fill-rule="evenodd" clip-rule="evenodd" d="M293.199 12H293.047C293.015 12 293 11.9837 293 11.951V11.5555H291.994C291.943 11.5555 291.918 11.531 291.918 11.482V11.398C291.918 11.3583 291.927 11.3233 291.943 11.293L292.826 9.8195C292.848 9.77283 292.884 9.7495 292.935 9.7495H293.17C293.223 9.7495 293.249 9.774 293.249 9.823V11.3315H293.517C293.551 11.3315 293.568 11.3467 293.568 11.377V11.503C293.568 11.538 293.551 11.5555 293.517 11.5555H293.249V11.951C293.249 11.9837 293.232 12 293.199 12ZM293 11.3315V9.956L292.182 11.3315H293Z" fill="#B3333A" fill-opacity="0.8"/>
<path fill-rule="evenodd" clip-rule="evenodd" d="M295.102 12H294.951C294.919 12 294.904 11.9837 294.904 11.951V11.5555H293.898C293.847 11.5555 293.822 11.531 293.822 11.482V11.398C293.822 11.3583 293.83 11.3233 293.847 11.293L294.73 9.8195C294.752 9.77283 294.788 9.7495 294.838 9.7495H295.074C295.127 9.7495 295.153 9.774 295.153 9.823V11.3315H295.421C295.454 11.3315 295.471 11.3467 295.471 11.377V11.503C295.471 11.538 295.454 11.5555 295.421 11.5555H295.153V11.951C295.153 11.9837 295.136 12 295.102 12ZM294.904 11.3315V9.956L294.086 11.3315H294.904Z" fill="#B3333A" fill-opacity="0.8"/>
</svg>
