<svg width="98" height="25" viewBox="0 0 98 25" fill="none" xmlns="http://www.w3.org/2000/svg">
<path d="M24.3493 0H32.2463V1.31579H24.3493V0Z" fill="#B3333A" fill-opacity="0.8"/>
<path d="M0 0.657895H7.89706V1.97368H0V0.657895Z" fill="#B3333A" fill-opacity="0.8"/>
<path d="M7.89706 1.97368H15.7941V3.28947H7.89706V1.97368Z" fill="#B3333A" fill-opacity="0.8"/>
<path fill-rule="evenodd" clip-rule="evenodd" d="M37.1991 4.60526H37.7335C37.9607 4.60526 38.1373 4.54232 38.2632 4.41645C38.3891 4.29057 38.4521 4.11557 38.4521 3.89145V2.35789C38.4521 2.1307 38.3891 1.9557 38.2632 1.83289C38.1373 1.70702 37.9607 1.64408 37.7335 1.64408H37.1991C36.9718 1.64408 36.7952 1.70702 36.6693 1.83289C36.5465 1.9557 36.4851 2.1307 36.4851 2.35789V3.89145C36.4851 4.11557 36.5465 4.29057 36.6693 4.41645C36.7952 4.54232 36.9718 4.60526 37.1991 4.60526ZM37.6644 4.21382H37.2636C37.0425 4.21382 36.9319 4.10022 36.9319 3.87303V2.37632C36.9319 2.14912 37.0425 2.03553 37.2636 2.03553H37.6644C37.8886 2.03553 38.0006 2.14912 38.0006 2.37632V3.87303C38.0006 4.10022 37.8886 4.21382 37.6644 4.21382Z" fill="#B3333A" fill-opacity="0.8"/>
<path d="M39.1512 4.60526H39.4368C39.489 4.60526 39.5151 4.57917 39.5151 4.52697V2.55132H39.5335L40.6391 4.53158C40.6698 4.5807 40.7098 4.60526 40.7589 4.60526H41.0077C41.0599 4.60526 41.086 4.57917 41.086 4.52697V1.72237C41.086 1.67018 41.0599 1.64408 41.0077 1.64408H40.722C40.6698 1.64408 40.6437 1.67018 40.6437 1.72237V3.69803H40.6253L39.5105 1.69474C39.4921 1.66096 39.4583 1.64408 39.4092 1.64408H39.1512C39.099 1.64408 39.0729 1.67018 39.0729 1.72237V4.52697C39.0729 4.57917 39.099 4.60526 39.1512 4.60526Z" fill="#B3333A" fill-opacity="0.8"/>
<path d="M41.8369 4.60526H43.3294C43.3816 4.60526 43.4077 4.57917 43.4077 4.52697V4.2875C43.4077 4.23224 43.3816 4.20461 43.3294 4.20461H42.2607C42.2238 4.20461 42.2054 4.18925 42.2054 4.15855V1.72237C42.2054 1.67018 42.1793 1.64408 42.1271 1.64408H41.8369C41.7847 1.64408 41.7586 1.67018 41.7586 1.72237V4.52697C41.7586 4.57917 41.7847 4.60526 41.8369 4.60526Z" fill="#B3333A" fill-opacity="0.8"/>
<path d="M44.5188 4.60526H44.8137C44.8659 4.60526 44.892 4.57917 44.892 4.52697V3.50921L45.7534 1.72697C45.7657 1.70241 45.7657 1.68246 45.7534 1.66711C45.7442 1.65175 45.7273 1.64408 45.7027 1.64408H45.3342C45.2912 1.64408 45.2605 1.67018 45.2421 1.72237L44.6847 2.98882H44.657L44.0904 1.72237C44.0689 1.67018 44.0382 1.64408 43.9983 1.64408H43.6298C43.6083 1.64408 43.5914 1.65175 43.5791 1.66711C43.5668 1.68246 43.5668 1.70241 43.5791 1.72697L44.4405 3.50921V4.52697C44.4405 4.57917 44.4666 4.60526 44.5188 4.60526Z" fill="#B3333A" fill-opacity="0.8"/>
<path d="M47.9374 4.60526H48.4717C48.6959 4.60526 48.871 4.54232 48.9969 4.41645C49.1228 4.29057 49.1858 4.11557 49.1858 3.89145V3.67039C49.1858 3.61513 49.1581 3.5875 49.1028 3.5875H48.8126C48.7604 3.5875 48.7343 3.61513 48.7343 3.67039V3.87303C48.7343 4.10022 48.6238 4.21382 48.4026 4.21382H48.0019C47.7807 4.21382 47.6702 4.10022 47.6702 3.87303V2.37632C47.6702 2.14912 47.7807 2.03553 48.0019 2.03553H48.4026C48.6238 2.03553 48.7343 2.14912 48.7343 2.37632V2.57895C48.7343 2.63421 48.7604 2.66184 48.8126 2.66184H49.1028C49.1581 2.66184 49.1858 2.63421 49.1858 2.57895V2.35789C49.1858 2.1307 49.1228 1.9557 48.9969 1.83289C48.871 1.70702 48.6959 1.64408 48.4717 1.64408H47.9374C47.7101 1.64408 47.5335 1.70702 47.4076 1.83289C47.2848 1.9557 47.2233 2.1307 47.2233 2.35789V3.89145C47.2233 4.11557 47.2848 4.29057 47.4076 4.41645C47.5335 4.54232 47.7101 4.60526 47.9374 4.60526Z" fill="#B3333A" fill-opacity="0.8"/>
<path d="M50.4251 4.60526H50.9595C51.1837 4.60526 51.3587 4.54232 51.4846 4.41645C51.6106 4.29057 51.6735 4.11557 51.6735 3.89145V3.67039C51.6735 3.61513 51.6459 3.5875 51.5906 3.5875H51.3004C51.2482 3.5875 51.2221 3.61513 51.2221 3.67039V3.87303C51.2221 4.10022 51.1115 4.21382 50.8904 4.21382H50.4896C50.2685 4.21382 50.1579 4.10022 50.1579 3.87303V2.37632C50.1579 2.14912 50.2685 2.03553 50.4896 2.03553H50.8904C51.1115 2.03553 51.2221 2.14912 51.2221 2.37632V2.57895C51.2221 2.63421 51.2482 2.66184 51.3004 2.66184H51.5906C51.6459 2.66184 51.6735 2.63421 51.6735 2.57895V2.35789C51.6735 2.1307 51.6106 1.9557 51.4846 1.83289C51.3587 1.70702 51.1837 1.64408 50.9595 1.64408H50.4251C50.1979 1.64408 50.0213 1.70702 49.8954 1.83289C49.7725 1.9557 49.7111 2.1307 49.7111 2.35789V3.89145C49.7111 4.11557 49.7725 4.29057 49.8954 4.41645C50.0213 4.54232 50.1979 4.60526 50.4251 4.60526Z" fill="#B3333A" fill-opacity="0.8"/>
<path d="M53.8803 1.64408H53.5901C53.5348 1.64408 53.5071 1.67018 53.5071 1.72237V3.87303C53.5071 4.10022 53.3966 4.21382 53.1755 4.21382H52.8484C52.6273 4.21382 52.5167 4.10022 52.5167 3.87303V3.47697C52.5167 3.42478 52.4906 3.39868 52.4384 3.39868H52.1482C52.0929 3.39868 52.0653 3.42478 52.0653 3.47697V3.89145C52.0653 4.11557 52.1282 4.29057 52.2541 4.41645C52.38 4.54232 52.5566 4.60526 52.7839 4.60526H53.2446C53.4687 4.60526 53.6438 4.54232 53.7697 4.41645C53.8956 4.29057 53.9586 4.11557 53.9586 3.89145V1.71776C53.9586 1.66864 53.9325 1.64408 53.8803 1.64408Z" fill="#B3333A" fill-opacity="0.8"/>
<path d="M54.5514 3.76711V3.88684C54.5514 4.11096 54.6159 4.2875 54.7449 4.41645C54.8739 4.54232 55.0505 4.60526 55.2747 4.60526H55.7906C56.0148 4.60526 56.1898 4.54232 56.3158 4.41645C56.4448 4.2875 56.5092 4.11096 56.5092 3.88684V3.70724C56.5092 3.55987 56.4816 3.43553 56.4263 3.33421C56.371 3.22982 56.2989 3.15307 56.2098 3.10395C56.1208 3.05175 56.0225 3.01031 55.915 2.97961C55.8075 2.9489 55.7 2.92588 55.5925 2.91053C55.4881 2.89518 55.3914 2.87675 55.3023 2.85526C55.1027 2.80614 55.0029 2.7125 55.0029 2.57434V2.43158C55.0029 2.28728 55.0305 2.18596 55.0858 2.12763C55.1441 2.06623 55.2394 2.03553 55.3714 2.03553H55.6616C55.7937 2.03553 55.8873 2.06469 55.9426 2.12303C56.001 2.17829 56.0302 2.27193 56.0302 2.40395V2.46382C56.0302 2.51601 56.0563 2.54211 56.1085 2.54211H56.4033C56.4555 2.54211 56.4816 2.51601 56.4816 2.46382V2.3625C56.4816 2.13838 56.4171 1.96338 56.2881 1.8375C56.1622 1.70855 55.9856 1.64408 55.7584 1.64408H55.2701C55.0459 1.64408 54.8693 1.70855 54.7403 1.8375C54.6144 1.96338 54.5514 2.13838 54.5514 2.3625V2.55592C54.5514 2.72785 54.5883 2.86908 54.662 2.97961C54.7388 3.09013 54.8324 3.16535 54.943 3.20526C55.0536 3.24518 55.1749 3.28048 55.3069 3.31118C55.439 3.34189 55.5603 3.36645 55.6708 3.38487C55.7814 3.40022 55.8735 3.43706 55.9472 3.49539C56.024 3.55066 56.0624 3.62741 56.0624 3.72566V3.83158C56.0624 3.96667 56.0332 4.06491 55.9749 4.12632C55.9165 4.18465 55.8213 4.21382 55.6893 4.21382H55.3714C55.2394 4.21382 55.1441 4.18618 55.0858 4.13092C55.0305 4.07259 55.0029 3.97895 55.0029 3.85V3.76711C55.0029 3.71491 54.9768 3.68882 54.9246 3.68882H54.6297C54.5775 3.68882 54.5514 3.71491 54.5514 3.76711Z" fill="#B3333A" fill-opacity="0.8"/>
<path d="M58.8961 4.60526H59.4304C59.6546 4.60526 59.8297 4.54232 59.9556 4.41645C60.0815 4.29057 60.1445 4.11557 60.1445 3.89145V3.67039C60.1445 3.61513 60.1168 3.5875 60.0616 3.5875H59.7713C59.7191 3.5875 59.693 3.61513 59.693 3.67039V3.87303C59.693 4.10022 59.5825 4.21382 59.3614 4.21382H58.9606C58.7395 4.21382 58.6289 4.10022 58.6289 3.87303V2.37632C58.6289 2.14912 58.7395 2.03553 58.9606 2.03553H59.3614C59.5825 2.03553 59.693 2.14912 59.693 2.37632V2.57895C59.693 2.63421 59.7191 2.66184 59.7713 2.66184H60.0616C60.1168 2.66184 60.1445 2.63421 60.1445 2.57895V2.35789C60.1445 2.1307 60.0815 1.9557 59.9556 1.83289C59.8297 1.70702 59.6546 1.64408 59.4304 1.64408H58.8961C58.6688 1.64408 58.4922 1.70702 58.3663 1.83289C58.2435 1.9557 58.1821 2.1307 58.1821 2.35789V3.89145C58.1821 4.11557 58.2435 4.29057 58.3663 4.41645C58.4922 4.54232 58.6688 4.60526 58.8961 4.60526Z" fill="#B3333A" fill-opacity="0.8"/>
<path d="M60.7942 4.60526H62.2683C62.3174 4.60526 62.342 4.57917 62.342 4.52697V4.29211C62.342 4.23991 62.3174 4.21382 62.2683 4.21382H61.218C61.1811 4.21382 61.1627 4.19693 61.1627 4.16316V3.34342C61.1627 3.31272 61.1811 3.29737 61.218 3.29737H62.1071C62.1624 3.29737 62.19 3.27127 62.19 3.21908V2.98421C62.19 2.93202 62.1624 2.90592 62.1071 2.90592H61.218C61.1811 2.90592 61.1627 2.89057 61.1627 2.85987V2.08158C61.1627 2.05088 61.1811 2.03553 61.218 2.03553H62.2683C62.3174 2.03553 62.342 2.00943 62.342 1.95724V1.72237C62.342 1.67018 62.3174 1.64408 62.2683 1.64408H60.7942C60.742 1.64408 60.7159 1.67018 60.7159 1.72237V4.52697C60.7159 4.57917 60.742 4.60526 60.7942 4.60526Z" fill="#B3333A" fill-opacity="0.8"/>
<path fill-rule="evenodd" clip-rule="evenodd" d="M63.0075 4.60526H63.2977C63.3499 4.60526 63.3761 4.57917 63.3761 4.52697V3.51382C63.3761 3.48311 63.3945 3.46776 63.4313 3.46776H63.8966L64.3895 4.52697C64.411 4.57917 64.4586 4.60526 64.5323 4.60526H64.8179C64.8916 4.60526 64.9116 4.57456 64.8778 4.51316L64.3665 3.43553V3.41711C64.6582 3.325 64.8041 3.10241 64.8041 2.74934V2.3625C64.8041 2.13838 64.7396 1.96338 64.6106 1.8375C64.4847 1.70855 64.3097 1.64408 64.0855 1.64408H63.0075C62.9553 1.64408 62.9292 1.67018 62.9292 1.72237V4.52697C62.9292 4.57917 62.9553 4.60526 63.0075 4.60526ZM64.0118 3.09934H63.4267C63.3929 3.09934 63.3761 3.08399 63.3761 3.05329V2.08158C63.3761 2.05088 63.3929 2.03553 63.4267 2.03553H64.0118C64.239 2.03553 64.3527 2.14912 64.3527 2.37632V2.76316C64.3527 2.98728 64.239 3.09934 64.0118 3.09934Z" fill="#B3333A" fill-opacity="0.8"/>
<path d="M65.9465 4.60526H66.2367C66.2889 4.60526 66.315 4.57917 66.315 4.52697V2.08158C66.315 2.05088 66.3319 2.03553 66.3657 2.03553H66.9461C67.0014 2.03553 67.0291 2.00943 67.0291 1.95724V1.72237C67.0291 1.67018 67.0014 1.64408 66.9461 1.64408H65.2371C65.1818 1.64408 65.1542 1.67018 65.1542 1.72237V1.95724C65.1542 2.00943 65.1818 2.03553 65.2371 2.03553H65.8175C65.8482 2.03553 65.8636 2.05088 65.8636 2.08158V4.52697C65.8636 4.57917 65.8912 4.60526 65.9465 4.60526Z" fill="#B3333A" fill-opacity="0.8"/>
<path d="M67.8932 4.52697V1.72237C67.8932 1.67018 67.8671 1.64408 67.8149 1.64408H67.5247C67.4725 1.64408 67.4464 1.67018 67.4464 1.72237V4.52697C67.4464 4.57917 67.4725 4.60526 67.5247 4.60526H67.8149C67.8671 4.60526 67.8932 4.57917 67.8932 4.52697Z" fill="#B3333A" fill-opacity="0.8"/>
<path d="M68.6668 4.60526H68.957C69.0092 4.60526 69.0354 4.57917 69.0354 4.52697V3.44013C69.0354 3.40943 69.0538 3.39408 69.0906 3.39408H69.9797C70.035 3.39408 70.0626 3.36645 70.0626 3.31118V3.08092C70.0626 3.02873 70.035 3.00263 69.9797 3.00263H69.0906C69.0538 3.00263 69.0354 2.98575 69.0354 2.95197V2.08158C69.0354 2.05088 69.0538 2.03553 69.0906 2.03553H70.1133C70.1655 2.03553 70.1916 2.00943 70.1916 1.95724V1.72237C70.1916 1.67018 70.1655 1.64408 70.1133 1.64408H68.6668C68.6146 1.64408 68.5885 1.67018 68.5885 1.72237V4.52697C68.5885 4.57917 68.6146 4.60526 68.6668 4.60526Z" fill="#B3333A" fill-opacity="0.8"/>
<path d="M71.1503 4.52697V1.72237C71.1503 1.67018 71.1242 1.64408 71.0719 1.64408H70.7817C70.7295 1.64408 70.7034 1.67018 70.7034 1.72237V4.52697C70.7034 4.57917 70.7295 4.60526 70.7817 4.60526H71.0719C71.1242 4.60526 71.1503 4.57917 71.1503 4.52697Z" fill="#B3333A" fill-opacity="0.8"/>
<path d="M71.9238 4.60526H73.398C73.4471 4.60526 73.4717 4.57917 73.4717 4.52697V4.29211C73.4717 4.23991 73.4471 4.21382 73.398 4.21382H72.3477C72.3108 4.21382 72.2924 4.19693 72.2924 4.16316V3.34342C72.2924 3.31272 72.3108 3.29737 72.3477 3.29737H73.2367C73.292 3.29737 73.3197 3.27127 73.3197 3.21908V2.98421C73.3197 2.93202 73.292 2.90592 73.2367 2.90592H72.3477C72.3108 2.90592 72.2924 2.89057 72.2924 2.85987V2.08158C72.2924 2.05088 72.3108 2.03553 72.3477 2.03553H73.398C73.4471 2.03553 73.4717 2.00943 73.4717 1.95724V1.72237C73.4717 1.67018 73.4471 1.64408 73.398 1.64408H71.9238C71.8716 1.64408 71.8455 1.67018 71.8455 1.72237V4.52697C71.8455 4.57917 71.8716 4.60526 71.9238 4.60526Z" fill="#B3333A" fill-opacity="0.8"/>
<path fill-rule="evenodd" clip-rule="evenodd" d="M74.0589 1.72237V4.52697C74.0589 4.57917 74.085 4.60526 74.1372 4.60526H75.2704C75.4946 4.60526 75.6697 4.54232 75.7956 4.41645C75.9246 4.29057 75.989 4.11557 75.989 3.89145V2.35789C75.989 2.1307 75.9246 1.9557 75.7956 1.83289C75.6697 1.70702 75.4946 1.64408 75.2704 1.64408H74.1372C74.085 1.64408 74.0589 1.67018 74.0589 1.72237ZM75.2059 4.21382H74.5564C74.5226 4.21382 74.5057 4.19693 74.5057 4.16316V2.08158C74.5057 2.05088 74.5226 2.03553 74.5564 2.03553H75.2059C75.427 2.03553 75.5376 2.14912 75.5376 2.37632V3.87303C75.5376 4.10022 75.427 4.21382 75.2059 4.21382Z" fill="#B3333A" fill-opacity="0.8"/>
<path fill-rule="evenodd" clip-rule="evenodd" d="M36.3607 10.5263H36.6924C36.7354 10.5263 36.763 10.5002 36.7753 10.448L36.9503 9.84934H37.9638L38.1388 10.448C38.145 10.4787 38.1527 10.5002 38.1619 10.5125C38.1742 10.5217 38.1941 10.5263 38.2218 10.5263H38.5488C38.5949 10.5263 38.6118 10.5002 38.5995 10.448L37.798 7.64342C37.7857 7.59123 37.7488 7.56513 37.6874 7.56513H37.2267C37.1684 7.56513 37.1315 7.59123 37.1162 7.64342L36.3146 10.448C36.3023 10.5002 36.3177 10.5263 36.3607 10.5263ZM37.0425 9.48092L37.4479 8.00724H37.4663L37.8763 9.48092H37.0425Z" fill="#B3333A" fill-opacity="0.8"/>
<path d="M39.1332 10.5263H39.4188C39.471 10.5263 39.4971 10.5002 39.4971 10.448V8.47237H39.5155L40.6211 10.4526C40.6518 10.5018 40.6918 10.5263 40.7409 10.5263H40.9897C41.0419 10.5263 41.068 10.5002 41.068 10.448V7.64342C41.068 7.59123 41.0419 7.56513 40.9897 7.56513H40.704C40.6518 7.56513 40.6257 7.59123 40.6257 7.64342V9.61908H40.6073L39.4925 7.61579C39.4741 7.58202 39.4403 7.56513 39.3912 7.56513H39.1332C39.081 7.56513 39.0549 7.59123 39.0549 7.64342V10.448C39.0549 10.5002 39.081 10.5263 39.1332 10.5263Z" fill="#B3333A" fill-opacity="0.8"/>
<path fill-rule="evenodd" clip-rule="evenodd" d="M41.7406 7.64342V10.448C41.7406 10.5002 41.7667 10.5263 41.8189 10.5263H42.9521C43.1763 10.5263 43.3513 10.4634 43.4773 10.3375C43.6063 10.2116 43.6707 10.0366 43.6707 9.8125V8.27895C43.6707 8.05175 43.6063 7.87675 43.4773 7.75395C43.3513 7.62807 43.1763 7.56513 42.9521 7.56513H41.8189C41.7667 7.56513 41.7406 7.59123 41.7406 7.64342ZM42.8876 10.1349H42.2381C42.2043 10.1349 42.1874 10.118 42.1874 10.0842V8.00263C42.1874 7.97193 42.2043 7.95658 42.2381 7.95658H42.8876C43.1087 7.95658 43.2193 8.07018 43.2193 8.29737V9.79408C43.2193 10.0213 43.1087 10.1349 42.8876 10.1349Z" fill="#B3333A" fill-opacity="0.8"/>
<path fill-rule="evenodd" clip-rule="evenodd" d="M45.3935 7.64342V10.448C45.3935 10.5002 45.4196 10.5263 45.4718 10.5263H46.605C46.8292 10.5263 47.0043 10.4634 47.1302 10.3375C47.2592 10.2116 47.3236 10.0366 47.3236 9.8125V8.27895C47.3236 8.05175 47.2592 7.87675 47.1302 7.75395C47.0043 7.62807 46.8292 7.56513 46.605 7.56513H45.4718C45.4196 7.56513 45.3935 7.59123 45.3935 7.64342ZM46.5405 10.1349H45.891C45.8572 10.1349 45.8403 10.118 45.8403 10.0842V8.00263C45.8403 7.97193 45.8572 7.95658 45.891 7.95658H46.5405C46.7616 7.95658 46.8722 8.07018 46.8722 8.29737V9.79408C46.8722 10.0213 46.7616 10.1349 46.5405 10.1349Z" fill="#B3333A" fill-opacity="0.8"/>
<path d="M48.027 10.5263H48.3172C48.3694 10.5263 48.3956 10.5002 48.3956 10.448V9.28289C48.3956 9.25219 48.414 9.23684 48.4508 9.23684H49.4228C49.4535 9.23684 49.4689 9.25219 49.4689 9.28289V10.448C49.4689 10.5002 49.495 10.5263 49.5472 10.5263H49.842C49.8942 10.5263 49.9203 10.5002 49.9203 10.448V7.64342C49.9203 7.59123 49.8942 7.56513 49.842 7.56513H49.5472C49.495 7.56513 49.4689 7.59123 49.4689 7.64342V8.79474C49.4689 8.82544 49.4535 8.84079 49.4228 8.84079H48.4508C48.414 8.84079 48.3956 8.82544 48.3956 8.79474V7.64342C48.3956 7.59123 48.3694 7.56513 48.3172 7.56513H48.027C47.9748 7.56513 47.9487 7.59123 47.9487 7.64342V10.448C47.9487 10.5002 47.9748 10.5263 48.027 10.5263Z" fill="#B3333A" fill-opacity="0.8"/>
<path d="M50.5386 9.68816V9.80789C50.5386 10.032 50.6031 10.2086 50.7321 10.3375C50.8611 10.4634 51.0377 10.5263 51.2619 10.5263H51.7778C52.002 10.5263 52.1771 10.4634 52.303 10.3375C52.432 10.2086 52.4964 10.032 52.4964 9.80789V9.62829C52.4964 9.48092 52.4688 9.35658 52.4135 9.25526C52.3582 9.15088 52.2861 9.07412 52.197 9.025C52.108 8.97281 52.0097 8.93136 51.9022 8.90066C51.7947 8.86996 51.6872 8.84693 51.5797 8.83158C51.4753 8.81623 51.3786 8.79781 51.2895 8.77632C51.0899 8.72719 50.9901 8.63355 50.9901 8.49539V8.35263C50.9901 8.20833 51.0177 8.10702 51.073 8.04868C51.1314 7.98728 51.2266 7.95658 51.3586 7.95658H51.6488C51.7809 7.95658 51.8746 7.98575 51.9298 8.04408C51.9882 8.09934 52.0174 8.19298 52.0174 8.325V8.38487C52.0174 8.43706 52.0435 8.46316 52.0957 8.46316H52.3905C52.4427 8.46316 52.4688 8.43706 52.4688 8.38487V8.28355C52.4688 8.05943 52.4043 7.88443 52.2753 7.75855C52.1494 7.62961 51.9728 7.56513 51.7456 7.56513H51.2573C51.0331 7.56513 50.8565 7.62961 50.7275 7.75855C50.6016 7.88443 50.5386 8.05943 50.5386 8.28355V8.47697C50.5386 8.6489 50.5755 8.79013 50.6492 8.90066C50.726 9.01118 50.8196 9.0864 50.9302 9.12632C51.0408 9.16623 51.1621 9.20153 51.2941 9.23224C51.4262 9.26294 51.5475 9.2875 51.658 9.30592C51.7686 9.32127 51.8607 9.35811 51.9344 9.41645C52.0112 9.47171 52.0496 9.54846 52.0496 9.64671V9.75263C52.0496 9.88772 52.0204 9.98597 51.9621 10.0474C51.9037 10.1057 51.8085 10.1349 51.6765 10.1349H51.3586C51.2266 10.1349 51.1314 10.1072 51.073 10.052C51.0177 9.99364 50.9901 9.9 50.9901 9.77105V9.68816C50.9901 9.63596 50.964 9.60987 50.9118 9.60987H50.6169C50.5647 9.60987 50.5386 9.63596 50.5386 9.68816Z" fill="#B3333A" fill-opacity="0.8"/>
<path d="M53.196 10.5263H53.4862C53.5384 10.5263 53.5645 10.5002 53.5645 10.448V9.36118C53.5645 9.33048 53.5829 9.31513 53.6198 9.31513H54.5089C54.5641 9.31513 54.5918 9.2875 54.5918 9.23224V9.00197C54.5918 8.94978 54.5641 8.92368 54.5089 8.92368H53.6198C53.5829 8.92368 53.5645 8.9068 53.5645 8.87303V8.00263C53.5645 7.97193 53.5829 7.95658 53.6198 7.95658H54.6424C54.6947 7.95658 54.7208 7.93048 54.7208 7.87829V7.64342C54.7208 7.59123 54.6947 7.56513 54.6424 7.56513H53.196C53.1438 7.56513 53.1177 7.59123 53.1177 7.64342V10.448C53.1177 10.5002 53.1438 10.5263 53.196 10.5263Z" fill="#B3333A" fill-opacity="0.8"/>
<path d="M56.9567 8.96053H57.2423C57.3713 8.96053 57.4619 8.98969 57.5141 9.04803C57.5694 9.10636 57.5971 9.20461 57.5971 9.34276V9.80789C57.5971 10.032 57.4834 10.1441 57.2562 10.1441H56.9936C56.7725 10.1441 56.6619 10.032 56.6619 9.80789V9.69276C56.6619 9.6375 56.6358 9.60987 56.5836 9.60987H56.2934C56.2412 9.60987 56.2151 9.6375 56.2151 9.69276V9.8125C56.2151 10.0366 56.2765 10.2116 56.3993 10.3375C56.5252 10.4634 56.7018 10.5263 56.9291 10.5263H57.3207C57.5448 10.5263 57.7199 10.4634 57.8458 10.3375C57.9717 10.2116 58.0347 10.0366 58.0347 9.8125V9.27829C58.0347 9.05417 57.9763 8.88531 57.8596 8.77171C57.7429 8.65504 57.574 8.59671 57.3529 8.59671H57.0811C56.8754 8.59671 56.7464 8.67193 56.6942 8.82237V7.98421H57.8827C57.9379 7.98421 57.9656 7.95811 57.9656 7.90592V7.64342C57.9656 7.59123 57.9379 7.56513 57.8827 7.56513H56.321C56.2688 7.56513 56.2427 7.59123 56.2427 7.64342V9.08947C56.2427 9.14167 56.2688 9.16776 56.321 9.16776H56.6112C56.6604 9.16776 56.7018 9.13246 56.7356 9.06184C56.7479 9.03728 56.7725 9.01425 56.8093 8.99276C56.8492 8.97127 56.8984 8.96053 56.9567 8.96053Z" fill="#B3333A" fill-opacity="0.8"/>
<path d="M59.1176 10.5263H59.4078C59.46 10.5263 59.4861 10.5002 59.4861 10.448V8.00263C59.4861 7.97193 59.503 7.95658 59.5368 7.95658H60.1172C60.1725 7.95658 60.2001 7.93048 60.2001 7.87829V7.64342C60.2001 7.59123 60.1725 7.56513 60.1172 7.56513H58.4081C58.3529 7.56513 58.3252 7.59123 58.3252 7.64342V7.87829C58.3252 7.93048 58.3529 7.95658 58.4081 7.95658H58.9886C59.0193 7.95658 59.0346 7.97193 59.0346 8.00263V10.448C59.0346 10.5002 59.0623 10.5263 59.1176 10.5263Z" fill="#B3333A" fill-opacity="0.8"/>
<path d="M60.6727 10.5263H60.9629C61.0151 10.5263 61.0413 10.5002 61.0413 10.448V9.28289C61.0413 9.25219 61.0597 9.23684 61.0965 9.23684H62.0685C62.0992 9.23684 62.1146 9.25219 62.1146 9.28289V10.448C62.1146 10.5002 62.1407 10.5263 62.1929 10.5263H62.4877C62.5399 10.5263 62.566 10.5002 62.566 10.448V7.64342C62.566 7.59123 62.5399 7.56513 62.4877 7.56513H62.1929C62.1407 7.56513 62.1146 7.59123 62.1146 7.64342V8.79474C62.1146 8.82544 62.0992 8.84079 62.0685 8.84079H61.0965C61.0597 8.84079 61.0413 8.82544 61.0413 8.79474V7.64342C61.0413 7.59123 61.0151 7.56513 60.9629 7.56513H60.6727C60.6205 7.56513 60.5944 7.59123 60.5944 7.64342V10.448C60.5944 10.5002 60.6205 10.5263 60.6727 10.5263Z" fill="#B3333A" fill-opacity="0.8"/>
<path d="M65.0052 10.5263H65.5396C65.7638 10.5263 65.9389 10.4634 66.0648 10.3375C66.1907 10.2116 66.2536 10.0366 66.2536 9.8125V9.59145C66.2536 9.53618 66.226 9.50855 66.1707 9.50855H65.8805C65.8283 9.50855 65.8022 9.53618 65.8022 9.59145V9.79408C65.8022 10.0213 65.6916 10.1349 65.4705 10.1349H65.0697C64.8486 10.1349 64.7381 10.0213 64.7381 9.79408V8.29737C64.7381 8.07018 64.8486 7.95658 65.0697 7.95658H65.4705C65.6916 7.95658 65.8022 8.07018 65.8022 8.29737V8.5C65.8022 8.55526 65.8283 8.58289 65.8805 8.58289H66.1707C66.226 8.58289 66.2536 8.55526 66.2536 8.5V8.27895C66.2536 8.05175 66.1907 7.87675 66.0648 7.75395C65.9389 7.62807 65.7638 7.56513 65.5396 7.56513H65.0052C64.778 7.56513 64.6014 7.62807 64.4755 7.75395C64.3526 7.87675 64.2912 8.05175 64.2912 8.27895V9.8125C64.2912 10.0366 64.3526 10.2116 64.4755 10.3375C64.6014 10.4634 64.778 10.5263 65.0052 10.5263Z" fill="#B3333A" fill-opacity="0.8"/>
<path d="M66.9034 10.5263H68.3959C68.4481 10.5263 68.4742 10.5002 68.4742 10.448V10.2086C68.4742 10.1533 68.4481 10.1257 68.3959 10.1257H67.3272C67.2903 10.1257 67.2719 10.1103 67.2719 10.0796V7.64342C67.2719 7.59123 67.2458 7.56513 67.1936 7.56513H66.9034C66.8511 7.56513 66.825 7.59123 66.825 7.64342V10.448C66.825 10.5002 66.8511 10.5263 66.9034 10.5263Z" fill="#B3333A" fill-opacity="0.8"/>
<path fill-rule="evenodd" clip-rule="evenodd" d="M68.7285 10.5263H69.0601C69.1031 10.5263 69.1308 10.5002 69.1431 10.448L69.3181 9.84934H70.3316L70.5066 10.448C70.5128 10.4787 70.5204 10.5002 70.5297 10.5125C70.5419 10.5217 70.5619 10.5263 70.5895 10.5263H70.9166C70.9627 10.5263 70.9796 10.5002 70.9673 10.448L70.1657 7.64342C70.1535 7.59123 70.1166 7.56513 70.0552 7.56513H69.5945C69.5362 7.56513 69.4993 7.59123 69.484 7.64342L68.6824 10.448C68.6701 10.5002 68.6855 10.5263 68.7285 10.5263ZM69.4103 9.48092L69.8156 8.00724H69.8341L70.2441 9.48092H69.4103Z" fill="#B3333A" fill-opacity="0.8"/>
<path d="M71.3674 9.68816V9.80789C71.3674 10.032 71.4319 10.2086 71.5609 10.3375C71.6898 10.4634 71.8664 10.5263 72.0906 10.5263H72.6066C72.8308 10.5263 73.0058 10.4634 73.1317 10.3375C73.2607 10.2086 73.3252 10.032 73.3252 9.80789V9.62829C73.3252 9.48092 73.2976 9.35658 73.2423 9.25526C73.187 9.15088 73.1148 9.07412 73.0258 9.025C72.9367 8.97281 72.8384 8.93136 72.7309 8.90066C72.6235 8.86996 72.516 8.84693 72.4085 8.83158C72.3041 8.81623 72.2073 8.79781 72.1183 8.77632C71.9186 8.72719 71.8188 8.63355 71.8188 8.49539V8.35263C71.8188 8.20833 71.8465 8.10702 71.9017 8.04868C71.9601 7.98728 72.0553 7.95658 72.1874 7.95658H72.4776C72.6096 7.95658 72.7033 7.98575 72.7586 8.04408C72.8169 8.09934 72.8461 8.19298 72.8461 8.325V8.38487C72.8461 8.43706 72.8722 8.46316 72.9244 8.46316H73.2192C73.2715 8.46316 73.2976 8.43706 73.2976 8.38487V8.28355C73.2976 8.05943 73.2331 7.88443 73.1041 7.75855C72.9782 7.62961 72.8016 7.56513 72.5743 7.56513H72.086C71.8618 7.56513 71.6852 7.62961 71.5563 7.75855C71.4303 7.88443 71.3674 8.05943 71.3674 8.28355V8.47697C71.3674 8.6489 71.4042 8.79013 71.4779 8.90066C71.5547 9.01118 71.6484 9.0864 71.7589 9.12632C71.8695 9.16623 71.9908 9.20153 72.1229 9.23224C72.2549 9.26294 72.3762 9.2875 72.4868 9.30592C72.5973 9.32127 72.6895 9.35811 72.7632 9.41645C72.84 9.47171 72.8784 9.54846 72.8784 9.64671V9.75263C72.8784 9.88772 72.8492 9.98597 72.7908 10.0474C72.7325 10.1057 72.6373 10.1349 72.5052 10.1349H72.1874C72.0553 10.1349 71.9601 10.1072 71.9017 10.052C71.8465 9.99364 71.8188 9.9 71.8188 9.77105V9.68816C71.8188 9.63596 71.7927 9.60987 71.7405 9.60987H71.4457C71.3935 9.60987 71.3674 9.63596 71.3674 9.68816Z" fill="#B3333A" fill-opacity="0.8"/>
<path d="M73.8911 9.68816V9.80789C73.8911 10.032 73.9556 10.2086 74.0846 10.3375C74.2136 10.4634 74.3902 10.5263 74.6144 10.5263H75.1303C75.3545 10.5263 75.5295 10.4634 75.6555 10.3375C75.7844 10.2086 75.8489 10.032 75.8489 9.80789V9.62829C75.8489 9.48092 75.8213 9.35658 75.766 9.25526C75.7107 9.15088 75.6386 9.07412 75.5495 9.025C75.4604 8.97281 75.3622 8.93136 75.2547 8.90066C75.1472 8.86996 75.0397 8.84693 74.9322 8.83158C74.8278 8.81623 74.7311 8.79781 74.642 8.77632C74.4424 8.72719 74.3426 8.63355 74.3426 8.49539V8.35263C74.3426 8.20833 74.3702 8.10702 74.4255 8.04868C74.4838 7.98728 74.579 7.95658 74.7111 7.95658H75.0013C75.1334 7.95658 75.227 7.98575 75.2823 8.04408C75.3407 8.09934 75.3699 8.19298 75.3699 8.325V8.38487C75.3699 8.43706 75.396 8.46316 75.4482 8.46316H75.743C75.7952 8.46316 75.8213 8.43706 75.8213 8.38487V8.28355C75.8213 8.05943 75.7568 7.88443 75.6278 7.75855C75.5019 7.62961 75.3253 7.56513 75.0981 7.56513H74.6098C74.3856 7.56513 74.209 7.62961 74.08 7.75855C73.9541 7.88443 73.8911 8.05943 73.8911 8.28355V8.47697C73.8911 8.6489 73.928 8.79013 74.0017 8.90066C74.0785 9.01118 74.1721 9.0864 74.2827 9.12632C74.3932 9.16623 74.5146 9.20153 74.6466 9.23224C74.7787 9.26294 74.9 9.2875 75.0105 9.30592C75.1211 9.32127 75.2132 9.35811 75.2869 9.41645C75.3637 9.47171 75.4021 9.54846 75.4021 9.64671V9.75263C75.4021 9.88772 75.3729 9.98597 75.3146 10.0474C75.2562 10.1057 75.161 10.1349 75.029 10.1349H74.7111C74.579 10.1349 74.4838 10.1072 74.4255 10.052C74.3702 9.99364 74.3426 9.9 74.3426 9.77105V9.68816C74.3426 9.63596 74.3165 9.60987 74.2643 9.60987H73.9694C73.9172 9.60987 73.8911 9.63596 73.8911 9.68816Z" fill="#B3333A" fill-opacity="0.8"/>
<path fill-rule="evenodd" clip-rule="evenodd" d="M78.2358 10.5263H78.7701C78.9974 10.5263 79.174 10.4634 79.2999 10.3375C79.4258 10.2116 79.4888 10.0366 79.4888 9.8125V8.27895C79.4888 8.05175 79.4258 7.87675 79.2999 7.75395C79.174 7.62807 78.9974 7.56513 78.7701 7.56513H78.2358C78.0085 7.56513 77.8319 7.62807 77.706 7.75395C77.5832 7.87675 77.5218 8.05175 77.5218 8.27895V9.8125C77.5218 10.0366 77.5832 10.2116 77.706 10.3375C77.8319 10.4634 78.0085 10.5263 78.2358 10.5263ZM78.701 10.1349H78.3003C78.0792 10.1349 77.9686 10.0213 77.9686 9.79408V8.29737C77.9686 8.07018 78.0792 7.95658 78.3003 7.95658H78.701C78.9252 7.95658 79.0373 8.07018 79.0373 8.29737V9.79408C79.0373 10.0213 78.9252 10.1349 78.701 10.1349Z" fill="#B3333A" fill-opacity="0.8"/>
<path d="M80.1879 10.5263H80.4781C80.5303 10.5263 80.5564 10.5002 80.5564 10.448V9.36118C80.5564 9.33048 80.5748 9.31513 80.6117 9.31513H81.5008C81.556 9.31513 81.5837 9.2875 81.5837 9.23224V9.00197C81.5837 8.94978 81.556 8.92368 81.5008 8.92368H80.6117C80.5748 8.92368 80.5564 8.9068 80.5564 8.87303V8.00263C80.5564 7.97193 80.5748 7.95658 80.6117 7.95658H81.6343C81.6866 7.95658 81.7127 7.93048 81.7127 7.87829V7.64342C81.7127 7.59123 81.6866 7.56513 81.6343 7.56513H80.1879C80.1357 7.56513 80.1096 7.59123 80.1096 7.64342V10.448C80.1096 10.5002 80.1357 10.5263 80.1879 10.5263Z" fill="#B3333A" fill-opacity="0.8"/>
<path d="M82.2797 10.5263H82.57C82.6222 10.5263 82.6483 10.5002 82.6483 10.448V9.36118C82.6483 9.33048 82.6667 9.31513 82.7036 9.31513H83.5926C83.6479 9.31513 83.6755 9.2875 83.6755 9.23224V9.00197C83.6755 8.94978 83.6479 8.92368 83.5926 8.92368H82.7036C82.6667 8.92368 82.6483 8.9068 82.6483 8.87303V8.00263C82.6483 7.97193 82.6667 7.95658 82.7036 7.95658H83.7262C83.7784 7.95658 83.8045 7.93048 83.8045 7.87829V7.64342C83.8045 7.59123 83.7784 7.56513 83.7262 7.56513H82.2797C82.2275 7.56513 82.2014 7.59123 82.2014 7.64342V10.448C82.2014 10.5002 82.2275 10.5263 82.2797 10.5263Z" fill="#B3333A" fill-opacity="0.8"/>
<path d="M84.7632 10.448V7.64342C84.7632 7.59123 84.7371 7.56513 84.6849 7.56513H84.3946C84.3424 7.56513 84.3163 7.59123 84.3163 7.64342V10.448C84.3163 10.5002 84.3424 10.5263 84.3946 10.5263H84.6849C84.7371 10.5263 84.7632 10.5002 84.7632 10.448Z" fill="#B3333A" fill-opacity="0.8"/>
<path d="M86.1264 10.5263H86.6608C86.885 10.5263 87.06 10.4634 87.1859 10.3375C87.3118 10.2116 87.3748 10.0366 87.3748 9.8125V9.59145C87.3748 9.53618 87.3472 9.50855 87.2919 9.50855H87.0017C86.9495 9.50855 86.9234 9.53618 86.9234 9.59145V9.79408C86.9234 10.0213 86.8128 10.1349 86.5917 10.1349H86.1909C85.9698 10.1349 85.8592 10.0213 85.8592 9.79408V8.29737C85.8592 8.07018 85.9698 7.95658 86.1909 7.95658H86.5917C86.8128 7.95658 86.9234 8.07018 86.9234 8.29737V8.5C86.9234 8.55526 86.9495 8.58289 87.0017 8.58289H87.2919C87.3472 8.58289 87.3748 8.55526 87.3748 8.5V8.27895C87.3748 8.05175 87.3118 7.87675 87.1859 7.75395C87.06 7.62807 86.885 7.56513 86.6608 7.56513H86.1264C85.8991 7.56513 85.7226 7.62807 85.5966 7.75395C85.4738 7.87675 85.4124 8.05175 85.4124 8.27895V9.8125C85.4124 10.0366 85.4738 10.2116 85.5966 10.3375C85.7226 10.4634 85.8991 10.5263 86.1264 10.5263Z" fill="#B3333A" fill-opacity="0.8"/>
<path d="M88.0245 10.5263H89.4986C89.5478 10.5263 89.5723 10.5002 89.5723 10.448V10.2132C89.5723 10.161 89.5478 10.1349 89.4986 10.1349H88.4483C88.4115 10.1349 88.393 10.118 88.393 10.0842V9.26447C88.393 9.23377 88.4115 9.21842 88.4483 9.21842H89.3374C89.3927 9.21842 89.4203 9.19232 89.4203 9.14013V8.90526C89.4203 8.85307 89.3927 8.82697 89.3374 8.82697H88.4483C88.4115 8.82697 88.393 8.81162 88.393 8.78092V8.00263C88.393 7.97193 88.4115 7.95658 88.4483 7.95658H89.4986C89.5478 7.95658 89.5723 7.93048 89.5723 7.87829V7.64342C89.5723 7.59123 89.5478 7.56513 89.4986 7.56513H88.0245C87.9723 7.56513 87.9462 7.59123 87.9462 7.64342V10.448C87.9462 10.5002 87.9723 10.5263 88.0245 10.5263Z" fill="#B3333A" fill-opacity="0.8"/>
<path fill-rule="evenodd" clip-rule="evenodd" d="M90.2379 10.5263H90.5281C90.5803 10.5263 90.6064 10.5002 90.6064 10.448V9.43487C90.6064 9.40417 90.6248 9.38882 90.6617 9.38882H91.1269L91.6198 10.448C91.6413 10.5002 91.6889 10.5263 91.7626 10.5263H92.0483C92.122 10.5263 92.1419 10.4956 92.1081 10.4342L91.5968 9.35658V9.33816C91.8886 9.24605 92.0344 9.02346 92.0344 8.67039V8.28355C92.0344 8.05943 91.9699 7.88443 91.841 7.75855C91.715 7.62961 91.54 7.56513 91.3158 7.56513H90.2379C90.1856 7.56513 90.1595 7.59123 90.1595 7.64342V10.448C90.1595 10.5002 90.1856 10.5263 90.2379 10.5263ZM91.2421 9.02039H90.6571C90.6233 9.02039 90.6064 9.00504 90.6064 8.97434V8.00263C90.6064 7.97193 90.6233 7.95658 90.6571 7.95658H91.2421C91.4694 7.95658 91.583 8.07018 91.583 8.29737V8.68421C91.583 8.90833 91.4694 9.02039 91.2421 9.02039Z" fill="#B3333A" fill-opacity="0.8"/>
<path d="M92.601 9.68816V9.80789C92.601 10.032 92.6655 10.2086 92.7945 10.3375C92.9235 10.4634 93.1001 10.5263 93.3243 10.5263H93.8402C94.0644 10.5263 94.2394 10.4634 94.3653 10.3375C94.4943 10.2086 94.5588 10.032 94.5588 9.80789V9.62829C94.5588 9.48092 94.5312 9.35658 94.4759 9.25526C94.4206 9.15088 94.3485 9.07412 94.2594 9.025C94.1703 8.97281 94.0721 8.93136 93.9646 8.90066C93.8571 8.86996 93.7496 8.84693 93.6421 8.83158C93.5377 8.81623 93.441 8.79781 93.3519 8.77632C93.1523 8.72719 93.0525 8.63355 93.0525 8.49539V8.35263C93.0525 8.20833 93.0801 8.10702 93.1354 8.04868C93.1937 7.98728 93.2889 7.95658 93.421 7.95658H93.7112C93.8433 7.95658 93.9369 7.98575 93.9922 8.04408C94.0506 8.09934 94.0797 8.19298 94.0797 8.325V8.38487C94.0797 8.43706 94.1058 8.46316 94.158 8.46316H94.4529C94.5051 8.46316 94.5312 8.43706 94.5312 8.38487V8.28355C94.5312 8.05943 94.4667 7.88443 94.3377 7.75855C94.2118 7.62961 94.0352 7.56513 93.8079 7.56513H93.3196C93.0955 7.56513 92.9189 7.62961 92.7899 7.75855C92.664 7.88443 92.601 8.05943 92.601 8.28355V8.47697C92.601 8.6489 92.6379 8.79013 92.7116 8.90066C92.7883 9.01118 92.882 9.0864 92.9926 9.12632C93.1031 9.16623 93.2244 9.20153 93.3565 9.23224C93.4886 9.26294 93.6099 9.2875 93.7204 9.30592C93.831 9.32127 93.9231 9.35811 93.9968 9.41645C94.0736 9.47171 94.112 9.54846 94.112 9.64671V9.75263C94.112 9.88772 94.0828 9.98597 94.0245 10.0474C93.9661 10.1057 93.8709 10.1349 93.7388 10.1349H93.421C93.2889 10.1349 93.1937 10.1072 93.1354 10.052C93.0801 9.99364 93.0525 9.9 93.0525 9.77105V9.68816C93.0525 9.63596 93.0264 9.60987 92.9741 9.60987H92.6793C92.6271 9.60987 92.601 9.63596 92.601 9.68816Z" fill="#B3333A" fill-opacity="0.8"/>
<path fill-rule="evenodd" clip-rule="evenodd" d="M36.3607 16.4474H36.6924C36.7354 16.4474 36.763 16.4213 36.7753 16.3691L36.9503 15.7704H37.9638L38.1388 16.3691C38.145 16.3998 38.1527 16.4213 38.1619 16.4336C38.1742 16.4428 38.1941 16.4474 38.2218 16.4474H38.5488C38.5949 16.4474 38.6118 16.4213 38.5995 16.3691L37.798 13.5645C37.7857 13.5123 37.7488 13.4862 37.6874 13.4862H37.2267C37.1684 13.4862 37.1315 13.5123 37.1162 13.5645L36.3146 16.3691C36.3023 16.4213 36.3177 16.4474 36.3607 16.4474ZM37.0425 15.402L37.4479 13.9283H37.4663L37.8763 15.402H37.0425Z" fill="#B3333A" fill-opacity="0.8"/>
<path fill-rule="evenodd" clip-rule="evenodd" d="M39.1332 16.4474H39.4234C39.4756 16.4474 39.5017 16.4213 39.5017 16.3691V15.3559C39.5017 15.3252 39.5201 15.3099 39.557 15.3099H40.0223L40.5152 16.3691C40.5367 16.4213 40.5843 16.4474 40.658 16.4474H40.9436C41.0173 16.4474 41.0373 16.4167 41.0035 16.3553L40.4921 15.2776V15.2592C40.7839 15.1671 40.9298 14.9445 40.9298 14.5914V14.2046C40.9298 13.9805 40.8653 13.8055 40.7363 13.6796C40.6104 13.5507 40.4353 13.4862 40.2111 13.4862H39.1332C39.081 13.4862 39.0549 13.5123 39.0549 13.5645V16.3691C39.0549 16.4213 39.081 16.4474 39.1332 16.4474ZM40.1374 14.9414H39.5524C39.5186 14.9414 39.5017 14.9261 39.5017 14.8954V13.9237C39.5017 13.893 39.5186 13.8776 39.5524 13.8776H40.1374C40.3647 13.8776 40.4783 13.9912 40.4783 14.2184V14.6053C40.4783 14.8294 40.3647 14.9414 40.1374 14.9414Z" fill="#B3333A" fill-opacity="0.8"/>
<path d="M41.6299 16.4474H43.1041C43.1532 16.4474 43.1778 16.4213 43.1778 16.3691V16.1342C43.1778 16.082 43.1532 16.0559 43.1041 16.0559H42.0537C42.0169 16.0559 41.9985 16.039 41.9985 16.0053V15.1855C41.9985 15.1548 42.0169 15.1395 42.0537 15.1395H42.9428C42.9981 15.1395 43.0257 15.1134 43.0257 15.0612V14.8263C43.0257 14.7741 42.9981 14.748 42.9428 14.748H42.0537C42.0169 14.748 41.9985 14.7327 41.9985 14.702V13.9237C41.9985 13.893 42.0169 13.8776 42.0537 13.8776H43.1041C43.1532 13.8776 43.1778 13.8515 43.1778 13.7993V13.5645C43.1778 13.5123 43.1532 13.4862 43.1041 13.4862H41.6299C41.5777 13.4862 41.5516 13.5123 41.5516 13.5645V16.3691C41.5516 16.4213 41.5777 16.4474 41.6299 16.4474Z" fill="#B3333A" fill-opacity="0.8"/>
<path fill-rule="evenodd" clip-rule="evenodd" d="M44.6922 16.4474H45.0239C45.0669 16.4474 45.0945 16.4213 45.1068 16.3691L45.2818 15.7704H46.2953L46.4703 16.3691C46.4765 16.3998 46.4842 16.4213 46.4934 16.4336C46.5057 16.4428 46.5256 16.4474 46.5533 16.4474H46.8803C46.9264 16.4474 46.9433 16.4213 46.931 16.3691L46.1295 13.5645C46.1172 13.5123 46.0803 13.4862 46.0189 13.4862H45.5582C45.4999 13.4862 45.463 13.5123 45.4477 13.5645L44.6461 16.3691C44.6338 16.4213 44.6492 16.4474 44.6922 16.4474ZM45.374 15.402L45.7794 13.9283H45.7978L46.2078 15.402H45.374Z" fill="#B3333A" fill-opacity="0.8"/>
<path d="M47.4647 16.4474H48.9572C49.0094 16.4474 49.0355 16.4213 49.0355 16.3691V16.1296C49.0355 16.0743 49.0094 16.0467 48.9572 16.0467H47.8885C47.8516 16.0467 47.8332 16.0314 47.8332 16.0007V13.5645C47.8332 13.5123 47.8071 13.4862 47.7549 13.4862H47.4647C47.4125 13.4862 47.3864 13.5123 47.3864 13.5645V16.3691C47.3864 16.4213 47.4125 16.4474 47.4647 16.4474Z" fill="#B3333A" fill-opacity="0.8"/>
<path d="M49.5386 16.4474H51.0311C51.0833 16.4474 51.1094 16.4213 51.1094 16.3691V16.1296C51.1094 16.0743 51.0833 16.0467 51.0311 16.0467H49.9624C49.9255 16.0467 49.9071 16.0314 49.9071 16.0007V13.5645C49.9071 13.5123 49.881 13.4862 49.8288 13.4862H49.5386C49.4864 13.4862 49.4603 13.5123 49.4603 13.5645V16.3691C49.4603 16.4213 49.4864 16.4474 49.5386 16.4474Z" fill="#B3333A" fill-opacity="0.8"/>
<path fill-rule="evenodd" clip-rule="evenodd" d="M52.2021 16.4474H52.7365C52.9637 16.4474 53.1403 16.3844 53.2662 16.2586C53.3921 16.1327 53.4551 15.9577 53.4551 15.7336V14.2C53.4551 13.9728 53.3921 13.7978 53.2662 13.675C53.1403 13.5491 52.9637 13.4862 52.7365 13.4862H52.2021C51.9748 13.4862 51.7982 13.5491 51.6723 13.675C51.5495 13.7978 51.4881 13.9728 51.4881 14.2V15.7336C51.4881 15.9577 51.5495 16.1327 51.6723 16.2586C51.7982 16.3844 51.9748 16.4474 52.2021 16.4474ZM52.6674 16.0559H52.2666C52.0455 16.0559 51.9349 15.9423 51.9349 15.7151V14.2184C51.9349 13.9912 52.0455 13.8776 52.2666 13.8776H52.6674C52.8916 13.8776 53.0036 13.9912 53.0036 14.2184V15.7151C53.0036 15.9423 52.8916 16.0559 52.6674 16.0559Z" fill="#B3333A" fill-opacity="0.8"/>
<path d="M54.4813 16.4474H54.9696C55.0187 16.4474 55.0479 16.4213 55.0571 16.3691L55.5776 14.0388H55.5961L56.1166 16.3691C56.1258 16.4213 56.1565 16.4474 56.2087 16.4474H56.697C56.7492 16.4474 56.78 16.4213 56.7892 16.3691L57.3374 13.5691C57.3466 13.5138 57.3205 13.4862 57.259 13.4862H56.9043C56.846 13.4862 56.8153 13.5138 56.8122 13.5691L56.4391 15.9776H56.4114L55.8632 13.5553C55.854 13.5092 55.8249 13.4862 55.7757 13.4862H55.3888C55.3396 13.4862 55.312 13.5092 55.3058 13.5553L54.7623 15.9776H54.7346L54.3615 13.5645C54.3584 13.5123 54.3277 13.4862 54.2693 13.4862H53.9146C53.8563 13.4862 53.8302 13.5123 53.8363 13.5645L54.3845 16.3691C54.3937 16.4213 54.426 16.4474 54.4813 16.4474Z" fill="#B3333A" fill-opacity="0.8"/>
<path d="M57.8476 16.4474H59.3217C59.3708 16.4474 59.3954 16.4213 59.3954 16.3691V16.1342C59.3954 16.082 59.3708 16.0559 59.3217 16.0559H58.2714C58.2345 16.0559 58.2161 16.039 58.2161 16.0053V15.1855C58.2161 15.1548 58.2345 15.1395 58.2714 15.1395H59.1605C59.2157 15.1395 59.2434 15.1134 59.2434 15.0612V14.8263C59.2434 14.7741 59.2157 14.748 59.1605 14.748H58.2714C58.2345 14.748 58.2161 14.7327 58.2161 14.702V13.9237C58.2161 13.893 58.2345 13.8776 58.2714 13.8776H59.3217C59.3708 13.8776 59.3954 13.8515 59.3954 13.7993V13.5645C59.3954 13.5123 59.3708 13.4862 59.3217 13.4862H57.8476C57.7954 13.4862 57.7693 13.5123 57.7693 13.5645V16.3691C57.7693 16.4213 57.7954 16.4474 57.8476 16.4474Z" fill="#B3333A" fill-opacity="0.8"/>
<path fill-rule="evenodd" clip-rule="evenodd" d="M59.9826 13.5645V16.3691C59.9826 16.4213 60.0087 16.4474 60.0609 16.4474H61.1941C61.4183 16.4474 61.5934 16.3844 61.7193 16.2586C61.8483 16.1327 61.9128 15.9577 61.9128 15.7336V14.2C61.9128 13.9728 61.8483 13.7978 61.7193 13.675C61.5934 13.5491 61.4183 13.4862 61.1941 13.4862H60.0609C60.0087 13.4862 59.9826 13.5123 59.9826 13.5645ZM61.1296 16.0559H60.4801C60.4463 16.0559 60.4294 16.039 60.4294 16.0053V13.9237C60.4294 13.893 60.4463 13.8776 60.4801 13.8776H61.1296C61.3508 13.8776 61.4613 13.9912 61.4613 14.2184V15.7151C61.4613 15.9423 61.3508 16.0559 61.1296 16.0559Z" fill="#B3333A" fill-opacity="0.8"/>
<path d="M64.156 16.4474H64.4463C64.4985 16.4474 64.5246 16.4213 64.5246 16.3691V13.9237C64.5246 13.893 64.5415 13.8776 64.5753 13.8776H65.1557C65.211 13.8776 65.2386 13.8515 65.2386 13.7993V13.5645C65.2386 13.5123 65.211 13.4862 65.1557 13.4862H63.4466C63.3913 13.4862 63.3637 13.5123 63.3637 13.5645V13.7993C63.3637 13.8515 63.3913 13.8776 63.4466 13.8776H64.0271C64.0578 13.8776 64.0731 13.893 64.0731 13.9237V16.3691C64.0731 16.4213 64.1008 16.4474 64.156 16.4474Z" fill="#B3333A" fill-opacity="0.8"/>
<path fill-rule="evenodd" clip-rule="evenodd" d="M66.3009 16.4474H66.8352C67.0625 16.4474 67.2391 16.3844 67.365 16.2586C67.4909 16.1327 67.5539 15.9577 67.5539 15.7336V14.2C67.5539 13.9728 67.4909 13.7978 67.365 13.675C67.2391 13.5491 67.0625 13.4862 66.8352 13.4862H66.3009C66.0736 13.4862 65.897 13.5491 65.7711 13.675C65.6483 13.7978 65.5868 13.9728 65.5868 14.2V15.7336C65.5868 15.9577 65.6483 16.1327 65.7711 16.2586C65.897 16.3844 66.0736 16.4474 66.3009 16.4474ZM66.7661 16.0559H66.3654C66.1442 16.0559 66.0337 15.9423 66.0337 15.7151V14.2184C66.0337 13.9912 66.1442 13.8776 66.3654 13.8776H66.7661C66.9903 13.8776 67.1024 13.9912 67.1024 14.2184V15.7151C67.1024 15.9423 66.9903 16.0559 66.7661 16.0559Z" fill="#B3333A" fill-opacity="0.8"/>
<path d="M71.8152 13.4862H71.2992C71.2593 13.4862 71.2363 13.5031 71.2301 13.5368L70.5944 15.3145H70.5714L69.9403 13.5368C69.9249 13.5031 69.9003 13.4862 69.8666 13.4862H69.3506C69.2984 13.4862 69.2723 13.5123 69.2723 13.5645V16.3691C69.2723 16.4213 69.2984 16.4474 69.3506 16.4474H69.6316C69.6623 16.4474 69.6823 16.4428 69.6915 16.4336C69.7038 16.4213 69.7099 16.3998 69.7099 16.3691V14.0388H69.7284L70.341 15.7289C70.3595 15.7781 70.3917 15.8026 70.4378 15.8026H70.7326C70.7817 15.8026 70.8155 15.7781 70.834 15.7289L71.4328 14.0434H71.4512V16.3691C71.4512 16.4213 71.4773 16.4474 71.5296 16.4474H71.8152C71.8674 16.4474 71.8935 16.4213 71.8935 16.3691V13.5645C71.8935 13.5123 71.8674 13.4862 71.8152 13.4862Z" fill="#B3333A" fill-opacity="0.8"/>
<path fill-rule="evenodd" clip-rule="evenodd" d="M72.3949 16.4474H72.7265C72.7695 16.4474 72.7972 16.4213 72.8095 16.3691L72.9845 15.7704H73.998L74.173 16.3691C74.1792 16.3998 74.1868 16.4213 74.1961 16.4336C74.2083 16.4428 74.2283 16.4474 74.2559 16.4474H74.583C74.6291 16.4474 74.646 16.4213 74.6337 16.3691L73.8321 13.5645C73.8199 13.5123 73.783 13.4862 73.7216 13.4862H73.2609C73.2026 13.4862 73.1657 13.5123 73.1504 13.5645L72.3488 16.3691C72.3365 16.4213 72.3519 16.4474 72.3949 16.4474ZM73.0767 15.402L73.482 13.9283H73.5005L73.9105 15.402H73.0767Z" fill="#B3333A" fill-opacity="0.8"/>
<path d="M75.1674 16.4474H75.453C75.5052 16.4474 75.5313 16.4213 75.5313 16.3691V14.3934H75.5497L76.6553 16.3737C76.686 16.4228 76.7259 16.4474 76.7751 16.4474H77.0238C77.0761 16.4474 77.1022 16.4213 77.1022 16.3691V13.5645C77.1022 13.5123 77.0761 13.4862 77.0238 13.4862H76.7382C76.686 13.4862 76.6599 13.5123 76.6599 13.5645V15.5401H76.6415L75.5267 13.5368C75.5083 13.5031 75.4745 13.4862 75.4253 13.4862H75.1674C75.1152 13.4862 75.0891 13.5123 75.0891 13.5645V16.3691C75.0891 16.4213 75.1152 16.4474 75.1674 16.4474Z" fill="#B3333A" fill-opacity="0.8"/>
<path d="M78.2446 16.3691V13.5645C78.2446 13.5123 78.2185 13.4862 78.1663 13.4862H77.8761C77.8239 13.4862 77.7978 13.5123 77.7978 13.5645V16.3691C77.7978 16.4213 77.8239 16.4474 77.8761 16.4474H78.1663C78.2185 16.4474 78.2446 16.4213 78.2446 16.3691Z" fill="#B3333A" fill-opacity="0.8"/>
<path fill-rule="evenodd" clip-rule="evenodd" d="M79.0182 16.4474H79.3084C79.3606 16.4474 79.3868 16.4213 79.3868 16.3691V15.4388C79.3868 15.4081 79.4052 15.3928 79.442 15.3928H80.1146C80.3388 15.3928 80.5138 15.3298 80.6397 15.2039C80.7657 15.0781 80.8286 14.9031 80.8286 14.6789V14.2C80.8286 13.9728 80.7657 13.7978 80.6397 13.675C80.5138 13.5491 80.3388 13.4862 80.1146 13.4862H79.0182C78.966 13.4862 78.9399 13.5123 78.9399 13.5645V16.3691C78.9399 16.4213 78.966 16.4474 79.0182 16.4474ZM80.0501 14.9967H79.4374C79.4036 14.9967 79.3868 14.9814 79.3868 14.9507V13.9237C79.3868 13.893 79.4036 13.8776 79.4374 13.8776H80.0501C80.2681 13.8776 80.3772 13.9912 80.3772 14.2184V14.6559C80.3772 14.8831 80.2681 14.9967 80.0501 14.9967Z" fill="#B3333A" fill-opacity="0.8"/>
<path d="M83.2117 13.4862H82.9215C82.8693 13.4862 82.8432 13.5123 82.8432 13.5645V15.7151C82.8432 15.9423 82.7311 16.0559 82.5069 16.0559H82.1292C81.908 16.0559 81.7975 15.9423 81.7975 15.7151V13.5645C81.7975 13.5123 81.7714 13.4862 81.7192 13.4862H81.429C81.3767 13.4862 81.3506 13.5123 81.3506 13.5645V15.7336C81.3506 15.9577 81.4136 16.1327 81.5395 16.2586C81.6654 16.3844 81.8405 16.4474 82.0647 16.4474H82.576C82.8002 16.4474 82.9752 16.3844 83.1012 16.2586C83.2301 16.1327 83.2946 15.9577 83.2946 15.7336V13.5599C83.2946 13.5107 83.267 13.4862 83.2117 13.4862Z" fill="#B3333A" fill-opacity="0.8"/>
<path d="M84.0162 16.4474H85.5088C85.561 16.4474 85.5871 16.4213 85.5871 16.3691V16.1296C85.5871 16.0743 85.561 16.0467 85.5088 16.0467H84.44C84.4032 16.0467 84.3848 16.0314 84.3848 16.0007V13.5645C84.3848 13.5123 84.3586 13.4862 84.3064 13.4862H84.0162C83.964 13.4862 83.9379 13.5123 83.9379 13.5645V16.3691C83.9379 16.4213 83.964 16.4474 84.0162 16.4474Z" fill="#B3333A" fill-opacity="0.8"/>
<path fill-rule="evenodd" clip-rule="evenodd" d="M85.8413 16.4474H86.173C86.216 16.4474 86.2436 16.4213 86.2559 16.3691L86.431 15.7704H87.4444L87.6195 16.3691C87.6256 16.3998 87.6333 16.4213 87.6425 16.4336C87.6548 16.4428 87.6748 16.4474 87.7024 16.4474H88.0295C88.0756 16.4474 88.0924 16.4213 88.0802 16.3691L87.2786 13.5645C87.2663 13.5123 87.2295 13.4862 87.168 13.4862H86.7074C86.649 13.4862 86.6122 13.5123 86.5968 13.5645L85.7953 16.3691C85.783 16.4213 85.7983 16.4474 85.8413 16.4474ZM86.5231 15.402L86.9285 13.9283H86.9469L87.3569 15.402H86.5231Z" fill="#B3333A" fill-opacity="0.8"/>
<path d="M89.0561 16.4474H89.3463C89.3985 16.4474 89.4246 16.4213 89.4246 16.3691V13.9237C89.4246 13.893 89.4415 13.8776 89.4753 13.8776H90.0557C90.111 13.8776 90.1386 13.8515 90.1386 13.7993V13.5645C90.1386 13.5123 90.111 13.4862 90.0557 13.4862H88.3467C88.2914 13.4862 88.2637 13.5123 88.2637 13.5645V13.7993C88.2637 13.8515 88.2914 13.8776 88.3467 13.8776H88.9271C88.9578 13.8776 88.9732 13.893 88.9732 13.9237V16.3691C88.9732 16.4213 89.0008 16.4474 89.0561 16.4474Z" fill="#B3333A" fill-opacity="0.8"/>
<path d="M90.6112 16.4474H92.0854C92.1345 16.4474 92.1591 16.4213 92.1591 16.3691V16.1342C92.1591 16.082 92.1345 16.0559 92.0854 16.0559H91.035C90.9982 16.0559 90.9798 16.039 90.9798 16.0053V15.1855C90.9798 15.1548 90.9982 15.1395 91.035 15.1395H91.9241C91.9794 15.1395 92.007 15.1134 92.007 15.0612V14.8263C92.007 14.7741 91.9794 14.748 91.9241 14.748H91.035C90.9982 14.748 90.9798 14.7327 90.9798 14.702V13.9237C90.9798 13.893 90.9982 13.8776 91.035 13.8776H92.0854C92.1345 13.8776 92.1591 13.8515 92.1591 13.7993V13.5645C92.1591 13.5123 92.1345 13.4862 92.0854 13.4862H90.6112C90.559 13.4862 90.5329 13.5123 90.5329 13.5645V16.3691C90.5329 16.4213 90.559 16.4474 90.6112 16.4474Z" fill="#B3333A" fill-opacity="0.8"/>
<path d="M93.101 16.3691V15.8072C93.101 15.7581 93.0764 15.7336 93.0273 15.7336H92.714C92.6618 15.7336 92.6357 15.7581 92.6357 15.8072V16.3691C92.6357 16.4213 92.6618 16.4474 92.714 16.4474H93.0273C93.0764 16.4474 93.101 16.4213 93.101 16.3691Z" fill="#B3333A" fill-opacity="0.8"/>
<path fill-rule="evenodd" clip-rule="evenodd" d="M36.3607 22.3684H36.6924C36.7354 22.3684 36.763 22.3423 36.7753 22.2901L36.9503 21.6914H37.9638L38.1388 22.2901C38.145 22.3208 38.1527 22.3423 38.1619 22.3546C38.1742 22.3638 38.1941 22.3684 38.2218 22.3684H38.5488C38.5949 22.3684 38.6118 22.3423 38.5995 22.2901L37.798 19.4855C37.7857 19.4333 37.7488 19.4072 37.6874 19.4072H37.2267C37.1684 19.4072 37.1315 19.4333 37.1162 19.4855L36.3146 22.2901C36.3023 22.3423 36.3177 22.3684 36.3607 22.3684ZM37.0425 21.323L37.4479 19.8493H37.4663L37.8763 21.323H37.0425Z" fill="#B3333A" fill-opacity="0.8"/>
<path d="M39.7228 22.3684H40.2572C40.4814 22.3684 40.6564 22.3055 40.7824 22.1796C40.9083 22.0537 40.9712 21.8787 40.9712 21.6546V21.4336C40.9712 21.3783 40.9436 21.3507 40.8883 21.3507H40.5981C40.5459 21.3507 40.5198 21.3783 40.5198 21.4336V21.6362C40.5198 21.8634 40.4092 21.977 40.1881 21.977H39.7873C39.5662 21.977 39.4557 21.8634 39.4557 21.6362V20.1395C39.4557 19.9123 39.5662 19.7987 39.7873 19.7987H40.1881C40.4092 19.7987 40.5198 19.9123 40.5198 20.1395V20.3421C40.5198 20.3974 40.5459 20.425 40.5981 20.425H40.8883C40.9436 20.425 40.9712 20.3974 40.9712 20.3421V20.1211C40.9712 19.8939 40.9083 19.7189 40.7824 19.5961C40.6564 19.4702 40.4814 19.4072 40.2572 19.4072H39.7228C39.4956 19.4072 39.319 19.4702 39.1931 19.5961C39.0702 19.7189 39.0088 19.8939 39.0088 20.1211V21.6546C39.0088 21.8787 39.0702 22.0537 39.1931 22.1796C39.319 22.3055 39.4956 22.3684 39.7228 22.3684Z" fill="#B3333A" fill-opacity="0.8"/>
<path d="M42.2106 22.3684H42.745C42.9691 22.3684 43.1442 22.3055 43.2701 22.1796C43.396 22.0537 43.459 21.8787 43.459 21.6546V21.4336C43.459 21.3783 43.4313 21.3507 43.3761 21.3507H43.0858C43.0336 21.3507 43.0075 21.3783 43.0075 21.4336V21.6362C43.0075 21.8634 42.897 21.977 42.6759 21.977H42.2751C42.054 21.977 41.9434 21.8634 41.9434 21.6362V20.1395C41.9434 19.9123 42.054 19.7987 42.2751 19.7987H42.6759C42.897 19.7987 43.0075 19.9123 43.0075 20.1395V20.3421C43.0075 20.3974 43.0336 20.425 43.0858 20.425H43.3761C43.4313 20.425 43.459 20.3974 43.459 20.3421V20.1211C43.459 19.8939 43.396 19.7189 43.2701 19.5961C43.1442 19.4702 42.9691 19.4072 42.745 19.4072H42.2106C41.9833 19.4072 41.8067 19.4702 41.6808 19.5961C41.558 19.7189 41.4966 19.8939 41.4966 20.1211V21.6546C41.4966 21.8787 41.558 22.0537 41.6808 22.1796C41.8067 22.3055 41.9833 22.3684 42.2106 22.3684Z" fill="#B3333A" fill-opacity="0.8"/>
<path d="M44.1087 22.3684H45.5828C45.6319 22.3684 45.6565 22.3423 45.6565 22.2901V22.0553C45.6565 22.0031 45.6319 21.977 45.5828 21.977H44.5325C44.4957 21.977 44.4772 21.9601 44.4772 21.9263V21.1066C44.4772 21.0759 44.4957 21.0605 44.5325 21.0605H45.4216C45.4769 21.0605 45.5045 21.0344 45.5045 20.9822V20.7474C45.5045 20.6952 45.4769 20.6691 45.4216 20.6691H44.5325C44.4957 20.6691 44.4772 20.6537 44.4772 20.623V19.8447C44.4772 19.814 44.4957 19.7987 44.5325 19.7987H45.5828C45.6319 19.7987 45.6565 19.7726 45.6565 19.7204V19.4855C45.6565 19.4333 45.6319 19.4072 45.5828 19.4072H44.1087C44.0565 19.4072 44.0304 19.4333 44.0304 19.4855V22.2901C44.0304 22.3423 44.0565 22.3684 44.1087 22.3684Z" fill="#B3333A" fill-opacity="0.8"/>
<path d="M46.1884 21.5303V21.65C46.1884 21.8741 46.2529 22.0507 46.3819 22.1796C46.5109 22.3055 46.6875 22.3684 46.9117 22.3684H47.4276C47.6518 22.3684 47.8269 22.3055 47.9528 22.1796C48.0818 22.0507 48.1463 21.8741 48.1463 21.65V21.4704C48.1463 21.323 48.1186 21.1987 48.0633 21.0974C48.0081 20.993 47.9359 20.9162 47.8468 20.8671C47.7578 20.8149 47.6595 20.7735 47.552 20.7428C47.4445 20.7121 47.337 20.689 47.2295 20.6737C47.1251 20.6583 47.0284 20.6399 46.9393 20.6184C46.7397 20.5693 46.6399 20.4757 46.6399 20.3375V20.1947C46.6399 20.0504 46.6675 19.9491 46.7228 19.8908C46.7812 19.8294 46.8764 19.7987 47.0084 19.7987H47.2986C47.4307 19.7987 47.5244 19.8279 47.5796 19.8862C47.638 19.9414 47.6672 20.0351 47.6672 20.1671V20.227C47.6672 20.2792 47.6933 20.3053 47.7455 20.3053H48.0403C48.0925 20.3053 48.1186 20.2792 48.1186 20.227V20.1257C48.1186 19.9015 48.0541 19.7265 47.9251 19.6007C47.7992 19.4717 47.6226 19.4072 47.3954 19.4072H46.9071C46.6829 19.4072 46.5063 19.4717 46.3773 19.6007C46.2514 19.7265 46.1884 19.9015 46.1884 20.1257V20.3191C46.1884 20.491 46.2253 20.6322 46.299 20.7428C46.3758 20.8533 46.4694 20.9285 46.58 20.9684C46.6906 21.0083 46.8119 21.0436 46.9439 21.0743C47.076 21.105 47.1973 21.1296 47.3078 21.148C47.4184 21.1634 47.5105 21.2002 47.5842 21.2586C47.661 21.3138 47.6994 21.3906 47.6994 21.4888V21.5947C47.6994 21.7298 47.6702 21.8281 47.6119 21.8895C47.5535 21.9478 47.4583 21.977 47.3263 21.977H47.0084C46.8764 21.977 46.7812 21.9493 46.7228 21.8941C46.6675 21.8357 46.6399 21.7421 46.6399 21.6132V21.5303C46.6399 21.4781 46.6138 21.452 46.5616 21.452H46.2668C46.2145 21.452 46.1884 21.4781 46.1884 21.5303Z" fill="#B3333A" fill-opacity="0.8"/>
<path d="M48.7122 21.5303V21.65C48.7122 21.8741 48.7767 22.0507 48.9057 22.1796C49.0346 22.3055 49.2112 22.3684 49.4354 22.3684H49.9514C50.1756 22.3684 50.3506 22.3055 50.4765 22.1796C50.6055 22.0507 50.67 21.8741 50.67 21.65V21.4704C50.67 21.323 50.6424 21.1987 50.5871 21.0974C50.5318 20.993 50.4596 20.9162 50.3706 20.8671C50.2815 20.8149 50.1832 20.7735 50.0757 20.7428C49.9683 20.7121 49.8608 20.689 49.7533 20.6737C49.6489 20.6583 49.5521 20.6399 49.4631 20.6184C49.2634 20.5693 49.1636 20.4757 49.1636 20.3375V20.1947C49.1636 20.0504 49.1913 19.9491 49.2465 19.8908C49.3049 19.8294 49.4001 19.7987 49.5322 19.7987H49.8224C49.9544 19.7987 50.0481 19.8279 50.1034 19.8862C50.1617 19.9414 50.1909 20.0351 50.1909 20.1671V20.227C50.1909 20.2792 50.217 20.3053 50.2692 20.3053H50.564C50.6163 20.3053 50.6424 20.2792 50.6424 20.227V20.1257C50.6424 19.9015 50.5779 19.7265 50.4489 19.6007C50.323 19.4717 50.1464 19.4072 49.9191 19.4072H49.4308C49.2066 19.4072 49.03 19.4717 48.9011 19.6007C48.7751 19.7265 48.7122 19.9015 48.7122 20.1257V20.3191C48.7122 20.491 48.749 20.6322 48.8227 20.7428C48.8995 20.8533 48.9932 20.9285 49.1037 20.9684C49.2143 21.0083 49.3356 21.0436 49.4677 21.0743C49.5997 21.105 49.721 21.1296 49.8316 21.148C49.9421 21.1634 50.0343 21.2002 50.108 21.2586C50.1848 21.3138 50.2232 21.3906 50.2232 21.4888V21.5947C50.2232 21.7298 50.194 21.8281 50.1356 21.8895C50.0773 21.9478 49.9821 21.977 49.85 21.977H49.5322C49.4001 21.977 49.3049 21.9493 49.2465 21.8941C49.1913 21.8357 49.1636 21.7421 49.1636 21.6132V21.5303C49.1636 21.4781 49.1375 21.452 49.0853 21.452H48.7905C48.7383 21.452 48.7122 21.4781 48.7122 21.5303Z" fill="#B3333A" fill-opacity="0.8"/>
<path fill-rule="evenodd" clip-rule="evenodd" d="M53.0568 22.3684H53.5912C53.8185 22.3684 53.995 22.3055 54.121 22.1796C54.2469 22.0537 54.3098 21.8787 54.3098 21.6546V20.1211C54.3098 19.8939 54.2469 19.7189 54.121 19.5961C53.995 19.4702 53.8185 19.4072 53.5912 19.4072H53.0568C52.8296 19.4072 52.653 19.4702 52.5271 19.5961C52.4042 19.7189 52.3428 19.8939 52.3428 20.1211V21.6546C52.3428 21.8787 52.4042 22.0537 52.5271 22.1796C52.653 22.3055 52.8296 22.3684 53.0568 22.3684ZM53.5221 21.977H53.1213C52.9002 21.977 52.7897 21.8634 52.7897 21.6362V20.1395C52.7897 19.9123 52.9002 19.7987 53.1213 19.7987H53.5221C53.7463 19.7987 53.8584 19.9123 53.8584 20.1395V21.6362C53.8584 21.8634 53.7463 21.977 53.5221 21.977Z" fill="#B3333A" fill-opacity="0.8"/>
<path fill-rule="evenodd" clip-rule="evenodd" d="M55.0089 22.3684H55.2991C55.3513 22.3684 55.3775 22.3423 55.3775 22.2901V21.277C55.3775 21.2463 55.3959 21.2309 55.4327 21.2309H55.898L56.3909 22.2901C56.4124 22.3423 56.46 22.3684 56.5337 22.3684H56.8193C56.893 22.3684 56.913 22.3377 56.8792 22.2763L56.3679 21.1987V21.1803C56.6596 21.0882 56.8055 20.8656 56.8055 20.5125V20.1257C56.8055 19.9015 56.741 19.7265 56.612 19.6007C56.4861 19.4717 56.3111 19.4072 56.0869 19.4072H55.0089C54.9567 19.4072 54.9306 19.4333 54.9306 19.4855V22.2901C54.9306 22.3423 54.9567 22.3684 55.0089 22.3684ZM56.0132 20.8625H55.4281C55.3943 20.8625 55.3775 20.8471 55.3775 20.8164V19.8447C55.3775 19.814 55.3943 19.7987 55.4281 19.7987H56.0132C56.2404 19.7987 56.3541 19.9123 56.3541 20.1395V20.5263C56.3541 20.7504 56.2404 20.8625 56.0132 20.8625Z" fill="#B3333A" fill-opacity="0.8"/>
<path fill-rule="evenodd" clip-rule="evenodd" d="M58.525 19.4855V22.2901C58.525 22.3423 58.5511 22.3684 58.6033 22.3684H59.7366C59.9608 22.3684 60.1358 22.3055 60.2617 22.1796C60.3907 22.0537 60.4552 21.8787 60.4552 21.6546V20.1211C60.4552 19.8939 60.3907 19.7189 60.2617 19.5961C60.1358 19.4702 59.9608 19.4072 59.7366 19.4072H58.6033C58.5511 19.4072 58.525 19.4333 58.525 19.4855ZM59.6721 21.977H59.0225C58.9888 21.977 58.9719 21.9601 58.9719 21.9263V19.8447C58.9719 19.814 58.9888 19.7987 59.0225 19.7987H59.6721C59.8932 19.7987 60.0038 19.9123 60.0038 20.1395V21.6362C60.0038 21.8634 59.8932 21.977 59.6721 21.977Z" fill="#B3333A" fill-opacity="0.8"/>
<path d="M61.5501 22.2901V19.4855C61.5501 19.4333 61.524 19.4072 61.4718 19.4072H61.1816C61.1294 19.4072 61.1033 19.4333 61.1033 19.4855V22.2901C61.1033 22.3423 61.1294 22.3684 61.1816 22.3684H61.4718C61.524 22.3684 61.5501 22.3423 61.5501 22.2901Z" fill="#B3333A" fill-opacity="0.8"/>
<path d="M62.1901 21.5303V21.65C62.1901 21.8741 62.2546 22.0507 62.3836 22.1796C62.5126 22.3055 62.6892 22.3684 62.9134 22.3684H63.4293C63.6535 22.3684 63.8286 22.3055 63.9545 22.1796C64.0835 22.0507 64.148 21.8741 64.148 21.65V21.4704C64.148 21.323 64.1203 21.1987 64.065 21.0974C64.0098 20.993 63.9376 20.9162 63.8485 20.8671C63.7595 20.8149 63.6612 20.7735 63.5537 20.7428C63.4462 20.7121 63.3387 20.689 63.2312 20.6737C63.1268 20.6583 63.0301 20.6399 62.941 20.6184C62.7414 20.5693 62.6416 20.4757 62.6416 20.3375V20.1947C62.6416 20.0504 62.6692 19.9491 62.7245 19.8908C62.7829 19.8294 62.8781 19.7987 63.0101 19.7987H63.3003C63.4324 19.7987 63.5261 19.8279 63.5813 19.8862C63.6397 19.9414 63.6689 20.0351 63.6689 20.1671V20.227C63.6689 20.2792 63.695 20.3053 63.7472 20.3053H64.042C64.0942 20.3053 64.1203 20.2792 64.1203 20.227V20.1257C64.1203 19.9015 64.0558 19.7265 63.9268 19.6007C63.8009 19.4717 63.6243 19.4072 63.3971 19.4072H62.9088C62.6846 19.4072 62.508 19.4717 62.379 19.6007C62.2531 19.7265 62.1901 19.9015 62.1901 20.1257V20.3191C62.1901 20.491 62.227 20.6322 62.3007 20.7428C62.3775 20.8533 62.4711 20.9285 62.5817 20.9684C62.6923 21.0083 62.8136 21.0436 62.9456 21.0743C63.0777 21.105 63.199 21.1296 63.3095 21.148C63.4201 21.1634 63.5122 21.2002 63.5859 21.2586C63.6627 21.3138 63.7011 21.3906 63.7011 21.4888V21.5947C63.7011 21.7298 63.6719 21.8281 63.6136 21.8895C63.5552 21.9478 63.46 21.977 63.328 21.977H63.0101C62.8781 21.977 62.7829 21.9493 62.7245 21.8941C62.6692 21.8357 62.6416 21.7421 62.6416 21.6132V21.5303C62.6416 21.4781 62.6155 21.452 62.5633 21.452H62.2684C62.2162 21.452 62.1901 21.4781 62.1901 21.5303Z" fill="#B3333A" fill-opacity="0.8"/>
<path fill-rule="evenodd" clip-rule="evenodd" d="M64.5987 22.3684H64.9304C64.9734 22.3684 65.001 22.3423 65.0133 22.2901L65.1884 21.6914H66.2018L66.3769 22.2901C66.383 22.3208 66.3907 22.3423 66.3999 22.3546C66.4122 22.3638 66.4321 22.3684 66.4598 22.3684H66.7869C66.8329 22.3684 66.8498 22.3423 66.8375 22.2901L66.036 19.4855C66.0237 19.4333 65.9868 19.4072 65.9254 19.4072H65.4648C65.4064 19.4072 65.3696 19.4333 65.3542 19.4855L64.5526 22.2901C64.5404 22.3423 64.5557 22.3684 64.5987 22.3684ZM65.2805 21.323L65.6859 19.8493H65.7043L66.1143 21.323H65.2805Z" fill="#B3333A" fill-opacity="0.8"/>
<path fill-rule="evenodd" clip-rule="evenodd" d="M67.2929 19.4855V22.2901C67.2929 22.3423 67.319 22.3684 67.3712 22.3684H68.5044C68.7286 22.3684 68.9037 22.307 69.0296 22.1842C69.1555 22.0614 69.2185 21.8879 69.2185 21.6638V21.3691C69.2185 21.2186 69.1785 21.0989 69.0987 21.0099C69.0219 20.9208 68.9236 20.8686 68.8039 20.8533C69.0557 20.7765 69.1816 20.6046 69.1816 20.3375V20.1118C69.1816 19.8877 69.1187 19.7143 68.9927 19.5914C68.8668 19.4686 68.6902 19.4072 68.463 19.4072H67.3712C67.319 19.4072 67.2929 19.4333 67.2929 19.4855ZM68.4353 21.9862H67.7904C67.7566 21.9862 67.7397 21.9708 67.7397 21.9401V21.0836C67.7397 21.0528 67.7566 21.0375 67.7904 21.0375H68.4169C68.6595 21.0375 68.7808 21.148 68.7808 21.3691V21.6546C68.7808 21.8757 68.6657 21.9862 68.4353 21.9862ZM68.3893 20.6691H67.7904C67.7566 20.6691 67.7397 20.6537 67.7397 20.623V19.8355C67.7397 19.8048 67.7566 19.7895 67.7904 19.7895H68.3985C68.6257 19.7895 68.7394 19.9 68.7394 20.1211V20.3329C68.7394 20.557 68.6227 20.6691 68.3893 20.6691Z" fill="#B3333A" fill-opacity="0.8"/>
<path d="M69.913 22.3684H71.4055C71.4577 22.3684 71.4838 22.3423 71.4838 22.2901V22.0507C71.4838 21.9954 71.4577 21.9678 71.4055 21.9678H70.3368C70.2999 21.9678 70.2815 21.9524 70.2815 21.9217V19.4855C70.2815 19.4333 70.2554 19.4072 70.2032 19.4072H69.913C69.8607 19.4072 69.8346 19.4333 69.8346 19.4855V22.2901C69.8346 22.3423 69.8607 22.3684 69.913 22.3684Z" fill="#B3333A" fill-opacity="0.8"/>
<path d="M71.9868 22.3684H73.4609C73.5101 22.3684 73.5347 22.3423 73.5347 22.2901V22.0553C73.5347 22.0031 73.5101 21.977 73.4609 21.977H72.4106C72.3738 21.977 72.3554 21.9601 72.3554 21.9263V21.1066C72.3554 21.0759 72.3738 21.0605 72.4106 21.0605H73.2997C73.355 21.0605 73.3826 21.0344 73.3826 20.9822V20.7474C73.3826 20.6952 73.355 20.6691 73.2997 20.6691H72.4106C72.3738 20.6691 72.3554 20.6537 72.3554 20.623V19.8447C72.3554 19.814 72.3738 19.7987 72.4106 19.7987H73.4609C73.5101 19.7987 73.5347 19.7726 73.5347 19.7204V19.4855C73.5347 19.4333 73.5101 19.4072 73.4609 19.4072H71.9868C71.9346 19.4072 71.9085 19.4333 71.9085 19.4855V22.2901C71.9085 22.3423 71.9346 22.3684 71.9868 22.3684Z" fill="#B3333A" fill-opacity="0.8"/>
<path d="M75.7401 22.3684H76.0303C76.0825 22.3684 76.1086 22.3423 76.1086 22.2901V19.8447C76.1086 19.814 76.1255 19.7987 76.1593 19.7987H76.7397C76.795 19.7987 76.8226 19.7726 76.8226 19.7204V19.4855C76.8226 19.4333 76.795 19.4072 76.7397 19.4072H75.0307C74.9754 19.4072 74.9477 19.4333 74.9477 19.4855V19.7204C74.9477 19.7726 74.9754 19.7987 75.0307 19.7987H75.6111C75.6418 19.7987 75.6572 19.814 75.6572 19.8447V22.2901C75.6572 22.3423 75.6848 22.3684 75.7401 22.3684Z" fill="#B3333A" fill-opacity="0.8"/>
<path d="M77.2952 22.3684H77.5855C77.6377 22.3684 77.6638 22.3423 77.6638 22.2901V21.125C77.6638 21.0943 77.6822 21.0789 77.719 21.0789H78.691C78.7218 21.0789 78.7371 21.0943 78.7371 21.125V22.2901C78.7371 22.3423 78.7632 22.3684 78.8154 22.3684H79.1102C79.1625 22.3684 79.1886 22.3423 79.1886 22.2901V19.4855C79.1886 19.4333 79.1625 19.4072 79.1102 19.4072H78.8154C78.7632 19.4072 78.7371 19.4333 78.7371 19.4855V20.6368C78.7371 20.6675 78.7218 20.6829 78.691 20.6829H77.719C77.6822 20.6829 77.6638 20.6675 77.6638 20.6368V19.4855C77.6638 19.4333 77.6377 19.4072 77.5855 19.4072H77.2952C77.243 19.4072 77.2169 19.4333 77.2169 19.4855V22.2901C77.2169 22.3423 77.243 22.3684 77.2952 22.3684Z" fill="#B3333A" fill-opacity="0.8"/>
<path d="M80.332 22.2901V19.4855C80.332 19.4333 80.3059 19.4072 80.2537 19.4072H79.9635C79.9113 19.4072 79.8852 19.4333 79.8852 19.4855V22.2901C79.8852 22.3423 79.9113 22.3684 79.9635 22.3684H80.2537C80.3059 22.3684 80.332 22.3423 80.332 22.2901Z" fill="#B3333A" fill-opacity="0.8"/>
<path d="M80.972 21.5303V21.65C80.972 21.8741 81.0365 22.0507 81.1655 22.1796C81.2945 22.3055 81.4711 22.3684 81.6952 22.3684H82.2112C82.4354 22.3684 82.6104 22.3055 82.7363 22.1796C82.8653 22.0507 82.9298 21.8741 82.9298 21.65V21.4704C82.9298 21.323 82.9022 21.1987 82.8469 21.0974C82.7916 20.993 82.7194 20.9162 82.6304 20.8671C82.5413 20.8149 82.443 20.7735 82.3356 20.7428C82.2281 20.7121 82.1206 20.689 82.0131 20.6737C81.9087 20.6583 81.8119 20.6399 81.7229 20.6184C81.5233 20.5693 81.4234 20.4757 81.4234 20.3375V20.1947C81.4234 20.0504 81.4511 19.9491 81.5064 19.8908C81.5647 19.8294 81.6599 19.7987 81.792 19.7987H82.0822C82.2143 19.7987 82.3079 19.8279 82.3632 19.8862C82.4216 19.9414 82.4507 20.0351 82.4507 20.1671V20.227C82.4507 20.2792 82.4768 20.3053 82.529 20.3053H82.8239C82.8761 20.3053 82.9022 20.2792 82.9022 20.227V20.1257C82.9022 19.9015 82.8377 19.7265 82.7087 19.6007C82.5828 19.4717 82.4062 19.4072 82.1789 19.4072H81.6906C81.4664 19.4072 81.2899 19.4717 81.1609 19.6007C81.035 19.7265 80.972 19.9015 80.972 20.1257V20.3191C80.972 20.491 81.0089 20.6322 81.0826 20.7428C81.1593 20.8533 81.253 20.9285 81.3636 20.9684C81.4741 21.0083 81.5954 21.0436 81.7275 21.0743C81.8595 21.105 81.9808 21.1296 82.0914 21.148C82.202 21.1634 82.2941 21.2002 82.3678 21.2586C82.4446 21.3138 82.483 21.3906 82.483 21.4888V21.5947C82.483 21.7298 82.4538 21.8281 82.3954 21.8895C82.3371 21.9478 82.2419 21.977 82.1098 21.977H81.792C81.6599 21.977 81.5647 21.9493 81.5064 21.8941C81.4511 21.8357 81.4234 21.7421 81.4234 21.6132V21.5303C81.4234 21.4781 81.3973 21.452 81.3451 21.452H81.0503C80.9981 21.452 80.972 21.4781 80.972 21.5303Z" fill="#B3333A" fill-opacity="0.8"/>
<path fill-rule="evenodd" clip-rule="evenodd" d="M84.6487 19.4855V22.2901C84.6487 22.3423 84.6748 22.3684 84.727 22.3684H85.8602C86.0844 22.3684 86.2595 22.3055 86.3854 22.1796C86.5144 22.0537 86.5789 21.8787 86.5789 21.6546V20.1211C86.5789 19.8939 86.5144 19.7189 86.3854 19.5961C86.2595 19.4702 86.0844 19.4072 85.8602 19.4072H84.727C84.6748 19.4072 84.6487 19.4333 84.6487 19.4855ZM85.7957 21.977H85.1462C85.1124 21.977 85.0955 21.9601 85.0955 21.9263V19.8447C85.0955 19.814 85.1124 19.7987 85.1462 19.7987H85.7957C86.0169 19.7987 86.1274 19.9123 86.1274 20.1395V21.6362C86.1274 21.8634 86.0169 21.977 85.7957 21.977Z" fill="#B3333A" fill-opacity="0.8"/>
<path d="M87.2822 22.3684H88.7564C88.8055 22.3684 88.8301 22.3423 88.8301 22.2901V22.0553C88.8301 22.0031 88.8055 21.977 88.7564 21.977H87.706C87.6692 21.977 87.6508 21.9601 87.6508 21.9263V21.1066C87.6508 21.0759 87.6692 21.0605 87.706 21.0605H88.5951C88.6504 21.0605 88.678 21.0344 88.678 20.9822V20.7474C88.678 20.6952 88.6504 20.6691 88.5951 20.6691H87.706C87.6692 20.6691 87.6508 20.6537 87.6508 20.623V19.8447C87.6508 19.814 87.6692 19.7987 87.706 19.7987H88.7564C88.8055 19.7987 88.8301 19.7726 88.8301 19.7204V19.4855C88.8301 19.4333 88.8055 19.4072 88.7564 19.4072H87.2822C87.23 19.4072 87.2039 19.4333 87.2039 19.4855V22.2901C87.2039 22.3423 87.23 22.3684 87.2822 22.3684Z" fill="#B3333A" fill-opacity="0.8"/>
<path d="M90.0392 22.3684H90.4952C90.5413 22.3684 90.5705 22.3423 90.5827 22.2901L91.352 19.4947C91.3674 19.4364 91.3428 19.4072 91.2783 19.4072H90.9559C90.9067 19.4072 90.876 19.4333 90.8637 19.4855L90.2741 21.8895H90.2557L89.6614 19.4855C89.6522 19.4333 89.623 19.4072 89.5739 19.4072H89.2468C89.1823 19.4072 89.1593 19.4364 89.1777 19.4947L89.9424 22.2901C89.9547 22.3423 89.9869 22.3684 90.0392 22.3684Z" fill="#B3333A" fill-opacity="0.8"/>
<path d="M92.2489 22.2901V19.4855C92.2489 19.4333 92.2228 19.4072 92.1706 19.4072H91.8804C91.8282 19.4072 91.8021 19.4333 91.8021 19.4855V22.2901C91.8021 22.3423 91.8282 22.3684 91.8804 22.3684H92.1706C92.2228 22.3684 92.2489 22.3423 92.2489 22.2901Z" fill="#B3333A" fill-opacity="0.8"/>
<path d="M93.6122 22.3684H94.1465C94.3707 22.3684 94.5458 22.3055 94.6717 22.1796C94.7976 22.0537 94.8606 21.8787 94.8606 21.6546V21.4336C94.8606 21.3783 94.8329 21.3507 94.7776 21.3507H94.4874C94.4352 21.3507 94.4091 21.3783 94.4091 21.4336V21.6362C94.4091 21.8634 94.2985 21.977 94.0774 21.977H93.6767C93.4555 21.977 93.345 21.8634 93.345 21.6362V20.1395C93.345 19.9123 93.4555 19.7987 93.6767 19.7987H94.0774C94.2985 19.7987 94.4091 19.9123 94.4091 20.1395V20.3421C94.4091 20.3974 94.4352 20.425 94.4874 20.425H94.7776C94.8329 20.425 94.8606 20.3974 94.8606 20.3421V20.1211C94.8606 19.8939 94.7976 19.7189 94.6717 19.5961C94.5458 19.4702 94.3707 19.4072 94.1465 19.4072H93.6122C93.3849 19.4072 93.2083 19.4702 93.0824 19.5961C92.9596 19.7189 92.8981 19.8939 92.8981 20.1211V21.6546C92.8981 21.8787 92.9596 22.0537 93.0824 22.1796C93.2083 22.3055 93.3849 22.3684 93.6122 22.3684Z" fill="#B3333A" fill-opacity="0.8"/>
<path d="M95.5103 22.3684H96.9844C97.0335 22.3684 97.0581 22.3423 97.0581 22.2901V22.0553C97.0581 22.0031 97.0335 21.977 96.9844 21.977H95.9341C95.8972 21.977 95.8788 21.9601 95.8788 21.9263V21.1066C95.8788 21.0759 95.8972 21.0605 95.9341 21.0605H96.8232C96.8784 21.0605 96.9061 21.0344 96.9061 20.9822V20.7474C96.9061 20.6952 96.8784 20.6691 96.8232 20.6691H95.9341C95.8972 20.6691 95.8788 20.6537 95.8788 20.623V19.8447C95.8788 19.814 95.8972 19.7987 95.9341 19.7987H96.9844C97.0335 19.7987 97.0581 19.7726 97.0581 19.7204V19.4855C97.0581 19.4333 97.0335 19.4072 96.9844 19.4072H95.5103C95.4581 19.4072 95.432 19.4333 95.432 19.4855V22.2901C95.432 22.3423 95.4581 22.3684 95.5103 22.3684Z" fill="#B3333A" fill-opacity="0.8"/>
<path d="M98 22.2901V21.7283C98 21.6792 97.9754 21.6546 97.9263 21.6546H97.6131C97.5608 21.6546 97.5347 21.6792 97.5347 21.7283V22.2901C97.5347 22.3423 97.5608 22.3684 97.6131 22.3684H97.9263C97.9754 22.3684 98 22.3423 98 22.2901Z" fill="#B3333A" fill-opacity="0.8"/>
<path fill-rule="evenodd" clip-rule="evenodd" d="M0.592279 18.4211H1.00688C1.08146 18.4211 1.11875 18.3838 1.11875 18.3092V16.9803C1.11875 16.9364 1.14507 16.9145 1.19772 16.9145H2.15853C2.4788 16.9145 2.72887 16.8246 2.90875 16.6447C3.08863 16.4649 3.17857 16.2149 3.17857 15.8947V15.2105C3.17857 14.886 3.08863 14.636 2.90875 14.4605C2.72887 14.2807 2.4788 14.1908 2.15853 14.1908H0.592279C0.517696 14.1908 0.480404 14.2281 0.480404 14.3026V18.3092C0.480404 18.3838 0.517696 18.4211 0.592279 18.4211ZM2.0664 16.3487H1.19114C1.14288 16.3487 1.11875 16.3268 1.11875 16.2829V14.8158C1.11875 14.7719 1.14288 14.75 1.19114 14.75H2.0664C2.37789 14.75 2.53364 14.9123 2.53364 15.2368V15.8618C2.53364 16.1864 2.37789 16.3487 2.0664 16.3487Z" fill="#B3333A" fill-opacity="0.8"/>
<path fill-rule="evenodd" clip-rule="evenodd" d="M4.06909 18.4211H4.48369C4.55827 18.4211 4.59556 18.3838 4.59556 18.3092V16.8618C4.59556 16.818 4.62189 16.7961 4.67453 16.7961H5.3392L6.04336 18.3092C6.07407 18.3838 6.14207 18.4211 6.24737 18.4211H6.65538C6.76067 18.4211 6.78919 18.3772 6.74093 18.2895L6.01045 16.75V16.7237C6.42724 16.5921 6.63564 16.2741 6.63564 15.7697V15.2171C6.63564 14.8969 6.5435 14.6469 6.35924 14.4671C6.17936 14.2829 5.92929 14.1908 5.60902 14.1908H4.06909C3.99451 14.1908 3.95722 14.2281 3.95722 14.3026V18.3092C3.95722 18.3838 3.99451 18.4211 4.06909 18.4211ZM5.50373 16.2697H4.66795C4.61969 16.2697 4.59556 16.2478 4.59556 16.2039V14.8158C4.59556 14.7719 4.61969 14.75 4.66795 14.75H5.50373C5.82838 14.75 5.99071 14.9123 5.99071 15.2368V15.7895C5.99071 16.1096 5.82838 16.2697 5.50373 16.2697Z" fill="#B3333A" fill-opacity="0.8"/>
<path fill-rule="evenodd" clip-rule="evenodd" d="M8.47823 18.4211H9.24162C9.56627 18.4211 9.81854 18.3311 9.99842 18.1513C10.1783 17.9715 10.2682 17.7215 10.2682 17.4013V15.2105C10.2682 14.886 10.1783 14.636 9.99842 14.4605C9.81854 14.2807 9.56627 14.1908 9.24162 14.1908H8.47823C8.15358 14.1908 7.90131 14.2807 7.72143 14.4605C7.54594 14.636 7.4582 14.886 7.4582 15.2105V17.4013C7.4582 17.7215 7.54594 17.9715 7.72143 18.1513C7.90131 18.3311 8.15358 18.4211 8.47823 18.4211ZM9.1429 17.8618H8.57036C8.25448 17.8618 8.09654 17.6996 8.09654 17.375V15.2368C8.09654 14.9123 8.25448 14.75 8.57036 14.75H9.1429C9.46317 14.75 9.62331 14.9123 9.62331 15.2368V17.375C9.62331 17.6996 9.46317 17.8618 9.1429 17.8618Z" fill="#B3333A" fill-opacity="0.8"/>
<path d="M11.8987 18.4211H12.3133C12.3879 18.4211 12.4252 18.3838 12.4252 18.3092V14.8158C12.4252 14.7719 12.4493 14.75 12.4976 14.75H13.3267C13.4057 14.75 13.4452 14.7127 13.4452 14.6382V14.3026C13.4452 14.2281 13.4057 14.1908 13.3267 14.1908H10.8852C10.8063 14.1908 10.7668 14.2281 10.7668 14.3026V14.6382C10.7668 14.7127 10.8063 14.75 10.8852 14.75H11.7144C11.7583 14.75 11.7802 14.7719 11.7802 14.8158V18.3092C11.7802 18.3838 11.8197 18.4211 11.8987 18.4211Z" fill="#B3333A" fill-opacity="0.8"/>
<path fill-rule="evenodd" clip-rule="evenodd" d="M14.9627 18.4211H15.7261C16.0508 18.4211 16.303 18.3311 16.4829 18.1513C16.6628 17.9715 16.7527 17.7215 16.7527 17.4013V15.2105C16.7527 14.886 16.6628 14.636 16.4829 14.4605C16.303 14.2807 16.0508 14.1908 15.7261 14.1908H14.9627C14.6381 14.1908 14.3858 14.2807 14.2059 14.4605C14.0304 14.636 13.9427 14.886 13.9427 15.2105V17.4013C13.9427 17.7215 14.0304 17.9715 14.2059 18.1513C14.3858 18.3311 14.6381 18.4211 14.9627 18.4211ZM15.6274 17.8618H15.0548C14.739 17.8618 14.581 17.6996 14.581 17.375V15.2368C14.581 14.9123 14.739 14.75 15.0548 14.75H15.6274C15.9477 14.75 16.1078 14.9123 16.1078 15.2368V17.375C16.1078 17.6996 15.9477 17.8618 15.6274 17.8618Z" fill="#B3333A" fill-opacity="0.8"/>
<path d="M18.5938 18.4211H19.3572C19.6774 18.4211 19.9275 18.3311 20.1074 18.1513C20.2872 17.9715 20.3772 17.7215 20.3772 17.4013V17.0855C20.3772 17.0066 20.3377 16.9671 20.2587 16.9671H19.8441C19.7696 16.9671 19.7323 17.0066 19.7323 17.0855V17.375C19.7323 17.6996 19.5743 17.8618 19.2584 17.8618H18.6859C18.37 17.8618 18.2121 17.6996 18.2121 17.375V15.2368C18.2121 14.9123 18.37 14.75 18.6859 14.75H19.2584C19.5743 14.75 19.7323 14.9123 19.7323 15.2368V15.5263C19.7323 15.6053 19.7696 15.6447 19.8441 15.6447H20.2587C20.3377 15.6447 20.3772 15.6053 20.3772 15.5263V15.2105C20.3772 14.886 20.2872 14.636 20.1074 14.4605C19.9275 14.2807 19.6774 14.1908 19.3572 14.1908H18.5938C18.2691 14.1908 18.0168 14.2807 17.837 14.4605C17.6615 14.636 17.5737 14.886 17.5737 15.2105V17.4013C17.5737 17.7215 17.6615 17.9715 17.837 18.1513C18.0168 18.3311 18.2691 18.4211 18.5938 18.4211Z" fill="#B3333A" fill-opacity="0.8"/>
<path fill-rule="evenodd" clip-rule="evenodd" d="M22.1477 18.4211H22.9111C23.2357 18.4211 23.488 18.3311 23.6679 18.1513C23.8478 17.9715 23.9377 17.7215 23.9377 17.4013V15.2105C23.9377 14.886 23.8478 14.636 23.6679 14.4605C23.488 14.2807 23.2357 14.1908 22.9111 14.1908H22.1477C21.823 14.1908 21.5708 14.2807 21.3909 14.4605C21.2154 14.636 21.1277 14.886 21.1277 15.2105V17.4013C21.1277 17.7215 21.2154 17.9715 21.3909 18.1513C21.5708 18.3311 21.823 18.4211 22.1477 18.4211ZM22.8124 17.8618H22.2398C21.924 17.8618 21.766 17.6996 21.766 17.375V15.2368C21.766 14.9123 21.924 14.75 22.2398 14.75H22.8124C23.1326 14.75 23.2928 14.9123 23.2928 15.2368V17.375C23.2928 17.6996 23.1326 17.8618 22.8124 17.8618Z" fill="#B3333A" fill-opacity="0.8"/>
<path d="M24.9364 18.4211H27.0686C27.1432 18.4211 27.1805 18.3838 27.1805 18.3092V17.9671C27.1805 17.8882 27.1432 17.8487 27.0686 17.8487H25.5418C25.4892 17.8487 25.4629 17.8268 25.4629 17.7829V14.3026C25.4629 14.2281 25.4256 14.1908 25.351 14.1908H24.9364C24.8618 14.1908 24.8245 14.2281 24.8245 14.3026V18.3092C24.8245 18.3838 24.8618 18.4211 24.9364 18.4211Z" fill="#B3333A" fill-opacity="0.8"/>
<path fill-rule="evenodd" clip-rule="evenodd" d="M1.38199 25H2.01375C2.33841 25 2.59067 24.9101 2.77055 24.7303C2.95043 24.5504 3.04037 24.3004 3.04037 23.9803V23.4013C3.04037 23.0768 2.95043 22.8268 2.77055 22.6513C2.59067 22.4715 2.33841 22.3816 2.01375 22.3816H1.00029V21.8158C1.00029 21.4912 1.15824 21.3289 1.47412 21.3289H2.69158C2.76616 21.3289 2.80346 21.2939 2.80346 21.2237V20.8816C2.80346 20.807 2.76616 20.7697 2.69158 20.7697H1.38199C1.05733 20.7697 0.805061 20.8596 0.625184 21.0395C0.445306 21.2149 0.355368 21.4649 0.355368 21.7895V23.9803C0.355368 24.3004 0.445306 24.5504 0.625184 24.7303C0.805061 24.9101 1.05733 25 1.38199 25ZM1.92162 24.4408H1.47412C1.15824 24.4408 1.00029 24.2785 1.00029 23.9539V22.9408H1.92162C2.2375 22.9408 2.39544 23.1031 2.39544 23.4276V23.9539C2.39544 24.2785 2.2375 24.4408 1.92162 24.4408Z" fill="#B3333A" fill-opacity="0.8"/>
<path d="M4.79515 22.7632H5.20316C5.38743 22.7632 5.51685 22.8048 5.59144 22.8882C5.67041 22.9715 5.70989 23.1118 5.70989 23.3092V23.9737C5.70989 24.2939 5.54756 24.4539 5.22291 24.4539H4.8478C4.53191 24.4539 4.37397 24.2939 4.37397 23.9737V23.8092C4.37397 23.7303 4.33668 23.6908 4.2621 23.6908H3.8475C3.77292 23.6908 3.73563 23.7303 3.73563 23.8092V23.9803C3.73563 24.3004 3.82337 24.5504 3.99886 24.7303C4.17874 24.9101 4.43101 25 4.75566 25H5.31504C5.63531 25 5.88538 24.9101 6.06526 24.7303C6.24514 24.5504 6.33508 24.3004 6.33508 23.9803V23.2171C6.33508 22.8969 6.25172 22.6557 6.085 22.4934C5.91829 22.3268 5.67699 22.2434 5.36111 22.2434H4.97283C4.67889 22.2434 4.49462 22.3509 4.42004 22.5658V21.3684H6.11791C6.19688 21.3684 6.23636 21.3311 6.23636 21.2566V20.8816C6.23636 20.807 6.19688 20.7697 6.11791 20.7697H3.88699C3.8124 20.7697 3.77511 20.807 3.77511 20.8816V22.9474C3.77511 23.0219 3.8124 23.0592 3.88699 23.0592H4.30158C4.37178 23.0592 4.43101 23.0088 4.47927 22.9079C4.49682 22.8728 4.53191 22.8399 4.58456 22.8092C4.6416 22.7785 4.71179 22.7632 4.79515 22.7632Z" fill="#B3333A" fill-opacity="0.8"/>
<path d="M7.00021 24.2829V24.8882C7.00021 24.9627 7.03969 25 7.11866 25H9.42855C9.50752 25 9.54701 24.9627 9.54701 24.8882V24.5395C9.54701 24.4649 9.50752 24.4276 9.42855 24.4276H7.71752V24.2171C7.71752 24.1031 7.76798 24.0044 7.86888 23.9211L9.13241 22.8882C9.40004 22.6689 9.53385 22.3882 9.53385 22.0461V21.7763C9.53385 21.4561 9.44391 21.2083 9.26403 21.0329C9.08415 20.8575 8.83408 20.7697 8.51381 20.7697H8.0005C7.67585 20.7697 7.42358 20.8575 7.2437 21.0329C7.06382 21.2083 6.97388 21.4561 6.97388 21.7763V22.0329C6.97388 22.1118 7.01118 22.1513 7.08576 22.1513H7.50694C7.58152 22.1513 7.61881 22.1118 7.61881 22.0329V21.7895C7.61881 21.6228 7.6561 21.5022 7.73069 21.4276C7.80527 21.3531 7.92592 21.3158 8.09263 21.3158H8.4151C8.74414 21.3158 8.90866 21.4737 8.90866 21.7895V22.0066C8.90866 22.2259 8.80337 22.4189 8.59278 22.5855L7.34899 23.5987C7.11647 23.7829 7.00021 24.011 7.00021 24.2829Z" fill="#B3333A" fill-opacity="0.8"/>
<path fill-rule="evenodd" clip-rule="evenodd" d="M11.2732 25H11.9313C12.2516 25 12.5016 24.9101 12.6815 24.7303C12.8614 24.5504 12.9513 24.3004 12.9513 23.9803V21.7895C12.9513 21.4649 12.8614 21.2149 12.6815 21.0395C12.5016 20.8596 12.2516 20.7697 11.9313 20.7697H11.2732C10.9485 20.7697 10.6963 20.8596 10.5164 21.0395C10.3365 21.2149 10.2466 21.4649 10.2466 21.7895V23.9803C10.2466 24.3004 10.3365 24.5504 10.5164 24.7303C10.6963 24.9101 10.9485 25 11.2732 25ZM11.8392 24.4408H11.3719C11.056 24.4408 10.8981 24.2785 10.8981 23.9539V21.8158C10.8981 21.4912 11.056 21.3289 11.3719 21.3289H11.8392C12.155 21.3289 12.313 21.4912 12.313 21.8158V23.9539C12.313 24.2785 12.155 24.4408 11.8392 24.4408Z" fill="#B3333A" fill-opacity="0.8"/>
<path d="M13.7168 23.1645H15.0198C15.0944 23.1645 15.1317 23.125 15.1317 23.0461V22.7566C15.1317 22.6776 15.0944 22.6382 15.0198 22.6382H13.7168C13.6422 22.6382 13.6049 22.6776 13.6049 22.7566V23.0461C13.6049 23.125 13.6422 23.1645 13.7168 23.1645Z" fill="#B3333A" fill-opacity="0.8"/>
<path fill-rule="evenodd" clip-rule="evenodd" d="M15.6287 25H16.1025C16.164 25 16.2035 24.9627 16.221 24.8882L16.4711 24.0329H17.9189L18.1689 24.8882C18.1777 24.932 18.1887 24.9627 18.2018 24.9803C18.2194 24.9934 18.2479 25 18.2874 25H18.7546C18.8204 25 18.8446 24.9627 18.827 24.8882L17.682 20.8816C17.6644 20.807 17.6118 20.7697 17.524 20.7697H16.8659C16.7826 20.7697 16.7299 20.807 16.708 20.8816L15.5629 24.8882C15.5454 24.9627 15.5673 25 15.6287 25ZM16.6027 23.5066L17.1818 21.4013H17.2081L17.7938 23.5066H16.6027Z" fill="#B3333A" fill-opacity="0.8"/>
<path fill-rule="evenodd" clip-rule="evenodd" d="M21.2873 25H21.6756C21.7458 25 21.7809 24.9627 21.7809 24.8882V24.1974H22.2613C22.3359 24.1974 22.3731 24.1557 22.3731 24.0724V23.7434C22.3731 23.6689 22.3359 23.6316 22.2613 23.6316H21.7809V20.9605C21.7809 20.8333 21.7173 20.7697 21.59 20.7697H21.0109C20.9495 20.7697 20.9034 20.7807 20.8727 20.8026C20.842 20.8246 20.8091 20.8684 20.774 20.9342L19.3065 23.5461C19.267 23.6206 19.2472 23.7061 19.2472 23.8026V24.0066C19.2472 24.1338 19.3108 24.1974 19.4381 24.1974H21.1754V24.8882C21.1754 24.9627 21.2127 25 21.2873 25ZM21.1754 21.3026V23.6316H19.879L21.1754 21.3026Z" fill="#B3333A" fill-opacity="0.8"/>
<path fill-rule="evenodd" clip-rule="evenodd" d="M24.7962 25H25.1845C25.2547 25 25.2898 24.9627 25.2898 24.8882V24.1974H25.7702C25.8448 24.1974 25.8821 24.1557 25.8821 24.0724V23.7434C25.8821 23.6689 25.8448 23.6316 25.7702 23.6316H25.2898V20.9605C25.2898 20.8333 25.2262 20.7697 25.099 20.7697H24.5199C24.4584 20.7697 24.4124 20.7807 24.3817 20.8026C24.3509 20.8246 24.318 20.8684 24.2829 20.9342L22.8154 23.5461C22.7759 23.6206 22.7562 23.7061 22.7562 23.8026V24.0066C22.7562 24.1338 22.8198 24.1974 22.947 24.1974H24.6844V24.8882C24.6844 24.9627 24.7217 25 24.7962 25ZM24.6844 21.3026V23.6316H23.3879L24.6844 21.3026Z" fill="#B3333A" fill-opacity="0.8"/>
<path d="M7.89706 3.94737H0V5.26316H7.89706V3.94737Z" fill="#B3333A" fill-opacity="0.8"/>
<path d="M0 7.89474H7.89706V9.21053H0V7.89474Z" fill="#B3333A" fill-opacity="0.8"/>
<path d="M7.89706 10.5263H0V11.8421H7.89706V10.5263Z" fill="#B3333A" fill-opacity="0.8"/>
<path d="M15.7941 6.57895H7.89706V7.89474H15.7941V6.57895Z" fill="#B3333A" fill-opacity="0.8"/>
<path d="M15.7941 3.94737H23.6912V5.26316H15.7941V3.94737Z" fill="#B3333A" fill-opacity="0.8"/>
<path d="M23.6912 9.21053H15.7941V10.5263H23.6912V9.21053Z" fill="#B3333A" fill-opacity="0.8"/>
<path d="M32.2463 2.63158H24.3493V3.94737H32.2463V2.63158Z" fill="#B3333A" fill-opacity="0.8"/>
<path d="M24.3493 6.57895H32.2463V7.89474H24.3493V6.57895Z" fill="#B3333A" fill-opacity="0.8"/>
<path d="M32.2463 10.5263H24.3493V11.8421H32.2463V10.5263Z" fill="#B3333A" fill-opacity="0.8"/>
</svg>
