<svg width="auto" height="auto" viewBox="0 0 340 21" fill="none" xmlns="http://www.w3.org/2000/svg">
<path d="M19.1185 0H25.3191V1H19.1185V0Z" fill="#B3333A" fill-opacity="0.8"/>
<path d="M0 0.5H6.20061V1.5H0V0.5Z" fill="#B3333A" fill-opacity="0.8"/>
<path d="M6.20061 1.5H12.4012V2.5H6.20061V1.5Z" fill="#B3333A" fill-opacity="0.8"/>
<path fill-rule="evenodd" clip-rule="evenodd" d="M29.208 3.5H29.6275C29.806 3.5 29.9446 3.45217 30.0435 3.3565C30.1424 3.26083 30.1918 3.12783 30.1918 2.9575V1.792C30.1918 1.61933 30.1424 1.48633 30.0435 1.393C29.9446 1.29733 29.806 1.2495 29.6275 1.2495H29.208C29.0295 1.2495 28.8909 1.29733 28.792 1.393C28.6956 1.48633 28.6473 1.61933 28.6473 1.792V2.9575C28.6473 3.12783 28.6956 3.26083 28.792 3.3565C28.8909 3.45217 29.0295 3.5 29.208 3.5ZM29.5733 3.2025H29.2586C29.085 3.2025 28.9982 3.11617 28.9982 2.9435V1.806C28.9982 1.63333 29.085 1.547 29.2586 1.547H29.5733C29.7493 1.547 29.8373 1.63333 29.8373 1.806V2.9435C29.8373 3.11617 29.7493 3.2025 29.5733 3.2025Z" fill="#B3333A" fill-opacity="0.8"/>
<path d="M30.7407 3.5H30.965C31.006 3.5 31.0264 3.48017 31.0264 3.4405V1.939H31.0409L31.909 3.444C31.9331 3.48133 31.9645 3.5 32.003 3.5H32.1984C32.2394 3.5 32.2599 3.48017 32.2599 3.4405V1.309C32.2599 1.26933 32.2394 1.2495 32.1984 1.2495H31.9741C31.9331 1.2495 31.9126 1.26933 31.9126 1.309V2.8105H31.8982L31.0228 1.288C31.0084 1.26233 30.9818 1.2495 30.9433 1.2495H30.7407C30.6997 1.2495 30.6792 1.26933 30.6792 1.309V3.4405C30.6792 3.48017 30.6997 3.5 30.7407 3.5Z" fill="#B3333A" fill-opacity="0.8"/>
<path d="M32.8495 3.5H34.0214C34.0624 3.5 34.0829 3.48017 34.0829 3.4405V3.2585C34.0829 3.2165 34.0624 3.1955 34.0214 3.1955H33.1822C33.1533 3.1955 33.1388 3.18383 33.1388 3.1605V1.309C33.1388 1.26933 33.1183 1.2495 33.0773 1.2495H32.8495C32.8085 1.2495 32.788 1.26933 32.788 1.309V3.4405C32.788 3.48017 32.8085 3.5 32.8495 3.5Z" fill="#B3333A" fill-opacity="0.8"/>
<path d="M34.9553 3.5H35.1868C35.2278 3.5 35.2482 3.48017 35.2482 3.4405V2.667L35.9246 1.3125C35.9343 1.29383 35.9343 1.27867 35.9246 1.267C35.9174 1.25533 35.9041 1.2495 35.8848 1.2495H35.5955C35.5617 1.2495 35.5376 1.26933 35.5231 1.309L35.0855 2.2715H35.0638L34.6189 1.309C34.602 1.26933 34.5779 1.2495 34.5465 1.2495H34.2572C34.2403 1.2495 34.227 1.25533 34.2174 1.267C34.2077 1.27867 34.2077 1.29383 34.2174 1.3125L34.8938 2.667V3.4405C34.8938 3.48017 34.9143 3.5 34.9553 3.5Z" fill="#B3333A" fill-opacity="0.8"/>
<path d="M37.6394 3.5H38.059C38.235 3.5 38.3725 3.45217 38.4714 3.3565C38.5702 3.26083 38.6196 3.12783 38.6196 2.9575V2.7895C38.6196 2.7475 38.5979 2.7265 38.5545 2.7265H38.3267C38.2857 2.7265 38.2652 2.7475 38.2652 2.7895V2.9435C38.2652 3.11617 38.1784 3.2025 38.0048 3.2025H37.6901C37.5165 3.2025 37.4297 3.11617 37.4297 2.9435V1.806C37.4297 1.63333 37.5165 1.547 37.6901 1.547H38.0048C38.1784 1.547 38.2652 1.63333 38.2652 1.806V1.96C38.2652 2.002 38.2857 2.023 38.3267 2.023H38.5545C38.5979 2.023 38.6196 2.002 38.6196 1.96V1.792C38.6196 1.61933 38.5702 1.48633 38.4714 1.393C38.3725 1.29733 38.235 1.2495 38.059 1.2495H37.6394C37.461 1.2495 37.3223 1.29733 37.2235 1.393C37.127 1.48633 37.0788 1.61933 37.0788 1.792V2.9575C37.0788 3.12783 37.127 3.26083 37.2235 3.3565C37.3223 3.45217 37.461 3.5 37.6394 3.5Z" fill="#B3333A" fill-opacity="0.8"/>
<path d="M39.5928 3.5H40.0123C40.1884 3.5 40.3258 3.45217 40.4247 3.3565C40.5235 3.26083 40.573 3.12783 40.573 2.9575V2.7895C40.573 2.7475 40.5513 2.7265 40.5079 2.7265H40.28C40.239 2.7265 40.2185 2.7475 40.2185 2.7895V2.9435C40.2185 3.11617 40.1317 3.2025 39.9581 3.2025H39.6434C39.4698 3.2025 39.383 3.11617 39.383 2.9435V1.806C39.383 1.63333 39.4698 1.547 39.6434 1.547H39.9581C40.1317 1.547 40.2185 1.63333 40.2185 1.806V1.96C40.2185 2.002 40.239 2.023 40.28 2.023H40.5079C40.5513 2.023 40.573 2.002 40.573 1.96V1.792C40.573 1.61933 40.5235 1.48633 40.4247 1.393C40.3258 1.29733 40.1884 1.2495 40.0123 1.2495H39.5928C39.4143 1.2495 39.2757 1.29733 39.1768 1.393C39.0804 1.48633 39.0321 1.61933 39.0321 1.792V2.9575C39.0321 3.12783 39.0804 3.26083 39.1768 3.3565C39.2757 3.45217 39.4143 3.5 39.5928 3.5Z" fill="#B3333A" fill-opacity="0.8"/>
<path d="M42.3057 1.2495H42.0778C42.0344 1.2495 42.0127 1.26933 42.0127 1.309V2.9435C42.0127 3.11617 41.9259 3.2025 41.7523 3.2025H41.4955C41.3218 3.2025 41.235 3.11617 41.235 2.9435V2.6425C41.235 2.60283 41.2145 2.583 41.1735 2.583H40.9457C40.9023 2.583 40.8806 2.60283 40.8806 2.6425V2.9575C40.8806 3.12783 40.93 3.26083 41.0289 3.3565C41.1277 3.45217 41.2664 3.5 41.4448 3.5H41.8065C41.9826 3.5 42.12 3.45217 42.2189 3.3565C42.3177 3.26083 42.3672 3.12783 42.3672 2.9575V1.3055C42.3672 1.26817 42.3467 1.2495 42.3057 1.2495Z" fill="#B3333A" fill-opacity="0.8"/>
<path d="M42.8327 2.863V2.954C42.8327 3.12433 42.8833 3.2585 42.9846 3.3565C43.0859 3.45217 43.2245 3.5 43.4005 3.5H43.8056C43.9817 3.5 44.1191 3.45217 44.218 3.3565C44.3193 3.2585 44.3699 3.12433 44.3699 2.954V2.8175C44.3699 2.7055 44.3482 2.611 44.3048 2.534C44.2614 2.45467 44.2047 2.39633 44.1348 2.359C44.0649 2.31933 43.9877 2.28783 43.9033 2.2645C43.8189 2.24117 43.7345 2.22367 43.6501 2.212C43.5681 2.20033 43.4922 2.18633 43.4222 2.17C43.2655 2.13267 43.1871 2.0615 43.1871 1.9565V1.848C43.1871 1.73833 43.2088 1.66133 43.2522 1.617C43.2981 1.57033 43.3728 1.547 43.4765 1.547H43.7044C43.8081 1.547 43.8816 1.56917 43.925 1.6135C43.9708 1.6555 43.9937 1.72667 43.9937 1.827V1.8725C43.9937 1.91217 44.0142 1.932 44.0552 1.932H44.2867C44.3277 1.932 44.3482 1.91217 44.3482 1.8725V1.7955C44.3482 1.62517 44.2976 1.49217 44.1963 1.3965C44.0974 1.2985 43.9588 1.2495 43.7803 1.2495H43.3969C43.2209 1.2495 43.0822 1.2985 42.981 1.3965C42.8821 1.49217 42.8327 1.62517 42.8327 1.7955V1.9425C42.8327 2.07317 42.8616 2.1805 42.9195 2.2645C42.9798 2.3485 43.0533 2.40567 43.1401 2.436C43.2269 2.46633 43.3222 2.49317 43.4259 2.5165C43.5295 2.53983 43.6248 2.5585 43.7116 2.5725C43.7984 2.58417 43.8707 2.61217 43.9286 2.6565C43.9889 2.6985 44.019 2.75683 44.019 2.8315V2.912C44.019 3.01467 43.9961 3.08933 43.9503 3.136C43.9045 3.18033 43.8298 3.2025 43.7261 3.2025H43.4765C43.3728 3.2025 43.2981 3.1815 43.2522 3.1395C43.2088 3.09517 43.1871 3.024 43.1871 2.926V2.863C43.1871 2.82333 43.1666 2.8035 43.1256 2.8035H42.8941C42.8532 2.8035 42.8327 2.82333 42.8327 2.863Z" fill="#B3333A" fill-opacity="0.8"/>
<path d="M46.244 3.5H46.6636C46.8396 3.5 46.977 3.45217 47.0759 3.3565C47.1748 3.26083 47.2242 3.12783 47.2242 2.9575V2.7895C47.2242 2.7475 47.2025 2.7265 47.1591 2.7265H46.9312C46.8902 2.7265 46.8697 2.7475 46.8697 2.7895V2.9435C46.8697 3.11617 46.7829 3.2025 46.6093 3.2025H46.2946C46.121 3.2025 46.0342 3.11617 46.0342 2.9435V1.806C46.0342 1.63333 46.121 1.547 46.2946 1.547H46.6093C46.7829 1.547 46.8697 1.63333 46.8697 1.806V1.96C46.8697 2.002 46.8902 2.023 46.9312 2.023H47.1591C47.2025 2.023 47.2242 2.002 47.2242 1.96V1.792C47.2242 1.61933 47.1748 1.48633 47.0759 1.393C46.977 1.29733 46.8396 1.2495 46.6636 1.2495H46.244C46.0656 1.2495 45.9269 1.29733 45.828 1.393C45.7316 1.48633 45.6834 1.61933 45.6834 1.792V2.9575C45.6834 3.12783 45.7316 3.26083 45.828 3.3565C45.9269 3.45217 46.0656 3.5 46.244 3.5Z" fill="#B3333A" fill-opacity="0.8"/>
<path d="M47.7343 3.5H48.8918C48.9304 3.5 48.9497 3.48017 48.9497 3.4405V3.262C48.9497 3.22233 48.9304 3.2025 48.8918 3.2025H48.0671C48.0382 3.2025 48.0237 3.18967 48.0237 3.164V2.541C48.0237 2.51767 48.0382 2.506 48.0671 2.506H48.7652C48.8086 2.506 48.8303 2.48617 48.8303 2.4465V2.268C48.8303 2.22833 48.8086 2.2085 48.7652 2.2085H48.0671C48.0382 2.2085 48.0237 2.19683 48.0237 2.1735V1.582C48.0237 1.55867 48.0382 1.547 48.0671 1.547H48.8918C48.9304 1.547 48.9497 1.52717 48.9497 1.4875V1.309C48.9497 1.26933 48.9304 1.2495 48.8918 1.2495H47.7343C47.6934 1.2495 47.6729 1.26933 47.6729 1.309V3.4405C47.6729 3.48017 47.6934 3.5 47.7343 3.5Z" fill="#B3333A" fill-opacity="0.8"/>
<path fill-rule="evenodd" clip-rule="evenodd" d="M49.4722 3.5H49.7001C49.7411 3.5 49.7616 3.48017 49.7616 3.4405V2.6705C49.7616 2.64717 49.776 2.6355 49.805 2.6355H50.1703L50.5573 3.4405C50.5742 3.48017 50.6116 3.5 50.6694 3.5H50.8937C50.9516 3.5 50.9672 3.47667 50.9407 3.43L50.5392 2.611V2.597C50.7683 2.527 50.8828 2.35783 50.8828 2.0895V1.7955C50.8828 1.62517 50.8322 1.49217 50.7309 1.3965C50.6321 1.2985 50.4946 1.2495 50.3186 1.2495H49.4722C49.4312 1.2495 49.4107 1.26933 49.4107 1.309V3.4405C49.4107 3.48017 49.4312 3.5 49.4722 3.5ZM50.2607 2.3555H49.8014C49.7748 2.3555 49.7616 2.34383 49.7616 2.3205V1.582C49.7616 1.55867 49.7748 1.547 49.8014 1.547H50.2607C50.4392 1.547 50.5284 1.63333 50.5284 1.806V2.1C50.5284 2.27033 50.4392 2.3555 50.2607 2.3555Z" fill="#B3333A" fill-opacity="0.8"/>
<path d="M51.7798 3.5H52.0077C52.0487 3.5 52.0692 3.48017 52.0692 3.4405V1.582C52.0692 1.55867 52.0825 1.547 52.109 1.547H52.5647C52.6081 1.547 52.6298 1.52717 52.6298 1.4875V1.309C52.6298 1.26933 52.6081 1.2495 52.5647 1.2495H51.2228C51.1794 1.2495 51.1577 1.26933 51.1577 1.309V1.4875C51.1577 1.52717 51.1794 1.547 51.2228 1.547H51.6786C51.7027 1.547 51.7147 1.55867 51.7147 1.582V3.4405C51.7147 3.48017 51.7364 3.5 51.7798 3.5Z" fill="#B3333A" fill-opacity="0.8"/>
<path d="M53.3084 3.4405V1.309C53.3084 1.26933 53.2879 1.2495 53.2469 1.2495H53.019C52.978 1.2495 52.9575 1.26933 52.9575 1.309V3.4405C52.9575 3.48017 52.978 3.5 53.019 3.5H53.2469C53.2879 3.5 53.3084 3.48017 53.3084 3.4405Z" fill="#B3333A" fill-opacity="0.8"/>
<path d="M53.9158 3.5H54.1437C54.1846 3.5 54.2051 3.48017 54.2051 3.4405V2.6145C54.2051 2.59117 54.2196 2.5795 54.2485 2.5795H54.9466C54.99 2.5795 55.0117 2.5585 55.0117 2.5165V2.3415C55.0117 2.30183 54.99 2.282 54.9466 2.282H54.2485C54.2196 2.282 54.2051 2.26917 54.2051 2.2435V1.582C54.2051 1.55867 54.2196 1.547 54.2485 1.547H55.0515C55.0925 1.547 55.113 1.52717 55.113 1.4875V1.309C55.113 1.26933 55.0925 1.2495 55.0515 1.2495H53.9158C53.8748 1.2495 53.8543 1.26933 53.8543 1.309V3.4405C53.8543 3.48017 53.8748 3.5 53.9158 3.5Z" fill="#B3333A" fill-opacity="0.8"/>
<path d="M55.8657 3.4405V1.309C55.8657 1.26933 55.8452 1.2495 55.8042 1.2495H55.5764C55.5354 1.2495 55.5149 1.26933 55.5149 1.309V3.4405C55.5149 3.48017 55.5354 3.5 55.5764 3.5H55.8042C55.8452 3.5 55.8657 3.48017 55.8657 3.4405Z" fill="#B3333A" fill-opacity="0.8"/>
<path d="M56.4731 3.5H57.6306C57.6692 3.5 57.6884 3.48017 57.6884 3.4405V3.262C57.6884 3.22233 57.6692 3.2025 57.6306 3.2025H56.8059C56.777 3.2025 56.7625 3.18967 56.7625 3.164V2.541C56.7625 2.51767 56.777 2.506 56.8059 2.506H57.504C57.5474 2.506 57.5691 2.48617 57.5691 2.4465V2.268C57.5691 2.22833 57.5474 2.2085 57.504 2.2085H56.8059C56.777 2.2085 56.7625 2.19683 56.7625 2.1735V1.582C56.7625 1.55867 56.777 1.547 56.8059 1.547H57.6306C57.6692 1.547 57.6884 1.52717 57.6884 1.4875V1.309C57.6884 1.26933 57.6692 1.2495 57.6306 1.2495H56.4731C56.4321 1.2495 56.4116 1.26933 56.4116 1.309V3.4405C56.4116 3.48017 56.4321 3.5 56.4731 3.5Z" fill="#B3333A" fill-opacity="0.8"/>
<path fill-rule="evenodd" clip-rule="evenodd" d="M58.1495 1.309V3.4405C58.1495 3.48017 58.17 3.5 58.211 3.5H59.1008C59.2768 3.5 59.4143 3.45217 59.5131 3.3565C59.6144 3.26083 59.665 3.12783 59.665 2.9575V1.792C59.665 1.61933 59.6144 1.48633 59.5131 1.393C59.4143 1.29733 59.2768 1.2495 59.1008 1.2495H58.211C58.17 1.2495 58.1495 1.26933 58.1495 1.309ZM59.0501 3.2025H58.5401C58.5136 3.2025 58.5004 3.18967 58.5004 3.164V1.582C58.5004 1.55867 58.5136 1.547 58.5401 1.547H59.0501C59.2238 1.547 59.3106 1.63333 59.3106 1.806V2.9435C59.3106 3.11617 59.2238 3.2025 59.0501 3.2025Z" fill="#B3333A" fill-opacity="0.8"/>
<path fill-rule="evenodd" clip-rule="evenodd" d="M28.5497 8H28.8101C28.8439 8 28.8656 7.98017 28.8752 7.9405L29.0126 7.4855H29.8084L29.9458 7.9405C29.9507 7.96383 29.9567 7.98017 29.9639 7.9895C29.9736 7.9965 29.9892 8 30.0109 8H30.2677C30.3039 8 30.3172 7.98017 30.3075 7.9405L29.6782 5.809C29.6685 5.76933 29.6396 5.7495 29.5914 5.7495H29.2297C29.1838 5.7495 29.1549 5.76933 29.1429 5.809L28.5135 7.9405C28.5038 7.98017 28.5159 8 28.5497 8ZM29.085 7.2055L29.4033 6.0855H29.4177L29.7397 7.2055H29.085Z" fill="#B3333A" fill-opacity="0.8"/>
<path d="M30.7266 8H30.9508C30.9918 8 31.0123 7.98017 31.0123 7.9405V6.439H31.0268L31.8949 7.944C31.919 7.98133 31.9503 8 31.9889 8H32.1842C32.2252 8 32.2457 7.98017 32.2457 7.9405V5.809C32.2457 5.76933 32.2252 5.7495 32.1842 5.7495H31.96C31.919 5.7495 31.8985 5.76933 31.8985 5.809V7.3105H31.884L31.0087 5.788C30.9942 5.76233 30.9677 5.7495 30.9291 5.7495H30.7266C30.6856 5.7495 30.6651 5.76933 30.6651 5.809V7.9405C30.6651 7.98017 30.6856 8 30.7266 8Z" fill="#B3333A" fill-opacity="0.8"/>
<path fill-rule="evenodd" clip-rule="evenodd" d="M32.7738 5.809V7.9405C32.7738 7.98017 32.7943 8 32.8353 8H33.7251C33.9011 8 34.0386 7.95217 34.1375 7.8565C34.2387 7.76083 34.2894 7.62783 34.2894 7.4575V6.292C34.2894 6.11933 34.2387 5.98633 34.1375 5.893C34.0386 5.79733 33.9011 5.7495 33.7251 5.7495H32.8353C32.7943 5.7495 32.7738 5.76933 32.7738 5.809ZM33.6745 7.7025H33.1645C33.138 7.7025 33.1247 7.68967 33.1247 7.664V6.082C33.1247 6.05867 33.138 6.047 33.1645 6.047H33.6745C33.8481 6.047 33.9349 6.13333 33.9349 6.306V7.4435C33.9349 7.61617 33.8481 7.7025 33.6745 7.7025Z" fill="#B3333A" fill-opacity="0.8"/>
<path fill-rule="evenodd" clip-rule="evenodd" d="M35.642 5.809V7.9405C35.642 7.98017 35.6625 8 35.7035 8H36.5933C36.7693 8 36.9068 7.95217 37.0056 7.8565C37.1069 7.76083 37.1576 7.62783 37.1576 7.4575V6.292C37.1576 6.11933 37.1069 5.98633 37.0056 5.893C36.9068 5.79733 36.7693 5.7495 36.5933 5.7495H35.7035C35.6625 5.7495 35.642 5.76933 35.642 5.809ZM36.5427 7.7025H36.0327C36.0061 7.7025 35.9929 7.68967 35.9929 7.664V6.082C35.9929 6.05867 36.0061 6.047 36.0327 6.047H36.5427C36.7163 6.047 36.8031 6.13333 36.8031 6.306V7.4435C36.8031 7.61617 36.7163 7.7025 36.5427 7.7025Z" fill="#B3333A" fill-opacity="0.8"/>
<path d="M37.7098 8H37.9377C37.9787 8 37.9992 7.98017 37.9992 7.9405V7.055C37.9992 7.03167 38.0137 7.02 38.0426 7.02H38.8058C38.8299 7.02 38.842 7.03167 38.842 7.055V7.9405C38.842 7.98017 38.8625 8 38.9034 8H39.1349C39.1759 8 39.1964 7.98017 39.1964 7.9405V5.809C39.1964 5.76933 39.1759 5.7495 39.1349 5.7495H38.9034C38.8625 5.7495 38.842 5.76933 38.842 5.809V6.684C38.842 6.70733 38.8299 6.719 38.8058 6.719H38.0426C38.0137 6.719 37.9992 6.70733 37.9992 6.684V5.809C37.9992 5.76933 37.9787 5.7495 37.9377 5.7495H37.7098C37.6688 5.7495 37.6483 5.76933 37.6483 5.809V7.9405C37.6483 7.98017 37.6688 8 37.7098 8Z" fill="#B3333A" fill-opacity="0.8"/>
<path d="M39.6819 7.363V7.454C39.6819 7.62433 39.7325 7.7585 39.8338 7.8565C39.9351 7.95217 40.0737 8 40.2498 8H40.6549C40.8309 8 40.9683 7.95217 41.0672 7.8565C41.1685 7.7585 41.2191 7.62433 41.2191 7.454V7.3175C41.2191 7.2055 41.1974 7.111 41.154 7.034C41.1106 6.95467 41.054 6.89633 40.984 6.859C40.9141 6.81933 40.8369 6.78783 40.7525 6.7645C40.6681 6.74117 40.5837 6.72367 40.4993 6.712C40.4174 6.70033 40.3414 6.68633 40.2715 6.67C40.1147 6.63267 40.0364 6.5615 40.0364 6.4565V6.348C40.0364 6.23833 40.0581 6.16133 40.1015 6.117C40.1473 6.07033 40.222 6.047 40.3257 6.047H40.5536C40.6573 6.047 40.7308 6.06917 40.7742 6.1135C40.8201 6.1555 40.843 6.22667 40.843 6.327V6.3725C40.843 6.41217 40.8635 6.432 40.9044 6.432H41.1359C41.1769 6.432 41.1974 6.41217 41.1974 6.3725V6.2955C41.1974 6.12517 41.1468 5.99217 41.0455 5.8965C40.9466 5.7985 40.808 5.7495 40.6296 5.7495H40.2461C40.0701 5.7495 39.9315 5.7985 39.8302 5.8965C39.7313 5.99217 39.6819 6.12517 39.6819 6.2955V6.4425C39.6819 6.57317 39.7108 6.6805 39.7687 6.7645C39.829 6.8485 39.9025 6.90567 39.9893 6.936C40.0762 6.96633 40.1714 6.99317 40.2751 7.0165C40.3788 7.03983 40.474 7.0585 40.5608 7.0725C40.6476 7.08417 40.72 7.11217 40.7779 7.1565C40.8381 7.1985 40.8683 7.25683 40.8683 7.3315V7.412C40.8683 7.51467 40.8454 7.58933 40.7996 7.636C40.7537 7.68033 40.679 7.7025 40.5753 7.7025H40.3257C40.222 7.7025 40.1473 7.6815 40.1015 7.6395C40.0581 7.59517 40.0364 7.524 40.0364 7.426V7.363C40.0364 7.32333 40.0159 7.3035 39.9749 7.3035H39.7434C39.7024 7.3035 39.6819 7.32333 39.6819 7.363Z" fill="#B3333A" fill-opacity="0.8"/>
<path d="M41.7684 8H41.9963C42.0372 8 42.0577 7.98017 42.0577 7.9405V7.1145C42.0577 7.09117 42.0722 7.0795 42.1011 7.0795H42.7992C42.8426 7.0795 42.8643 7.0585 42.8643 7.0165V6.8415C42.8643 6.80183 42.8426 6.782 42.7992 6.782H42.1011C42.0722 6.782 42.0577 6.76917 42.0577 6.7435V6.082C42.0577 6.05867 42.0722 6.047 42.1011 6.047H42.9041C42.9451 6.047 42.9656 6.02717 42.9656 5.9875V5.809C42.9656 5.76933 42.9451 5.7495 42.9041 5.7495H41.7684C41.7274 5.7495 41.7069 5.76933 41.7069 5.809V7.9405C41.7069 7.98017 41.7274 8 41.7684 8Z" fill="#B3333A" fill-opacity="0.8"/>
<path d="M44.7213 6.81H44.9455C45.0468 6.81 45.1179 6.83217 45.1589 6.8765C45.2023 6.92083 45.224 6.9955 45.224 7.1005V7.454C45.224 7.62433 45.1348 7.7095 44.9564 7.7095H44.7502C44.5766 7.7095 44.4898 7.62433 44.4898 7.454V7.3665C44.4898 7.3245 44.4693 7.3035 44.4283 7.3035H44.2004C44.1594 7.3035 44.1389 7.3245 44.1389 7.3665V7.4575C44.1389 7.62783 44.1871 7.76083 44.2836 7.8565C44.3825 7.95217 44.5211 8 44.6996 8H45.007C45.183 8 45.3205 7.95217 45.4193 7.8565C45.5182 7.76083 45.5676 7.62783 45.5676 7.4575V7.0515C45.5676 6.88117 45.5218 6.75283 45.4302 6.6665C45.3386 6.57783 45.2059 6.5335 45.0323 6.5335H44.8189C44.6574 6.5335 44.5561 6.59067 44.5151 6.705V6.068H45.4483C45.4917 6.068 45.5134 6.04817 45.5134 6.0085V5.809C45.5134 5.76933 45.4917 5.7495 45.4483 5.7495H44.2221C44.1811 5.7495 44.1606 5.76933 44.1606 5.809V6.908C44.1606 6.94767 44.1811 6.9675 44.2221 6.9675H44.45C44.4886 6.9675 44.5211 6.94067 44.5476 6.887C44.5573 6.86833 44.5766 6.85083 44.6055 6.8345C44.6369 6.81817 44.6754 6.81 44.7213 6.81Z" fill="#B3333A" fill-opacity="0.8"/>
<path d="M46.4179 8H46.6458C46.6868 8 46.7073 7.98017 46.7073 7.9405V6.082C46.7073 6.05867 46.7205 6.047 46.747 6.047H47.2028C47.2462 6.047 47.2679 6.02717 47.2679 5.9875V5.809C47.2679 5.76933 47.2462 5.7495 47.2028 5.7495H45.8609C45.8175 5.7495 45.7958 5.76933 45.7958 5.809V5.9875C45.7958 6.02717 45.8175 6.047 45.8609 6.047H46.3166C46.3407 6.047 46.3528 6.05867 46.3528 6.082V7.9405C46.3528 7.98017 46.3745 8 46.4179 8Z" fill="#B3333A" fill-opacity="0.8"/>
<path d="M47.639 8H47.8668C47.9078 8 47.9283 7.98017 47.9283 7.9405V7.055C47.9283 7.03167 47.9428 7.02 47.9717 7.02H48.7349C48.759 7.02 48.7711 7.03167 48.7711 7.055V7.9405C48.7711 7.98017 48.7916 8 48.8326 8H49.0641C49.1051 8 49.1256 7.98017 49.1256 7.9405V5.809C49.1256 5.76933 49.1051 5.7495 49.0641 5.7495H48.8326C48.7916 5.7495 48.7711 5.76933 48.7711 5.809V6.684C48.7711 6.70733 48.759 6.719 48.7349 6.719H47.9717C47.9428 6.719 47.9283 6.70733 47.9283 6.684V5.809C47.9283 5.76933 47.9078 5.7495 47.8668 5.7495H47.639C47.598 5.7495 47.5775 5.76933 47.5775 5.809V7.9405C47.5775 7.98017 47.598 8 47.639 8Z" fill="#B3333A" fill-opacity="0.8"/>
<path d="M51.0408 8H51.4604C51.6364 8 51.7738 7.95217 51.8727 7.8565C51.9716 7.76083 52.021 7.62783 52.021 7.4575V7.2895C52.021 7.2475 51.9993 7.2265 51.9559 7.2265H51.728C51.687 7.2265 51.6665 7.2475 51.6665 7.2895V7.4435C51.6665 7.61617 51.5797 7.7025 51.4061 7.7025H51.0914C50.9178 7.7025 50.831 7.61617 50.831 7.4435V6.306C50.831 6.13333 50.9178 6.047 51.0914 6.047H51.4061C51.5797 6.047 51.6665 6.13333 51.6665 6.306V6.46C51.6665 6.502 51.687 6.523 51.728 6.523H51.9559C51.9993 6.523 52.021 6.502 52.021 6.46V6.292C52.021 6.11933 51.9716 5.98633 51.8727 5.893C51.7738 5.79733 51.6364 5.7495 51.4604 5.7495H51.0408C50.8623 5.7495 50.7237 5.79733 50.6248 5.893C50.5284 5.98633 50.4801 6.11933 50.4801 6.292V7.4575C50.4801 7.62783 50.5284 7.76083 50.6248 7.8565C50.7237 7.95217 50.8623 8 51.0408 8Z" fill="#B3333A" fill-opacity="0.8"/>
<path d="M52.5311 8H53.7031C53.744 8 53.7645 7.98017 53.7645 7.9405V7.7585C53.7645 7.7165 53.744 7.6955 53.7031 7.6955H52.8639C52.835 7.6955 52.8205 7.68383 52.8205 7.6605V5.809C52.8205 5.76933 52.8 5.7495 52.759 5.7495H52.5311C52.4901 5.7495 52.4696 5.76933 52.4696 5.809V7.9405C52.4696 7.98017 52.4901 8 52.5311 8Z" fill="#B3333A" fill-opacity="0.8"/>
<path fill-rule="evenodd" clip-rule="evenodd" d="M53.9642 8H54.2246C54.2584 8 54.2801 7.98017 54.2897 7.9405L54.4272 7.4855H55.2229L55.3604 7.9405C55.3652 7.96383 55.3712 7.98017 55.3784 7.9895C55.3881 7.9965 55.4038 8 55.4255 8H55.6823C55.7184 8 55.7317 7.98017 55.7221 7.9405L55.0927 5.809C55.0831 5.76933 55.0541 5.7495 55.0059 5.7495H54.6442C54.5984 5.7495 54.5694 5.76933 54.5574 5.809L53.928 7.9405C53.9184 7.98017 53.9304 8 53.9642 8ZM54.4995 7.2055L54.8178 6.0855H54.8323L55.1542 7.2055H54.4995Z" fill="#B3333A" fill-opacity="0.8"/>
<path d="M56.0362 7.363V7.454C56.0362 7.62433 56.0868 7.7585 56.1881 7.8565C56.2894 7.95217 56.428 8 56.6041 8H57.0092C57.1852 8 57.3227 7.95217 57.4215 7.8565C57.5228 7.7585 57.5734 7.62433 57.5734 7.454V7.3175C57.5734 7.2055 57.5517 7.111 57.5083 7.034C57.4649 6.95467 57.4083 6.89633 57.3383 6.859C57.2684 6.81933 57.1912 6.78783 57.1068 6.7645C57.0224 6.74117 56.938 6.72367 56.8536 6.712C56.7717 6.70033 56.6957 6.68633 56.6258 6.67C56.469 6.63267 56.3907 6.5615 56.3907 6.4565V6.348C56.3907 6.23833 56.4124 6.16133 56.4558 6.117C56.5016 6.07033 56.5763 6.047 56.68 6.047H56.9079C57.0116 6.047 57.0851 6.06917 57.1285 6.1135C57.1744 6.1555 57.1973 6.22667 57.1973 6.327V6.3725C57.1973 6.41217 57.2178 6.432 57.2588 6.432H57.4902C57.5312 6.432 57.5517 6.41217 57.5517 6.3725V6.2955C57.5517 6.12517 57.5011 5.99217 57.3998 5.8965C57.301 5.7985 57.1623 5.7495 56.9839 5.7495H56.6005C56.4244 5.7495 56.2858 5.7985 56.1845 5.8965C56.0856 5.99217 56.0362 6.12517 56.0362 6.2955V6.4425C56.0362 6.57317 56.0651 6.6805 56.123 6.7645C56.1833 6.8485 56.2568 6.90567 56.3436 6.936C56.4305 6.96633 56.5257 6.99317 56.6294 7.0165C56.7331 7.03983 56.8283 7.0585 56.9151 7.0725C57.0019 7.08417 57.0743 7.11217 57.1322 7.1565C57.1924 7.1985 57.2226 7.25683 57.2226 7.3315V7.412C57.2226 7.51467 57.1997 7.58933 57.1539 7.636C57.108 7.68033 57.0333 7.7025 56.9296 7.7025H56.68C56.5763 7.7025 56.5016 7.6815 56.4558 7.6395C56.4124 7.59517 56.3907 7.524 56.3907 7.426V7.363C56.3907 7.32333 56.3702 7.3035 56.3292 7.3035H56.0977C56.0567 7.3035 56.0362 7.32333 56.0362 7.363Z" fill="#B3333A" fill-opacity="0.8"/>
<path d="M58.0178 7.363V7.454C58.0178 7.62433 58.0684 7.7585 58.1697 7.8565C58.271 7.95217 58.4096 8 58.5857 8H58.9908C59.1668 8 59.3042 7.95217 59.4031 7.8565C59.5044 7.7585 59.555 7.62433 59.555 7.454V7.3175C59.555 7.2055 59.5333 7.111 59.4899 7.034C59.4465 6.95467 59.3898 6.89633 59.3199 6.859C59.25 6.81933 59.1728 6.78783 59.0884 6.7645C59.004 6.74117 58.9196 6.72367 58.8352 6.712C58.7533 6.70033 58.6773 6.68633 58.6074 6.67C58.4506 6.63267 58.3723 6.5615 58.3723 6.4565V6.348C58.3723 6.23833 58.394 6.16133 58.4374 6.117C58.4832 6.07033 58.5579 6.047 58.6616 6.047H58.8895C58.9932 6.047 59.0667 6.06917 59.1101 6.1135C59.1559 6.1555 59.1789 6.22667 59.1789 6.327V6.3725C59.1789 6.41217 59.1994 6.432 59.2403 6.432H59.4718C59.5128 6.432 59.5333 6.41217 59.5333 6.3725V6.2955C59.5333 6.12517 59.4827 5.99217 59.3814 5.8965C59.2825 5.7985 59.1439 5.7495 58.9655 5.7495H58.582C58.406 5.7495 58.2674 5.7985 58.1661 5.8965C58.0672 5.99217 58.0178 6.12517 58.0178 6.2955V6.4425C58.0178 6.57317 58.0467 6.6805 58.1046 6.7645C58.1649 6.8485 58.2384 6.90567 58.3252 6.936C58.412 6.96633 58.5073 6.99317 58.611 7.0165C58.7147 7.03983 58.8099 7.0585 58.8967 7.0725C58.9835 7.08417 59.0559 7.11217 59.1137 7.1565C59.174 7.1985 59.2042 7.25683 59.2042 7.3315V7.412C59.2042 7.51467 59.1813 7.58933 59.1354 7.636C59.0896 7.68033 59.0149 7.7025 58.9112 7.7025H58.6616C58.5579 7.7025 58.4832 7.6815 58.4374 7.6395C58.394 7.59517 58.3723 7.524 58.3723 7.426V7.363C58.3723 7.32333 58.3518 7.3035 58.3108 7.3035H58.0793C58.0383 7.3035 58.0178 7.32333 58.0178 7.363Z" fill="#B3333A" fill-opacity="0.8"/>
<path fill-rule="evenodd" clip-rule="evenodd" d="M61.4291 8H61.8487C62.0271 8 62.1658 7.95217 62.2647 7.8565C62.3635 7.76083 62.413 7.62783 62.413 7.4575V6.292C62.413 6.11933 62.3635 5.98633 62.2647 5.893C62.1658 5.79733 62.0271 5.7495 61.8487 5.7495H61.4291C61.2507 5.7495 61.112 5.79733 61.0132 5.893C60.9167 5.98633 60.8685 6.11933 60.8685 6.292V7.4575C60.8685 7.62783 60.9167 7.76083 61.0132 7.8565C61.112 7.95217 61.2507 8 61.4291 8ZM61.7944 7.7025H61.4798C61.3061 7.7025 61.2193 7.61617 61.2193 7.4435V6.306C61.2193 6.13333 61.3061 6.047 61.4798 6.047H61.7944C61.9705 6.047 62.0585 6.13333 62.0585 6.306V7.4435C62.0585 7.61617 61.9705 7.7025 61.7944 7.7025Z" fill="#B3333A" fill-opacity="0.8"/>
<path d="M62.9619 8H63.1897C63.2307 8 63.2512 7.98017 63.2512 7.9405V7.1145C63.2512 7.09117 63.2657 7.0795 63.2946 7.0795H63.9927C64.0361 7.0795 64.0578 7.0585 64.0578 7.0165V6.8415C64.0578 6.80183 64.0361 6.782 63.9927 6.782H63.2946C63.2657 6.782 63.2512 6.76917 63.2512 6.7435V6.082C63.2512 6.05867 63.2657 6.047 63.2946 6.047H64.0976C64.1386 6.047 64.1591 6.02717 64.1591 5.9875V5.809C64.1591 5.76933 64.1386 5.7495 64.0976 5.7495H62.9619C62.9209 5.7495 62.9004 5.76933 62.9004 5.809V7.9405C62.9004 7.98017 62.9209 8 62.9619 8Z" fill="#B3333A" fill-opacity="0.8"/>
<path d="M64.6044 8H64.8322C64.8732 8 64.8937 7.98017 64.8937 7.9405V7.1145C64.8937 7.09117 64.9082 7.0795 64.9371 7.0795H65.6352C65.6786 7.0795 65.7003 7.0585 65.7003 7.0165V6.8415C65.7003 6.80183 65.6786 6.782 65.6352 6.782H64.9371C64.9082 6.782 64.8937 6.76917 64.8937 6.7435V6.082C64.8937 6.05867 64.9082 6.047 64.9371 6.047H65.7401C65.7811 6.047 65.8016 6.02717 65.8016 5.9875V5.809C65.8016 5.76933 65.7811 5.7495 65.7401 5.7495H64.6044C64.5634 5.7495 64.5429 5.76933 64.5429 5.809V7.9405C64.5429 7.98017 64.5634 8 64.6044 8Z" fill="#B3333A" fill-opacity="0.8"/>
<path d="M66.5543 7.9405V5.809C66.5543 5.76933 66.5338 5.7495 66.4928 5.7495H66.2649C66.2239 5.7495 66.2035 5.76933 66.2035 5.809V7.9405C66.2035 7.98017 66.2239 8 66.2649 8H66.4928C66.5338 8 66.5543 7.98017 66.5543 7.9405Z" fill="#B3333A" fill-opacity="0.8"/>
<path d="M67.6247 8H68.0443C68.2203 8 68.3577 7.95217 68.4566 7.8565C68.5555 7.76083 68.6049 7.62783 68.6049 7.4575V7.2895C68.6049 7.2475 68.5832 7.2265 68.5398 7.2265H68.3119C68.2709 7.2265 68.2504 7.2475 68.2504 7.2895V7.4435C68.2504 7.61617 68.1636 7.7025 67.99 7.7025H67.6753C67.5017 7.7025 67.4149 7.61617 67.4149 7.4435V6.306C67.4149 6.13333 67.5017 6.047 67.6753 6.047H67.99C68.1636 6.047 68.2504 6.13333 68.2504 6.306V6.46C68.2504 6.502 68.2709 6.523 68.3119 6.523H68.5398C68.5832 6.523 68.6049 6.502 68.6049 6.46V6.292C68.6049 6.11933 68.5555 5.98633 68.4566 5.893C68.3577 5.79733 68.2203 5.7495 68.0443 5.7495H67.6247C67.4462 5.7495 67.3076 5.79733 67.2087 5.893C67.1123 5.98633 67.064 6.11933 67.064 6.292V7.4575C67.064 7.62783 67.1123 7.76083 67.2087 7.8565C67.3076 7.95217 67.4462 8 67.6247 8Z" fill="#B3333A" fill-opacity="0.8"/>
<path d="M69.115 8H70.2725C70.3111 8 70.3304 7.98017 70.3304 7.9405V7.762C70.3304 7.72233 70.3111 7.7025 70.2725 7.7025H69.4478C69.4189 7.7025 69.4044 7.68967 69.4044 7.664V7.041C69.4044 7.01767 69.4189 7.006 69.4478 7.006H70.1459C70.1893 7.006 70.211 6.98617 70.211 6.9465V6.768C70.211 6.72833 70.1893 6.7085 70.1459 6.7085H69.4478C69.4189 6.7085 69.4044 6.69683 69.4044 6.6735V6.082C69.4044 6.05867 69.4189 6.047 69.4478 6.047H70.2725C70.3111 6.047 70.3304 6.02717 70.3304 5.9875V5.809C70.3304 5.76933 70.3111 5.7495 70.2725 5.7495H69.115C69.074 5.7495 69.0535 5.76933 69.0535 5.809V7.9405C69.0535 7.98017 69.074 8 69.115 8Z" fill="#B3333A" fill-opacity="0.8"/>
<path fill-rule="evenodd" clip-rule="evenodd" d="M70.8529 8H71.0808C71.1218 8 71.1423 7.98017 71.1423 7.9405V7.1705C71.1423 7.14717 71.1567 7.1355 71.1857 7.1355H71.551L71.938 7.9405C71.9549 7.98017 71.9923 8 72.0501 8H72.2744C72.3323 8 72.3479 7.97667 72.3214 7.93L71.9199 7.111V7.097C72.149 7.027 72.2635 6.85783 72.2635 6.5895V6.2955C72.2635 6.12517 72.2129 5.99217 72.1116 5.8965C72.0128 5.7985 71.8753 5.7495 71.6993 5.7495H70.8529C70.8119 5.7495 70.7914 5.76933 70.7914 5.809V7.9405C70.7914 7.98017 70.8119 8 70.8529 8ZM71.6414 6.8555H71.1821C71.1555 6.8555 71.1423 6.84383 71.1423 6.8205V6.082C71.1423 6.05867 71.1555 6.047 71.1821 6.047H71.6414C71.8199 6.047 71.9091 6.13333 71.9091 6.306V6.6C71.9091 6.77033 71.8199 6.8555 71.6414 6.8555Z" fill="#B3333A" fill-opacity="0.8"/>
<path d="M72.7084 7.363V7.454C72.7084 7.62433 72.759 7.7585 72.8603 7.8565C72.9616 7.95217 73.1003 8 73.2763 8H73.6814C73.8574 8 73.9949 7.95217 74.0937 7.8565C74.195 7.7585 74.2456 7.62433 74.2456 7.454V7.3175C74.2456 7.2055 74.2239 7.111 74.1805 7.034C74.1371 6.95467 74.0805 6.89633 74.0105 6.859C73.9406 6.81933 73.8634 6.78783 73.779 6.7645C73.6946 6.74117 73.6103 6.72367 73.5259 6.712C73.4439 6.70033 73.3679 6.68633 73.298 6.67C73.1412 6.63267 73.0629 6.5615 73.0629 6.4565V6.348C73.0629 6.23833 73.0846 6.16133 73.128 6.117C73.1738 6.07033 73.2486 6.047 73.3522 6.047H73.5801C73.6838 6.047 73.7573 6.06917 73.8007 6.1135C73.8466 6.1555 73.8695 6.22667 73.8695 6.327V6.3725C73.8695 6.41217 73.89 6.432 73.931 6.432H74.1624C74.2034 6.432 74.2239 6.41217 74.2239 6.3725V6.2955C74.2239 6.12517 74.1733 5.99217 74.072 5.8965C73.9732 5.7985 73.8345 5.7495 73.6561 5.7495H73.2727C73.0966 5.7495 72.958 5.7985 72.8567 5.8965C72.7578 5.99217 72.7084 6.12517 72.7084 6.2955V6.4425C72.7084 6.57317 72.7373 6.6805 72.7952 6.7645C72.8555 6.8485 72.929 6.90567 73.0159 6.936C73.1027 6.96633 73.1979 6.99317 73.3016 7.0165C73.4053 7.03983 73.5005 7.0585 73.5873 7.0725C73.6742 7.08417 73.7465 7.11217 73.8044 7.1565C73.8647 7.1985 73.8948 7.25683 73.8948 7.3315V7.412C73.8948 7.51467 73.8719 7.58933 73.8261 7.636C73.7802 7.68033 73.7055 7.7025 73.6018 7.7025H73.3522C73.2486 7.7025 73.1738 7.6815 73.128 7.6395C73.0846 7.59517 73.0629 7.524 73.0629 7.426V7.363C73.0629 7.32333 73.0424 7.3035 73.0014 7.3035H72.7699C72.7289 7.3035 72.7084 7.32333 72.7084 7.363Z" fill="#B3333A" fill-opacity="0.8"/>
<path fill-rule="evenodd" clip-rule="evenodd" d="M28.5497 12.5H28.8101C28.8439 12.5 28.8656 12.4802 28.8752 12.4405L29.0126 11.9855H29.8084L29.9458 12.4405C29.9507 12.4638 29.9567 12.4802 29.9639 12.4895C29.9736 12.4965 29.9892 12.5 30.0109 12.5H30.2677C30.3039 12.5 30.3172 12.4802 30.3075 12.4405L29.6782 10.309C29.6685 10.2693 29.6396 10.2495 29.5914 10.2495H29.2297C29.1838 10.2495 29.1549 10.2693 29.1429 10.309L28.5135 12.4405C28.5038 12.4802 28.5159 12.5 28.5497 12.5ZM29.085 11.7055L29.4033 10.5855H29.4177L29.7397 11.7055H29.085Z" fill="#B3333A" fill-opacity="0.8"/>
<path fill-rule="evenodd" clip-rule="evenodd" d="M30.7266 12.5H30.9544C30.9954 12.5 31.0159 12.4802 31.0159 12.4405V11.6705C31.0159 11.6472 31.0304 11.6355 31.0593 11.6355H31.4247L31.8117 12.4405C31.8286 12.4802 31.8659 12.5 31.9238 12.5H32.1481C32.2059 12.5 32.2216 12.4767 32.1951 12.43L31.7936 11.611V11.597C32.0227 11.527 32.1372 11.3578 32.1372 11.0895V10.7955C32.1372 10.6252 32.0866 10.4922 31.9853 10.3965C31.8864 10.2985 31.749 10.2495 31.573 10.2495H30.7266C30.6856 10.2495 30.6651 10.2693 30.6651 10.309V12.4405C30.6651 12.4802 30.6856 12.5 30.7266 12.5ZM31.5151 11.3555H31.0557C31.0292 11.3555 31.0159 11.3438 31.0159 11.3205V10.582C31.0159 10.5587 31.0292 10.547 31.0557 10.547H31.5151C31.6935 10.547 31.7827 10.6333 31.7827 10.806V11.1C31.7827 11.2703 31.6935 11.3555 31.5151 11.3555Z" fill="#B3333A" fill-opacity="0.8"/>
<path d="M32.687 12.5H33.8444C33.883 12.5 33.9023 12.4802 33.9023 12.4405V12.262C33.9023 12.2223 33.883 12.2025 33.8444 12.2025H33.0197C32.9908 12.2025 32.9763 12.1897 32.9763 12.164V11.541C32.9763 11.5177 32.9908 11.506 33.0197 11.506H33.7178C33.7612 11.506 33.7829 11.4862 33.7829 11.4465V11.268C33.7829 11.2283 33.7612 11.2085 33.7178 11.2085H33.0197C32.9908 11.2085 32.9763 11.1968 32.9763 11.1735V10.582C32.9763 10.5587 32.9908 10.547 33.0197 10.547H33.8444C33.883 10.547 33.9023 10.5272 33.9023 10.4875V10.309C33.9023 10.2693 33.883 10.2495 33.8444 10.2495H32.687C32.646 10.2495 32.6255 10.2693 32.6255 10.309V12.4405C32.6255 12.4802 32.646 12.5 32.687 12.5Z" fill="#B3333A" fill-opacity="0.8"/>
<path fill-rule="evenodd" clip-rule="evenodd" d="M35.0914 12.5H35.3518C35.3856 12.5 35.4073 12.4802 35.4169 12.4405L35.5544 11.9855H36.3501L36.4876 12.4405C36.4924 12.4638 36.4984 12.4802 36.5056 12.4895C36.5153 12.4965 36.531 12.5 36.5527 12.5H36.8095C36.8456 12.5 36.8589 12.4802 36.8493 12.4405L36.2199 10.309C36.2103 10.2693 36.1813 10.2495 36.1331 10.2495H35.7714C35.7256 10.2495 35.6966 10.2693 35.6846 10.309L35.0552 12.4405C35.0456 12.4802 35.0576 12.5 35.0914 12.5ZM35.6267 11.7055L35.945 10.5855H35.9595L36.2814 11.7055H35.6267Z" fill="#B3333A" fill-opacity="0.8"/>
<path d="M37.2683 12.5H38.4402C38.4812 12.5 38.5017 12.4802 38.5017 12.4405V12.2585C38.5017 12.2165 38.4812 12.1955 38.4402 12.1955H37.6011C37.5721 12.1955 37.5577 12.1838 37.5577 12.1605V10.309C37.5577 10.2693 37.5372 10.2495 37.4962 10.2495H37.2683C37.2273 10.2495 37.2068 10.2693 37.2068 10.309V12.4405C37.2068 12.4802 37.2273 12.5 37.2683 12.5Z" fill="#B3333A" fill-opacity="0.8"/>
<path d="M38.8967 12.5H40.0686C40.1096 12.5 40.1301 12.4802 40.1301 12.4405V12.2585C40.1301 12.2165 40.1096 12.1955 40.0686 12.1955H39.2294C39.2005 12.1955 39.186 12.1838 39.186 12.1605V10.309C39.186 10.2693 39.1655 10.2495 39.1245 10.2495H38.8967C38.8557 10.2495 38.8352 10.2693 38.8352 10.309V12.4405C38.8352 12.4802 38.8557 12.5 38.8967 12.5Z" fill="#B3333A" fill-opacity="0.8"/>
<path fill-rule="evenodd" clip-rule="evenodd" d="M40.988 12.5H41.4076C41.586 12.5 41.7247 12.4522 41.8235 12.3565C41.9224 12.2608 41.9718 12.1278 41.9718 11.9575V10.792C41.9718 10.6193 41.9224 10.4863 41.8235 10.393C41.7247 10.2973 41.586 10.2495 41.4076 10.2495H40.988C40.8096 10.2495 40.6709 10.2973 40.5721 10.393C40.4756 10.4863 40.4274 10.6193 40.4274 10.792V11.9575C40.4274 12.1278 40.4756 12.2608 40.5721 12.3565C40.6709 12.4522 40.8096 12.5 40.988 12.5ZM41.3533 12.2025H41.0386C40.865 12.2025 40.7782 12.1162 40.7782 11.9435V10.806C40.7782 10.6333 40.865 10.547 41.0386 10.547H41.3533C41.5294 10.547 41.6174 10.6333 41.6174 10.806V11.9435C41.6174 12.1162 41.5294 12.2025 41.3533 12.2025Z" fill="#B3333A" fill-opacity="0.8"/>
<path d="M42.7776 12.5H43.161C43.1995 12.5 43.2225 12.4802 43.2297 12.4405L43.6384 10.6695H43.6529L44.0616 12.4405C44.0688 12.4802 44.0929 12.5 44.1339 12.5H44.5173C44.5583 12.5 44.5825 12.4802 44.5897 12.4405L45.0201 10.3125C45.0273 10.2705 45.0068 10.2495 44.9586 10.2495H44.6801C44.6343 10.2495 44.6102 10.2705 44.6078 10.3125L44.3148 12.143H44.2931L43.8627 10.302C43.8554 10.267 43.8325 10.2495 43.7939 10.2495H43.4901C43.4515 10.2495 43.4298 10.267 43.425 10.302L42.9982 12.143H42.9765L42.6835 10.309C42.6811 10.2693 42.657 10.2495 42.6112 10.2495H42.3327C42.2868 10.2495 42.2664 10.2693 42.2712 10.309L42.7016 12.4405C42.7088 12.4802 42.7342 12.5 42.7776 12.5Z" fill="#B3333A" fill-opacity="0.8"/>
<path d="M45.4207 12.5H46.5782C46.6168 12.5 46.636 12.4802 46.636 12.4405V12.262C46.636 12.2223 46.6168 12.2025 46.5782 12.2025H45.7535C45.7246 12.2025 45.7101 12.1897 45.7101 12.164V11.541C45.7101 11.5177 45.7246 11.506 45.7535 11.506H46.4516C46.495 11.506 46.5167 11.4862 46.5167 11.4465V11.268C46.5167 11.2283 46.495 11.2085 46.4516 11.2085H45.7535C45.7246 11.2085 45.7101 11.1968 45.7101 11.1735V10.582C45.7101 10.5587 45.7246 10.547 45.7535 10.547H46.5782C46.6168 10.547 46.636 10.5272 46.636 10.4875V10.309C46.636 10.2693 46.6168 10.2495 46.5782 10.2495H45.4207C45.3797 10.2495 45.3592 10.2693 45.3592 10.309V12.4405C45.3592 12.4802 45.3797 12.5 45.4207 12.5Z" fill="#B3333A" fill-opacity="0.8"/>
<path fill-rule="evenodd" clip-rule="evenodd" d="M47.0971 10.309V12.4405C47.0971 12.4802 47.1176 12.5 47.1586 12.5H48.0484C48.2244 12.5 48.3619 12.4522 48.4607 12.3565C48.562 12.2608 48.6126 12.1278 48.6126 11.9575V10.792C48.6126 10.6193 48.562 10.4863 48.4607 10.393C48.3619 10.2973 48.2244 10.2495 48.0484 10.2495H47.1586C47.1176 10.2495 47.0971 10.2693 47.0971 10.309ZM47.9977 12.2025H47.4877C47.4612 12.2025 47.448 12.1897 47.448 12.164V10.582C47.448 10.5587 47.4612 10.547 47.4877 10.547H47.9977C48.1714 10.547 48.2582 10.6333 48.2582 10.806V11.9435C48.2582 12.1162 48.1714 12.2025 47.9977 12.2025Z" fill="#B3333A" fill-opacity="0.8"/>
<path d="M50.374 12.5H50.6019C50.6429 12.5 50.6634 12.4802 50.6634 12.4405V10.582C50.6634 10.5587 50.6766 10.547 50.7032 10.547H51.1589C51.2023 10.547 51.224 10.5272 51.224 10.4875V10.309C51.224 10.2693 51.2023 10.2495 51.1589 10.2495H49.817C49.7736 10.2495 49.7519 10.2693 49.7519 10.309V10.4875C49.7519 10.5272 49.7736 10.547 49.817 10.547H50.2727C50.2968 10.547 50.3089 10.5587 50.3089 10.582V12.4405C50.3089 12.4802 50.3306 12.5 50.374 12.5Z" fill="#B3333A" fill-opacity="0.8"/>
<path fill-rule="evenodd" clip-rule="evenodd" d="M52.0581 12.5H52.4776C52.6561 12.5 52.7947 12.4522 52.8936 12.3565C52.9925 12.2608 53.0419 12.1278 53.0419 11.9575V10.792C53.0419 10.6193 52.9925 10.4863 52.8936 10.393C52.7947 10.2973 52.6561 10.2495 52.4776 10.2495H52.0581C51.8796 10.2495 51.741 10.2973 51.6421 10.393C51.5457 10.4863 51.4974 10.6193 51.4974 10.792V11.9575C51.4974 12.1278 51.5457 12.2608 51.6421 12.3565C51.741 12.4522 51.8796 12.5 52.0581 12.5ZM52.4234 12.2025H52.1087C51.9351 12.2025 51.8483 12.1162 51.8483 11.9435V10.806C51.8483 10.6333 51.9351 10.547 52.1087 10.547H52.4234C52.5994 10.547 52.6874 10.6333 52.6874 10.806V11.9435C52.6874 12.1162 52.5994 12.2025 52.4234 12.2025Z" fill="#B3333A" fill-opacity="0.8"/>
<path d="M56.3878 10.2495H55.9827C55.9513 10.2495 55.9332 10.2623 55.9284 10.288L55.4293 11.639H55.4112L54.9157 10.288C54.9036 10.2623 54.8843 10.2495 54.8578 10.2495H54.4527C54.4117 10.2495 54.3912 10.2693 54.3912 10.309V12.4405C54.3912 12.4802 54.4117 12.5 54.4527 12.5H54.6733C54.6974 12.5 54.7131 12.4965 54.7203 12.4895C54.73 12.4802 54.7348 12.4638 54.7348 12.4405V10.6695H54.7493L55.2303 11.954C55.2448 11.9913 55.2701 12.01 55.3063 12.01H55.5378C55.5764 12.01 55.6029 11.9913 55.6174 11.954L56.0876 10.673H56.102V12.4405C56.102 12.4802 56.1225 12.5 56.1635 12.5H56.3878C56.4288 12.5 56.4493 12.4802 56.4493 12.4405V10.309C56.4493 10.2693 56.4288 10.2495 56.3878 10.2495Z" fill="#B3333A" fill-opacity="0.8"/>
<path fill-rule="evenodd" clip-rule="evenodd" d="M56.843 12.5H57.1034C57.1372 12.5 57.1589 12.4802 57.1685 12.4405L57.3059 11.9855H58.1017L58.2391 12.4405C58.244 12.4638 58.25 12.4802 58.2572 12.4895C58.2669 12.4965 58.2825 12.5 58.3042 12.5H58.5611C58.5972 12.5 58.6105 12.4802 58.6008 12.4405L57.9715 10.309C57.9618 10.2693 57.9329 10.2495 57.8847 10.2495H57.523C57.4771 10.2495 57.4482 10.2693 57.4362 10.309L56.8068 12.4405C56.7971 12.4802 56.8092 12.5 56.843 12.5ZM57.3783 11.7055L57.6966 10.5855H57.7111L58.033 11.7055H57.3783Z" fill="#B3333A" fill-opacity="0.8"/>
<path d="M59.0199 12.5H59.2441C59.2851 12.5 59.3056 12.4802 59.3056 12.4405V10.939H59.3201L60.1882 12.444C60.2123 12.4813 60.2436 12.5 60.2822 12.5H60.4775C60.5185 12.5 60.539 12.4802 60.539 12.4405V10.309C60.539 10.2693 60.5185 10.2495 60.4775 10.2495H60.2533C60.2123 10.2495 60.1918 10.2693 60.1918 10.309V11.8105H60.1773L59.302 10.288C59.2875 10.2623 59.261 10.2495 59.2224 10.2495H59.0199C58.9789 10.2495 58.9584 10.2693 58.9584 10.309V12.4405C58.9584 12.4802 58.9789 12.5 59.0199 12.5Z" fill="#B3333A" fill-opacity="0.8"/>
<path d="M61.4361 12.4405V10.309C61.4361 10.2693 61.4156 10.2495 61.3746 10.2495H61.1467C61.1057 10.2495 61.0852 10.2693 61.0852 10.309V12.4405C61.0852 12.4802 61.1057 12.5 61.1467 12.5H61.3746C61.4156 12.5 61.4361 12.4802 61.4361 12.4405Z" fill="#B3333A" fill-opacity="0.8"/>
<path fill-rule="evenodd" clip-rule="evenodd" d="M62.0435 12.5H62.2714C62.3123 12.5 62.3328 12.4802 62.3328 12.4405V11.7335C62.3328 11.7102 62.3473 11.6985 62.3762 11.6985H62.9043C63.0804 11.6985 63.2178 11.6507 63.3167 11.555C63.4155 11.4593 63.465 11.3263 63.465 11.156V10.792C63.465 10.6193 63.4155 10.4863 63.3167 10.393C63.2178 10.2973 63.0804 10.2495 62.9043 10.2495H62.0435C62.0025 10.2495 61.982 10.2693 61.982 10.309V12.4405C61.982 12.4802 62.0025 12.5 62.0435 12.5ZM62.8537 11.3975H62.3726C62.3461 11.3975 62.3328 11.3858 62.3328 11.3625V10.582C62.3328 10.5587 62.3461 10.547 62.3726 10.547H62.8537C63.0249 10.547 63.1105 10.6333 63.1105 10.806V11.1385C63.1105 11.3112 63.0249 11.3975 62.8537 11.3975Z" fill="#B3333A" fill-opacity="0.8"/>
<path d="M65.3361 10.2495H65.1083C65.0673 10.2495 65.0468 10.2693 65.0468 10.309V11.9435C65.0468 12.1162 64.9588 12.2025 64.7827 12.2025H64.4861C64.3125 12.2025 64.2257 12.1162 64.2257 11.9435V10.309C64.2257 10.2693 64.2052 10.2495 64.1642 10.2495H63.9363C63.8953 10.2495 63.8748 10.2693 63.8748 10.309V11.9575C63.8748 12.1278 63.9243 12.2608 64.0231 12.3565C64.122 12.4522 64.2595 12.5 64.4355 12.5H64.837C65.013 12.5 65.1505 12.4522 65.2493 12.3565C65.3506 12.2608 65.4012 12.1278 65.4012 11.9575V10.3055C65.4012 10.2682 65.3795 10.2495 65.3361 10.2495Z" fill="#B3333A" fill-opacity="0.8"/>
<path d="M65.9678 12.5H67.1397C67.1807 12.5 67.2012 12.4802 67.2012 12.4405V12.2585C67.2012 12.2165 67.1807 12.1955 67.1397 12.1955H66.3006C66.2716 12.1955 66.2572 12.1838 66.2572 12.1605V10.309C66.2572 10.2693 66.2367 10.2495 66.1957 10.2495H65.9678C65.9268 10.2495 65.9063 10.2693 65.9063 10.309V12.4405C65.9063 12.4802 65.9268 12.5 65.9678 12.5Z" fill="#B3333A" fill-opacity="0.8"/>
<path fill-rule="evenodd" clip-rule="evenodd" d="M67.4009 12.5H67.6613C67.695 12.5 67.7167 12.4802 67.7264 12.4405L67.8638 11.9855H68.6596L68.797 12.4405C68.8018 12.4638 68.8079 12.4802 68.8151 12.4895C68.8247 12.4965 68.8404 12.5 68.8621 12.5H69.1189C69.1551 12.5 69.1684 12.4802 69.1587 12.4405L68.5294 10.309C68.5197 10.2693 68.4908 10.2495 68.4426 10.2495H68.0808C68.035 10.2495 68.0061 10.2693 67.994 10.309L67.3647 12.4405C67.355 12.4802 67.3671 12.5 67.4009 12.5ZM67.9362 11.7055L68.2545 10.5855H68.2689L68.5908 11.7055H67.9362Z" fill="#B3333A" fill-opacity="0.8"/>
<path d="M69.925 12.5H70.1529C70.1939 12.5 70.2144 12.4802 70.2144 12.4405V10.582C70.2144 10.5587 70.2276 10.547 70.2541 10.547H70.7099C70.7533 10.547 70.775 10.5272 70.775 10.4875V10.309C70.775 10.2693 70.7533 10.2495 70.7099 10.2495H69.368C69.3246 10.2495 69.3029 10.2693 69.3029 10.309V10.4875C69.3029 10.5272 69.3246 10.547 69.368 10.547H69.8237C69.8478 10.547 69.8599 10.5587 69.8599 10.582V12.4405C69.8599 12.4802 69.8816 12.5 69.925 12.5Z" fill="#B3333A" fill-opacity="0.8"/>
<path d="M71.1461 12.5H72.3035C72.3421 12.5 72.3614 12.4802 72.3614 12.4405V12.262C72.3614 12.2223 72.3421 12.2025 72.3035 12.2025H71.4788C71.4499 12.2025 71.4354 12.1897 71.4354 12.164V11.541C71.4354 11.5177 71.4499 11.506 71.4788 11.506H72.1769C72.2203 11.506 72.242 11.4862 72.242 11.4465V11.268C72.242 11.2283 72.2203 11.2085 72.1769 11.2085H71.4788C71.4499 11.2085 71.4354 11.1968 71.4354 11.1735V10.582C71.4354 10.5587 71.4499 10.547 71.4788 10.547H72.3035C72.3421 10.547 72.3614 10.5272 72.3614 10.4875V10.309C72.3614 10.2693 72.3421 10.2495 72.3035 10.2495H71.1461C71.1051 10.2495 71.0846 10.2693 71.0846 10.309V12.4405C71.0846 12.4802 71.1051 12.5 71.1461 12.5Z" fill="#B3333A" fill-opacity="0.8"/>
<path d="M73.101 12.4405V12.0135C73.101 11.9762 73.0817 11.9575 73.0431 11.9575H72.7971C72.7561 11.9575 72.7356 11.9762 72.7356 12.0135V12.4405C72.7356 12.4802 72.7561 12.5 72.7971 12.5H73.0431C73.0817 12.5 73.101 12.4802 73.101 12.4405Z" fill="#B3333A" fill-opacity="0.8"/>
<path fill-rule="evenodd" clip-rule="evenodd" d="M28.5497 17H28.8101C28.8439 17 28.8656 16.9802 28.8752 16.9405L29.0126 16.4855H29.8084L29.9458 16.9405C29.9507 16.9638 29.9567 16.9802 29.9639 16.9895C29.9736 16.9965 29.9892 17 30.0109 17H30.2677C30.3039 17 30.3172 16.9802 30.3075 16.9405L29.6782 14.809C29.6685 14.7693 29.6396 14.7495 29.5914 14.7495H29.2297C29.1838 14.7495 29.1549 14.7693 29.1429 14.809L28.5135 16.9405C28.5038 16.9802 28.5159 17 28.5497 17ZM29.085 16.2055L29.4033 15.0855H29.4177L29.7397 16.2055H29.085Z" fill="#B3333A" fill-opacity="0.8"/>
<path d="M31.1896 17H31.6091C31.7852 17 31.9226 16.9522 32.0215 16.8565C32.1203 16.7608 32.1698 16.6278 32.1698 16.4575V16.2895C32.1698 16.2475 32.1481 16.2265 32.1047 16.2265H31.8768C31.8358 16.2265 31.8153 16.2475 31.8153 16.2895V16.4435C31.8153 16.6162 31.7285 16.7025 31.5549 16.7025H31.2402C31.0666 16.7025 30.9798 16.6162 30.9798 16.4435V15.306C30.9798 15.1333 31.0666 15.047 31.2402 15.047H31.5549C31.7285 15.047 31.8153 15.1333 31.8153 15.306V15.46C31.8153 15.502 31.8358 15.523 31.8768 15.523H32.1047C32.1481 15.523 32.1698 15.502 32.1698 15.46V15.292C32.1698 15.1193 32.1203 14.9863 32.0215 14.893C31.9226 14.7973 31.7852 14.7495 31.6091 14.7495H31.1896C31.0111 14.7495 30.8725 14.7973 30.7736 14.893C30.6771 14.9863 30.6289 15.1193 30.6289 15.292V16.4575C30.6289 16.6278 30.6771 16.7608 30.7736 16.8565C30.8725 16.9522 31.0111 17 31.1896 17Z" fill="#B3333A" fill-opacity="0.8"/>
<path d="M33.1429 17H33.5625C33.7385 17 33.8759 16.9522 33.9748 16.8565C34.0737 16.7608 34.1231 16.6278 34.1231 16.4575V16.2895C34.1231 16.2475 34.1014 16.2265 34.058 16.2265H33.8301C33.7891 16.2265 33.7686 16.2475 33.7686 16.2895V16.4435C33.7686 16.6162 33.6818 16.7025 33.5082 16.7025H33.1935C33.0199 16.7025 32.9331 16.6162 32.9331 16.4435V15.306C32.9331 15.1333 33.0199 15.047 33.1935 15.047H33.5082C33.6818 15.047 33.7686 15.1333 33.7686 15.306V15.46C33.7686 15.502 33.7891 15.523 33.8301 15.523H34.058C34.1014 15.523 34.1231 15.502 34.1231 15.46V15.292C34.1231 15.1193 34.0737 14.9863 33.9748 14.893C33.8759 14.7973 33.7385 14.7495 33.5625 14.7495H33.1429C32.9644 14.7495 32.8258 14.7973 32.7269 14.893C32.6305 14.9863 32.5822 15.1193 32.5822 15.292V16.4575C32.5822 16.6278 32.6305 16.7608 32.7269 16.8565C32.8258 16.9522 32.9644 17 33.1429 17Z" fill="#B3333A" fill-opacity="0.8"/>
<path d="M34.6332 17H35.7907C35.8293 17 35.8486 16.9802 35.8486 16.9405V16.762C35.8486 16.7223 35.8293 16.7025 35.7907 16.7025H34.966C34.9371 16.7025 34.9226 16.6897 34.9226 16.664V16.041C34.9226 16.0177 34.9371 16.006 34.966 16.006H35.6641C35.7075 16.006 35.7292 15.9862 35.7292 15.9465V15.768C35.7292 15.7283 35.7075 15.7085 35.6641 15.7085H34.966C34.9371 15.7085 34.9226 15.6968 34.9226 15.6735V15.082C34.9226 15.0587 34.9371 15.047 34.966 15.047H35.7907C35.8293 15.047 35.8486 15.0272 35.8486 14.9875V14.809C35.8486 14.7693 35.8293 14.7495 35.7907 14.7495H34.6332C34.5922 14.7495 34.5718 14.7693 34.5718 14.809V16.9405C34.5718 16.9802 34.5922 17 34.6332 17Z" fill="#B3333A" fill-opacity="0.8"/>
<path d="M36.2662 16.363V16.454C36.2662 16.6243 36.3169 16.7585 36.4181 16.8565C36.5194 16.9522 36.6581 17 36.8341 17H37.2392C37.4152 17 37.5527 16.9522 37.6515 16.8565C37.7528 16.7585 37.8034 16.6243 37.8034 16.454V16.3175C37.8034 16.2055 37.7817 16.111 37.7383 16.034C37.6949 15.9547 37.6383 15.8963 37.5683 15.859C37.4984 15.8193 37.4212 15.7878 37.3369 15.7645C37.2525 15.7412 37.1681 15.7237 37.0837 15.712C37.0017 15.7003 36.9257 15.6863 36.8558 15.67C36.699 15.6327 36.6207 15.5615 36.6207 15.4565V15.348C36.6207 15.2383 36.6424 15.1613 36.6858 15.117C36.7316 15.0703 36.8064 15.047 36.91 15.047H37.1379C37.2416 15.047 37.3151 15.0692 37.3586 15.1135C37.4044 15.1555 37.4273 15.2267 37.4273 15.327V15.3725C37.4273 15.4122 37.4478 15.432 37.4888 15.432H37.7203C37.7612 15.432 37.7817 15.4122 37.7817 15.3725V15.2955C37.7817 15.1252 37.7311 14.9922 37.6298 14.8965C37.531 14.7985 37.3923 14.7495 37.2139 14.7495H36.8305C36.6544 14.7495 36.5158 14.7985 36.4145 14.8965C36.3156 14.9922 36.2662 15.1252 36.2662 15.2955V15.4425C36.2662 15.5732 36.2951 15.6805 36.353 15.7645C36.4133 15.8485 36.4868 15.9057 36.5737 15.936C36.6605 15.9663 36.7557 15.9932 36.8594 16.0165C36.9631 16.0398 37.0583 16.0585 37.1451 16.0725C37.232 16.0842 37.3043 16.1122 37.3622 16.1565C37.4225 16.1985 37.4526 16.2568 37.4526 16.3315V16.412C37.4526 16.5147 37.4297 16.5893 37.3839 16.636C37.3381 16.6803 37.2633 16.7025 37.1596 16.7025H36.91C36.8064 16.7025 36.7316 16.6815 36.6858 16.6395C36.6424 16.5952 36.6207 16.524 36.6207 16.426V16.363C36.6207 16.3233 36.6002 16.3035 36.5592 16.3035H36.3277C36.2867 16.3035 36.2662 16.3233 36.2662 16.363Z" fill="#B3333A" fill-opacity="0.8"/>
<path d="M38.2478 16.363V16.454C38.2478 16.6243 38.2984 16.7585 38.3997 16.8565C38.501 16.9522 38.6396 17 38.8157 17H39.2208C39.3968 17 39.5343 16.9522 39.6331 16.8565C39.7344 16.7585 39.785 16.6243 39.785 16.454V16.3175C39.785 16.2055 39.7633 16.111 39.7199 16.034C39.6765 15.9547 39.6199 15.8963 39.5499 15.859C39.48 15.8193 39.4028 15.7878 39.3184 15.7645C39.234 15.7412 39.1496 15.7237 39.0653 15.712C38.9833 15.7003 38.9073 15.6863 38.8374 15.67C38.6806 15.6327 38.6023 15.5615 38.6023 15.4565V15.348C38.6023 15.2383 38.624 15.1613 38.6674 15.117C38.7132 15.0703 38.7879 15.047 38.8916 15.047H39.1195C39.2232 15.047 39.2967 15.0692 39.3401 15.1135C39.386 15.1555 39.4089 15.2267 39.4089 15.327V15.3725C39.4089 15.4122 39.4294 15.432 39.4704 15.432H39.7018C39.7428 15.432 39.7633 15.4122 39.7633 15.3725V15.2955C39.7633 15.1252 39.7127 14.9922 39.6114 14.8965C39.5126 14.7985 39.3739 14.7495 39.1955 14.7495H38.8121C38.636 14.7495 38.4974 14.7985 38.3961 14.8965C38.2972 14.9922 38.2478 15.1252 38.2478 15.2955V15.4425C38.2478 15.5732 38.2767 15.6805 38.3346 15.7645C38.3949 15.8485 38.4684 15.9057 38.5553 15.936C38.6421 15.9663 38.7373 15.9932 38.841 16.0165C38.9447 16.0398 39.0399 16.0585 39.1267 16.0725C39.2135 16.0842 39.2859 16.1122 39.3438 16.1565C39.404 16.1985 39.4342 16.2568 39.4342 16.3315V16.412C39.4342 16.5147 39.4113 16.5893 39.3655 16.636C39.3196 16.6803 39.2449 16.7025 39.1412 16.7025H38.8916C38.7879 16.7025 38.7132 16.6815 38.6674 16.6395C38.624 16.5952 38.6023 16.524 38.6023 16.426V16.363C38.6023 16.3233 38.5818 16.3035 38.5408 16.3035H38.3093C38.2683 16.3035 38.2478 16.3233 38.2478 16.363Z" fill="#B3333A" fill-opacity="0.8"/>
<path fill-rule="evenodd" clip-rule="evenodd" d="M41.6591 17H42.0787C42.2571 17 42.3958 16.9522 42.4947 16.8565C42.5935 16.7608 42.643 16.6278 42.643 16.4575V15.292C42.643 15.1193 42.5935 14.9863 42.4947 14.893C42.3958 14.7973 42.2571 14.7495 42.0787 14.7495H41.6591C41.4807 14.7495 41.342 14.7973 41.2432 14.893C41.1467 14.9863 41.0985 15.1193 41.0985 15.292V16.4575C41.0985 16.6278 41.1467 16.7608 41.2432 16.8565C41.342 16.9522 41.4807 17 41.6591 17ZM42.0245 16.7025H41.7098C41.5362 16.7025 41.4493 16.6162 41.4493 16.4435V15.306C41.4493 15.1333 41.5362 15.047 41.7098 15.047H42.0245C42.2005 15.047 42.2885 15.1333 42.2885 15.306V16.4435C42.2885 16.6162 42.2005 16.7025 42.0245 16.7025Z" fill="#B3333A" fill-opacity="0.8"/>
<path fill-rule="evenodd" clip-rule="evenodd" d="M43.1919 17H43.4197C43.4607 17 43.4812 16.9802 43.4812 16.9405V16.1705C43.4812 16.1472 43.4957 16.1355 43.5246 16.1355H43.89L44.277 16.9405C44.2939 16.9802 44.3312 17 44.3891 17H44.6134C44.6712 17 44.6869 16.9767 44.6604 16.93L44.2589 16.111V16.097C44.488 16.027 44.6025 15.8578 44.6025 15.5895V15.2955C44.6025 15.1252 44.5519 14.9922 44.4506 14.8965C44.3517 14.7985 44.2143 14.7495 44.0383 14.7495H43.1919C43.1509 14.7495 43.1304 14.7693 43.1304 14.809V16.9405C43.1304 16.9802 43.1509 17 43.1919 17ZM43.9804 15.8555H43.521C43.4945 15.8555 43.4812 15.8438 43.4812 15.8205V15.082C43.4812 15.0587 43.4945 15.047 43.521 15.047H43.9804C44.1588 15.047 44.248 15.1333 44.248 15.306V15.6C44.248 15.7703 44.1588 15.8555 43.9804 15.8555Z" fill="#B3333A" fill-opacity="0.8"/>
<path fill-rule="evenodd" clip-rule="evenodd" d="M45.9527 14.809V16.9405C45.9527 16.9802 45.9731 17 46.0141 17H46.9039C47.08 17 47.2174 16.9522 47.3163 16.8565C47.4175 16.7608 47.4682 16.6278 47.4682 16.4575V15.292C47.4682 15.1193 47.4175 14.9863 47.3163 14.893C47.2174 14.7973 47.08 14.7495 46.9039 14.7495H46.0141C45.9731 14.7495 45.9527 14.7693 45.9527 14.809ZM46.8533 16.7025H46.3433C46.3168 16.7025 46.3035 16.6897 46.3035 16.664V15.082C46.3035 15.0587 46.3168 15.047 46.3433 15.047H46.8533C47.0269 15.047 47.1137 15.1333 47.1137 15.306V16.4435C47.1137 16.6162 47.0269 16.7025 46.8533 16.7025Z" fill="#B3333A" fill-opacity="0.8"/>
<path d="M48.3279 16.9405V14.809C48.3279 14.7693 48.3074 14.7495 48.2664 14.7495H48.0385C47.9976 14.7495 47.9771 14.7693 47.9771 14.809V16.9405C47.9771 16.9802 47.9976 17 48.0385 17H48.2664C48.3074 17 48.3279 16.9802 48.3279 16.9405Z" fill="#B3333A" fill-opacity="0.8"/>
<path d="M48.8304 16.363V16.454C48.8304 16.6243 48.8811 16.7585 48.9823 16.8565C49.0836 16.9522 49.2223 17 49.3983 17H49.8034C49.9794 17 50.1169 16.9522 50.2157 16.8565C50.317 16.7585 50.3677 16.6243 50.3677 16.454V16.3175C50.3677 16.2055 50.3459 16.111 50.3025 16.034C50.2591 15.9547 50.2025 15.8963 50.1325 15.859C50.0626 15.8193 49.9855 15.7878 49.9011 15.7645C49.8167 15.7412 49.7323 15.7237 49.6479 15.712C49.5659 15.7003 49.4899 15.6863 49.42 15.67C49.2633 15.6327 49.1849 15.5615 49.1849 15.4565V15.348C49.1849 15.2383 49.2066 15.1613 49.25 15.117C49.2958 15.0703 49.3706 15.047 49.4742 15.047H49.7021C49.8058 15.047 49.8794 15.0692 49.9228 15.1135C49.9686 15.1555 49.9915 15.2267 49.9915 15.327V15.3725C49.9915 15.4122 50.012 15.432 50.053 15.432H50.2845C50.3255 15.432 50.3459 15.4122 50.3459 15.3725V15.2955C50.3459 15.1252 50.2953 14.9922 50.194 14.8965C50.0952 14.7985 49.9565 14.7495 49.7781 14.7495H49.3947C49.2186 14.7495 49.08 14.7985 48.9787 14.8965C48.8798 14.9922 48.8304 15.1252 48.8304 15.2955V15.4425C48.8304 15.5732 48.8594 15.6805 48.9172 15.7645C48.9775 15.8485 49.0511 15.9057 49.1379 15.936C49.2247 15.9663 49.3199 15.9932 49.4236 16.0165C49.5273 16.0398 49.6225 16.0585 49.7094 16.0725C49.7962 16.0842 49.8685 16.1122 49.9264 16.1565C49.9867 16.1985 50.0168 16.2568 50.0168 16.3315V16.412C50.0168 16.5147 49.9939 16.5893 49.9481 16.636C49.9023 16.6803 49.8275 16.7025 49.7238 16.7025H49.4742C49.3706 16.7025 49.2958 16.6815 49.25 16.6395C49.2066 16.5952 49.1849 16.524 49.1849 16.426V16.363C49.1849 16.3233 49.1644 16.3035 49.1234 16.3035H48.8919C48.8509 16.3035 48.8304 16.3233 48.8304 16.363Z" fill="#B3333A" fill-opacity="0.8"/>
<path fill-rule="evenodd" clip-rule="evenodd" d="M50.7216 17H50.982C51.0158 17 51.0375 16.9802 51.0471 16.9405L51.1846 16.4855H51.9803L52.1178 16.9405C52.1226 16.9638 52.1286 16.9802 52.1358 16.9895C52.1455 16.9965 52.1612 17 52.1829 17H52.4397C52.4758 17 52.4891 16.9802 52.4795 16.9405L51.8501 14.809C51.8404 14.7693 51.8115 14.7495 51.7633 14.7495H51.4016C51.3558 14.7495 51.3268 14.7693 51.3148 14.809L50.6854 16.9405C50.6758 16.9802 50.6878 17 50.7216 17ZM51.2569 16.2055L51.5752 15.0855H51.5897L51.9116 16.2055H51.2569Z" fill="#B3333A" fill-opacity="0.8"/>
<path fill-rule="evenodd" clip-rule="evenodd" d="M52.837 14.809V16.9405C52.837 16.9802 52.8575 17 52.8985 17H53.7883C53.9643 17 54.1018 16.9533 54.2006 16.86C54.2995 16.7667 54.3489 16.6348 54.3489 16.4645V16.2405C54.3489 16.1262 54.3176 16.0352 54.2549 15.9675C54.1946 15.8998 54.1174 15.8602 54.0234 15.8485C54.2211 15.7902 54.32 15.6595 54.32 15.4565V15.285C54.32 15.1147 54.2705 14.9828 54.1717 14.8895C54.0728 14.7962 53.9342 14.7495 53.7557 14.7495H52.8985C52.8575 14.7495 52.837 14.7693 52.837 14.809ZM53.734 16.7095H53.2276C53.2011 16.7095 53.1879 16.6978 53.1879 16.6745V16.0235C53.1879 16.0002 53.2011 15.9885 53.2276 15.9885H53.7196C53.9101 15.9885 54.0053 16.0725 54.0053 16.2405V16.4575C54.0053 16.6255 53.9149 16.7095 53.734 16.7095ZM53.6979 15.7085H53.2276C53.2011 15.7085 53.1879 15.6968 53.1879 15.6735V15.075C53.1879 15.0517 53.2011 15.04 53.2276 15.04H53.7051C53.8835 15.04 53.9727 15.124 53.9727 15.292V15.453C53.9727 15.6233 53.8811 15.7085 53.6979 15.7085Z" fill="#B3333A" fill-opacity="0.8"/>
<path d="M54.8942 17H56.0661C56.1071 17 56.1276 16.9802 56.1276 16.9405V16.7585C56.1276 16.7165 56.1071 16.6955 56.0661 16.6955H55.227C55.198 16.6955 55.1836 16.6838 55.1836 16.6605V14.809C55.1836 14.7693 55.1631 14.7495 55.1221 14.7495H54.8942C54.8532 14.7495 54.8327 14.7693 54.8327 14.809V16.9405C54.8327 16.9802 54.8532 17 54.8942 17Z" fill="#B3333A" fill-opacity="0.8"/>
<path d="M56.5226 17H57.68C57.7186 17 57.7379 16.9802 57.7379 16.9405V16.762C57.7379 16.7223 57.7186 16.7025 57.68 16.7025H56.8553C56.8264 16.7025 56.8119 16.6897 56.8119 16.664V16.041C56.8119 16.0177 56.8264 16.006 56.8553 16.006H57.5534C57.5968 16.006 57.6185 15.9862 57.6185 15.9465V15.768C57.6185 15.7283 57.5968 15.7085 57.5534 15.7085H56.8553C56.8264 15.7085 56.8119 15.6968 56.8119 15.6735V15.082C56.8119 15.0587 56.8264 15.047 56.8553 15.047H57.68C57.7186 15.047 57.7379 15.0272 57.7379 14.9875V14.809C57.7379 14.7693 57.7186 14.7495 57.68 14.7495H56.5226C56.4816 14.7495 56.4611 14.7693 56.4611 14.809V16.9405C56.4611 16.9802 56.4816 17 56.5226 17Z" fill="#B3333A" fill-opacity="0.8"/>
<path d="M59.4695 17H59.6974C59.7384 17 59.7589 16.9802 59.7589 16.9405V15.082C59.7589 15.0587 59.7722 15.047 59.7987 15.047H60.2544C60.2978 15.047 60.3195 15.0272 60.3195 14.9875V14.809C60.3195 14.7693 60.2978 14.7495 60.2544 14.7495H58.9125C58.8691 14.7495 58.8474 14.7693 58.8474 14.809V14.9875C58.8474 15.0272 58.8691 15.047 58.9125 15.047H59.3683C59.3924 15.047 59.4044 15.0587 59.4044 15.082V16.9405C59.4044 16.9802 59.4261 17 59.4695 17Z" fill="#B3333A" fill-opacity="0.8"/>
<path d="M60.6906 17H60.9185C60.9595 17 60.98 16.9802 60.98 16.9405V16.055C60.98 16.0317 60.9945 16.02 61.0234 16.02H61.7866C61.8107 16.02 61.8228 16.0317 61.8228 16.055V16.9405C61.8228 16.9802 61.8433 17 61.8842 17H62.1157C62.1567 17 62.1772 16.9802 62.1772 16.9405V14.809C62.1772 14.7693 62.1567 14.7495 62.1157 14.7495H61.8842C61.8433 14.7495 61.8228 14.7693 61.8228 14.809V15.684C61.8228 15.7073 61.8107 15.719 61.7866 15.719H61.0234C60.9945 15.719 60.98 15.7073 60.98 15.684V14.809C60.98 14.7693 60.9595 14.7495 60.9185 14.7495H60.6906C60.6496 14.7495 60.6291 14.7693 60.6291 14.809V16.9405C60.6291 16.9802 60.6496 17 60.6906 17Z" fill="#B3333A" fill-opacity="0.8"/>
<path d="M63.075 16.9405V14.809C63.075 14.7693 63.0545 14.7495 63.0135 14.7495H62.7857C62.7447 14.7495 62.7242 14.7693 62.7242 14.809V16.9405C62.7242 16.9802 62.7447 17 62.7857 17H63.0135C63.0545 17 63.075 16.9802 63.075 16.9405Z" fill="#B3333A" fill-opacity="0.8"/>
<path d="M63.5775 16.363V16.454C63.5775 16.6243 63.6282 16.7585 63.7295 16.8565C63.8307 16.9522 63.9694 17 64.1454 17H64.5505C64.7266 17 64.864 16.9522 64.9629 16.8565C65.0641 16.7585 65.1148 16.6243 65.1148 16.454V16.3175C65.1148 16.2055 65.0931 16.111 65.0497 16.034C65.0063 15.9547 64.9496 15.8963 64.8797 15.859C64.8097 15.8193 64.7326 15.7878 64.6482 15.7645C64.5638 15.7412 64.4794 15.7237 64.395 15.712C64.313 15.7003 64.2371 15.6863 64.1671 15.67C64.0104 15.6327 63.932 15.5615 63.932 15.4565V15.348C63.932 15.2383 63.9537 15.1613 63.9971 15.117C64.0429 15.0703 64.1177 15.047 64.2214 15.047H64.4492C64.5529 15.047 64.6265 15.0692 64.6699 15.1135C64.7157 15.1555 64.7386 15.2267 64.7386 15.327V15.3725C64.7386 15.4122 64.7591 15.432 64.8001 15.432H65.0316C65.0726 15.432 65.0931 15.4122 65.0931 15.3725V15.2955C65.0931 15.1252 65.0424 14.9922 64.9412 14.8965C64.8423 14.7985 64.7036 14.7495 64.5252 14.7495H64.1418C63.9658 14.7495 63.8271 14.7985 63.7258 14.8965C63.627 14.9922 63.5775 15.1252 63.5775 15.2955V15.4425C63.5775 15.5732 63.6065 15.6805 63.6644 15.7645C63.7246 15.8485 63.7982 15.9057 63.885 15.936C63.9718 15.9663 64.0671 15.9932 64.1707 16.0165C64.2744 16.0398 64.3697 16.0585 64.4565 16.0725C64.5433 16.0842 64.6156 16.1122 64.6735 16.1565C64.7338 16.1985 64.7639 16.2568 64.7639 16.3315V16.412C64.7639 16.5147 64.741 16.5893 64.6952 16.636C64.6494 16.6803 64.5746 16.7025 64.471 16.7025H64.2214C64.1177 16.7025 64.0429 16.6815 63.9971 16.6395C63.9537 16.5952 63.932 16.524 63.932 16.426V16.363C63.932 16.3233 63.9115 16.3035 63.8705 16.3035H63.639C63.598 16.3035 63.5775 16.3233 63.5775 16.363Z" fill="#B3333A" fill-opacity="0.8"/>
<path fill-rule="evenodd" clip-rule="evenodd" d="M66.4644 14.809V16.9405C66.4644 16.9802 66.4849 17 66.5259 17H67.4157C67.5917 17 67.7292 16.9522 67.828 16.8565C67.9293 16.7608 67.9799 16.6278 67.9799 16.4575V15.292C67.9799 15.1193 67.9293 14.9863 67.828 14.893C67.7292 14.7973 67.5917 14.7495 67.4157 14.7495H66.5259C66.4849 14.7495 66.4644 14.7693 66.4644 14.809ZM67.365 16.7025H66.855C66.8285 16.7025 66.8153 16.6897 66.8153 16.664V15.082C66.8153 15.0587 66.8285 15.047 66.855 15.047H67.365C67.5387 15.047 67.6255 15.1333 67.6255 15.306V16.4435C67.6255 16.6162 67.5387 16.7025 67.365 16.7025Z" fill="#B3333A" fill-opacity="0.8"/>
<path d="M68.5322 17H69.6897C69.7282 17 69.7475 16.9802 69.7475 16.9405V16.762C69.7475 16.7223 69.7282 16.7025 69.6897 16.7025H68.865C68.836 16.7025 68.8216 16.6897 68.8216 16.664V16.041C68.8216 16.0177 68.836 16.006 68.865 16.006H69.5631C69.6065 16.006 69.6282 15.9862 69.6282 15.9465V15.768C69.6282 15.7283 69.6065 15.7085 69.5631 15.7085H68.865C68.836 15.7085 68.8216 15.6968 68.8216 15.6735V15.082C68.8216 15.0587 68.836 15.047 68.865 15.047H69.6897C69.7282 15.047 69.7475 15.0272 69.7475 14.9875V14.809C69.7475 14.7693 69.7282 14.7495 69.6897 14.7495H68.5322C68.4912 14.7495 68.4707 14.7693 68.4707 14.809V16.9405C68.4707 16.9802 68.4912 17 68.5322 17Z" fill="#B3333A" fill-opacity="0.8"/>
<path d="M70.6969 17H71.055C71.0911 17 71.1141 16.9802 71.1237 16.9405L71.7277 14.816C71.7398 14.7717 71.7205 14.7495 71.6699 14.7495H71.4167C71.3781 14.7495 71.354 14.7693 71.3443 14.809L70.8814 16.636H70.8669L70.4003 14.809C70.3931 14.7693 70.3702 14.7495 70.3316 14.7495H70.0748C70.0241 14.7495 70.006 14.7717 70.0205 14.816L70.6209 16.9405C70.6306 16.9802 70.6559 17 70.6969 17Z" fill="#B3333A" fill-opacity="0.8"/>
<path d="M72.432 16.9405V14.809C72.432 14.7693 72.4115 14.7495 72.3705 14.7495H72.1426C72.1016 14.7495 72.0811 14.7693 72.0811 14.809V16.9405C72.0811 16.9802 72.1016 17 72.1426 17H72.3705C72.4115 17 72.432 16.9802 72.432 16.9405Z" fill="#B3333A" fill-opacity="0.8"/>
<path d="M73.5023 17H73.9219C74.0979 17 74.2354 16.9522 74.3343 16.8565C74.4331 16.7608 74.4826 16.6278 74.4826 16.4575V16.2895C74.4826 16.2475 74.4609 16.2265 74.4174 16.2265H74.1896C74.1486 16.2265 74.1281 16.2475 74.1281 16.2895V16.4435C74.1281 16.6162 74.0413 16.7025 73.8677 16.7025H73.553C73.3794 16.7025 73.2926 16.6162 73.2926 16.4435V15.306C73.2926 15.1333 73.3794 15.047 73.553 15.047H73.8677C74.0413 15.047 74.1281 15.1333 74.1281 15.306V15.46C74.1281 15.502 74.1486 15.523 74.1896 15.523H74.4174C74.4609 15.523 74.4826 15.502 74.4826 15.46V15.292C74.4826 15.1193 74.4331 14.9863 74.3343 14.893C74.2354 14.7973 74.0979 14.7495 73.9219 14.7495H73.5023C73.3239 14.7495 73.1853 14.7973 73.0864 14.893C72.9899 14.9863 72.9417 15.1193 72.9417 15.292V16.4575C72.9417 16.6278 72.9899 16.7608 73.0864 16.8565C73.1853 16.9522 73.3239 17 73.5023 17Z" fill="#B3333A" fill-opacity="0.8"/>
<path d="M74.9927 17H76.1501C76.1887 17 76.208 16.9802 76.208 16.9405V16.762C76.208 16.7223 76.1887 16.7025 76.1501 16.7025H75.3255C75.2965 16.7025 75.2821 16.6897 75.2821 16.664V16.041C75.2821 16.0177 75.2965 16.006 75.3255 16.006H76.0235C76.067 16.006 76.0887 15.9862 76.0887 15.9465V15.768C76.0887 15.7283 76.067 15.7085 76.0235 15.7085H75.3255C75.2965 15.7085 75.2821 15.6968 75.2821 15.6735V15.082C75.2821 15.0587 75.2965 15.047 75.3255 15.047H76.1501C76.1887 15.047 76.208 15.0272 76.208 14.9875V14.809C76.208 14.7693 76.1887 14.7495 76.1501 14.7495H74.9927C74.9517 14.7495 74.9312 14.7693 74.9312 14.809V16.9405C74.9312 16.9802 74.9517 17 74.9927 17Z" fill="#B3333A" fill-opacity="0.8"/>
<path d="M76.9476 16.9405V16.5135C76.9476 16.4762 76.9283 16.4575 76.8897 16.4575H76.6438C76.6028 16.4575 76.5823 16.4762 76.5823 16.5135V16.9405C76.5823 16.9802 76.6028 17 76.6438 17H76.8897C76.9283 17 76.9476 16.9802 76.9476 16.9405Z" fill="#B3333A" fill-opacity="0.8"/>
<path fill-rule="evenodd" clip-rule="evenodd" d="M0.790578 14H0.465046C0.406484 14 0.377204 13.9717 0.377204 13.915V10.87C0.377204 10.8133 0.406484 10.785 0.465046 10.785H1.69483C1.9463 10.785 2.14265 10.8533 2.28389 10.99C2.42513 11.1233 2.49574 11.3133 2.49574 11.56V12.08C2.49574 12.3233 2.42513 12.5133 2.28389 12.65C2.14265 12.7867 1.9463 12.855 1.69483 12.855H0.940426C0.899088 12.855 0.878419 12.8717 0.878419 12.905V13.915C0.878419 13.9717 0.849139 14 0.790578 14ZM0.935258 12.425H1.62249C1.86707 12.425 1.98936 12.3017 1.98936 12.055V11.58C1.98936 11.3333 1.86707 11.21 1.62249 11.21H0.935258C0.897366 11.21 0.878419 11.2267 0.878419 11.26V12.375C0.878419 12.4083 0.897366 12.425 0.935258 12.425Z" fill="#B3333A" fill-opacity="0.8"/>
<path fill-rule="evenodd" clip-rule="evenodd" d="M3.5205 14H3.19497C3.13641 14 3.10713 13.9717 3.10713 13.915V10.87C3.10713 10.8133 3.13641 10.785 3.19497 10.785H4.40409C4.65556 10.785 4.85191 10.855 4.99314 10.995C5.13783 11.1317 5.21017 11.3217 5.21017 11.565V11.985C5.21017 12.3683 5.04654 12.61 4.71928 12.71V12.73L5.29284 13.9C5.33073 13.9667 5.30834 14 5.22567 14H4.9053C4.82263 14 4.76923 13.9717 4.74512 13.915L4.19223 12.765H3.67035C3.62901 12.765 3.60834 12.7817 3.60834 12.815V13.915C3.60834 13.9717 3.57906 14 3.5205 14ZM3.66518 12.365H4.32141C4.57633 12.365 4.70378 12.2433 4.70378 12V11.58C4.70378 11.3333 4.57633 11.21 4.32141 11.21H3.66518C3.62729 11.21 3.60834 11.2267 3.60834 11.26V12.315C3.60834 12.3483 3.62729 12.365 3.66518 12.365Z" fill="#B3333A" fill-opacity="0.8"/>
<path fill-rule="evenodd" clip-rule="evenodd" d="M7.25633 14H6.65693C6.40202 14 6.20394 13.9317 6.06271 13.795C5.92492 13.6583 5.85602 13.4683 5.85602 13.225V11.56C5.85602 11.3133 5.92492 11.1233 6.06271 10.99C6.20394 10.8533 6.40202 10.785 6.65693 10.785H7.25633C7.51124 10.785 7.70931 10.8533 7.85055 10.99C7.99179 11.1233 8.0624 11.3133 8.0624 11.56V13.225C8.0624 13.4683 7.99179 13.6583 7.85055 13.795C7.70931 13.9317 7.51124 14 7.25633 14ZM6.72927 13.575H7.17882C7.43029 13.575 7.55602 13.4517 7.55602 13.205V11.58C7.55602 11.3333 7.43029 11.21 7.17882 11.21H6.72927C6.48125 11.21 6.35724 11.3333 6.35724 11.58V13.205C6.35724 13.4517 6.48125 13.575 6.72927 13.575Z" fill="#B3333A" fill-opacity="0.8"/>
<path d="M9.66814 14H9.34261C9.28061 14 9.2496 13.9717 9.2496 13.915V11.26C9.2496 11.2267 9.23238 11.21 9.19793 11.21H8.54687C8.48486 11.21 8.45386 11.1817 8.45386 11.125V10.87C8.45386 10.8133 8.48486 10.785 8.54687 10.785H10.4639C10.5259 10.785 10.5569 10.8133 10.5569 10.87V11.125C10.5569 11.1817 10.5259 11.21 10.4639 11.21H9.81283C9.77493 11.21 9.75599 11.2267 9.75599 11.26V13.915C9.75599 13.9717 9.72671 14 9.66814 14Z" fill="#B3333A" fill-opacity="0.8"/>
<path fill-rule="evenodd" clip-rule="evenodd" d="M12.3478 14H11.7484C11.4935 14 11.2954 13.9317 11.1542 13.795C11.0164 13.6583 10.9475 13.4683 10.9475 13.225V11.56C10.9475 11.3133 11.0164 11.1233 11.1542 10.99C11.2954 10.8533 11.4935 10.785 11.7484 10.785H12.3478C12.6027 10.785 12.8008 10.8533 12.942 10.99C13.0833 11.1233 13.1539 11.3133 13.1539 11.56V13.225C13.1539 13.4683 13.0833 13.6583 12.942 13.795C12.8008 13.9317 12.6027 14 12.3478 14ZM11.8208 13.575H12.2703C12.5218 13.575 12.6475 13.4517 12.6475 13.205V11.58C12.6475 11.3333 12.5218 11.21 12.2703 11.21H11.8208C11.5727 11.21 11.4487 11.3333 11.4487 11.58V13.205C11.4487 13.4517 11.5727 13.575 11.8208 13.575Z" fill="#B3333A" fill-opacity="0.8"/>
<path d="M15.1988 14H14.5994C14.3445 14 14.1465 13.9317 14.0052 13.795C13.8674 13.6583 13.7985 13.4683 13.7985 13.225V11.56C13.7985 11.3133 13.8674 11.1233 14.0052 10.99C14.1465 10.8533 14.3445 10.785 14.5994 10.785H15.1988C15.4503 10.785 15.6467 10.8533 15.7879 10.99C15.9291 11.1233 15.9997 11.3133 15.9997 11.56V11.8C15.9997 11.86 15.9687 11.89 15.9067 11.89H15.5812C15.5226 11.89 15.4934 11.86 15.4934 11.8V11.58C15.4934 11.3333 15.3694 11.21 15.1213 11.21H14.6718C14.4238 11.21 14.2997 11.3333 14.2997 11.58V13.205C14.2997 13.4517 14.4238 13.575 14.6718 13.575H15.1213C15.3694 13.575 15.4934 13.4517 15.4934 13.205V12.985C15.4934 12.925 15.5226 12.895 15.5812 12.895H15.9067C15.9687 12.895 15.9997 12.925 15.9997 12.985V13.225C15.9997 13.4683 15.9291 13.6583 15.7879 13.795C15.6467 13.9317 15.4503 14 15.1988 14Z" fill="#B3333A" fill-opacity="0.8"/>
<path fill-rule="evenodd" clip-rule="evenodd" d="M17.9893 14H17.3899C17.135 14 16.9369 13.9317 16.7957 13.795C16.6579 13.6583 16.589 13.4683 16.589 13.225V11.56C16.589 11.3133 16.6579 11.1233 16.7957 10.99C16.9369 10.8533 17.135 10.785 17.3899 10.785H17.9893C18.2442 10.785 18.4423 10.8533 18.5835 10.99C18.7248 11.1233 18.7954 11.3133 18.7954 11.56V13.225C18.7954 13.4683 18.7248 13.6583 18.5835 13.795C18.4423 13.9317 18.2442 14 17.9893 14ZM17.4623 13.575H17.9118C18.1633 13.575 18.289 13.4517 18.289 13.205V11.58C18.289 11.3333 18.1633 11.21 17.9118 11.21H17.4623C17.2142 11.21 17.0902 11.3333 17.0902 11.58V13.205C17.0902 13.4517 17.2142 13.575 17.4623 13.575Z" fill="#B3333A" fill-opacity="0.8"/>
<path d="M21.2537 14H19.5796C19.521 14 19.4917 13.9717 19.4917 13.915V10.87C19.4917 10.8133 19.521 10.785 19.5796 10.785H19.9051C19.9636 10.785 19.9929 10.8133 19.9929 10.87V13.515C19.9929 13.5483 20.0136 13.565 20.0549 13.565H21.2537C21.3123 13.565 21.3416 13.595 21.3416 13.655V13.915C21.3416 13.9717 21.3123 14 21.2537 14Z" fill="#B3333A" fill-opacity="0.8"/>
<path fill-rule="evenodd" clip-rule="evenodd" d="M1.58116 19H1.08511C0.830193 19 0.632118 18.9317 0.490881 18.795C0.349645 18.6583 0.279027 18.4683 0.279027 18.225V16.56C0.279027 16.3133 0.349645 16.1233 0.490881 15.99C0.632118 15.8533 0.830193 15.785 1.08511 15.785H2.11337C2.17194 15.785 2.20122 15.8133 2.20122 15.87V16.13C2.20122 16.1833 2.17194 16.21 2.11337 16.21H1.15745C0.909423 16.21 0.78541 16.3333 0.78541 16.58V17.01H1.58116C1.83607 17.01 2.03414 17.0783 2.17538 17.215C2.31662 17.3483 2.38723 17.5383 2.38723 17.785V18.225C2.38723 18.4683 2.31662 18.6583 2.17538 18.795C2.03414 18.9317 1.83607 19 1.58116 19ZM1.15745 18.575H1.50881C1.75684 18.575 1.88085 18.4517 1.88085 18.205V17.805C1.88085 17.5583 1.75684 17.435 1.50881 17.435H0.78541V18.205C0.78541 18.4517 0.909423 18.575 1.15745 18.575Z" fill="#B3333A" fill-opacity="0.8"/>
<path d="M4.08542 17.3H3.76505C3.6996 17.3 3.64449 17.3117 3.5997 17.335C3.55837 17.3583 3.53081 17.3833 3.51703 17.41C3.47914 17.4867 3.43263 17.525 3.37751 17.525H3.05198C2.99342 17.525 2.96414 17.4967 2.96414 17.44V15.87C2.96414 15.8133 2.99342 15.785 3.05198 15.785H4.80365C4.86566 15.785 4.89666 15.8133 4.89666 15.87V16.155C4.89666 16.2117 4.86566 16.24 4.80365 16.24H3.47052V17.15C3.52909 16.9867 3.67377 16.905 3.90457 16.905H4.20943C4.45745 16.905 4.64692 16.9683 4.77782 17.095C4.90872 17.2183 4.97417 17.4017 4.97417 17.645V18.225C4.97417 18.4683 4.90355 18.6583 4.76232 18.795C4.62108 18.9317 4.42473 19 4.17326 19H3.73405C3.47914 19 3.28106 18.9317 3.13982 18.795C3.00203 18.6583 2.93314 18.4683 2.93314 18.225V18.095C2.93314 18.035 2.96242 18.005 3.02098 18.005H3.34651C3.40507 18.005 3.43435 18.035 3.43435 18.095V18.22C3.43435 18.4633 3.55837 18.585 3.80639 18.585H4.10092C4.35583 18.585 4.48329 18.4633 4.48329 18.22V17.715C4.48329 17.565 4.45229 17.4583 4.39028 17.395C4.33172 17.3317 4.2301 17.3 4.08542 17.3Z" fill="#B3333A" fill-opacity="0.8"/>
<path d="M5.49642 18.915V18.455C5.49642 18.2483 5.58771 18.075 5.77028 17.935L6.74687 17.165C6.91222 17.0383 6.9949 16.8917 6.9949 16.725V16.56C6.9949 16.32 6.86572 16.2 6.60736 16.2H6.35417C6.22327 16.2 6.12854 16.2283 6.06998 16.285C6.01141 16.3417 5.98213 16.4333 5.98213 16.56V16.745C5.98213 16.805 5.95285 16.835 5.89429 16.835H5.56359C5.50503 16.835 5.47575 16.805 5.47575 16.745V16.55C5.47575 16.3067 5.54637 16.1183 5.6876 15.985C5.82884 15.8517 6.02692 15.785 6.28183 15.785H6.68487C6.93634 15.785 7.13269 15.8517 7.27393 15.985C7.41516 16.1183 7.48578 16.3067 7.48578 16.55V16.755C7.48578 17.015 7.38071 17.2283 7.17058 17.395L6.17849 18.18C6.09926 18.2433 6.05964 18.3183 6.05964 18.405V18.565H7.40311C7.46511 18.565 7.49612 18.5933 7.49612 18.65V18.915C7.49612 18.9717 7.46511 19 7.40311 19H5.58943C5.52742 19 5.49642 18.9717 5.49642 18.915Z" fill="#B3333A" fill-opacity="0.8"/>
<path fill-rule="evenodd" clip-rule="evenodd" d="M9.36821 19H8.85149C8.59658 19 8.3985 18.9317 8.25726 18.795C8.11603 18.6583 8.04541 18.4683 8.04541 18.225V16.56C8.04541 16.3133 8.11603 16.1233 8.25726 15.99C8.3985 15.8533 8.59658 15.785 8.85149 15.785H9.36821C9.61968 15.785 9.81603 15.8533 9.95726 15.99C10.0985 16.1233 10.1691 16.3133 10.1691 16.56V18.225C10.1691 18.4683 10.0985 18.6583 9.95726 18.795C9.81603 18.9317 9.61968 19 9.36821 19ZM8.929 18.575H9.29587C9.54389 18.575 9.6679 18.4517 9.6679 18.205V16.58C9.6679 16.3333 9.54389 16.21 9.29587 16.21H8.929C8.68097 16.21 8.55696 16.3333 8.55696 16.58V18.205C8.55696 18.4517 8.68097 18.575 8.929 18.575Z" fill="#B3333A" fill-opacity="0.8"/>
<path d="M11.7933 17.605H10.7702C10.7116 17.605 10.6823 17.575 10.6823 17.515V17.295C10.6823 17.235 10.7116 17.205 10.7702 17.205H11.7933C11.8518 17.205 11.8811 17.235 11.8811 17.295V17.515C11.8811 17.575 11.8518 17.605 11.7933 17.605Z" fill="#B3333A" fill-opacity="0.8"/>
<path fill-rule="evenodd" clip-rule="evenodd" d="M12.6434 19H12.2714C12.2231 19 12.2059 18.9717 12.2197 18.915L13.1188 15.87C13.136 15.8133 13.1773 15.785 13.2428 15.785H13.7595C13.8284 15.785 13.8697 15.8133 13.8835 15.87L14.7826 18.915C14.7964 18.9717 14.7774 19 14.7258 19H14.3589C14.3279 19 14.3055 18.995 14.2917 18.985C14.2814 18.9717 14.2728 18.9483 14.2659 18.915L14.0695 18.265H12.9327L12.7364 18.915C12.7226 18.9717 12.6916 19 12.6434 19ZM13.4908 16.265L13.0361 17.865H13.9713L13.5115 16.265H13.4908Z" fill="#B3333A" fill-opacity="0.8"/>
<path fill-rule="evenodd" clip-rule="evenodd" d="M17.0192 19H16.7144C16.6558 19 16.6265 18.9717 16.6265 18.915V18.39H15.2624C15.1625 18.39 15.1125 18.3417 15.1125 18.245V18.09C15.1125 18.0167 15.128 17.9517 15.159 17.895L16.3113 15.91C16.3389 15.86 16.3647 15.8267 16.3888 15.81C16.4129 15.7933 16.4491 15.785 16.4973 15.785H16.952C17.0519 15.785 17.1019 15.8333 17.1019 15.93V17.96H17.4791C17.5377 17.96 17.5669 17.9883 17.5669 18.045V18.295C17.5669 18.3583 17.5377 18.39 17.4791 18.39H17.1019V18.915C17.1019 18.9717 17.0743 19 17.0192 19ZM16.6265 17.96V16.19L15.6086 17.96H16.6265Z" fill="#B3333A" fill-opacity="0.8"/>
<path fill-rule="evenodd" clip-rule="evenodd" d="M19.7744 19H19.4695C19.4109 19 19.3817 18.9717 19.3817 18.915V18.39H18.0175C17.9176 18.39 17.8677 18.3417 17.8677 18.245V18.09C17.8677 18.0167 17.8832 17.9517 17.9142 17.895L19.0665 15.91C19.094 15.86 19.1199 15.8267 19.144 15.81C19.1681 15.7933 19.2043 15.785 19.2525 15.785H19.7072C19.8071 15.785 19.857 15.8333 19.857 15.93V17.96H20.2342C20.2928 17.96 20.3221 17.9883 20.3221 18.045V18.295C20.3221 18.3583 20.2928 18.39 20.2342 18.39H19.857V18.915C19.857 18.9717 19.8295 19 19.7744 19ZM19.3817 17.96V16.19L18.3637 17.96H19.3817Z" fill="#B3333A" fill-opacity="0.8"/>
<path d="M0 20H340V21H0V20Z" fill="#B3333A" fill-opacity="0.8"/>
<path d="M6.20061 3H0V4H6.20061V3Z" fill="#B3333A" fill-opacity="0.8"/>
<path d="M0 6H6.20061V7H0V6Z" fill="#B3333A" fill-opacity="0.8"/>
<path d="M6.20061 8H0V9H6.20061V8Z" fill="#B3333A" fill-opacity="0.8"/>
<path d="M12.4012 5H6.20061V6H12.4012V5Z" fill="#B3333A" fill-opacity="0.8"/>
<path d="M12.4012 3H18.6018V4H12.4012V3Z" fill="#B3333A" fill-opacity="0.8"/>
<path d="M18.6018 7H12.4012V8H18.6018V7Z" fill="#B3333A" fill-opacity="0.8"/>
<path d="M25.3191 2H19.1185V3H25.3191V2Z" fill="#B3333A" fill-opacity="0.8"/>
<path d="M19.1185 5H25.3191V6H19.1185V5Z" fill="#B3333A" fill-opacity="0.8"/>
<path d="M25.3191 8H19.1185V9H25.3191V8Z" fill="#B3333A" fill-opacity="0.8"/>
</svg>
