<svg width="29" height="13" viewBox="0 0 29 13" fill="none" xmlns="http://www.w3.org/2000/svg">
<path fill-rule="evenodd" clip-rule="evenodd" d="M0.270423 0.88107C0.407367 0.623012 0.710518 0.31169 0.944235 0.189257C1.30578 -0.000248954 1.59828 -0.025648 2.9092 0.0189851C4.88738 0.0863047 5.5404 0.168543 5.61689 0.360145C5.65091 0.445096 5.63307 1.3983 5.57736 2.47837L5.4761 4.4421L4.12848 4.46368C3.38728 4.47564 2.49208 4.53174 2.13913 4.58845L1.4974 4.69165L1.36906 12.9495L1.00058 12.99C0.797922 13.0123 0.489893 12.9961 0.316114 12.9542L0 12.878L0.0821408 10.7561C0.263107 6.08132 0.268883 5.42711 0.130784 5.1635C0.0518513 5.01284 0.0269525 4.66736 0.0730284 4.36208C0.267471 3.07389 0.305333 2.16113 0.164282 2.16113C-0.0644291 2.16113 -0.000641674 1.39188 0.270423 0.88107ZM4.7702 1.48707C4.7702 1.33628 4.66457 1.12113 4.53546 1.00893C4.20279 0.719676 1.80543 0.711538 1.50651 0.998571C1.25907 1.23628 1.24867 1.54699 1.47802 1.84833C1.62626 2.04301 1.84573 2.07753 2.9984 2.08764C4.45114 2.10047 4.7702 1.99221 4.7702 1.48707ZM4.62376 3.83635C4.83155 3.71293 4.8055 2.91718 4.5868 2.7072C4.3165 2.44742 1.82314 2.46542 1.5807 2.72878C1.41411 2.90978 1.31631 3.69271 1.44478 3.81613C1.54553 3.91291 4.46359 3.93141 4.62376 3.83635Z" fill="#D84048"/>
<path fill-rule="evenodd" clip-rule="evenodd" d="M7.59379 2.30501C7.59379 1.16342 7.6332 0.191723 7.6812 0.145487C7.8116 0.0202182 12.1932 0.063495 12.5491 0.193572L12.8559 0.305525L12.8651 4.96303C12.8701 7.52462 12.9164 10.0644 12.9679 10.6069C13.0201 11.1584 13.0074 11.8207 12.939 12.1093C12.8271 12.5806 12.7653 12.6412 12.2265 12.8087C11.4681 13.0447 10.9528 12.9535 10.8513 12.5653C10.7372 12.1282 10.8784 11.9054 11.3238 11.8199C11.5434 11.7776 11.7455 11.6817 11.7731 11.6066C11.8008 11.5315 11.8474 10.0036 11.8768 8.2115C11.9233 5.37804 11.904 4.92801 11.73 4.7607C11.5459 4.58389 10.6872 4.50153 7.88257 4.3918C7.59495 4.38045 7.59379 4.37182 7.59379 2.30501ZM11.7355 1.93809C12.0548 1.68348 12.0906 1.30262 11.8197 1.04234C11.6061 0.837177 11.3834 0.804873 10.1806 0.804873C8.99519 0.804873 8.75724 0.838286 8.57627 1.03038C8.31535 1.3073 8.30187 1.71159 8.54714 1.90714C8.80909 2.116 11.4798 2.14189 11.7355 1.93809ZM11.8035 3.73931C12.0372 3.51479 11.9879 3.05342 11.7008 2.77761C11.4771 2.5627 11.2731 2.53101 10.1113 2.53101C8.8363 2.53101 8.76943 2.54421 8.57114 2.83494C8.32523 3.19546 8.30521 3.53501 8.51788 3.73931C8.73029 3.94337 11.5911 3.94337 11.8035 3.73931Z" fill="#D84048"/>
<path fill-rule="evenodd" clip-rule="evenodd" d="M3.9923 7.25534C3.69737 6.39671 4.08112 6.0934 5.60444 5.98108C6.67074 5.90254 8.6615 5.94236 9.01753 6.04951C9.22018 6.11042 9.24803 6.42519 9.4367 10.7765C9.46211 11.3628 9.16076 11.5251 8.55895 11.2494C8.21601 11.0923 7.75846 11.0384 6.76571 11.0384C5.31631 11.0384 5.02689 11.0934 5.02689 11.3686C5.02689 11.8051 4.35026 12.0652 4.0258 11.7535C3.83341 11.5687 3.81711 9.25311 4.00167 8.31815C4.09215 7.85962 4.08933 7.53769 3.9923 7.25534ZM8.51287 7.81215C8.87596 7.35866 8.81731 6.88669 8.37028 6.66463C7.94379 6.45281 5.56312 6.40892 5.05898 6.6036C4.81384 6.69829 4.7702 6.80765 4.7702 7.32722C4.7702 8.09425 4.83976 8.12076 6.81512 8.1088C8.19548 8.10041 8.2961 8.08278 8.51287 7.81215ZM8.48797 9.40636C8.49144 9.13351 8.40327 9.03327 8.02734 8.88235C7.7496 8.7709 7.1682 8.69605 6.58346 8.6963C4.99981 8.69704 4.33421 9.27456 5.08529 9.99596C5.3783 10.2776 5.49112 10.2987 6.70103 10.2987C7.89309 10.2987 8.02195 10.2755 8.24271 10.0212C8.37529 9.86872 8.48554 9.59205 8.48797 9.40636Z" fill="#D84048"/>
<path d="M24.8704 0.2799L25.1523 0.141462C25.4951 -0.0267613 25.5417 -0.0329114 25.7783 0.0599431C25.9392 0.123132 25.9648 0.445229 25.9648 2.41145V4.68977L26.2301 4.70182C26.3759 4.70834 26.9856 4.704 27.5849 4.69206C28.4584 4.67469 28.7128 4.70966 28.8682 4.8686C29.0324 5.03646 29.039 5.11099 28.9114 5.35494C28.6982 5.7623 28.2694 5.87613 27.3796 5.76145C26.8816 5.6973 26.5003 5.70839 26.2908 5.79317L25.9683 5.9234L25.9058 12.9502L25.483 12.9865C24.7421 13.0499 24.74 13.0371 24.885 9.42559C24.9969 6.63851 24.991 6.16736 24.8409 5.93317C24.6807 5.68295 24.5668 5.65979 23.3426 5.62832C22.2753 5.60082 22.0119 5.5591 21.9871 5.41331C21.9252 5.04864 22.1453 4.94831 23.1367 4.88982C24.4727 4.81108 24.8705 4.71171 24.9402 4.43942C24.9717 4.31606 24.969 3.32963 24.934 2.24745L24.8704 0.2799Z" fill="#D84048"/>
<path d="M17.2177 1.28538C17.1048 1.10896 17.199 0.604649 17.3885 0.371187C17.5942 0.117585 20.6651 0.279297 20.8655 0.554243C21.0773 0.844624 21.047 1.28659 20.8066 1.41502C20.4876 1.58553 17.3369 1.47169 17.2177 1.28538Z" fill="#D84048"/>
<path d="M16.2696 3.43189C15.9591 3.24365 15.915 2.99198 16.1466 2.72981C16.3463 2.50371 16.4754 2.49623 19.0085 2.56255C20.4676 2.60078 21.695 2.63382 21.736 2.63587C21.8657 2.6425 21.9315 3.08833 21.8281 3.25944C21.7012 3.46963 16.5931 3.62809 16.2696 3.43189Z" fill="#D84048"/>
<path d="M17.2614 5.13619C17.239 5.01693 17.2856 4.83906 17.3653 4.74102C17.4827 4.59631 17.8131 4.56893 19.1141 4.59607L20.7181 4.62947V5.35301H19.0102C17.4599 5.35301 17.2984 5.33299 17.2614 5.13619Z" fill="#D84048"/>
<path d="M17.24 7.00112C17.24 6.81312 17.2768 6.62186 17.3217 6.5758C17.3666 6.52985 18.1493 6.5073 19.0608 6.52563L20.7181 6.55891L20.7921 7.34275H17.24V7.00112Z" fill="#D84048"/>
<path fill-rule="evenodd" clip-rule="evenodd" d="M16.8104 10.9332C16.8752 8.83855 16.9556 8.51055 17.4252 8.42674C17.8222 8.35595 20.7622 8.40563 20.9834 8.48691C21.0859 8.52466 21.1339 8.88197 21.1407 9.66038C21.1462 10.2759 21.1915 11.1052 21.2414 11.5031C21.399 12.7605 21.0874 13.0592 20.2353 12.4678C19.8826 12.223 19.6575 12.1664 19.0374 12.1664C18.3155 12.1664 18.2534 12.1893 17.896 12.5884C17.4889 13.0431 17.2069 13.1144 16.9312 12.8325C16.7887 12.6867 16.7668 12.3427 16.8104 10.9332ZM20.3055 10.2972C20.3055 9.49734 20.2682 9.28341 20.1189 9.2248C20.0164 9.18453 19.5136 9.15161 19.0016 9.15161C18.1421 9.15161 18.0561 9.1744 17.8802 9.4491C17.6791 9.763 17.7152 10.4379 17.9689 11.1112C18.0904 11.4337 18.1193 11.4428 19.0133 11.4428C19.7004 11.4428 20.0223 11.4503 20.1731 11.2934C20.3127 11.148 20.3055 10.8615 20.3055 10.2972Z" fill="#D84048"/>
</svg>
