<svg width="133" height="15" viewBox="0 0 133 15" fill="none" xmlns="http://www.w3.org/2000/svg">
<path d="M89.5263 6.25H89.0046C88.7827 6.25 88.6103 6.19021 88.4874 6.07063C88.3675 5.95104 88.3075 5.78479 88.3075 5.57187V4.115C88.3075 3.89917 88.3675 3.73292 88.4874 3.61625C88.6103 3.49667 88.7827 3.43688 89.0046 3.43688H89.5263C89.7452 3.43688 89.9161 3.49667 90.0391 3.61625C90.162 3.73292 90.2235 3.89917 90.2235 4.115V4.325C90.2235 4.3775 90.1965 4.40375 90.1425 4.40375H89.8592C89.8082 4.40375 89.7827 4.3775 89.7827 4.325V4.1325C89.7827 3.91667 89.6748 3.80875 89.4589 3.80875H89.0676C88.8517 3.80875 88.7438 3.91667 88.7438 4.1325V5.55438C88.7438 5.77021 88.8517 5.87812 89.0676 5.87812H89.4589C89.6748 5.87812 89.7827 5.77021 89.7827 5.55438V5.36187C89.7827 5.30937 89.8082 5.28313 89.8592 5.28313H90.1425C90.1965 5.28313 90.2235 5.30937 90.2235 5.36187V5.57187C90.2235 5.78479 90.162 5.95104 90.0391 6.07063C89.9161 6.19021 89.7452 6.25 89.5263 6.25Z" fill="#B3333A" fill-opacity="0.8"/>
<path fill-rule="evenodd" clip-rule="evenodd" d="M91.9552 6.25H91.4335C91.2116 6.25 91.0392 6.19021 90.9163 6.07063C90.7963 5.95104 90.7364 5.78479 90.7364 5.57187V4.115C90.7364 3.89917 90.7963 3.73292 90.9163 3.61625C91.0392 3.49667 91.2116 3.43688 91.4335 3.43688H91.9552C92.1771 3.43688 92.3495 3.49667 92.4724 3.61625C92.5954 3.73292 92.6568 3.89917 92.6568 4.115V5.57187C92.6568 5.78479 92.5954 5.95104 92.4724 6.07063C92.3495 6.19021 92.1771 6.25 91.9552 6.25ZM91.4965 5.87812H91.8878C92.1066 5.87812 92.2161 5.77021 92.2161 5.55438V4.1325C92.2161 3.91667 92.1066 3.80875 91.8878 3.80875H91.4965C91.2806 3.80875 91.1726 3.91667 91.1726 4.1325V5.55438C91.1726 5.77021 91.2806 5.87812 91.4965 5.87812Z" fill="#B3333A" fill-opacity="0.8"/>
<path d="M95.2419 3.43688H95.7456C95.7966 3.43688 95.8221 3.46167 95.8221 3.51125V6.17562C95.8221 6.22521 95.7966 6.25 95.7456 6.25H95.4667C95.4158 6.25 95.3903 6.22521 95.3903 6.17562V3.96625H95.3723L94.7876 5.5675C94.7696 5.61417 94.7366 5.6375 94.6887 5.6375H94.4008C94.3558 5.6375 94.3244 5.61417 94.3064 5.5675L93.7082 3.96187H93.6902V6.17562C93.6902 6.20479 93.6842 6.22521 93.6722 6.23688C93.6632 6.24563 93.6437 6.25 93.6137 6.25H93.3394C93.2884 6.25 93.2629 6.22521 93.2629 6.17562V3.51125C93.2629 3.46167 93.2884 3.43688 93.3394 3.43688H93.8431C93.8761 3.43688 93.9001 3.45292 93.9151 3.485L94.5312 5.17375H94.5537L95.1744 3.485C95.1804 3.45292 95.2029 3.43688 95.2419 3.43688Z" fill="#B3333A" fill-opacity="0.8"/>
<path fill-rule="evenodd" clip-rule="evenodd" d="M96.478 6.17562V3.51125C96.478 3.46167 96.5035 3.43688 96.5545 3.43688H97.6204C97.8423 3.43688 98.0147 3.49521 98.1376 3.61187C98.2605 3.72854 98.322 3.89333 98.322 4.10625V4.32063C98.322 4.57437 98.1991 4.73771 97.9532 4.81063C98.0701 4.82521 98.1661 4.87479 98.2411 4.95937C98.319 5.04396 98.358 5.15771 98.358 5.30062V5.58062C98.358 5.79354 98.2965 5.95833 98.1736 6.075C98.0507 6.19167 97.8797 6.25 97.6609 6.25H96.5545C96.5035 6.25 96.478 6.22521 96.478 6.17562ZM96.9637 5.88687H97.5934C97.8183 5.88687 97.9307 5.78188 97.9307 5.57187V5.30062C97.9307 5.09062 97.8123 4.98562 97.5754 4.98562H96.9637C96.9308 4.98562 96.9143 5.00021 96.9143 5.02937V5.84312C96.9143 5.87229 96.9308 5.88687 96.9637 5.88687ZM96.9637 4.63562H97.5484C97.7763 4.63562 97.8902 4.52917 97.8902 4.31625V4.115C97.8902 3.905 97.7793 3.8 97.5574 3.8H96.9637C96.9308 3.8 96.9143 3.81458 96.9143 3.84375V4.59188C96.9143 4.62104 96.9308 4.63562 96.9637 4.63562Z" fill="#B3333A" fill-opacity="0.8"/>
<path fill-rule="evenodd" clip-rule="evenodd" d="M99.117 6.25H98.7932C98.7512 6.25 98.7362 6.22521 98.7482 6.17562L99.5308 3.51125C99.5458 3.46167 99.5817 3.43688 99.6387 3.43688H100.088C100.148 3.43688 100.184 3.46167 100.196 3.51125L100.979 6.17562C100.991 6.22521 100.974 6.25 100.93 6.25H100.61C100.583 6.25 100.564 6.24563 100.552 6.23688C100.543 6.22521 100.535 6.20479 100.529 6.17562L100.358 5.60687H99.3689L99.1979 6.17562C99.1859 6.22521 99.159 6.25 99.117 6.25ZM99.8546 3.85687L99.4588 5.25688H100.273L99.8726 3.85687H99.8546Z" fill="#B3333A" fill-opacity="0.8"/>
<path d="M102.215 6.25H101.932C101.878 6.25 101.851 6.22521 101.851 6.17562V3.8525C101.851 3.82333 101.836 3.80875 101.806 3.80875H101.239C101.185 3.80875 101.158 3.78396 101.158 3.73437V3.51125C101.158 3.46167 101.185 3.43688 101.239 3.43688H102.908C102.962 3.43688 102.989 3.46167 102.989 3.51125V3.73437C102.989 3.78396 102.962 3.80875 102.908 3.80875H102.341C102.308 3.80875 102.292 3.82333 102.292 3.8525V6.17562C102.292 6.22521 102.266 6.25 102.215 6.25Z" fill="#B3333A" fill-opacity="0.8"/>
<path d="M105.619 6.25H105.098C104.876 6.25 104.703 6.19021 104.58 6.07063C104.46 5.95104 104.4 5.78479 104.4 5.57187V4.115C104.4 3.89917 104.46 3.73292 104.58 3.61625C104.703 3.49667 104.876 3.43688 105.098 3.43688H105.619C105.838 3.43688 106.009 3.49667 106.132 3.61625C106.255 3.73292 106.316 3.89917 106.316 4.115V4.325C106.316 4.3775 106.289 4.40375 106.235 4.40375H105.952C105.901 4.40375 105.876 4.3775 105.876 4.325V4.1325C105.876 3.91667 105.768 3.80875 105.552 3.80875H105.161C104.945 3.80875 104.837 3.91667 104.837 4.1325V5.55438C104.837 5.77021 104.945 5.87812 105.161 5.87812H105.552C105.768 5.87812 105.876 5.77021 105.876 5.55438V5.36187C105.876 5.30937 105.901 5.28313 105.952 5.28313H106.235C106.289 5.28313 106.316 5.30937 106.316 5.36187V5.57187C106.316 5.78479 106.255 5.95104 106.132 6.07063C106.009 6.19021 105.838 6.25 105.619 6.25Z" fill="#B3333A" fill-opacity="0.8"/>
<path fill-rule="evenodd" clip-rule="evenodd" d="M108.048 6.25H107.526C107.305 6.25 107.132 6.19021 107.009 6.07063C106.889 5.95104 106.829 5.78479 106.829 5.57187V4.115C106.829 3.89917 106.889 3.73292 107.009 3.61625C107.132 3.49667 107.305 3.43688 107.526 3.43688H108.048C108.27 3.43688 108.442 3.49667 108.565 3.61625C108.688 3.73292 108.75 3.89917 108.75 4.115V5.57187C108.75 5.78479 108.688 5.95104 108.565 6.07063C108.442 6.19021 108.27 6.25 108.048 6.25ZM107.589 5.87812H107.981C108.2 5.87812 108.309 5.77021 108.309 5.55438V4.1325C108.309 3.91667 108.2 3.80875 107.981 3.80875H107.589C107.373 3.80875 107.266 3.91667 107.266 4.1325V5.55438C107.266 5.77021 107.373 5.87812 107.589 5.87812Z" fill="#B3333A" fill-opacity="0.8"/>
<path d="M110.89 6.25H109.432C109.381 6.25 109.356 6.22521 109.356 6.17562V3.51125C109.356 3.46167 109.381 3.43688 109.432 3.43688H109.716C109.767 3.43688 109.792 3.46167 109.792 3.51125V5.82563C109.792 5.85479 109.81 5.86937 109.846 5.86937H110.89C110.941 5.86937 110.966 5.89562 110.966 5.94813V6.17562C110.966 6.22521 110.941 6.25 110.89 6.25Z" fill="#B3333A" fill-opacity="0.8"/>
<path fill-rule="evenodd" clip-rule="evenodd" d="M112.555 6.25H112.033C111.811 6.25 111.639 6.19021 111.516 6.07063C111.396 5.95104 111.336 5.78479 111.336 5.57187V4.115C111.336 3.89917 111.396 3.73292 111.516 3.61625C111.639 3.49667 111.811 3.43688 112.033 3.43688H112.555C112.776 3.43688 112.949 3.49667 113.072 3.61625C113.195 3.73292 113.256 3.89917 113.256 4.115V5.57187C113.256 5.78479 113.195 5.95104 113.072 6.07063C112.949 6.19021 112.776 6.25 112.555 6.25ZM112.096 5.87812H112.487C112.706 5.87812 112.815 5.77021 112.815 5.55438V4.1325C112.815 3.91667 112.706 3.80875 112.487 3.80875H112.096C111.88 3.80875 111.772 3.91667 111.772 4.1325V5.55438C111.772 5.77021 111.88 5.87812 112.096 5.87812Z" fill="#B3333A" fill-opacity="0.8"/>
<path d="M114.218 6.25H113.939C113.888 6.25 113.862 6.22521 113.862 6.17562V3.51125C113.862 3.46167 113.888 3.43688 113.939 3.43688H114.191C114.239 3.43688 114.271 3.45292 114.289 3.485L115.378 5.38813H115.396V3.51125C115.396 3.46167 115.421 3.43688 115.472 3.43688H115.751C115.802 3.43688 115.828 3.46167 115.828 3.51125V6.17562C115.828 6.22521 115.802 6.25 115.751 6.25H115.508C115.46 6.25 115.421 6.22667 115.391 6.18L114.312 4.29875H114.294V6.17562C114.294 6.22521 114.268 6.25 114.218 6.25Z" fill="#B3333A" fill-opacity="0.8"/>
<path d="M116.943 3.51125V6.17562C116.943 6.22521 116.918 6.25 116.867 6.25H116.583C116.532 6.25 116.507 6.22521 116.507 6.17562V3.51125C116.507 3.46167 116.532 3.43688 116.583 3.43688H116.867C116.918 3.43688 116.943 3.46167 116.943 3.51125Z" fill="#B3333A" fill-opacity="0.8"/>
<path d="M117.5 6.17562V5.97C117.5 5.89417 117.514 5.84021 117.541 5.80813L118.841 3.8525V3.835H117.649C117.595 3.835 117.568 3.81021 117.568 3.76063V3.51125C117.568 3.46167 117.595 3.43688 117.649 3.43688H119.241C119.292 3.43688 119.318 3.46167 119.318 3.51125V3.8C119.318 3.86417 119.301 3.92104 119.268 3.97062L118.018 5.83438V5.85187H119.286C119.337 5.85187 119.362 5.87521 119.362 5.92188V6.16687C119.362 6.22229 119.337 6.25 119.286 6.25H117.577C117.526 6.25 117.5 6.22521 117.5 6.17562Z" fill="#B3333A" fill-opacity="0.8"/>
<path fill-rule="evenodd" clip-rule="evenodd" d="M120.054 6.25H119.731C119.689 6.25 119.674 6.22521 119.686 6.17562L120.468 3.51125C120.483 3.46167 120.519 3.43688 120.576 3.43688H121.026C121.086 3.43688 121.122 3.46167 121.134 3.51125L121.916 6.17562C121.928 6.22521 121.912 6.25 121.867 6.25H121.548C121.521 6.25 121.501 6.24563 121.489 6.23688C121.48 6.22521 121.473 6.20479 121.467 6.17562L121.296 5.60687H120.306L120.135 6.17562C120.123 6.22521 120.096 6.25 120.054 6.25ZM120.792 3.85687L120.396 5.25688H121.21L120.81 3.85687H120.792Z" fill="#B3333A" fill-opacity="0.8"/>
<path d="M123.153 6.25H122.869C122.815 6.25 122.788 6.22521 122.788 6.17562V3.8525C122.788 3.82333 122.773 3.80875 122.743 3.80875H122.177C122.123 3.80875 122.096 3.78396 122.096 3.73437V3.51125C122.096 3.46167 122.123 3.43688 122.177 3.43688H123.845C123.899 3.43688 123.926 3.46167 123.926 3.51125V3.73437C123.926 3.78396 123.899 3.80875 123.845 3.80875H123.279C123.246 3.80875 123.229 3.82333 123.229 3.8525V6.17562C123.229 6.22521 123.204 6.25 123.153 6.25Z" fill="#B3333A" fill-opacity="0.8"/>
<path d="M124.77 3.51125V6.17562C124.77 6.22521 124.744 6.25 124.693 6.25H124.41C124.359 6.25 124.334 6.22521 124.334 6.17562V3.51125C124.334 3.46167 124.359 3.43688 124.41 3.43688H124.693C124.744 3.43688 124.77 3.46167 124.77 3.51125Z" fill="#B3333A" fill-opacity="0.8"/>
<path fill-rule="evenodd" clip-rule="evenodd" d="M126.623 6.25H126.101C125.879 6.25 125.707 6.19021 125.584 6.07063C125.464 5.95104 125.404 5.78479 125.404 5.57187V4.115C125.404 3.89917 125.464 3.73292 125.584 3.61625C125.707 3.49667 125.879 3.43688 126.101 3.43688H126.623C126.845 3.43688 127.017 3.49667 127.14 3.61625C127.263 3.73292 127.324 3.89917 127.324 4.115V5.57187C127.324 5.78479 127.263 5.95104 127.14 6.07063C127.017 6.19021 126.845 6.25 126.623 6.25ZM126.164 5.87812H126.555C126.774 5.87812 126.883 5.77021 126.883 5.55438V4.1325C126.883 3.91667 126.774 3.80875 126.555 3.80875H126.164C125.948 3.80875 125.84 3.91667 125.84 4.1325V5.55438C125.84 5.77021 125.948 5.87812 126.164 5.87812Z" fill="#B3333A" fill-opacity="0.8"/>
<path d="M128.286 6.25H128.007C127.956 6.25 127.93 6.22521 127.93 6.17562V3.51125C127.93 3.46167 127.956 3.43688 128.007 3.43688H128.259C128.307 3.43688 128.34 3.45292 128.358 3.485L129.446 5.38813H129.464V3.51125C129.464 3.46167 129.49 3.43688 129.54 3.43688H129.819C129.87 3.43688 129.896 3.46167 129.896 3.51125V6.17562C129.896 6.22521 129.87 6.25 129.819 6.25H129.576C129.528 6.25 129.49 6.22667 129.46 6.18L128.38 4.29875H128.362V6.17562C128.362 6.22521 128.337 6.25 128.286 6.25Z" fill="#B3333A" fill-opacity="0.8"/>
<path fill-rule="evenodd" clip-rule="evenodd" d="M88.3525 11.1756V8.51125C88.3525 8.46167 88.378 8.43687 88.4289 8.43687H89.5353C89.7542 8.43687 89.9251 8.49667 90.0481 8.61625C90.174 8.73292 90.237 8.89917 90.237 9.115V10.5719C90.237 10.7848 90.174 10.951 90.0481 11.0706C89.9251 11.1902 89.7542 11.25 89.5353 11.25H88.4289C88.378 11.25 88.3525 11.2252 88.3525 11.1756ZM88.8382 10.8781H89.4724C89.6883 10.8781 89.7962 10.7702 89.7962 10.5544V9.1325C89.7962 8.91667 89.6883 8.80875 89.4724 8.80875H88.8382C88.8052 8.80875 88.7887 8.82333 88.7887 8.8525V10.83C88.7887 10.8621 88.8052 10.8781 88.8382 10.8781Z" fill="#B3333A" fill-opacity="0.8"/>
<path d="M92.3629 11.25H90.9237C90.8727 11.25 90.8472 11.2252 90.8472 11.1756V8.51125C90.8472 8.46167 90.8727 8.43687 90.9237 8.43687H92.3629C92.4109 8.43687 92.4349 8.46167 92.4349 8.51125V8.73437C92.4349 8.78396 92.4109 8.80875 92.3629 8.80875H91.3375C91.3015 8.80875 91.2835 8.82333 91.2835 8.8525V9.59188C91.2835 9.62104 91.3015 9.63562 91.3375 9.63562H92.2055C92.2595 9.63562 92.2865 9.66042 92.2865 9.71V9.93312C92.2865 9.98271 92.2595 10.0075 92.2055 10.0075H91.3375C91.3015 10.0075 91.2835 10.0221 91.2835 10.0513V10.83C91.2835 10.8621 91.3015 10.8781 91.3375 10.8781H92.3629C92.4109 10.8781 92.4349 10.9029 92.4349 10.9525V11.1756C92.4349 11.2252 92.4109 11.25 92.3629 11.25Z" fill="#B3333A" fill-opacity="0.8"/>
<path d="M93.368 11.25H93.0846C93.0337 11.25 93.0082 11.2252 93.0082 11.1756V8.51125C93.0082 8.46167 93.0337 8.43687 93.0846 8.43687H94.4969C94.5479 8.43687 94.5733 8.46167 94.5733 8.51125V8.73437C94.5733 8.78396 94.5479 8.80875 94.4969 8.80875H93.4984C93.4624 8.80875 93.4444 8.82333 93.4444 8.8525V9.67937C93.4444 9.71146 93.4624 9.7275 93.4984 9.7275H94.3665C94.4204 9.7275 94.4474 9.75229 94.4474 9.80187V10.0206C94.4474 10.0731 94.4204 10.0994 94.3665 10.0994H93.4984C93.4624 10.0994 93.4444 10.114 93.4444 10.1431V11.1756C93.4444 11.2252 93.419 11.25 93.368 11.25Z" fill="#B3333A" fill-opacity="0.8"/>
<path d="M96.5662 11.25H95.127C95.076 11.25 95.0505 11.2252 95.0505 11.1756V8.51125C95.0505 8.46167 95.076 8.43687 95.127 8.43687H96.5662C96.6142 8.43687 96.6382 8.46167 96.6382 8.51125V8.73437C96.6382 8.78396 96.6142 8.80875 96.5662 8.80875H95.5408C95.5048 8.80875 95.4868 8.82333 95.4868 8.8525V9.59188C95.4868 9.62104 95.5048 9.63562 95.5408 9.63562H96.4088C96.4628 9.63562 96.4898 9.66042 96.4898 9.71V9.93312C96.4898 9.98271 96.4628 10.0075 96.4088 10.0075H95.5408C95.5048 10.0075 95.4868 10.0221 95.4868 10.0513V10.83C95.4868 10.8621 95.5048 10.8781 95.5408 10.8781H96.5662C96.6142 10.8781 96.6382 10.9029 96.6382 10.9525V11.1756C96.6382 11.2252 96.6142 11.25 96.5662 11.25Z" fill="#B3333A" fill-opacity="0.8"/>
<path d="M97.5668 11.25H97.288C97.237 11.25 97.2115 11.2252 97.2115 11.1756V8.51125C97.2115 8.46167 97.237 8.43687 97.288 8.43687H97.5398C97.5878 8.43687 97.6208 8.45292 97.6388 8.485L98.7272 10.3881H98.7452V8.51125C98.7452 8.46167 98.7707 8.43687 98.8216 8.43687H99.1005C99.1514 8.43687 99.1769 8.46167 99.1769 8.51125V11.1756C99.1769 11.2252 99.1514 11.25 99.1005 11.25H98.8576C98.8096 11.25 98.7707 11.2267 98.7407 11.18L97.6612 9.29875H97.6433V11.1756C97.6433 11.2252 97.6178 11.25 97.5668 11.25Z" fill="#B3333A" fill-opacity="0.8"/>
<path d="M101.007 11.25H100.486C100.264 11.25 100.091 11.1902 99.9685 11.0706C99.8486 10.951 99.7886 10.7848 99.7886 10.5719V9.115C99.7886 8.89917 99.8486 8.73292 99.9685 8.61625C100.091 8.49667 100.264 8.43687 100.486 8.43687H101.007C101.226 8.43687 101.397 8.49667 101.52 8.61625C101.643 8.73292 101.705 8.89917 101.705 9.115V9.325C101.705 9.3775 101.678 9.40375 101.624 9.40375H101.34C101.289 9.40375 101.264 9.3775 101.264 9.325V9.1325C101.264 8.91667 101.156 8.80875 100.94 8.80875H100.549C100.333 8.80875 100.225 8.91667 100.225 9.1325V10.5544C100.225 10.7702 100.333 10.8781 100.549 10.8781H100.94C101.156 10.8781 101.264 10.7702 101.264 10.5544V10.3619C101.264 10.3094 101.289 10.2831 101.34 10.2831H101.624C101.678 10.2831 101.705 10.3094 101.705 10.3619V10.5719C101.705 10.7848 101.643 10.951 101.52 11.0706C101.397 11.1902 101.226 11.25 101.007 11.25Z" fill="#B3333A" fill-opacity="0.8"/>
<path d="M103.778 11.25H102.339C102.288 11.25 102.262 11.2252 102.262 11.1756V8.51125C102.262 8.46167 102.288 8.43687 102.339 8.43687H103.778C103.826 8.43687 103.85 8.46167 103.85 8.51125V8.73437C103.85 8.78396 103.826 8.80875 103.778 8.80875H102.753C102.717 8.80875 102.699 8.82333 102.699 8.8525V9.59188C102.699 9.62104 102.717 9.63562 102.753 9.63562H103.621C103.675 9.63562 103.702 9.66042 103.702 9.71V9.93312C103.702 9.98271 103.675 10.0075 103.621 10.0075H102.753C102.717 10.0075 102.699 10.0221 102.699 10.0513V10.83C102.699 10.8621 102.717 10.8781 102.753 10.8781H103.778C103.826 10.8781 103.85 10.9029 103.85 10.9525V11.1756C103.85 11.2252 103.826 11.25 103.778 11.25Z" fill="#B3333A" fill-opacity="0.8"/>
<path fill-rule="evenodd" clip-rule="evenodd" d="M105.855 11.25H105.572C105.521 11.25 105.495 11.2252 105.495 11.1756V8.51125C105.495 8.46167 105.521 8.43687 105.572 8.43687H106.642C106.861 8.43687 107.032 8.49667 107.155 8.61625C107.278 8.73292 107.339 8.89917 107.339 9.115V9.57C107.339 9.78292 107.278 9.94917 107.155 10.0688C107.032 10.1883 106.861 10.2481 106.642 10.2481H105.985C105.949 10.2481 105.931 10.2627 105.931 10.2919V11.1756C105.931 11.2252 105.906 11.25 105.855 11.25ZM105.981 9.87188H106.579C106.792 9.87188 106.898 9.76396 106.898 9.54812V9.1325C106.898 8.91667 106.792 8.80875 106.579 8.80875H105.981C105.948 8.80875 105.931 8.82333 105.931 8.8525V9.82812C105.931 9.85729 105.948 9.87188 105.981 9.87188Z" fill="#B3333A" fill-opacity="0.8"/>
<path fill-rule="evenodd" clip-rule="evenodd" d="M108.231 11.25H107.948C107.897 11.25 107.871 11.2252 107.871 11.1756V8.51125C107.871 8.46167 107.897 8.43687 107.948 8.43687H109C109.219 8.43687 109.39 8.49813 109.513 8.62063C109.639 8.74021 109.702 8.90646 109.702 9.11937V9.48687C109.702 9.82229 109.559 10.0337 109.275 10.1213V10.1388L109.774 11.1625C109.807 11.2208 109.787 11.25 109.715 11.25H109.436C109.364 11.25 109.318 11.2252 109.297 11.1756L108.816 10.1694H108.362C108.326 10.1694 108.308 10.184 108.308 10.2131V11.1756C108.308 11.2252 108.282 11.25 108.231 11.25ZM108.357 9.81937H108.928C109.15 9.81937 109.261 9.71292 109.261 9.5V9.1325C109.261 8.91667 109.15 8.80875 108.928 8.80875H108.357C108.324 8.80875 108.308 8.82333 108.308 8.8525V9.77562C108.308 9.80479 108.324 9.81937 108.357 9.81937Z" fill="#B3333A" fill-opacity="0.8"/>
<path fill-rule="evenodd" clip-rule="evenodd" d="M111.483 11.25H110.961C110.739 11.25 110.567 11.1902 110.444 11.0706C110.324 10.951 110.264 10.7848 110.264 10.5719V9.115C110.264 8.89917 110.324 8.73292 110.444 8.61625C110.567 8.49667 110.739 8.43687 110.961 8.43687H111.483C111.705 8.43687 111.877 8.49667 112 8.61625C112.123 8.73292 112.184 8.89917 112.184 9.115V10.5719C112.184 10.7848 112.123 10.951 112 11.0706C111.877 11.1902 111.705 11.25 111.483 11.25ZM111.024 10.8781H111.415C111.634 10.8781 111.744 10.7702 111.744 10.5544V9.1325C111.744 8.91667 111.634 8.80875 111.415 8.80875H111.024C110.808 8.80875 110.7 8.91667 110.7 9.1325V10.5544C110.7 10.7702 110.808 10.8781 111.024 10.8781Z" fill="#B3333A" fill-opacity="0.8"/>
<path d="M113.924 11.25H113.443C113.221 11.25 113.048 11.1902 112.925 11.0706C112.806 10.951 112.746 10.7848 112.746 10.5719V9.115C112.746 8.89917 112.806 8.73292 112.925 8.61625C113.048 8.49667 113.221 8.43687 113.443 8.43687H113.924C114.146 8.43687 114.317 8.49667 114.437 8.61625C114.56 8.73292 114.621 8.89917 114.621 9.115V9.2725C114.621 9.325 114.596 9.35125 114.545 9.35125H114.261C114.21 9.35125 114.185 9.325 114.185 9.2725V9.1325C114.185 8.91667 114.077 8.80875 113.861 8.80875H113.506C113.29 8.80875 113.182 8.91667 113.182 9.1325V10.5544C113.182 10.7702 113.29 10.8781 113.506 10.8781H113.861C114.077 10.8781 114.185 10.7702 114.185 10.5544V10.1606C114.185 10.1315 114.168 10.1169 114.135 10.1169H113.771C113.72 10.1169 113.695 10.0921 113.695 10.0425V9.81937C113.695 9.76979 113.72 9.745 113.771 9.745H114.527C114.59 9.745 114.621 9.77562 114.621 9.83688V10.5719C114.621 10.7848 114.56 10.951 114.437 11.0706C114.314 11.1902 114.143 11.25 113.924 11.25Z" fill="#B3333A" fill-opacity="0.8"/>
<path fill-rule="evenodd" clip-rule="evenodd" d="M115.592 11.25H115.309C115.258 11.25 115.233 11.2252 115.233 11.1756V8.51125C115.233 8.46167 115.258 8.43687 115.309 8.43687H116.361C116.58 8.43687 116.751 8.49813 116.874 8.62063C117 8.74021 117.063 8.90646 117.063 9.11937V9.48687C117.063 9.82229 116.921 10.0337 116.636 10.1213V10.1388L117.135 11.1625C117.168 11.2208 117.149 11.25 117.077 11.25H116.798C116.726 11.25 116.679 11.2252 116.658 11.1756L116.177 10.1694H115.723C115.687 10.1694 115.669 10.184 115.669 10.2131V11.1756C115.669 11.2252 115.643 11.25 115.592 11.25ZM115.718 9.81937H116.29C116.511 9.81937 116.622 9.71292 116.622 9.5V9.1325C116.622 8.91667 116.511 8.80875 116.29 8.80875H115.718C115.685 8.80875 115.669 8.82333 115.669 8.8525V9.77562C115.669 9.80479 115.685 9.81937 115.718 9.81937Z" fill="#B3333A" fill-opacity="0.8"/>
<path fill-rule="evenodd" clip-rule="evenodd" d="M117.828 11.25H117.504C117.462 11.25 117.447 11.2252 117.459 11.1756L118.241 8.51125C118.256 8.46167 118.292 8.43687 118.349 8.43687H118.799C118.859 8.43687 118.895 8.46167 118.907 8.51125L119.69 11.1756C119.702 11.2252 119.685 11.25 119.64 11.25H119.321C119.294 11.25 119.274 11.2456 119.262 11.2369C119.253 11.2252 119.246 11.2048 119.24 11.1756L119.069 10.6069H118.08L117.909 11.1756C117.897 11.2252 117.87 11.25 117.828 11.25ZM118.565 8.85687L118.169 10.2569H118.984L118.583 8.85687H118.565Z" fill="#B3333A" fill-opacity="0.8"/>
<path d="M122.113 8.43687H122.617C122.668 8.43687 122.693 8.46167 122.693 8.51125V11.1756C122.693 11.2252 122.668 11.25 122.617 11.25H122.338C122.287 11.25 122.262 11.2252 122.262 11.1756V8.96625H122.244L121.659 10.5675C121.641 10.6142 121.608 10.6375 121.56 10.6375H121.272C121.227 10.6375 121.196 10.6142 121.178 10.5675L120.579 8.96187H120.562V11.1756C120.562 11.2048 120.556 11.2252 120.544 11.2369C120.535 11.2456 120.515 11.25 120.485 11.25H120.211C120.16 11.25 120.134 11.2252 120.134 11.1756V8.51125C120.134 8.46167 120.16 8.43687 120.211 8.43687H120.714C120.747 8.43687 120.771 8.45292 120.786 8.485L121.403 10.1737H121.425L122.046 8.485C122.052 8.45292 122.074 8.43687 122.113 8.43687Z" fill="#B3333A" fill-opacity="0.8"/>
<path d="M4.9724 8.125H4.52714C4.44233 8.125 4.39992 8.08604 4.39992 8.00812V4.3575C4.39992 4.31167 4.37636 4.28875 4.32925 4.28875H3.43872C3.35391 4.28875 3.31151 4.24979 3.31151 4.17187V3.82125C3.31151 3.74333 3.35391 3.70438 3.43872 3.70438H6.06082C6.14563 3.70438 6.18803 3.74333 6.18803 3.82125V4.17187C6.18803 4.24979 6.14563 4.28875 6.06082 4.28875H5.17029C5.11847 4.28875 5.09255 4.31167 5.09255 4.3575V8.00812C5.09255 8.08604 5.0525 8.125 4.9724 8.125Z" fill="#B3333A" fill-opacity="0.8"/>
<path fill-rule="evenodd" clip-rule="evenodd" d="M7.04035 8.125H6.53148C6.46551 8.125 6.44195 8.08604 6.4608 8.00812L7.69057 3.82125C7.71413 3.74333 7.77067 3.70438 7.86019 3.70438H8.56696C8.66119 3.70438 8.71773 3.74333 8.73658 3.82125L9.96635 8.00812C9.98519 8.08604 9.95928 8.125 9.8886 8.125H9.3868C9.34439 8.125 9.31377 8.11813 9.29492 8.10438C9.28079 8.08604 9.26901 8.05396 9.25958 8.00812L8.99101 7.11438H7.43613L7.16756 8.00812C7.14872 8.08604 7.10631 8.125 7.04035 8.125ZM8.19944 4.36437L7.57749 6.56438H8.85673L8.22771 4.36437H8.19944Z" fill="#B3333A" fill-opacity="0.8"/>
<path d="M10.5802 7.0525V6.87375C10.5802 6.79583 10.6202 6.75687 10.7003 6.75687H11.1527C11.2328 6.75687 11.2728 6.79583 11.2728 6.87375V6.9975C11.2728 7.19 11.3152 7.32979 11.4 7.41687C11.4896 7.49937 11.6356 7.54062 11.8382 7.54062H12.3259C12.5285 7.54062 12.6746 7.49708 12.7641 7.41C12.8536 7.31833 12.8984 7.17167 12.8984 6.97V6.81188C12.8984 6.66521 12.8395 6.55062 12.7217 6.46812C12.6086 6.38104 12.4672 6.32604 12.2976 6.30313C12.128 6.27562 11.9419 6.23896 11.7393 6.19312C11.5367 6.14729 11.3506 6.09458 11.1809 6.035C11.0113 5.97542 10.8676 5.86312 10.7498 5.69812C10.6367 5.53312 10.5802 5.32229 10.5802 5.06562V4.77687C10.5802 4.44229 10.6768 4.18104 10.87 3.99312C11.0678 3.80062 11.3388 3.70438 11.6827 3.70438H12.4319C12.7806 3.70438 13.0515 3.80062 13.2447 3.99312C13.4426 4.18104 13.5415 4.44229 13.5415 4.77687V4.92812C13.5415 5.00604 13.5015 5.045 13.4214 5.045H12.969C12.8889 5.045 12.8489 5.00604 12.8489 4.92812V4.83875C12.8489 4.64167 12.8041 4.50187 12.7146 4.41937C12.6298 4.33229 12.4861 4.28875 12.2835 4.28875H11.8382C11.6356 4.28875 11.4896 4.33458 11.4 4.42625C11.3152 4.51333 11.2728 4.66458 11.2728 4.88V5.09313C11.2728 5.29938 11.4259 5.43917 11.7322 5.5125C11.8688 5.54458 12.0173 5.57208 12.1775 5.595C12.3424 5.61792 12.5073 5.65229 12.6722 5.69812C12.8371 5.74396 12.9879 5.80583 13.1245 5.88375C13.2612 5.95708 13.3719 6.07167 13.4567 6.2275C13.5415 6.37875 13.5839 6.56438 13.5839 6.78437V7.0525C13.5839 7.38708 13.485 7.65063 13.2871 7.84312C13.0939 8.03104 12.8253 8.125 12.4814 8.125H11.6898C11.3458 8.125 11.0749 8.03104 10.877 7.84312C10.6791 7.65063 10.5802 7.38708 10.5802 7.0525Z" fill="#B3333A" fill-opacity="0.8"/>
<path d="M15.1024 8.125H14.6572C14.5771 8.125 14.537 8.08604 14.537 8.00812V3.82125C14.537 3.74333 14.5771 3.70438 14.6572 3.70438H15.1024C15.1825 3.70438 15.2226 3.74333 15.2226 3.82125V6.00062H15.2438C15.2909 5.87687 15.3521 5.76229 15.4275 5.65687L16.7774 3.82125C16.8293 3.74333 16.9047 3.70438 17.0036 3.70438H17.5266C17.6256 3.70438 17.6421 3.74792 17.5761 3.835L16.1979 5.65687L17.7528 7.9875C17.8093 8.07917 17.7811 8.125 17.668 8.125H17.2722C17.145 8.125 17.0554 8.08604 17.0036 8.00812L15.7809 6.145L15.2226 6.78437V8.00812C15.2226 8.08604 15.1825 8.125 15.1024 8.125Z" fill="#B3333A" fill-opacity="0.8"/>
<path d="M20.4021 8.86063H18.0132C17.9331 8.86063 17.8931 8.81938 17.8931 8.73688V8.5925C17.8931 8.51458 17.9331 8.47562 18.0132 8.47562H20.4021C20.4822 8.47562 20.5222 8.51458 20.5222 8.5925V8.73688C20.5222 8.81938 20.4822 8.86063 20.4021 8.86063Z" fill="#B3333A" fill-opacity="0.8"/>
<path d="M24.1484 3.70438H24.94C25.0201 3.70438 25.0602 3.74333 25.0602 3.82125V8.00812C25.0602 8.08604 25.0201 8.125 24.94 8.125H24.5018C24.4217 8.125 24.3817 8.08604 24.3817 8.00812V4.53625H24.3534L23.4346 7.0525C23.4063 7.12583 23.3545 7.1625 23.2791 7.1625H22.8268C22.7561 7.1625 22.7066 7.12583 22.6784 7.0525L21.7384 4.52937H21.7101V8.00812C21.7101 8.05396 21.7007 8.08604 21.6818 8.10438C21.6677 8.11813 21.6371 8.125 21.59 8.125H21.1588C21.0787 8.125 21.0387 8.08604 21.0387 8.00812V3.82125C21.0387 3.74333 21.0787 3.70438 21.1588 3.70438H21.9504C22.0022 3.70438 22.0399 3.72958 22.0635 3.78L23.0317 6.43375H23.0671L24.0424 3.78C24.0518 3.72958 24.0872 3.70438 24.1484 3.70438Z" fill="#B3333A" fill-opacity="0.8"/>
<path fill-rule="evenodd" clip-rule="evenodd" d="M26.3383 8.125H25.8294C25.7635 8.125 25.7399 8.08604 25.7588 8.00812L26.9885 3.82125C27.0121 3.74333 27.0686 3.70438 27.1581 3.70438H27.8649C27.9591 3.70438 28.0157 3.74333 28.0345 3.82125L29.2643 8.00812C29.2831 8.08604 29.2572 8.125 29.1866 8.125H28.6848C28.6423 8.125 28.6117 8.11813 28.5929 8.10438C28.5787 8.08604 28.567 8.05396 28.5575 8.00812L28.289 7.11438H26.7341L26.4655 8.00812C26.4467 8.08604 26.4043 8.125 26.3383 8.125ZM27.4974 4.36437L26.8754 6.56438H28.1547L27.5257 4.36437H27.4974Z" fill="#B3333A" fill-opacity="0.8"/>
<path d="M30.5213 8.125H30.0831C30.003 8.125 29.9629 8.08604 29.9629 8.00812V3.82125C29.9629 3.74333 30.003 3.70438 30.0831 3.70438H30.4789C30.5543 3.70438 30.6061 3.72958 30.6344 3.78L32.3447 6.77063H32.373V3.82125C32.373 3.74333 32.4131 3.70438 32.4932 3.70438H32.9313C33.0115 3.70438 33.0515 3.74333 33.0515 3.82125V8.00812C33.0515 8.08604 33.0115 8.125 32.9313 8.125H32.5497C32.4743 8.125 32.4131 8.08833 32.3659 8.015L30.6697 5.05875H30.6414V8.00812C30.6414 8.08604 30.6014 8.125 30.5213 8.125Z" fill="#B3333A" fill-opacity="0.8"/>
<path fill-rule="evenodd" clip-rule="evenodd" d="M34.3308 8.125H33.8219C33.756 8.125 33.7324 8.08604 33.7512 8.00812L34.981 3.82125C35.0046 3.74333 35.0611 3.70438 35.1506 3.70438H35.8574C35.9516 3.70438 36.0082 3.74333 36.027 3.82125L37.2568 8.00812C37.2756 8.08604 37.2497 8.125 37.1791 8.125H36.6773C36.6348 8.125 36.6042 8.11813 36.5854 8.10438C36.5712 8.08604 36.5595 8.05396 36.55 8.00812L36.2815 7.11438H34.7266L34.458 8.00812C34.4392 8.08604 34.3968 8.125 34.3308 8.125ZM35.4899 4.36437L34.8679 6.56438H36.1472L35.5182 4.36437H35.4899Z" fill="#B3333A" fill-opacity="0.8"/>
<path d="M39.7365 8.125H38.9802C38.6316 8.125 38.3607 8.03104 38.1675 7.84312C37.979 7.65521 37.8848 7.39396 37.8848 7.05938V4.77C37.8848 4.43083 37.979 4.16958 38.1675 3.98625C38.3607 3.79833 38.6316 3.70438 38.9802 3.70438H39.7365C40.0852 3.70438 40.3537 3.79833 40.5422 3.98625C40.7354 4.16958 40.832 4.43083 40.832 4.77V5.0175C40.832 5.1 40.7919 5.14125 40.7118 5.14125H40.2666C40.1865 5.14125 40.1464 5.1 40.1464 5.0175V4.7975C40.1464 4.45833 39.9768 4.28875 39.6375 4.28875H39.0792C38.7399 4.28875 38.5703 4.45833 38.5703 4.7975V7.03187C38.5703 7.37104 38.7399 7.54062 39.0792 7.54062H39.6375C39.9768 7.54062 40.1464 7.37104 40.1464 7.03187V6.41312C40.1464 6.36729 40.1205 6.34438 40.0687 6.34438H39.4962C39.4161 6.34438 39.376 6.30542 39.376 6.2275V5.87687C39.376 5.79896 39.4161 5.76 39.4962 5.76H40.6835C40.7825 5.76 40.832 5.80813 40.832 5.90437V7.05938C40.832 7.39396 40.7354 7.65521 40.5422 7.84312C40.349 8.03104 40.0804 8.125 39.7365 8.125Z" fill="#B3333A" fill-opacity="0.8"/>
<path d="M44.1747 8.125H41.9131C41.833 8.125 41.7929 8.08604 41.7929 8.00812V3.82125C41.7929 3.74333 41.833 3.70438 41.9131 3.70438H44.1747C44.2501 3.70438 44.2878 3.74333 44.2878 3.82125V4.17187C44.2878 4.24979 44.2501 4.28875 44.1747 4.28875H42.5633C42.5068 4.28875 42.4785 4.31167 42.4785 4.3575V5.51938C42.4785 5.56521 42.5068 5.58812 42.5633 5.58812H43.9274C44.0122 5.58812 44.0546 5.62708 44.0546 5.705V6.05563C44.0546 6.13354 44.0122 6.1725 43.9274 6.1725H42.5633C42.5068 6.1725 42.4785 6.19542 42.4785 6.24125V7.465C42.4785 7.51542 42.5068 7.54062 42.5633 7.54062H44.1747C44.2501 7.54062 44.2878 7.57958 44.2878 7.6575V8.00812C44.2878 8.08604 44.2501 8.125 44.1747 8.125Z" fill="#B3333A" fill-opacity="0.8"/>
<path fill-rule="evenodd" clip-rule="evenodd" d="M45.7541 8.125H45.3089C45.2288 8.125 45.1887 8.08604 45.1887 8.00812V3.82125C45.1887 3.74333 45.2288 3.70438 45.3089 3.70438H46.9627C47.3067 3.70438 47.5752 3.80062 47.7684 3.99312C47.9663 4.18104 48.0652 4.44229 48.0652 4.77687V5.35437C48.0652 5.88146 47.8414 6.21375 47.3938 6.35125V6.37875L48.1783 7.9875C48.2302 8.07917 48.1995 8.125 48.0865 8.125H47.6483C47.5352 8.125 47.4621 8.08604 47.4292 8.00812L46.6729 6.42687H45.9591C45.9026 6.42687 45.8743 6.44979 45.8743 6.49562V8.00812C45.8743 8.08604 45.8342 8.125 45.7541 8.125ZM45.952 5.87687H46.8496C47.1983 5.87687 47.3726 5.70958 47.3726 5.375V4.7975C47.3726 4.45833 47.1983 4.28875 46.8496 4.28875H45.952C45.9002 4.28875 45.8743 4.31167 45.8743 4.3575V5.80813C45.8743 5.85396 45.9002 5.87687 45.952 5.87687Z" fill="#B3333A" fill-opacity="0.8"/>
<path d="M51.0124 8.86063H48.6235C48.5434 8.86063 48.5034 8.81938 48.5034 8.73688V8.5925C48.5034 8.51458 48.5434 8.47562 48.6235 8.47562H51.0124C51.0925 8.47562 51.1325 8.51458 51.1325 8.5925V8.73688C51.1325 8.81938 51.0925 8.86063 51.0124 8.86063Z" fill="#B3333A" fill-opacity="0.8"/>
<path d="M51.5642 7.0525V6.87375C51.5642 6.79583 51.6042 6.75687 51.6843 6.75687H52.1366C52.2167 6.75687 52.2568 6.79583 52.2568 6.87375V6.9975C52.2568 7.19 52.2992 7.32979 52.384 7.41687C52.4735 7.49937 52.6196 7.54062 52.8222 7.54062H53.3099C53.5125 7.54062 53.6585 7.49708 53.7481 7.41C53.8376 7.31833 53.8824 7.17167 53.8824 6.97V6.81188C53.8824 6.66521 53.8235 6.55062 53.7057 6.46812C53.5926 6.38104 53.4512 6.32604 53.2816 6.30313C53.112 6.27562 52.9259 6.23896 52.7233 6.19312C52.5207 6.14729 52.3345 6.09458 52.1649 6.035C51.9953 5.97542 51.8516 5.86312 51.7338 5.69812C51.6207 5.53312 51.5642 5.32229 51.5642 5.06562V4.77687C51.5642 4.44229 51.6608 4.18104 51.8539 3.99312C52.0518 3.80062 52.3228 3.70438 52.6667 3.70438H53.4159C53.7646 3.70438 54.0355 3.80062 54.2287 3.99312C54.4266 4.18104 54.5255 4.44229 54.5255 4.77687V4.92812C54.5255 5.00604 54.4855 5.045 54.4054 5.045H53.953C53.8729 5.045 53.8329 5.00604 53.8329 4.92812V4.83875C53.8329 4.64167 53.7881 4.50187 53.6986 4.41937C53.6138 4.33229 53.4701 4.28875 53.2675 4.28875H52.8222C52.6196 4.28875 52.4735 4.33458 52.384 4.42625C52.2992 4.51333 52.2568 4.66458 52.2568 4.88V5.09313C52.2568 5.29938 52.4099 5.43917 52.7162 5.5125C52.8528 5.54458 53.0013 5.57208 53.1615 5.595C53.3264 5.61792 53.4913 5.65229 53.6562 5.69812C53.8211 5.74396 53.9719 5.80583 54.1085 5.88375C54.2452 5.95708 54.3559 6.07167 54.4407 6.2275C54.5255 6.37875 54.5679 6.56438 54.5679 6.78437V7.0525C54.5679 7.38708 54.469 7.65063 54.2711 7.84312C54.0779 8.03104 53.8093 8.125 53.4654 8.125H52.6738C52.3298 8.125 52.0589 8.03104 51.861 7.84312C51.6631 7.65063 51.5642 7.38708 51.5642 7.0525Z" fill="#B3333A" fill-opacity="0.8"/>
<path fill-rule="evenodd" clip-rule="evenodd" d="M55.521 8.00812V3.82125C55.521 3.74333 55.561 3.70438 55.6411 3.70438H57.3798C57.7237 3.70438 57.9923 3.79833 58.1855 3.98625C58.3834 4.16958 58.4823 4.43083 58.4823 4.77V7.05938C58.4823 7.39396 58.3834 7.65521 58.1855 7.84312C57.9923 8.03104 57.7237 8.125 57.3798 8.125H55.6411C55.561 8.125 55.521 8.08604 55.521 8.00812ZM56.2843 7.54062H57.2808C57.6201 7.54062 57.7897 7.37104 57.7897 7.03187V4.7975C57.7897 4.45833 57.6201 4.28875 57.2808 4.28875H56.2843C56.2325 4.28875 56.2066 4.31167 56.2066 4.3575V7.465C56.2066 7.51542 56.2325 7.54062 56.2843 7.54062Z" fill="#B3333A" fill-opacity="0.8"/>
<path d="M59.1233 4.78375V4.37812C59.1233 4.30479 59.1563 4.24979 59.2222 4.21313L59.9573 3.78C60.0468 3.72958 60.1222 3.70438 60.1834 3.70438H60.6075C60.6876 3.70438 60.7276 3.74333 60.7276 3.82125V8.00812C60.7276 8.08604 60.6899 8.125 60.6145 8.125H60.1552C60.0751 8.125 60.035 8.08604 60.035 8.00812V4.41937L59.2646 4.8525C59.1704 4.89375 59.1233 4.87083 59.1233 4.78375Z" fill="#B3333A" fill-opacity="0.8"/>
<path d="M61.4354 4.78375V4.37812C61.4354 4.30479 61.4684 4.24979 61.5344 4.21313L62.2694 3.78C62.3589 3.72958 62.4343 3.70438 62.4956 3.70438H62.9196C62.9997 3.70438 63.0398 3.74333 63.0398 3.82125V8.00812C63.0398 8.08604 63.0021 8.125 62.9267 8.125H62.4673C62.3872 8.125 62.3472 8.08604 62.3472 8.00812V4.41937L61.5768 4.8525C61.4826 4.89375 61.4354 4.87083 61.4354 4.78375Z" fill="#B3333A" fill-opacity="0.8"/>
<path d="M63.9808 7.0525V6.87375C63.9808 6.79583 64.0209 6.75687 64.101 6.75687H64.5533C64.6334 6.75687 64.6735 6.79583 64.6735 6.87375V6.9975C64.6735 7.19 64.7159 7.32979 64.8007 7.41687C64.8902 7.49937 65.0363 7.54062 65.2389 7.54062H65.7265C65.9292 7.54062 66.0752 7.49708 66.1647 7.41C66.2543 7.31833 66.299 7.17167 66.299 6.97V6.81188C66.299 6.66521 66.2401 6.55062 66.1223 6.46812C66.0093 6.38104 65.8679 6.32604 65.6983 6.30313C65.5287 6.27562 65.3425 6.23896 65.1399 6.19312C64.9373 6.14729 64.7512 6.09458 64.5816 6.035C64.412 5.97542 64.2683 5.86312 64.1505 5.69812C64.0374 5.53312 63.9808 5.32229 63.9808 5.06562V4.77687C63.9808 4.44229 64.0774 4.18104 64.2706 3.99312C64.4685 3.80062 64.7394 3.70438 65.0834 3.70438H65.8326C66.1812 3.70438 66.4522 3.80062 66.6453 3.99312C66.8432 4.18104 66.9422 4.44229 66.9422 4.77687V4.92812C66.9422 5.00604 66.9021 5.045 66.822 5.045H66.3697C66.2896 5.045 66.2496 5.00604 66.2496 4.92812V4.83875C66.2496 4.64167 66.2048 4.50187 66.1153 4.41937C66.0305 4.33229 65.8867 4.28875 65.6841 4.28875H65.2389C65.0363 4.28875 64.8902 4.33458 64.8007 4.42625C64.7159 4.51333 64.6735 4.66458 64.6735 4.88V5.09313C64.6735 5.29938 64.8266 5.43917 65.1329 5.5125C65.2695 5.54458 65.4179 5.57208 65.5781 5.595C65.743 5.61792 65.9079 5.65229 66.0729 5.69812C66.2378 5.74396 66.3885 5.80583 66.5252 5.88375C66.6618 5.95708 66.7726 6.07167 66.8574 6.2275C66.9422 6.37875 66.9846 6.56438 66.9846 6.78437V7.0525C66.9846 7.38708 66.8856 7.65063 66.6877 7.84312C66.4946 8.03104 66.226 8.125 65.882 8.125H65.0905C64.7465 8.125 64.4756 8.03104 64.2777 7.84312C64.0798 7.65063 63.9808 7.38708 63.9808 7.0525Z" fill="#B3333A" fill-opacity="0.8"/>
<path fill-rule="evenodd" clip-rule="evenodd" d="M0 0V15H133V0H0ZM131.715 1.25H84.1691V13.75H131.715V1.25ZM1.28502 1.25H82.8841V13.75H1.28502V1.25Z" fill="#B3333A" fill-opacity="0.8"/>
</svg>
