<svg width="20" height="20" viewBox="0 0 20 20" fill="none" xmlns="http://www.w3.org/2000/svg">
<path d="M9.39865 3.20377H10.6376V8.15975H11.8766L11.2571 13.1157L10.6376 16.2132H9.39865L8.77916 13.1157L8.15966 8.15975H9.39865V3.20377Z" fill="#49BFC7"/>
<path d="M12.3147 5.06222L11.8766 5.50027L13.6288 7.25243L13.1906 7.69059L15.2967 9.35855L16.6951 10.3189L17.1332 9.88077L17.1326 9.88017L16.1728 8.48245L14.5048 6.37643L14.0669 6.81438L12.3147 5.06222Z" fill="#49BFC7"/>
<path d="M7.84084 5.06226L8.27889 5.50031L6.52672 7.25248L6.96497 7.69073L4.85896 9.35869L3.46057 10.319L3.02228 9.88082L3.02338 9.87971L3.98286 8.48259L5.65082 6.37658L6.08867 6.81443L7.84084 5.06226Z" fill="#49BFC7"/>
<path fill-rule="evenodd" clip-rule="evenodd" d="M10.8761 0.362893C10.3922 -0.120964 9.60776 -0.120964 9.1239 0.362893L0.362893 9.1239C-0.120964 9.60776 -0.120965 10.3922 0.362892 10.8761L9.1239 19.6371C9.60776 20.121 10.3922 20.121 10.8761 19.6371L19.6371 10.8761C20.121 10.3922 20.121 9.60776 19.6371 9.1239L10.8761 0.362893ZM18.761 10L10 1.23899L1.23899 10L10 18.761L18.761 10Z" fill="#49BFC7"/>
</svg>
