<svg width="20" height="20" viewBox="0 0 20 20" fill="none" xmlns="http://www.w3.org/2000/svg">
<path d="M19.1146 10.3536L19.4681 10L19.1146 9.64645L10.3536 0.88544L10 0.531887L9.64645 0.88544L0.88544 9.64645L0.531886 10L0.88544 10.3536L9.64645 19.1146L10 19.4681L10.3536 19.1146L19.1146 10.3536ZM10.6376 4.56226H10.1376V5.06226V16.9522H9.89865V5.06226V4.56226H9.39865H9.27916V3.70377H10.7571V4.56226H10.6376ZM15.7131 8.65975V11.3767H15.4741V8.65975H15.7131ZM13.8546 6.80126V13.2352H13.6156V6.80126H13.8546ZM9.47745 0.716446C9.76605 0.427851 10.234 0.427851 10.5225 0.716446L19.2836 9.47745C19.5721 9.76605 19.5721 10.234 19.2836 10.5225L10.5225 19.2836C10.234 19.5721 9.76605 19.5721 9.47745 19.2836L0.716446 10.5225C0.427851 10.234 0.427851 9.76605 0.716446 9.47745L9.47745 0.716446ZM8.04016 14.4742V6.18176H8.27916V14.4742H8.04016ZM11.7571 6.18176H11.9961V14.4742H11.7571V6.18176ZM6.18167 13.2352V6.80126H6.42067V13.2352H6.18167ZM4.32318 11.3767V8.65975H4.56218V11.3767H4.32318Z" fill="#D84048" stroke="#D84048"/>
</svg>
